<svg width="168" height="168" viewBox="0 0 168 168" fill="none" xmlns="http://www.w3.org/2000/svg">
<g clip-path="url(#clip0_9063_15817)">
<g clip-path="url(#clip1_9063_15817)">
<mask id="mask0_9063_15817" style="mask-type:luminance" maskUnits="userSpaceOnUse" x="-9" y="-9" width="185" height="185">
<path d="M175.93 10.9072L10.957 -8.1438L-8.09396 156.829L156.879 175.88L175.93 10.9072Z" fill="white"/>
</mask>
<g mask="url(#mask0_9063_15817)">
<path d="M74.4508 165.857C119.731 171.085 160.678 138.616 165.907 93.3363C171.136 48.0564 138.667 7.10906 93.3866 1.88017C48.1067 -3.34872 7.15939 29.1205 1.9305 74.4004C-3.29839 119.68 29.1709 160.628 74.4508 165.857Z" fill="#FFAA85"/>
<path d="M74.3927 166.355C28.9092 161.103 -3.82086 119.826 1.43154 74.3428C6.68394 28.8593 47.9602 -3.8707 93.4436 1.38169C138.927 6.63409 171.657 47.9103 166.405 93.3938C161.152 138.877 119.876 171.607 74.3927 166.355ZM93.3289 2.37504C48.393 -2.81412 7.61405 29.5216 2.42489 74.4575C-2.76428 119.393 29.5715 160.172 74.5074 165.362C119.443 170.551 160.222 138.215 165.411 93.2791C170.601 48.3432 138.265 7.56421 93.3289 2.37504Z" fill="#122315"/>
<path d="M27.4314 136.607C56.5596 167.799 105.461 169.477 136.654 140.349C167.847 111.221 169.524 62.3223 140.396 31.126C111.272 -0.0662653 62.3693 -1.74043 31.1735 27.3839C-0.0192314 56.5122 -1.6934 105.414 27.4314 136.607Z" fill="#122315"/>
<path d="M84.6043 15.1754L86.4808 15.0969L84.7914 23.1965L82.858 23.2755L81.5431 17.9982L80.649 23.369L78.7016 23.4465L76.37 15.5157L78.225 15.4382L79.62 20.9453L80.5365 15.3495L82.3021 15.2759L83.6831 20.7814L84.5996 15.1856L84.6074 15.1794L84.6043 15.1754Z" fill="#EFE9E0"/>
<path d="M87.3346 19.1895C87.6119 16.7886 89.5882 15.2598 92.0246 15.5376C94.4711 15.8201 96.0407 17.7513 95.7666 20.1561C95.4893 22.557 93.5271 24.0875 91.0766 23.8081C88.6367 23.5299 87.0605 21.5943 87.3346 19.1895ZM93.9059 19.9448C94.0676 18.5443 93.191 17.4187 91.826 17.2575C90.4711 17.101 89.3606 18.0007 89.2024 19.4016C89.0406 20.8022 89.9172 21.9278 91.2721 22.0842C92.6411 22.2423 93.7445 21.3418 93.9063 19.9413L93.9059 19.9448Z" fill="#EFE9E0"/>
<path d="M101.902 25.8519L100.102 25.395C100.523 23.8715 99.9409 22.6305 98.6866 22.2189L98.0115 24.8619L96.256 24.4173L98.235 16.6429L100.747 17.2815C102.402 17.7039 103.244 18.9429 102.87 20.4326C102.621 21.4106 101.951 22.009 101.021 22.115C101.981 22.9514 102.326 24.2788 101.905 25.8558L101.902 25.8519ZM99.6115 18.5838L99.059 20.7502L99.5458 20.8775C100.289 21.063 100.875 20.7643 101.043 20.1079C101.213 19.441 100.831 18.8954 100.078 18.7017L99.6115 18.5838Z" fill="#EFE9E0"/>
<path d="M107.537 23.1662C109.037 24.314 109.406 26.1386 108.519 28.3125L106.795 27.6546C107.543 25.8594 107.187 24.5023 105.758 23.761L104.591 26.8097L102.902 26.1629L105.762 18.6716L107.452 19.3184L106.412 22.0368L109.516 20.1081L111.431 20.8379L107.534 23.1658L107.537 23.1662Z" fill="#EFE9E0"/>
<path d="M119.287 26.7959L117.63 25.8647L114.496 31.4393L112.903 30.5475L116.036 24.9729L114.38 24.0418L115.177 22.6221L120.083 25.3798L119.286 26.7994L119.287 26.7959Z" fill="#EFE9E0"/>
<path d="M118.781 29.1988C120.205 27.2469 122.679 26.8924 124.657 28.3407C126.648 29.7942 127.055 32.2457 125.626 34.2042C124.202 36.1561 121.739 36.5119 119.751 35.0623C117.77 33.6135 117.353 31.1573 118.781 29.1988ZM124.122 33.0985C124.954 31.9568 124.75 30.5497 123.638 29.7383C122.536 28.9352 121.128 29.1711 120.3 30.3061C119.468 31.4478 119.672 32.8549 120.77 33.6612C121.882 34.4725 123.286 34.2362 124.122 33.0985Z" fill="#EFE9E0"/>
<path d="M129.557 37.0731L131.981 39.4302L129.37 42.1165C128.356 42.0563 127.404 41.6725 126.589 40.8812C124.804 39.1457 124.79 36.6826 126.465 34.9554C128.16 33.2162 130.634 33.2031 132.389 34.9139C132.846 35.3614 133.156 35.8205 133.306 36.3358L131.949 37.7335C131.852 37.0963 131.629 36.6009 131.206 36.1964C130.195 35.2154 128.801 35.2464 127.8 36.2727C126.791 37.3086 126.791 38.7242 127.788 39.7001C128.066 39.9741 128.387 40.1534 128.74 40.2689L129.649 39.3316L128.466 38.1778L129.555 37.0622L129.557 37.0731Z" fill="#EFE9E0"/>
<path d="M137.552 43.467L135.656 41.1282L134.471 42.0869L136.006 43.9821L134.77 44.9846L133.235 43.0894L131.956 44.1261L133.852 46.465L132.588 47.4893L129.55 43.738L135.781 38.6919L138.82 42.4396L137.553 43.4635L137.552 43.467Z" fill="#EFE9E0"/>
<path d="M141.493 49.2927L140.449 47.7032L135.104 51.2119L134.106 49.6881L139.451 46.1795L138.408 44.59L139.77 43.6945L142.859 48.3976L141.496 49.2931L141.493 49.2927Z" fill="#EFE9E0"/>
<path d="M145.758 53.8756L146.578 55.4891L139.422 59.123L138.601 57.5095L141.549 56.0145L140.294 53.5399L137.347 55.0349L136.527 53.4214L143.683 49.7875L144.504 51.401L141.753 52.7943L143.008 55.2689L145.758 53.8756Z" fill="#EFE9E0"/>
<path d="M147.608 62.7292L146.565 59.902L145.138 60.4308L145.983 62.7195L144.49 63.2691L143.644 60.9804L142.099 61.5489L143.142 64.3761L141.612 64.9392L139.94 60.4138L147.463 57.6333L149.135 62.1587L147.608 62.7222L147.608 62.7292Z" fill="#EFE9E0"/>
<path d="M143.442 71.8695L142.991 70.0711C144.533 69.7192 145.347 68.618 145.116 67.318L142.468 67.9797L142.027 66.225L149.81 64.2748L150.442 66.7877C150.855 68.4467 150.161 69.775 148.673 70.1475C147.692 70.3934 146.849 70.0827 146.318 69.3242C146.039 70.5654 145.031 71.5018 143.448 71.8739L143.442 71.8695ZM148.747 66.3999L146.582 66.9431L146.703 67.4337C146.888 68.1771 147.435 68.5498 148.087 68.3867C148.754 68.2218 149.054 67.6234 148.864 66.8687L148.747 66.4034L148.747 66.3999Z" fill="#EFE9E0"/>
<path d="M115.705 128.009C115.285 126.751 114.953 125.589 114.51 124.471C114.147 123.55 113.78 122.626 113.32 121.744C112.994 121.123 112.625 120.561 112.115 120.075C111.593 119.578 111.607 119.551 111.879 118.917C112.221 118.114 112.015 117.03 111.402 116.394C111.269 116.254 111.16 116.092 111.027 115.948C110.782 115.692 110.789 115.419 110.931 115.116C111.162 114.626 111.463 114.174 111.767 113.729C111.891 113.548 111.997 113.364 112.077 113.164C112.155 112.956 112.124 112.789 111.938 112.65C111.734 112.502 111.539 112.497 111.349 112.663C111.072 112.905 110.828 113.176 110.628 113.491C110.476 113.726 110.327 113.968 110.146 114.178C109.953 114.405 109.692 114.571 109.415 114.347C109.132 114.118 109.25 113.837 109.447 113.607C109.887 113.099 110.335 112.603 110.78 112.107C110.895 111.978 111.019 111.857 111.124 111.72C111.245 111.559 111.338 111.371 111.181 111.189C111.006 110.988 110.777 110.933 110.542 111.087C110.027 111.419 109.617 111.859 109.301 112.384C109.2 112.55 109.115 112.726 109.017 112.896C108.906 113.089 108.743 113.181 108.532 113.067C108.287 112.936 108.363 112.745 108.478 112.574C108.884 111.988 109.11 111.295 109.608 110.769C109.766 110.599 109.891 110.386 109.996 110.177C110.102 109.976 110.135 109.749 109.907 109.598C109.705 109.468 109.479 109.485 109.31 109.65C109.078 109.876 108.842 110.105 108.662 110.368C108.292 110.923 107.901 111.472 107.635 112.089C107.601 112.167 107.566 112.248 107.519 112.321C107.397 112.513 107.211 112.552 107.007 112.5C106.762 112.436 106.732 112.233 106.776 112.036C106.917 111.376 107.183 110.763 107.581 110.215C107.682 110.074 107.806 109.953 107.905 109.811C108.144 109.466 108.117 109.146 107.846 108.962C107.566 108.773 107.267 108.838 106.999 109.152C106.382 109.874 106.031 110.73 105.833 111.642C105.756 111.996 105.666 112.349 105.616 112.716C105.464 113.851 106.176 114.62 106.696 115.473C106.786 115.619 106.906 115.75 106.992 115.895C107.084 116.055 107.093 116.227 106.982 116.385C106.867 116.546 106.698 116.565 106.519 116.541C106.323 116.511 106.147 116.434 106.008 116.286C105.431 115.676 104.827 115.083 104.561 114.245C104.447 113.883 104.214 113.646 103.876 113.437C102.817 112.777 101.64 112.314 100.666 111.508C100.205 111.128 99.7551 110.741 99.2215 110.434C98.1701 109.836 97.0613 109.367 95.9992 108.799C94.7262 108.119 93.4106 107.529 92.1407 106.853C90.8915 106.182 89.6749 105.444 88.527 104.604C87.11 103.569 85.5305 102.831 83.9699 102.054C82.5441 101.341 81.1253 100.63 79.8732 99.6135C79.1414 99.0204 78.3005 98.5712 77.4364 98.1691C76.7175 97.8335 76.042 97.3998 75.3515 97.0035C75.1981 96.9147 75.0692 96.7682 75.0457 96.6018C74.9081 95.6683 74.3398 94.8913 74.1244 93.9843C74.0309 93.5929 74.0529 93.2789 74.2518 92.9426C74.5301 92.4732 74.8663 92.0568 75.2803 91.7062C75.5133 91.5055 75.7187 91.298 75.8179 90.9929C75.9397 90.6157 75.8722 90.4301 75.5422 90.239C75.232 90.0609 75.0474 90.2423 74.897 90.4668C74.542 90.9843 74.2073 91.5112 73.8558 92.029C73.6375 92.3488 73.3997 92.6521 72.9389 92.6381C72.8563 92.3369 72.9316 92.0859 73.0469 91.8573C73.4255 91.1043 73.7095 90.3084 74.1555 89.588C74.2341 89.4619 74.2901 89.3155 74.3208 89.1732C74.3682 88.9474 74.3219 88.7322 74.0929 88.6204C73.8706 88.513 73.7423 88.6689 73.5946 88.8083C73.1589 89.224 72.9599 89.7772 72.6943 90.2907C72.4971 90.6734 72.3031 91.0601 72.0892 91.4337C71.9956 91.5972 71.8699 91.7926 71.6323 91.694C71.3749 91.5824 71.4219 91.3602 71.4759 91.1388C71.7065 90.1589 72.1936 89.2974 72.6711 88.4278C72.734 88.3141 72.8172 88.2099 72.8594 88.0903C72.9622 87.7856 72.8919 87.5321 72.5807 87.393C72.2999 87.2681 72.0745 87.3416 71.9192 87.6082C71.5473 88.2411 71.2023 88.8877 70.9582 89.5852C70.8732 89.8279 70.8121 90.0805 70.7267 90.3267C70.6477 90.5488 70.5818 90.8115 70.2574 90.7562C69.954 90.7034 69.7032 90.3188 69.8056 90.0176C69.9759 89.5286 70.177 89.0503 70.3846 88.5764C70.5395 88.2208 70.6913 87.8613 70.8088 87.4907C70.9132 87.172 70.9276 86.8926 70.5659 86.7299C70.241 86.5857 69.978 86.6763 69.7669 87.0574C69.4393 87.6455 69.2851 88.3035 69.0525 88.9312C68.7221 89.8213 68.7274 90.761 68.7773 91.6844C68.8321 92.7187 69.4385 93.5356 69.9753 94.3695C70.1137 94.5882 70.2982 94.7767 70.4522 94.983C70.569 95.1423 70.6697 95.3175 70.533 95.5152C70.3964 95.7128 70.1913 95.7638 69.9628 95.741C69.7833 95.7238 69.6366 95.6393 69.4962 95.5306C69.1532 95.2669 68.8149 94.9931 68.6192 94.5935C68.3519 94.0433 67.9074 93.7038 67.3662 93.4315C66.0579 92.7789 64.7492 92.1298 63.4319 91.4939C62.256 90.9278 61.0585 90.3627 59.7813 90.0267C59.6363 89.9886 59.4878 89.9501 59.3539 89.8777C58.0244 89.1622 56.5949 88.6663 55.2363 88.0186C54.4205 87.6292 53.5992 87.2569 52.7597 86.9181C50.9664 86.1846 49.1762 85.455 47.3131 84.8948C46.4296 84.6292 45.4986 84.5288 44.6556 84.1291C44.4667 84.0397 44.2357 84.0379 44.0216 84.0132C43.2073 83.9191 42.4152 83.7245 41.6184 83.54C40.4092 83.2617 39.1742 82.991 37.9119 83.08C37.2234 83.1285 36.538 82.996 35.8462 83.0727C34.3116 83.2405 33.1162 83.9205 32.3327 85.2848C32.1723 85.565 32.1623 85.8057 32.3348 86.0675C32.5224 86.3524 32.7877 86.3653 33.0784 86.2814C33.3546 86.1995 33.6363 86.1929 33.9143 86.2499C34.5888 86.3847 35.288 86.3979 35.9512 86.599C36.6347 86.8095 37.339 86.9015 38.0481 86.9834C39.3082 87.1289 40.4243 87.7202 41.5868 88.1568C42.4493 88.4804 43.2798 88.8965 44.1348 89.2549C44.4366 89.3822 44.7087 89.5523 44.9712 89.7427C45.2439 89.9378 45.3661 90.2045 45.2605 90.5337C45.1497 90.8766 44.8964 91.0679 44.5421 91.0874C44.1697 91.1085 43.7962 91.0475 43.4707 90.8784C42.6554 90.4534 41.7369 90.3687 40.88 90.0883C40.3485 89.9167 39.8096 89.7478 39.2997 89.543C38.2593 89.1277 37.1818 88.9712 36.0859 88.8518C35.5695 88.7957 35.0582 88.726 34.5439 88.6524C34.0049 88.5759 33.4802 88.5616 32.9384 88.6946C32.3708 88.8354 31.774 88.7985 31.199 88.757C30.2113 88.6856 29.4808 87.8045 29.5488 86.7844C29.5913 86.1384 29.7942 85.5216 30.0107 84.9099C30.5827 83.2829 31.5777 81.8435 32.0979 80.2033C32.5627 78.7347 33.1891 77.3451 33.9643 76.0226C34.3008 75.4496 34.6976 74.9086 35.0477 74.3408C35.8269 73.0756 36.6012 71.7921 37.6029 70.6948C38.8813 69.2952 40.1548 67.8773 41.9012 67.0154C42.3427 66.7961 42.7564 66.5095 43.1649 66.2366C44.2207 65.5333 45.4044 65.4779 46.6119 65.3399C47.6246 65.2257 48.6355 65.5274 49.6352 65.248C49.8114 65.2008 50.0223 65.2536 50.2153 65.2759C51.2235 65.3852 52.2312 65.53 53.2395 65.6073C54.0294 65.6665 54.758 65.9178 55.4798 66.1968C56.4603 66.5768 57.4314 66.9771 58.3926 67.4011C59.0422 67.6895 59.6524 68.073 60.3087 68.3337C61.149 68.6655 61.9415 69.102 62.759 69.4774C63.5561 69.8434 64.3126 70.3149 65.0634 70.775C65.7078 71.1696 66.3582 71.5435 67.0617 71.8274C67.4255 71.9726 67.6684 72.303 68.0345 72.4591C69.3202 72.9988 70.6064 73.535 71.8681 74.1289C73.4471 74.8697 75.0065 75.658 76.5734 76.4116C78.3592 77.2723 80.0501 78.307 81.8379 79.1501C82.9543 79.6774 83.9679 80.3564 84.9983 81.0125C85.1474 81.108 85.2949 81.1855 85.4597 81.2365C85.8545 81.3603 86.2279 81.5457 86.548 81.7926C87.4561 82.4914 88.4436 83.0572 89.4169 83.6533C90.3338 84.2145 91.2059 84.8558 92.0968 85.4567C92.9022 85.9979 93.7485 86.4619 94.6026 86.9198C95.1118 87.192 95.5444 87.6048 96.0433 87.9043C97.3537 88.6923 98.7125 89.4005 99.9883 90.2414C101.076 90.9575 102.282 91.4204 103.403 92.0585C103.92 92.353 104.495 92.5474 105.004 92.8837C106.224 93.6896 107.491 94.4193 108.698 95.2451C109.637 95.8871 110.552 96.5618 111.504 97.1875C112.129 97.5976 112.658 98.1567 113.273 98.594C113.855 99.0062 114.408 99.4542 115.073 99.7302C115.819 100.041 116.364 100.651 117.025 101.087C117.868 101.643 118.782 102.104 119.499 102.831C120.661 104.011 122.037 104.966 123.046 106.306C123.32 106.672 123.565 107.042 123.658 107.505C123.698 107.712 123.787 107.921 123.902 108.098C124.442 108.965 124.748 109.893 124.718 110.917C124.699 111.548 124.794 112.171 124.901 112.781C125.138 114.117 125.095 115.449 124.896 116.771C124.7 118.071 124.522 119.392 124.146 120.643C123.77 121.898 123.469 123.179 122.941 124.395C122.708 124.934 122.551 125.531 122.36 126.1C122.159 126.706 121.813 127.267 121.499 127.832C120.848 129.002 120.134 130.132 119.278 131.168C118.993 131.512 118.83 131.941 118.429 132.211C117.865 132.591 117.331 132.54 117.025 131.925C116.745 131.363 116.28 130.982 115.888 130.527C115.738 130.35 115.543 130.185 115.308 130.13C114.338 129.904 113.624 129.188 112.742 128.787C112.539 128.696 112.395 128.466 112.244 128.289C111.605 127.539 110.717 127.099 109.983 126.466C109.636 126.17 109.29 125.878 109.082 125.459C108.845 124.983 109.042 124.636 109.564 124.608C109.915 124.588 110.24 124.668 110.53 124.901C111.035 125.304 111.564 125.678 112.069 126.081C112.483 126.41 112.965 126.604 113.446 126.788C114.161 127.059 114.813 127.419 115.397 127.91C115.439 127.947 115.509 127.951 115.695 128.008L115.705 128.009ZM53.8809 82.8149C53.5086 82.7434 53.1789 82.8263 52.9827 83.17C52.7736 83.5335 53.0367 83.7809 53.2549 84.0159C53.3559 84.1272 53.4847 84.2132 53.6065 84.2984C54.7952 85.1542 56.151 85.6415 57.5372 86.0506C57.9604 86.1741 58.2866 85.9984 58.4423 85.6358C58.6083 85.2459 58.5372 84.9069 58.1839 84.6705C57.1356 83.9839 56.0047 83.4585 54.8163 83.0616C54.5116 82.9588 54.1924 82.89 53.8817 82.8078L53.8809 82.8149ZM78.4401 95.0518C78.033 95.0047 77.6772 95.2518 77.4776 95.6556C77.3021 96.0052 77.4908 96.2191 77.7252 96.4382C78.1068 96.7988 78.5544 97.0497 79.0233 97.271C79.9135 97.6939 80.854 98.0195 81.6564 98.6173C81.8139 98.7315 81.9935 98.8091 82.1849 98.8455C82.6859 98.9424 82.8938 98.7744 82.9706 98.2639C83.0369 97.8128 82.773 97.5724 82.4535 97.3826C81.2232 96.6394 79.9813 95.9055 78.7424 95.1756C78.6326 95.1096 78.5079 95.0809 78.4401 95.0518ZM62.7061 86.4447C62.4323 86.4131 62.1956 86.368 61.9619 86.3588C61.5753 86.3497 61.3861 86.6018 61.2766 86.9341C61.1572 87.2903 61.3473 87.4616 61.6301 87.6614C62.7649 88.4612 64.1142 88.8197 65.3127 89.4988C65.76 89.7532 66.1398 89.5445 66.3218 89.0462C66.5428 88.4564 66.4077 88.0246 65.8686 87.7347C65.3193 87.4401 64.7656 87.1521 64.1915 86.9186C63.6987 86.7194 63.2425 86.3893 62.71 86.4416L62.7061 86.4447ZM36.1146 80.749C36.2898 80.7408 36.4567 80.7743 36.5903 80.7257C37.2879 80.4754 37.9906 80.5815 38.6973 80.6524C39.2352 80.7074 39.7717 80.7125 40.3039 80.6317C40.6838 80.5759 40.8608 80.3367 40.8753 79.9649C40.8894 79.5966 40.7269 79.3716 40.3186 79.3031C39.7462 79.2085 39.1681 79.1631 38.591 79.0787C37.9054 78.9782 37.2251 79.017 36.5373 79.0905C36.0981 79.1358 35.7636 79.3533 35.4775 79.6439C35.1549 79.973 35.2382 80.3917 35.6477 80.6026C35.7953 80.6801 35.9704 80.7039 36.115 80.7455L36.1146 80.749ZM102.131 110.03C102.438 110.084 102.74 110.054 102.93 109.767C103.138 109.449 102.919 109.186 102.751 108.946C102.58 108.702 102.343 108.508 102.084 108.343C101.229 107.806 100.373 107.273 99.5168 106.737C99.3475 106.632 99.1687 106.58 98.9768 106.547C98.6002 106.482 98.3528 106.653 98.1915 106.972C98.047 107.268 98.1458 107.521 98.3747 107.726C98.6814 107.996 98.9669 108.296 99.3286 108.49C100.069 108.882 100.794 109.289 101.465 109.797C101.661 109.944 101.881 110.012 102.131 110.037L102.131 110.03ZM48.2053 82.4049C48.2684 82.4122 48.3351 82.4199 48.3983 82.4272C48.7123 82.4492 49.116 82.5883 49.2406 82.1865C49.3474 81.8467 49.1213 81.5254 48.8618 81.2785C48.7848 81.2055 48.6796 81.1614 48.5854 81.1149C47.5314 80.602 46.4246 80.2679 45.2541 80.1469C44.9733 80.1145 44.6954 80.15 44.4208 80.2178C44.0692 80.3053 43.951 80.5584 43.92 80.8892C43.8905 81.2059 44.0646 81.3612 44.3338 81.4634C44.903 81.6785 45.4842 81.8203 46.0871 81.8971C46.4276 81.9364 46.7878 81.9282 47.0945 82.1059C47.4448 82.3064 47.8218 82.3677 48.2084 82.4088L48.2053 82.4049ZM94.528 105.77C95.0801 105.855 95.3515 105.723 95.5126 105.282C95.6729 104.849 95.3628 104.639 95.0705 104.459C94.4825 104.1 93.8842 103.768 93.2828 103.431C92.8519 103.19 92.3977 102.995 91.9124 102.885C91.4411 102.778 91.1116 102.921 90.946 103.307C90.7848 103.687 91.0861 103.85 91.3053 104.046C91.3986 104.131 91.5119 104.198 91.6251 104.264C92.3686 104.695 93.1128 105.119 93.8562 105.55C94.0664 105.67 94.2897 105.739 94.528 105.77ZM116.522 123.064C116.451 123.4 116.489 123.654 116.589 123.897C116.805 124.434 117.009 124.98 117.265 125.497C117.427 125.825 117.483 126.201 117.728 126.482C117.891 126.672 118.054 126.922 118.365 126.819C118.679 126.713 118.837 126.461 118.861 126.129C118.878 125.889 118.826 125.659 118.76 125.431C118.508 124.566 118.259 123.702 117.996 122.839C117.947 122.677 117.873 122.512 117.775 122.376C117.484 121.972 116.956 122.018 116.733 122.469C116.627 122.677 116.575 122.913 116.522 123.067L116.522 123.064ZM113.412 115.865C113.115 115.795 112.886 115.896 112.712 116.107C112.526 116.331 112.509 116.603 112.679 116.826C113.239 117.552 113.677 118.381 114.406 118.967C114.49 119.034 114.584 119.087 114.677 119.141C115.01 119.339 115.28 119.253 115.526 118.972C115.759 118.707 115.803 118.446 115.587 118.161C115.186 117.631 114.797 117.091 114.368 116.583C114.109 116.272 113.799 115.995 113.412 115.868L113.412 115.865ZM88.7104 101.63C88.7702 101.327 88.6954 101.02 88.3708 100.844C87.7117 100.483 87.0514 100.133 86.3786 99.7992C86.1267 99.6706 85.8404 99.6553 85.5591 99.7188C85.1213 99.8141 84.9811 100.196 85.2653 100.539C85.3713 100.668 85.5199 100.767 85.6662 100.855C86.4221 101.302 87.1736 101.755 87.9872 102.101C88.5298 102.331 88.6463 102.277 88.71 101.634L88.7104 101.63Z" fill="#D04417"/>
<path d="M45.7235 127.362C45.5129 127.615 45.5946 127.863 45.6256 128.087C45.7774 129.175 45.9694 130.253 46.2227 131.325C46.5959 132.897 47.2988 134.327 48.0544 135.73C48.4001 136.371 48.8361 136.969 49.2698 137.556C49.5619 137.953 49.6306 138.313 49.3467 138.739C48.4076 140.156 47.4976 141.599 46.4169 142.918C45.6764 143.818 45.1026 144.843 44.3224 145.717C43.8483 146.249 43.804 146.294 43.1986 145.9C42.4083 145.382 41.6452 144.814 40.8852 144.25C39.3091 143.082 37.7695 141.877 36.3303 140.54C35.813 140.061 35.78 140.039 36.0969 139.389C36.7677 138.015 37.4047 136.627 38.2437 135.337C38.8533 134.401 39.3236 133.377 39.8508 132.385C40.418 131.323 40.9923 130.262 41.4482 129.148C41.6915 128.55 41.9863 127.969 42.0656 127.313C42.111 126.92 42.338 126.587 42.4788 126.229C42.7835 125.439 42.5531 124.755 42.2353 124.057C41.6803 122.826 41.4334 121.545 41.4135 120.177C41.3929 118.816 41.9141 117.66 42.3999 116.471C42.4796 116.274 42.6006 116.089 42.7239 115.914C43.0007 115.52 43.1948 115.471 43.6674 115.629C44.4522 115.886 45.1445 116.329 45.8548 116.738C46.5286 117.126 47.2032 117.506 47.8825 117.876C48.2503 118.078 48.5356 118.35 48.7681 118.707C49.4798 119.814 50.1918 120.917 51.2081 121.788C51.6062 122.13 52.0588 122.399 52.5183 122.608C53.0452 122.851 53.5567 123.134 54.1116 123.319C54.5464 123.465 54.9814 123.579 55.4387 123.408C55.6466 123.332 55.8693 123.344 56.0806 123.393C57.4532 123.705 58.6812 123.235 59.887 122.68C60.717 122.3 60.9844 122.448 61.0281 123.363C61.0906 124.608 61.1602 125.854 61.2438 127.102C61.3042 128.026 61.5418 128.925 61.5909 129.856C61.6426 130.886 61.7561 131.906 61.8039 132.939C61.8568 134.052 61.8914 135.169 61.933 136.287C61.9712 137.312 62.0378 138.337 61.9638 139.378C61.8649 140.789 61.9496 142.211 61.9814 143.63C61.9902 144.108 61.9788 144.576 61.9276 145.05C61.8316 145.975 61.7078 146.892 61.7174 147.825C61.7271 148.666 61.4933 149.489 61.3832 150.319C61.2839 151.087 61.1386 151.853 61.0564 152.626C61.0009 153.106 60.7597 153.47 60.5064 153.846C60.3823 154.027 60.2148 154.061 60.0014 154.062C59.5569 154.06 59.166 153.873 58.7486 153.76C56.8568 153.233 55.0041 152.613 53.256 151.703C53.0446 151.594 52.8233 151.508 52.6111 151.405C51.9538 151.091 51.6443 150.568 51.7211 149.84C51.8287 148.786 51.9288 147.734 52.0816 146.688C52.3986 144.498 52.3468 142.297 52.2915 140.096C52.269 139.151 52.279 138.203 52.2355 137.255C52.2023 136.526 52.0579 135.805 52.0287 135.072C52.0034 134.429 51.8563 133.793 51.7986 133.153C51.727 132.387 51.4642 131.799 50.8112 131.293C49.2766 130.105 47.6792 129 46.2485 127.682C46.1137 127.556 45.9625 127.418 45.725 127.38L45.7215 127.379L45.7235 127.362Z" fill="#FFAA85"/>
<path d="M15.7019 100.775C15.7812 100.766 15.8676 100.727 15.9038 100.752C16.5184 101.189 17.1948 100.969 17.8443 100.919C18.422 100.876 18.8886 100.531 19.3294 100.194C19.6066 99.981 19.644 99.6261 19.5537 99.2991C19.4416 98.8842 19.3323 98.4447 19.0426 98.1196C18.5261 97.5407 18.115 96.8814 17.6177 96.2905C17.2706 95.8769 16.9458 95.4553 16.7041 94.9614C16.4596 94.4601 16.144 93.9897 15.7893 93.5504C15.4004 93.068 15.1878 92.5063 15.0979 91.8984C15.0619 91.6559 15.0696 91.4043 15.3001 91.2566C15.5419 91.1031 15.7779 91.2158 15.9426 91.3913C16.632 92.136 17.497 92.6841 18.1461 93.4704C18.6581 94.088 19.3736 94.4836 19.9667 95.0145C20.3185 95.3254 20.6318 95.6924 21.0487 95.9326C21.3021 96.0792 21.5511 96.2325 21.8228 96.0362C22.0944 95.84 22.1741 95.5504 22.0939 95.2281C21.967 94.7262 21.8012 94.2517 21.5152 93.8026C21.0218 93.0235 20.4487 92.2887 20.1282 91.398C19.9563 90.9158 19.6659 90.4732 19.4158 90.021C18.4529 88.2879 17.4899 86.5548 16.8323 84.6719C16.5171 83.7676 16.4341 82.8226 16.2899 81.8847C16.2618 81.6965 16.2783 81.4921 16.4862 81.3241C16.8846 81.3238 17.0326 81.6753 17.1925 81.9534C17.454 82.3997 17.672 82.8837 18.0113 83.2715C19.0112 84.4078 19.6972 85.7675 20.6896 86.9065C20.9315 87.1834 21.1856 87.4475 21.4557 87.6956C21.9605 88.1594 22.4848 88.2093 22.9088 87.8635C23.2029 87.6271 23.3462 87.3413 23.2733 86.9559C23.1775 86.4611 22.9961 85.9991 22.6821 85.6071C22.3561 85.196 22.1009 84.7575 21.9235 84.2604C21.7863 83.8782 21.6088 83.5055 21.3667 83.1681C21.1642 82.8887 21.0083 82.5754 20.9119 82.2406C20.6877 81.4713 20.3627 80.7438 20.049 80.0104C19.6886 79.1578 19.5912 78.2147 19.2496 77.3536C19.2195 77.2754 19.248 77.1827 19.3849 77.106C19.7137 77.3076 19.9531 77.6376 20.1526 77.9736C20.5012 78.5581 20.931 79.0559 21.4544 79.4827C21.8347 79.7933 22.3099 79.8055 22.6897 79.5044C23.0225 79.2405 23.0898 78.8428 22.7994 78.4002C22.1114 77.3355 21.6212 76.1905 21.4061 74.9421C21.3026 74.329 21.1199 73.7246 21.1644 73.093C21.19 72.7474 21.0493 72.4573 20.8858 72.1788C20.5906 71.6858 20.0801 71.6091 19.6268 71.9622C19.2752 72.2346 18.9725 72.5767 18.5757 72.7479C18.4086 72.6859 18.3763 72.5648 18.4157 72.4697C18.8566 71.3931 19.2184 70.2931 19.6149 69.2007C19.7764 68.757 20.07 68.3392 20.4731 68.0834C21.2447 67.5927 21.6901 66.8154 22.2712 66.1569C22.3285 66.0924 22.3644 65.9969 22.4332 65.9551C23.2078 65.5003 23.9623 65.0041 24.7716 64.6174C25.2346 64.397 25.7333 64.8529 25.7448 65.4305C25.7533 65.8192 25.6631 66.2 25.5904 66.5829C25.3787 67.7073 25.0727 68.8173 24.998 69.9575C24.8688 71.938 24.8751 73.9164 25.1374 75.8958C25.2893 77.0444 25.3931 78.2089 25.5122 79.3644C25.6937 81.1816 25.8902 83.0218 26.8172 84.6654C26.8583 84.7413 26.8993 84.8172 26.9216 84.9016C27.0004 85.1739 26.9568 85.4285 26.7102 85.5921C26.479 85.7468 26.248 85.6525 26.0567 85.4917C25.7713 85.2525 25.5764 84.9383 25.4077 84.6129C25.2018 84.2086 25.0034 83.8015 24.8011 83.3976C24.6858 83.1637 24.5635 82.9291 24.3543 82.7697C24.1322 82.5983 23.8764 82.5652 23.6234 82.6925C23.3555 82.8251 23.388 83.0672 23.4236 83.3132C23.4781 83.7036 23.6249 84.0656 23.772 84.424C24.5563 86.3179 25.3594 88.2034 26.5027 89.9146C26.9455 90.5776 27.3417 91.2742 27.8776 91.8696C28.1106 92.1313 28.2817 92.4356 28.4314 92.741C28.9748 93.8566 29.7425 94.8167 30.5141 95.7736C30.9713 96.3422 30.9238 96.5074 30.2393 96.7983C30.1419 96.8404 30.0438 96.8895 29.9429 96.9313C29.4636 97.1391 29.2169 97.0893 28.9659 96.6441C28.5117 95.8341 27.9229 95.1116 27.4221 94.3353C27.2264 94.0281 26.9653 93.7632 26.7234 93.4863C26.5196 93.2494 26.2749 93.15 25.9822 93.3438C25.7048 93.5288 25.4441 93.7227 25.5438 94.1219C25.5944 94.3305 25.6114 94.553 25.6843 94.7535C26.163 96.0288 26.7426 97.2624 27.3762 98.4595C27.6913 99.0579 28.0637 99.6522 28.4577 100.213C29.2516 101.347 29.59 102.667 30.0809 103.929C30.3059 104.507 30.6497 105.041 30.9263 105.603C31.2118 106.18 31.5156 106.752 31.6206 107.383C31.4177 107.662 31.1717 107.605 30.9689 107.482C30.5626 107.243 30.1539 106.993 29.8159 106.655C29.6757 106.515 29.555 106.358 29.543 106.154C29.5189 105.686 29.2982 105.287 29.0884 104.885C28.7885 104.31 28.5069 103.73 28.2332 103.143C27.738 102.072 26.5065 101.432 25.5043 101.825C24.5917 102.182 23.8476 102.804 23.3785 103.724C22.8217 104.82 22.3801 105.964 21.8334 107.064C21.5405 107.66 21.1852 108.241 20.9785 108.861C20.6836 109.752 20.436 110.694 21.0248 111.601C21.2601 111.967 21.5715 112.227 21.9663 112.35C22.5017 112.519 23.0677 112.545 23.6299 112.575C23.8351 112.584 24.0122 112.498 24.1649 112.377C24.3333 112.243 24.4958 112.098 24.6611 111.961C25.1964 111.514 25.7465 111.464 26.1252 112.034C26.6769 112.862 27.5483 113.201 28.3039 113.712C30.085 114.921 30.6767 116.604 30.4384 118.575C30.355 119.266 29.9221 119.504 29.2286 119.35C28.4173 119.167 27.8681 118.595 27.3695 118.014C26.5639 117.075 25.5419 116.377 24.6739 115.516C24.5526 115.395 24.404 115.296 24.2526 115.222C24.0372 115.115 23.8274 115.176 23.6531 115.33C23.4831 115.478 23.4749 115.672 23.5556 115.867C23.7232 116.263 23.8529 116.68 24.2115 116.963C24.6381 117.304 24.8485 117.823 25.2578 118.19C26.6913 119.483 28.3199 120.504 29.9678 121.48C30.6602 121.891 31.2415 122.371 31.6158 123.072C31.853 123.512 32.1142 123.93 32.4408 124.305C32.8178 124.737 32.892 125.172 32.531 125.65C32.4517 125.751 32.402 125.873 32.3391 125.987C32.1487 126.342 31.8474 126.456 31.47 126.366C30.3232 126.102 29.4204 125.45 28.7807 124.491C28.4139 123.94 27.9444 123.509 27.4922 123.051C27.3201 122.878 27.1138 122.755 26.8534 122.885C26.5738 123.027 26.5239 123.273 26.5778 123.546C26.6613 123.994 26.7671 124.433 27.021 124.821C27.6711 125.814 28.376 126.763 29.2418 127.582C29.5593 127.882 29.788 128.242 30.0937 128.552C30.9496 129.426 31.9629 130.076 32.9982 130.69C33.6839 131.097 34.3045 131.606 35.0158 131.976C35.3814 132.168 35.6198 132.537 35.7711 132.921C36.0185 133.55 35.3099 134.45 34.5325 134.467C34.0408 134.474 33.5543 134.375 33.0742 134.22C32.0693 133.898 31.1928 133.295 30.1674 132.995C29.0116 132.656 28.2624 131.751 27.5791 130.769C26.9811 129.91 26.5357 128.962 25.8164 128.168C25.3815 127.684 25.1649 126.972 24.8096 126.383C24.4094 125.722 23.99 125.072 23.6089 124.399C23.195 123.672 22.804 122.929 22.3294 122.234C22.2503 122.118 22.1753 121.967 22.2614 121.807C22.436 121.681 22.5931 121.799 22.7474 121.849C23.0257 121.934 23.2977 121.919 23.5752 121.827C24.1371 121.643 24.2647 121.277 23.7992 120.903C22.8784 120.16 22.1588 119.184 21.1188 118.58C20.4287 118.18 20.0175 117.521 19.7302 116.837C19.3026 115.827 18.8156 114.839 18.4509 113.808C17.703 111.691 17.0216 109.553 16.6081 107.342C16.2569 105.456 15.8733 103.573 15.6603 101.659C15.6268 101.364 15.5329 101.068 15.6976 100.782L15.7081 100.783L15.7019 100.775Z" fill="#006739"/>
<path d="M53.9532 110.357C53.352 109.957 52.7096 109.73 52.0311 109.63C50.7399 109.445 49.5242 109.038 48.3608 108.456C47.7826 108.165 47.1246 108.103 46.5386 107.818C45.9385 107.532 45.2947 107.348 44.6821 107.078C44.1509 106.842 43.8242 106.406 43.5729 105.872C42.9074 104.458 43.2881 103.132 43.8666 101.819C44.025 101.464 44.3301 101.378 44.6761 101.585C45.8896 102.319 47.2246 102.74 48.5758 103.113C49.4103 103.341 50.2462 103.402 51.1281 103.312C52.0533 103.216 52.9585 103.047 53.8737 102.914C54.0181 102.895 54.1854 102.925 54.2697 102.75C54.2223 102.513 54.0153 102.55 53.8613 102.528C52.7238 102.369 51.6627 101.947 50.5624 101.65C49.2209 101.285 48.0016 100.632 46.6975 100.19C46.3106 100.06 45.9156 99.9072 45.5861 99.6806C45.0784 99.3339 44.8658 98.7722 44.8024 98.1816C44.6749 96.9753 44.8921 95.8337 45.4256 94.7251C45.7725 94.0005 46.1684 93.3135 46.6542 92.6795C47.0231 92.1957 47.1658 92.2229 47.6647 92.5224C48.4365 92.9849 49.1444 93.6002 50.0021 93.8736C51.3195 94.2925 52.6862 94.5321 54.0829 94.3875C54.6337 94.3302 55.0648 93.9851 55.5817 93.6678C54.8306 93.2111 54.044 92.9994 53.304 92.6934C52.6321 92.4131 51.9325 92.2184 51.1943 92.1119C50.5084 92.0149 50.0724 91.5092 49.8039 90.8771C49.7699 90.8021 49.736 90.695 49.7613 90.6303C50.013 89.9907 50.2096 89.2736 50.8802 88.9491C52.1987 88.3117 53.5309 88.2024 54.9187 88.8748C55.7037 89.2536 56.5032 89.6304 57.3558 89.8854C58.143 90.1221 58.8391 90.5938 59.4195 91.173C59.9491 91.7001 59.9347 92.5023 59.4982 93.1099C59.2352 93.4779 58.9819 93.8541 58.7255 94.2265C58.3112 94.826 58.2048 95.5322 57.9915 96.2082C57.7336 97.025 57.5611 97.841 57.5251 98.6762C57.4909 99.4655 57.5308 100.26 57.7944 101.026C57.8849 101.289 57.9778 101.563 58.0027 101.84C58.1075 102.965 58.5652 103.961 59.1504 104.9C59.7057 105.789 59.9847 106.792 60.3833 107.746C60.9611 109.118 61.5393 110.486 62.245 111.798C62.4672 112.215 62.7768 112.521 63.2461 112.647C64.5744 113.003 65.7819 112.772 66.8093 111.852C67.337 111.38 67.8052 110.836 68.2404 110.271C68.3742 110.098 68.4772 109.914 68.5542 109.71C69.2291 107.931 70.1334 106.261 70.9871 104.567C71.6376 103.276 72.2781 101.98 72.8543 100.656C73.0186 100.28 73.2129 99.9223 73.3838 99.5508C73.5221 99.2466 73.5169 99.0148 73.2442 98.8197C72.1776 98.0456 71.0178 97.6165 69.6765 97.8351C69.4192 97.8765 69.2431 97.9842 69.1624 98.2523C68.8496 99.2975 68.1635 100.157 67.723 101.138C67.3294 102.021 66.772 102.874 66.9814 103.894C67.1068 104.503 67.1771 105.126 67.4004 105.717C67.711 106.539 67.7578 107.366 67.2211 108.133C67.1017 108.304 66.9992 108.545 66.738 108.497C66.5009 108.456 66.3867 108.243 66.3365 108.031C66.246 107.676 66.1593 107.317 66.1195 106.953C65.9303 105.235 65.5547 103.559 65.0331 101.916C64.66 100.742 64.4331 99.5344 64.2678 98.3167C64.2458 98.1683 64.2207 98.016 64.2768 97.8695C64.4034 97.5427 64.6865 97.4936 64.9265 97.756C65.0908 97.9351 65.164 98.1641 65.241 98.3899C65.5601 99.3231 65.8827 100.257 66.2225 101.256C66.5518 100.9 66.731 100.518 66.8303 100.121C66.9744 99.5504 67.1871 99.0024 67.4421 98.4876C67.7015 97.9662 67.7775 97.3703 68.1416 96.8966C68.3637 96.6057 68.6122 96.3641 68.9767 96.3493C69.8985 96.3135 70.8285 96.1754 71.738 96.4619C72.706 96.7657 73.646 97.1268 74.4545 97.7644C75.0479 98.2313 75.2061 98.6479 74.9714 99.4175C74.6567 100.448 74.2832 101.465 73.7687 102.409C73.0651 103.697 72.4429 105.019 71.8612 106.361C71.2601 107.746 70.686 109.145 69.8361 110.406C68.991 111.656 68.0863 112.807 66.8173 113.724C65.7346 114.506 64.6782 114.537 63.5241 114.336C62.917 114.234 62.3466 113.937 61.7985 113.632C61.6482 113.547 61.5118 113.435 61.4309 113.273C60.8533 112.114 60.0508 111.086 59.4271 109.958C58.6616 108.578 58.1514 107.082 57.685 105.577C57.5526 105.153 57.3538 104.749 57.1444 104.345C57.0543 104.878 56.9334 105.402 57.0673 105.936C57.1606 106.299 57.1145 106.667 57.1254 107.035C57.171 108.673 57.26 110.305 57.4672 111.93C57.699 113.742 58.4615 115.27 59.9598 116.372C60.3402 116.651 60.7556 116.873 61.2449 116.947C61.6676 117.014 62.089 117.123 62.5013 117.249C62.8349 117.348 62.9162 117.567 62.6966 117.837C62.223 118.426 61.7297 119.002 61.0166 119.325C60.9192 119.367 60.8112 119.44 60.716 119.433C59.6924 119.364 58.6825 119.578 57.6301 119.389C56.4522 119.179 55.3028 118.783 54.0879 118.738C53.6381 118.722 53.1846 118.645 52.7865 118.396C52.697 118.34 52.584 118.302 52.481 118.3C51.4088 118.283 50.4274 117.85 49.3998 117.632C48.601 117.465 47.8566 117.073 47.1489 116.671C46.2509 116.162 45.3054 115.725 44.4522 115.136C44.1624 114.935 43.8547 114.797 43.4982 114.773C43.1276 114.748 42.8613 114.529 42.6455 114.241C41.6884 112.981 41.5554 111.607 42.0732 110.141C42.11 110.039 42.1599 109.945 42.2002 109.843C42.4428 109.22 42.6219 109.148 43.1894 109.47C43.3762 109.577 43.5497 109.707 43.7322 109.821C44.3595 110.21 45.034 110.437 45.7602 110.617C46.6041 110.824 47.4422 110.836 48.2917 110.902C49.4584 110.994 50.6199 110.947 51.7821 110.985C52.5331 111.011 53.2614 110.804 53.9481 110.371L53.9532 110.357ZM54.3247 90.076C53.9041 89.9919 53.6315 90.1347 53.5811 90.417C53.5256 90.7129 53.6573 90.9273 53.9477 91C54.2416 91.073 54.5147 91.1721 54.7782 91.3235C55.002 91.4489 55.2432 91.4554 55.3906 91.195C55.5243 90.9615 55.4852 90.7151 55.2559 90.5748C54.9306 90.3736 54.5828 90.2125 54.3247 90.076Z" fill="#4177ED"/>
<path d="M104.438 118.378C104.776 118.1 104.937 117.72 105.151 117.375C105.657 116.569 106.007 116.464 106.869 116.855C107.399 117.098 107.984 117.148 108.522 117.391C109.056 117.631 109.552 117.923 110.069 118.189C110.532 118.427 110.809 118.836 111.128 119.218C111.268 119.387 111.282 119.574 111.203 119.764C111.114 119.985 111.037 120.214 110.911 120.413C109.909 122.004 109.243 123.77 108.261 125.375C107.726 126.252 107.448 127.273 106.918 128.165C106.53 128.813 106.112 129.444 105.645 130.038C104.966 130.898 103.997 131.064 103.007 130.864C101.808 130.623 100.835 130.019 100.186 128.892C99.3746 127.482 98.9832 125.943 98.5857 124.396C98.3769 123.586 98.1681 122.776 97.9168 121.964C97.7885 122.305 97.741 122.655 97.8073 123.004C97.8986 123.477 97.8727 123.947 97.8321 124.423C97.7379 125.547 97.8798 126.658 97.9819 127.776C97.9886 127.841 98.0234 127.909 98.0095 127.968C97.8412 128.809 98.2334 129.541 98.5045 130.273C98.8898 131.31 99.6805 132.01 100.672 132.476C101.178 132.716 101.708 132.905 102.222 133.135C102.617 133.313 102.67 133.475 102.488 133.846C102.154 134.525 101.642 135.043 100.991 135.415C100.648 135.611 100.276 135.689 99.8701 135.635C98.8854 135.507 97.8966 135.414 96.9119 135.286C96.1831 135.191 95.5271 134.834 94.8244 134.636C94.621 134.58 94.4279 134.466 94.2103 134.44C93.1503 134.318 92.1968 133.827 91.1835 133.547C90.139 133.259 89.1733 132.781 88.1627 132.415C87.1385 132.044 86.0547 131.82 85.1279 131.19C84.1156 130.5 83.7475 129.529 83.7909 128.354C83.8191 127.585 84.0653 126.87 84.3458 126.166C84.6109 125.503 85.2219 125.325 85.7466 125.801C86.4035 126.397 87.1106 126.926 87.7887 127.492C88.3824 127.987 89.0066 128.373 89.7902 128.456C90.0538 128.483 90.2752 128.629 90.499 128.755C91.775 129.471 93.1122 129.565 94.4962 129.131C94.5958 129.1 94.6979 129.048 94.7828 128.99C94.829 128.96 94.8516 128.887 94.8814 128.845C94.8465 128.624 94.6649 128.564 94.52 128.493C93.6143 128.051 92.7381 127.569 91.7304 127.332C90.7957 127.11 89.9047 126.694 89.0218 126.301C88.528 126.08 87.9989 125.98 87.4995 125.776C86.8303 125.503 86.2251 125.138 85.6286 124.76C84.9884 124.359 84.919 123.636 85.0222 122.958C85.1848 121.888 85.4929 120.853 85.9755 119.877C86.0822 119.662 86.225 119.472 86.3904 119.303C86.758 118.922 87.2138 118.733 87.6866 119.321C88.5203 120.356 89.6637 121.05 90.7617 121.767C91.2314 122.074 91.801 122.286 92.3946 122.351C93.7038 122.502 95.0092 122.656 96.318 122.811C96.3812 122.818 96.4479 122.826 96.5119 122.826C96.7846 122.836 97.0801 122.803 97.1399 122.5C97.2006 122.191 96.976 121.98 96.6931 121.873C96.5568 121.821 96.3973 121.785 96.2506 121.793C95.6097 121.829 95.0904 121.552 94.5654 121.232C93.7345 120.727 92.8485 120.329 91.8978 120.092C91.4901 119.988 91.1389 119.826 90.8197 119.54C90.0524 118.854 89.1205 118.423 88.1549 118.13C87.5668 117.955 87.3107 117.616 87.2603 117.098C87.1373 115.853 87.3188 114.651 87.9281 113.533C88.0728 113.265 88.2616 113.017 88.5027 112.838C89.1639 112.349 89.9579 112.003 90.6862 112.781C91.2086 113.339 91.8711 113.793 92.5418 114.176C93.6994 114.84 94.9677 115.161 96.317 115.089C96.3599 115.087 96.4059 115.088 96.4435 115.071C96.7124 114.96 97.1115 114.985 97.1801 114.637C97.2538 114.276 96.8584 114.219 96.635 114.09C95.312 113.319 93.9504 112.635 92.4947 112.151C92.19 112.048 91.9075 111.876 91.6272 111.716C91.0173 111.361 90.9403 111.135 91.1033 110.432C91.5656 108.461 93.5275 108.105 94.7858 108.759C96.296 109.541 97.7524 110.421 99.2909 111.143C99.4459 111.217 99.6048 111.289 99.7717 111.323C100.064 111.381 100.282 111.552 100.488 111.743C101.033 112.254 100.986 112.697 100.333 113.088C99.2556 113.728 98.7174 114.662 98.5235 115.909C98.2598 117.607 98.5838 119.206 99.0131 120.817C99.4302 122.381 99.796 123.956 100.235 125.511C100.546 126.607 100.859 127.714 101.49 128.69C101.792 129.155 102.192 129.543 102.667 129.776C103.148 130.013 103.677 129.803 104.147 129.587C104.958 129.212 105.369 128.459 105.788 127.728C106.691 126.157 107.369 124.478 108.188 122.866C108.635 121.982 109.106 121.111 109.563 120.232C109.782 119.813 109.763 119.672 109.373 119.439C108.745 119.057 108.112 118.692 107.465 118.347C107.153 118.183 106.795 118.205 106.448 118.222C106.187 118.235 106.071 118.435 105.995 118.636C105.675 119.463 105.204 120.22 104.827 121.019C104.634 121.424 104.609 121.855 104.709 122.286C104.861 122.94 104.709 123.577 104.621 124.214C104.58 124.508 104.418 124.778 104.096 124.787C103.764 124.798 103.6 124.498 103.545 124.232C103.317 123.096 103.011 121.958 103.211 120.779C103.364 119.89 103.205 119.018 103.088 118.147C103.032 117.739 103.115 117.332 103.002 116.924C102.834 116.318 102.591 115.742 102.378 115.152C102.281 114.878 102.084 114.677 101.842 114.525C101.716 114.446 101.575 114.373 101.477 114.262C101.304 114.071 101.267 113.836 101.366 113.598C101.463 113.371 101.667 113.295 101.894 113.3C102.423 113.315 102.878 113.499 103.151 113.968C103.71 114.918 104.22 115.891 104.295 117.031C104.325 117.479 104.506 117.916 104.451 118.393L104.454 118.394L104.438 118.378ZM96.2148 111.815C96.5061 111.849 96.7315 111.807 96.8761 111.572C96.9771 111.405 96.9853 111.211 96.8462 111.092C96.4869 110.783 96.0701 110.543 95.5915 110.498C95.3348 110.472 95.1592 110.669 95.0478 110.895C94.9691 111.053 95.0117 111.207 95.151 111.294C95.4954 111.515 95.848 111.727 96.2148 111.815Z" fill="#4177ED"/>
<path d="M103.909 153.427C103.295 153.601 102.724 153.806 102.134 153.919C101.262 154.085 100.427 154.355 99.6111 154.702C99.2449 154.855 98.8629 154.928 98.4767 154.916C97.8322 154.891 97.2479 155.115 96.6621 155.322C96.3139 155.441 95.9971 155.597 95.8024 155.959C95.6538 156.23 95.3864 156.419 95.0433 156.28C94.7137 156.146 94.6039 155.927 94.6185 155.523C94.6738 154.274 94.4251 153.039 94.2798 151.803C94.147 150.674 93.8767 149.565 93.6024 148.459C93.3363 147.376 92.7691 146.435 92.3044 145.439C91.9336 144.646 91.362 144.174 90.5717 143.841C89.392 143.338 88.5383 142.415 87.7681 141.415C87.694 141.318 87.6571 141.175 87.4507 141.176C87.3716 141.522 87.5333 141.847 87.5806 142.176C87.747 143.415 87.9242 144.652 88.4378 145.81C89.1199 147.358 89.8903 148.849 91.0273 150.122C91.084 150.185 91.1257 150.286 91.1974 150.312C91.8928 150.574 91.8855 151.192 91.9329 151.766C92.031 153.012 92.1141 154.263 92.1942 155.51C92.2619 156.556 92.1054 156.649 91.1271 157.019C90.3388 157.316 89.5521 157.414 88.7352 157.465C87.9827 157.513 87.2936 157.875 86.5345 157.919C85.8507 157.957 85.1954 157.903 84.6145 157.512C84.3604 157.341 84.1494 157.32 83.9326 157.565C83.7162 157.807 83.4375 157.91 83.1189 157.866C82.7336 157.814 82.6338 157.6 82.8611 157.295C83.0671 157.02 83.2907 156.747 83.5414 156.517C83.9825 156.116 84.2504 155.613 84.49 155.079C84.6913 154.629 84.8798 154.167 85.1322 153.738C85.4066 153.271 85.4913 152.723 85.646 152.214C86.0641 150.811 86.3864 149.376 86.4454 147.91C86.5285 145.835 86.5077 143.766 85.8027 141.771C85.7171 141.527 85.6468 141.273 85.6049 141.019C85.5242 140.548 85.2913 140.194 84.9211 139.888C84.2096 139.304 83.8979 138.461 83.5733 137.637C83.3834 137.156 83.2642 136.648 83.0673 136.167C82.7936 135.488 82.7576 134.783 82.7478 134.067C82.7375 133.386 83.063 132.815 83.394 132.26C83.6943 131.754 84.0953 131.7 84.5066 132.143C85.0348 132.712 85.5552 133.288 86.1489 133.784C86.9078 134.419 87.653 135.081 88.5693 135.493C88.8906 135.637 89.1354 135.889 89.4375 136.045C90.3773 136.53 91.3666 136.865 92.4011 137.116C93.9962 137.503 95.6218 137.318 97.2271 137.492C97.7045 137.547 98.2116 137.407 98.6962 137.306C98.988 137.244 99.2009 137.279 99.388 137.507C99.5533 137.707 99.7857 137.852 99.8853 138.098C100.268 139.035 100.913 139.853 101.187 140.838C101.439 141.738 101.961 142.513 102.326 143.363C102.71 144.257 102.8 145.196 102.989 146.121C103.157 146.945 103.296 147.775 103.417 148.607C103.526 149.353 103.589 150.103 103.687 150.851C103.783 151.598 104.004 152.332 103.944 153.096C103.934 153.181 103.924 153.265 103.907 153.416L103.909 153.427Z" fill="#FFAA85"/>
<path d="M93.8889 48.8285C94.1897 48.9344 94.3142 48.7496 94.4281 48.5636C94.6112 48.2717 94.7842 47.9751 94.9575 47.675C95.0995 47.4318 95.264 47.2694 95.5828 47.3738C96.1349 47.5513 96.2026 47.52 96.4639 47.0131C96.5921 46.7647 96.7006 46.5034 96.9086 46.3033C96.9846 46.2303 97.0584 46.1463 97.1827 46.1785C97.3271 46.252 97.2926 46.3974 97.3213 46.5181C97.3443 46.6275 97.3864 46.7248 97.5067 46.7921C97.8139 46.8418 97.9217 46.5555 98.0945 46.3833C98.2352 46.2431 98.3705 46.088 98.5911 46.149C98.8459 46.2211 98.9073 46.4594 98.8904 46.6673C98.8 47.82 98.9159 49.0036 98.326 50.0772C98.0282 50.6226 98.1666 50.8413 98.861 50.9571C99.1568 51.4145 98.6983 51.9662 98.9877 52.4478C99.4796 52.4691 99.6989 51.8328 100.206 51.9696C100.468 52.103 100.313 52.4301 100.524 52.6004C100.574 52.6025 100.637 52.6133 100.695 52.5988C101.276 52.4951 101.484 52.6685 101.461 53.267C101.453 53.5256 101.416 53.7811 101.411 54.0436C101.408 54.1927 101.411 54.3496 101.536 54.4637C101.577 54.4541 101.636 54.461 101.653 54.438C101.792 54.2548 101.783 53.9621 102.049 53.8755C102.33 53.7834 102.468 54.0307 102.669 54.1462C102.965 54.3192 103.188 54.1742 103.29 53.905C103.407 53.602 103.571 53.3221 103.715 53.0328C103.982 52.5052 104.146 52.4993 104.525 52.977C104.581 53.0475 104.634 53.1105 104.745 53.134C104.923 53.1617 105.025 52.992 105.17 52.9092C105.571 52.6709 105.799 52.7897 105.758 53.2652C105.699 53.9271 105.717 54.6085 105.393 55.2256C105.365 55.2793 105.379 55.3484 105.368 55.4397C105.688 55.658 105.828 55.4643 105.91 55.1857C105.973 54.9795 105.987 54.7607 106.047 54.5541C106.099 54.3823 106.22 54.2505 106.415 54.2303C106.631 54.209 106.735 54.3491 106.767 54.5342C106.812 54.7919 106.964 54.9303 107.187 55.0628C107.685 55.3658 108.022 56.301 107.874 56.8743C107.789 57.206 107.701 57.5373 107.75 57.8559C107.898 57.9904 108.031 57.9169 108.152 57.9166C108.425 57.9197 108.527 58.088 108.545 58.3319C108.548 58.3963 108.558 58.4685 108.533 58.5262C108.168 59.5013 108.386 60.5402 108.211 61.5336C108.158 61.837 108.084 62.1094 107.857 62.3465C107.174 63.0607 106.233 62.9201 105.818 62.015C105.727 61.816 105.628 61.6302 105.514 61.4463C105.185 60.9103 105.062 60.3697 105.526 59.8364C105.583 59.7719 105.621 59.6909 105.648 59.6086C105.709 59.4165 105.743 59.2177 105.541 59.0841C105.373 58.9722 105.21 59.0316 105.068 59.1504C104.902 59.2913 104.697 59.3708 104.523 59.493C103.735 60.0351 102.576 59.293 102.612 58.2693C102.634 57.7098 102.713 57.2103 103.164 56.8142C103.35 56.6508 103.708 56.4182 103.392 56.1363C103.134 55.9073 102.84 56.1721 102.677 56.381C102.229 56.9374 101.681 57.397 101.214 57.9335C101.074 58.0987 100.924 58.2557 100.778 58.4131C100.474 58.7373 100.112 58.8165 99.7196 58.6146C98.8 58.1385 97.8934 57.6425 97.0402 57.0532C96.8161 56.8992 96.7149 56.667 96.6493 56.4033C96.5216 55.8764 96.2496 55.4289 95.9621 54.9617C95.5425 54.2837 95.1675 53.5575 94.9484 52.7745C94.8723 52.5097 94.9914 52.31 95.1779 52.143C95.5186 51.8409 95.705 51.521 95.3932 51.0795C95.2586 50.8896 95.3784 50.715 95.4837 50.5422C95.5764 50.3857 95.7673 50.2726 95.732 50.0551C95.5114 49.9016 95.3854 50.0684 95.2667 50.1721C94.7607 50.6116 94.2644 51.0594 93.7747 51.5115C93.6474 51.6284 93.5298 51.7535 93.3745 51.8352C93.1172 51.9691 92.8719 51.9372 92.8143 51.6353C92.6986 51.0351 92.1208 50.6482 92.1155 49.986C92.1143 49.7191 91.8224 49.721 91.6034 49.8309C91.1463 50.0626 90.8307 50.7625 90.9361 51.2975C90.99 51.5705 91.0653 51.8424 91.1117 52.1181C91.1596 52.4117 91.11 52.687 90.8408 52.8622C90.5681 53.037 90.3549 52.8808 90.1387 52.7206C89.5773 52.3144 89.1826 51.7281 88.6261 51.3117C88.521 51.2356 88.4615 51.1042 88.459 50.9723C88.4498 50.6511 88.2732 50.4244 88.1038 50.1666C87.8317 49.751 87.7867 49.2478 87.7627 48.7471C87.7352 48.061 87.4728 47.4687 86.9253 47.0356C86.4788 46.6817 86.4146 46.468 86.6655 45.9279C86.8837 45.4551 86.7988 44.8655 86.4776 44.6292C86.1038 44.3549 85.458 44.4332 85.0658 44.8112C84.7543 45.106 84.4463 45.4013 84.1916 45.7595C83.8598 46.2299 83.7117 46.1879 83.2341 45.9193C81.918 45.1804 80.9466 44.0439 79.856 43.0465C79.2959 42.5372 78.9646 41.8338 78.4648 41.2639C78.1569 40.9118 78.2139 40.4489 78.5675 40.1589C79.283 39.5693 80.0175 38.9996 80.7733 38.4609C81.1686 38.1793 81.4834 38.3793 81.4902 38.8745C81.4957 39.1348 81.4918 39.4153 81.3461 39.6297C81.0296 40.0911 81.0455 40.662 80.7505 41.1224C81.058 41.478 81.5774 41.7229 81.1254 42.311C81.692 42.5791 82.1279 42.9318 82.4668 43.4156C82.6596 43.6868 83.0125 43.6493 83.3068 43.5339C83.5265 43.449 83.721 43.3043 83.9233 43.1854C84.0723 43.0959 84.238 42.955 84.3969 43.0267C84.8771 43.2422 85.1636 42.948 85.4726 42.6743C85.5522 42.6016 85.6414 42.5373 85.724 42.4686C86.0886 42.1763 86.4461 42.1607 86.8 42.4221C87.1431 42.4083 87.3028 42.0106 87.6513 42.0117C87.6903 42.0127 87.7296 42.0421 87.7701 42.061C87.9918 42.389 87.552 42.5943 87.6038 42.8848C87.7075 43.0035 87.8433 42.9978 87.9696 43.0124C88.3491 43.0527 88.5362 43.2806 88.6162 43.6349C88.743 44.2008 89.0271 44.728 89.0144 45.3312C89.011 45.3913 89.0611 45.4504 89.1624 45.4657C89.1934 45.4444 89.2746 45.4182 89.2865 45.3769C89.4871 44.6566 89.9971 44.5519 90.6401 44.6511C91.0527 44.713 91.1737 44.8052 91.1644 45.2238C91.157 45.504 91.1 45.7819 91.082 46.0608C91.0651 46.2687 90.9826 46.4904 91.1512 46.6628C91.3002 46.7583 91.4335 46.7132 91.5194 46.6164C91.7453 46.3544 92.0185 46.2366 92.3663 46.2127C92.6133 46.1985 92.7665 45.9815 92.9416 45.8203C93.3243 45.4626 93.4631 45.4928 93.555 45.9907C93.602 46.2309 93.6797 46.3893 93.9123 46.4695C94.2579 46.5876 94.3347 46.8775 94.3263 47.1967C94.3164 47.5903 94.2477 47.9701 94.0441 48.3165C93.9599 48.4597 93.8138 48.5851 93.8889 48.8285Z" fill="#006739"/>
<path d="M45.9888 63.813C45.9819 63.5953 46.1197 63.4796 46.2707 63.4045C47.3297 62.8581 48.4314 62.4661 49.6283 62.3268C51.031 62.1616 52.4281 62.3229 53.8229 62.3488C55.4698 62.379 57.0285 62.9573 58.5374 63.5975C59.1341 63.8514 59.7871 63.8948 60.3604 64.2277C61.181 64.6995 62.0956 64.9723 62.9634 65.3429C63.6547 65.6397 64.3653 65.8925 65.0299 66.236C66.5538 67.0237 68.1607 67.6468 69.62 68.5622C69.9616 68.776 70.3703 68.7485 70.7187 68.9346C71.8173 69.5238 72.9203 70.1065 74.0429 70.6416C75.1317 71.1621 76.1851 71.7426 77.2609 72.283C78.4912 72.9017 79.6768 73.6006 80.8529 74.3197C82.3613 75.2409 83.8654 76.1686 85.4234 76.9995C87.6884 78.2071 89.88 79.5273 92.0388 80.9148C93.486 81.8431 94.9198 82.7947 96.5115 83.4872C97.3107 83.8356 97.9949 84.441 98.7617 84.8852C101.291 86.3617 103.754 87.9515 106.29 89.4253C107.383 90.0602 108.394 90.8563 109.535 91.4149C110.565 91.9215 111.523 92.5336 112.496 93.1262C114.042 94.0658 115.643 94.923 117.15 95.9222C118.692 96.9469 120.187 98.0513 121.393 99.496C121.918 100.126 122.494 100.712 122.882 101.443C123.046 101.753 123.143 102.081 123.255 102.407C123.305 102.555 123.294 102.714 123.154 102.819C122.978 102.951 122.826 102.856 122.69 102.737C122.372 102.447 122.014 102.186 121.75 101.853C121.434 101.453 121.068 101.141 120.617 100.918C119.95 100.592 119.408 100.078 118.858 99.6087C117.77 98.6793 116.535 97.9817 115.369 97.1713C113.97 96.1988 112.457 95.4087 111.091 94.3938C110.105 93.661 109.072 92.994 108.042 92.3309C106.708 91.4725 105.275 90.7628 103.871 90.0173C102.862 89.4811 101.879 88.9052 100.897 88.3223C98.6208 86.9675 96.3832 85.5531 94.1029 84.2014C92.8679 83.4683 91.6169 82.7512 90.4626 81.8745C90.0441 81.5559 89.559 81.29 89.0856 81.0468C88.2964 80.6427 87.6125 80.0657 86.8166 79.6893C85.6293 79.1289 84.5631 78.3513 83.3702 77.8081C83.1167 77.6934 82.9045 77.4982 82.6565 77.3664C81.0365 76.5178 79.4449 75.6084 77.782 74.8543C76.4092 74.237 75.1155 73.458 73.7273 72.8815C72.553 72.3938 71.4672 71.7242 70.3149 71.1999C69.1388 70.6657 67.9705 70.1253 66.8223 69.5339C65.6204 68.9149 64.4493 68.2141 63.1903 67.7202C62.0334 67.2664 60.9249 66.7009 59.7676 66.2507C59.0084 65.9568 58.3346 65.477 57.5534 65.2196C56.1413 64.7578 54.7833 64.135 53.2888 63.9553C51.7655 63.7794 50.2491 63.6043 48.7091 63.6648C48.0121 63.6945 47.3434 63.8485 46.6701 63.9806C46.4081 64.0322 46.1561 64.0885 45.9931 63.8064L45.9888 63.813Z" fill="#D04417"/>
<path d="M77.1918 157.121C76.953 157.125 76.7344 157.324 76.4604 157.264C76.2452 157.218 76.1605 157.397 76.0628 157.535C75.8296 157.86 75.5123 157.958 75.1527 157.839C74.4879 157.62 73.8302 157.771 73.1758 157.863C72.7022 157.929 72.2289 157.931 71.7593 157.87C71.1108 157.788 70.8323 157.489 70.8257 156.93C70.8177 156.353 71.2005 155.903 71.7733 155.809C72.2118 155.738 72.6515 155.658 73.069 155.585C73.1593 155.357 73.0523 155.206 72.9881 155.053C72.6314 154.168 72.4071 153.246 72.3413 152.307C72.2902 151.579 72.3574 150.843 72.1701 150.124C72.1474 150.043 72.1619 149.949 71.9999 149.873C71.5702 150.514 71.1253 151.163 70.6905 151.817C69.8206 153.129 68.9577 154.441 68.0912 155.753C68.0182 155.862 67.9455 155.968 67.8694 156.073C67.533 156.521 67.0886 156.705 66.7827 156.52C66.2639 156.207 66.0348 155.573 66.3 155.063C66.5566 154.566 66.8276 154.067 67.16 153.622C67.6361 152.98 67.976 152.254 68.4583 151.62C69.4766 150.286 70.195 148.747 71.3133 147.472C71.8172 146.897 72.1368 146.162 72.5439 145.501C72.9381 144.86 73.2256 144.157 73.6898 143.556C73.9158 143.262 74.1768 143.004 74.4498 142.765C74.9327 142.341 75.645 142.487 75.9117 143.073C76.0706 143.422 76.247 143.773 76.3015 144.163C76.4637 145.285 77.0138 146.28 77.3683 147.338C77.8718 148.83 78.3609 150.323 78.6258 151.88C78.7289 152.497 78.8765 153.097 79.0413 153.703C79.307 154.697 79.4661 155.722 79.5647 156.747C79.6177 157.305 79.1515 157.923 78.6753 158.043C78.1843 158.167 77.7487 157.936 77.4229 157.368C77.3695 157.277 77.3282 157.172 77.2032 157.115L77.1918 157.121Z" fill="#006739"/>
<path d="M69.1962 137.3C68.6259 137.156 68.0444 136.925 67.4722 136.674C66.1497 136.084 64.9737 135.24 63.749 134.48C63.3342 134.222 63.0645 133.878 63.1057 133.367C63.1817 132.401 63.0297 131.437 63.0382 130.471C63.0414 129.643 62.9217 128.8 62.8543 127.967C62.8129 127.432 62.729 126.896 62.695 126.359C62.6647 125.882 63.1272 125.48 63.74 125.441C64.6358 125.384 65.5122 125.557 66.3402 125.841C67.2877 126.167 68.2395 126.519 69.0498 127.171C69.3753 127.432 69.8122 127.561 70.2087 127.731C71.2045 128.163 72.1227 128.714 72.8453 129.54C73.4673 130.253 73.714 131.042 73.3665 131.987C72.9998 132.977 72.5983 133.958 72.1502 134.913C71.8107 135.635 71.228 136.215 70.7138 136.817C70.3518 137.241 69.8007 137.363 69.1927 137.3L69.1962 137.3Z" fill="#FF6A00"/>
<path d="M27.0221 107.122C27.9789 107.646 28.9524 107.932 29.8676 108.354C30.6881 108.734 31.4981 109.112 32.2666 109.603C33.5678 110.439 34.8337 111.336 36.2481 111.994C36.9872 112.339 37.6173 112.888 38.3682 113.224C39.1159 113.556 39.7948 114.022 40.5749 114.29C40.7938 114.365 40.9981 114.506 41.1883 114.645C41.9106 115.166 41.9737 116.375 41.3229 116.99C41.1313 117.171 40.9089 117.188 40.6638 117.184C40.0317 117.175 39.4838 116.931 38.9779 116.599C37.1165 115.377 35.1031 114.454 33.0815 113.542C32.7672 113.399 32.4447 113.265 32.1611 113.073C30.8029 112.144 29.2755 111.541 27.8166 110.807C27.2992 110.544 26.8093 110.228 26.3151 109.918C26.0201 109.731 25.8004 109.724 25.6456 110.079C25.4674 110.482 25.1318 110.77 24.8782 111.118C24.5909 111.512 23.9086 111.661 23.4008 111.499C23.3599 111.484 23.3186 111.472 23.2816 111.453C21.7105 110.674 21.6922 110.217 22.3001 109.049C22.973 107.75 23.3051 106.291 24.1862 105.098C24.5575 104.593 24.8927 104.063 25.4094 103.685C25.5143 103.608 25.6107 103.513 25.7268 103.462C26.4082 103.167 26.8882 103.6 27.3588 103.96C27.764 104.27 28.062 104.678 27.8683 105.246C27.762 105.55 27.6967 105.87 27.4817 106.13C27.2581 106.403 27.2106 106.753 27.0291 107.123L27.0256 107.123L27.0221 107.122Z" fill="#FF6A00"/>
<path d="M104.077 82.1701C103.721 82.3851 103.451 82.265 103.184 82.1132C101.778 81.3143 100.43 80.4223 99.1031 79.5008C98.6915 79.2149 98.2468 79 97.8198 78.755C96.7534 78.1339 95.8878 77.2514 94.9084 76.523C93.9418 75.8067 92.9934 75.0569 91.984 74.4033C91.5572 74.1264 91.0463 73.9607 90.5561 73.8009C89.1814 73.354 87.8287 72.8706 86.603 72.0888C86.4936 72.0193 86.3678 71.9692 86.2784 71.8806C85.3299 70.9779 84.1841 70.3654 83.0524 69.7545C82.3428 69.3702 81.7402 68.8596 81.092 68.4042C80.4042 67.9228 79.6697 67.5072 79.0404 66.9508C78.3306 66.3211 77.5125 65.8282 76.84 65.153C76.6166 64.9316 76.4006 64.7075 76.5784 64.3687C76.7554 64.0371 77.0705 64.0806 77.3798 64.1127C77.8326 64.165 78.1901 64.4268 78.5316 64.6726C80.0476 65.744 81.6465 66.6827 83.2286 67.6443C84.4712 68.4031 85.7302 69.1745 87.0849 69.7329C88.2768 70.2227 89.4474 70.774 90.6981 71.0927C91.6831 71.3416 92.6436 71.6482 93.5477 72.1047C94.6394 72.6612 95.7524 73.1881 96.6174 74.106C96.779 74.2776 96.9848 74.4046 97.1833 74.5342C97.7689 74.9148 98.2416 75.4105 98.6889 75.9423C99.2424 76.6002 99.8168 77.2321 100.241 77.996C100.465 78.3989 100.871 78.7018 101.197 79.0455C101.984 79.8726 102.663 80.8011 103.614 81.4658C103.841 81.6236 104.046 81.8215 104.079 82.1811L104.077 82.1701Z" fill="#AEFFE4"/>
<path d="M31.1396 68.3229C31.309 67.7485 31.2478 67.1083 31.0609 66.4785C31.0074 66.2945 30.9544 66.107 30.7958 65.9713C30.4591 65.6834 30.0706 65.7524 30.0141 66.1798C29.8899 67.1009 29.4047 67.8843 29.1485 68.7475C28.9612 69.3839 28.7832 70.032 28.6968 70.6872C28.4838 72.3165 27.7905 73.7304 26.8928 75.0672C26.7341 75.3014 26.5829 75.533 26.5048 75.8085C26.4415 76.0181 26.3142 76.135 26.0755 76.1075C25.8368 76.0799 25.6727 75.9614 25.6148 75.7235C25.5527 75.4602 25.6415 75.2144 25.7027 74.9618C25.9175 74.1187 26.3838 73.3758 26.6699 72.5623C27.3825 70.5496 28.0054 68.5123 28.605 66.4617C29.011 65.0716 29.3019 63.6611 29.6662 62.2626C29.8629 61.5135 29.8226 60.7228 29.9996 59.9607C30.1045 59.514 30.2117 59.0782 30.4694 58.6953C30.6677 58.3946 30.9391 58.1698 31.3252 58.2144C31.7429 58.2626 32.1036 58.4039 32.2854 58.8624C32.5552 59.5444 32.7188 60.2534 32.9081 60.9546C32.9957 61.2741 33.1241 61.5486 33.3626 61.7931C33.9865 62.4272 34.4081 63.2121 34.8626 63.9582C35.3798 64.8076 35.8783 65.6654 36.4926 66.4442C36.8959 66.9567 37.1657 67.5463 37.5083 68.0909C37.6408 68.2983 37.6409 68.5437 37.6169 68.7828C37.5776 69.2158 37.4424 69.6163 36.9829 69.7447C36.5384 69.8676 36.1921 69.632 35.931 69.2746C35.4826 68.6609 35.148 67.9855 34.8736 67.2816C34.6756 66.7786 34.4361 66.2956 34.2119 65.8038C34.0821 65.5114 33.8708 65.3696 33.5468 65.4033C33.4387 65.4157 33.3309 65.4246 33.224 65.4265C32.2883 65.4287 32.2787 65.4809 32.164 66.3818C32.0634 67.1918 32.382 67.8511 32.7233 68.5307C33.1976 69.4747 33.6766 70.4086 34.4115 71.1906C34.7059 71.5056 34.6572 71.8663 34.5132 72.2196C34.3787 72.5527 34.1115 72.7103 33.7428 72.6998C33.6153 72.6957 33.4867 72.7306 33.3594 72.7551C32.7295 72.8815 32.0344 72.5558 31.863 71.9456C31.655 71.2209 31.4021 70.5158 31.1535 69.8042C30.9881 69.3263 31.0588 68.8685 31.1286 68.3252L31.1396 68.3229Z" fill="#006739"/>
<path d="M34.1879 103.504C34.1189 103.115 34.4638 102.778 34.8241 102.46C35.3322 102.003 35.6718 101.434 35.9655 100.832C36.0308 100.697 36.0829 100.553 36.1179 100.405C36.2424 99.8499 36.1829 99.5335 35.8958 99.4328C35.2089 99.1899 34.9363 99.1477 34.5416 99.5788C33.9155 100.257 33.5467 101.079 33.1678 101.896C32.8976 102.48 32.5065 102.694 31.9403 102.515C31.6075 102.409 31.4882 102.21 31.5868 101.88C31.6561 101.65 31.7565 101.427 31.9285 101.262C32.2643 100.941 32.4534 100.536 32.6635 100.134C33.2584 98.986 33.9071 97.8658 34.6316 96.797C35.1162 96.0811 35.5475 95.3342 36.0153 94.6093C36.2188 94.2948 36.4311 94.0277 36.833 94.1203C37.2867 94.2261 37.7973 94.2708 37.9669 94.8346C38.0239 95.019 38.098 95.209 38.1011 95.3979C38.143 96.9749 38.5274 98.5131 38.5514 100.092C38.571 101.339 38.4758 102.594 38.7097 103.834C38.9024 104.845 39.0474 105.868 39.3932 106.847C39.5328 107.24 39.6341 107.626 39.4197 108.035C39.2462 108.367 39.0386 108.624 38.6292 108.566C38.2373 108.51 37.954 108.314 37.8337 107.909C37.621 107.194 37.6386 106.456 37.6339 105.726C37.6318 105.129 37.4961 104.579 37.1779 104.07C37.0101 103.798 36.8098 103.654 36.4916 103.699C36.1878 103.742 36.0733 103.963 36 104.229C35.9437 104.439 35.9334 104.652 35.9367 104.869C35.9615 106.01 35.9249 107.158 36.3463 108.253C36.398 108.39 36.4192 108.545 36.4447 108.694C36.5143 109.108 36.3547 109.474 36.0764 109.573C35.7575 109.686 35.3939 109.508 35.1746 109.127C34.873 108.598 34.7053 108.017 34.5154 107.444C34.1029 106.211 34.1501 104.94 34.1914 103.504L34.1879 103.504Z" fill="#006739"/>
<path d="M83.1147 120.554C83.2534 121.139 83.5701 121.63 83.823 122.151C83.8977 122.305 83.9911 122.451 84.0579 122.612C84.5141 123.682 84.5207 123.686 84.0523 124.724C83.8939 125.079 83.7055 125.416 83.5709 125.781C83.4683 126.054 83.2851 126.286 82.9647 126.288C82.6619 126.292 82.5139 126.033 82.4049 125.807C81.8011 124.567 80.9772 123.447 80.4039 122.19C80.3413 122.054 80.272 121.915 80.0619 121.794C79.5692 122.026 79.0099 122.249 78.4924 122.542C78.0355 122.802 77.5825 122.782 77.1156 122.667C76.7106 122.571 76.3325 122.025 76.2897 121.533C76.2514 121.095 76.4487 120.865 76.9442 120.609C77.882 120.127 78.7876 119.584 79.7335 119.124C80.8757 118.566 82.0434 118.064 83.2053 117.551C83.6928 117.334 84.2145 117.344 84.7323 117.418C85.1277 117.475 85.3355 117.708 85.4088 118.09C85.578 118.935 85.3289 119.429 84.5273 119.81C84.0796 120.021 83.6354 120.233 83.1877 120.445C83.1725 120.453 83.1626 120.477 83.1077 120.553L83.1147 120.554Z" fill="#FF6A00"/>
<path d="M74.809 105.054C75.7543 105.185 76.5293 105.712 77.3355 106.153C79.2422 107.199 81.0373 108.441 82.9357 109.496C83.7213 109.932 84.578 110.244 85.3261 110.757C85.7712 111.061 86.2167 111.362 86.6531 111.679C87.1223 112.021 87.2202 112.744 86.8978 113.318C86.6559 113.749 86.0111 113.881 85.4799 113.738C84.4034 113.45 83.6445 112.63 82.6859 112.153C81.5291 111.574 80.4686 110.84 79.3502 110.206C78.0186 109.448 76.7628 108.588 75.4696 107.773C74.9458 107.442 74.3466 107.242 73.8995 106.77C73.494 106.339 73.3641 106.047 73.5566 105.582C73.7348 105.147 74.0852 104.978 74.6749 105.046L74.8047 105.061L74.809 105.054Z" fill="#D04417"/>
<path d="M36.921 121.099C36.4408 121.253 36.2261 121.634 35.958 121.923C35.5275 122.386 35.092 122.492 34.5211 122.23C34.0246 122.002 33.8892 121.819 33.9797 121.282C34.081 120.682 34.4404 120.218 34.8092 119.767C35.2316 119.25 35.6279 118.744 35.8298 118.074C36.1865 116.895 37.3049 116.697 38.1136 117.641C38.9126 118.576 39.2782 119.66 39.2588 120.907C39.2472 121.684 39.1843 122.445 39.0951 123.217C38.9771 124.239 38.4952 125.055 37.9077 125.83C37.3367 126.585 36.8147 127.379 36.1457 128.059C35.6182 128.592 35.2619 128.69 34.6994 128.294C34.2882 128.005 34.128 127.328 34.4236 126.832C34.7891 126.224 35.2181 125.651 35.6233 125.068C36.1517 124.311 36.7468 123.594 37.0417 122.703C37.2165 122.175 37.2449 121.652 36.9175 121.099L36.921 121.099Z" fill="#006739"/>
<path d="M56.2224 46.6734C56.6354 46.7318 56.8354 47.0323 56.7484 47.4775C56.6443 48.0097 56.2876 48.3882 55.8341 48.5884C54.7883 49.051 53.7993 49.6375 52.7091 49.9917C52.5208 50.0518 52.3418 50.1236 52.1417 50.1005C51.1535 49.9722 50.2397 50.4002 49.2786 50.499C48.9078 50.538 48.6156 50.7888 48.3468 51.053C47.8726 51.5247 47.3728 51.972 46.9021 52.4441C46.4996 52.8493 46.0064 53.1161 45.5225 53.3945C45.111 53.6316 44.812 53.5721 44.53 53.2728C44.2321 52.9574 44.241 52.7877 44.5291 52.2946C44.938 51.5877 45.6291 51.2087 46.2752 50.7889C46.9791 50.3295 47.74 49.9621 48.4347 49.491C49.5265 48.7528 50.7348 48.3303 51.9958 48.0064C52.0986 47.9792 52.2137 47.9676 52.3017 47.9137C53.3748 47.2765 54.6298 47.1582 55.7719 46.7245C55.9169 46.6701 56.0648 46.6517 56.2189 46.673L56.2224 46.6734Z" fill="#AEFFE4"/>
<path d="M31.115 79.0331C31.0964 79.1945 31.0773 79.452 31.0372 79.707C30.9548 80.1741 30.7478 80.5806 30.3293 80.8168C29.9111 81.0495 29.5733 81.3875 29.1746 81.6367C28.8452 81.8405 28.6709 82.0872 28.7105 82.483C28.7402 82.7496 28.6514 82.9955 28.515 83.2216C28.3393 83.5107 28.1237 83.7455 27.7415 83.6978C27.387 83.6569 27.0718 83.3679 27.0028 82.9794C26.8839 82.3147 26.8931 81.6507 27.0586 80.9869C27.306 79.9839 27.5847 78.9882 27.9217 78.0098C28.1884 77.2403 28.7643 76.7199 29.2297 76.1086C29.4016 75.883 29.698 75.903 29.9549 75.9576C30.5078 76.0676 31.0372 76.6267 31.142 77.1973C31.2461 77.7748 31.2358 78.357 31.1185 79.0335L31.115 79.0331Z" fill="#006739"/>
<path d="M113.641 151.474C113.504 152.294 113.46 152.335 112.609 152.315C112.084 152.301 111.628 152.643 111.093 152.592C111.023 152.584 110.926 152.715 110.863 152.797C110.784 152.898 110.731 153.02 110.655 153.125C110.461 153.39 110.255 153.665 109.863 153.513C109.519 153.381 109.333 152.958 109.424 152.545C109.546 151.976 109.683 151.408 109.809 150.843C109.866 150.59 109.931 150.338 109.971 150.086C110.042 149.653 110.192 149.251 110.402 148.873C110.861 148.044 111.752 147.994 112.273 148.787C112.672 149.395 113.044 150.021 113.466 150.618C113.641 150.862 113.768 151.147 113.641 151.478L113.641 151.474Z" fill="#006739"/>
<path d="M32.1481 93.5581C32.5322 92.82 32.7583 91.7861 33.7869 91.318C34.425 91.0289 35.0262 91.3971 35.0709 92.0888C35.0911 92.3756 35.0169 92.6481 34.9124 92.9063C34.6785 93.484 34.4038 94.0463 34.0725 94.5735C33.7064 95.1573 33.4625 95.2358 32.9078 95.0188C32.2748 94.7714 32.0028 94.3239 32.1446 93.5577L32.1481 93.5581Z" fill="#006739"/>
<path d="M39.7084 99.1082C39.7975 98.6134 40.0644 97.9968 40.4339 97.4455C40.9193 96.7226 41.3898 96.8374 42.0027 97.1358C42.3496 97.3039 42.3865 97.6319 42.2832 97.9721C42.0765 98.6525 41.7951 99.3029 41.4428 99.9202C41.1035 100.518 40.7931 100.649 40.305 100.472C39.7829 100.28 39.5964 99.924 39.7119 99.1086L39.7084 99.1082Z" fill="#006739"/>
<path d="M34.5723 138.658C34.1293 138.614 33.8471 138.347 33.5736 138.066C33.4493 137.942 33.4692 137.77 33.5372 137.642C33.9289 136.93 34.2615 136.175 35.0076 135.721C35.5702 135.377 36.008 135.559 36.1054 136.225C36.2476 137.18 35.7483 137.869 35.1442 138.511C34.9898 138.678 34.7661 138.706 34.5688 138.658L34.5723 138.658Z" fill="#006739"/>
<path d="M38.4659 128.867C39.3195 128.991 39.6387 129.615 39.2056 130.347C38.9847 130.72 38.7082 131.051 38.329 131.284C37.8541 131.578 37.385 131.421 37.1929 130.897C36.9869 130.34 37.5299 129.119 38.083 128.887C38.2101 128.834 38.336 128.852 38.4655 128.871L38.4659 128.867Z" fill="#006739"/>
<path d="M30.913 89.8404C31.3392 89.8149 31.4783 90.0266 31.5381 90.3714C31.6184 90.8466 31.5 91.2562 31.2614 91.6591C31.0672 91.9852 30.8108 92.0801 30.4498 92.0028C29.7279 91.8483 29.4806 91.5566 29.5657 90.9119C29.6489 90.2529 30.1487 89.8055 30.7682 89.8308C30.8318 89.8346 30.8954 89.8384 30.9165 89.8408L30.913 89.8404Z" fill="#006739"/>
<path d="M59.7454 52.1592C59.4513 52.1182 59.1859 51.9524 59.0919 51.5965C58.9959 51.2262 59.2049 50.9871 59.4976 50.7933C59.8674 50.5479 60.297 50.4623 60.7149 50.3861C61.2088 50.2973 61.571 50.8264 61.3689 51.2832C61.1817 51.7027 60.2574 52.2219 59.7458 52.1557L59.7454 52.1592Z" fill="#AEFFE4"/>
</g>
<mask id="mask1_9063_15817" style="mask-type:luminance" maskUnits="userSpaceOnUse" x="115" y="95" width="44" height="56">
<path d="M158.558 99.9573L121 95.6201L115.204 145.814L152.761 150.151L158.558 99.9573Z" fill="white"/>
</mask>
<g mask="url(#mask1_9063_15817)">
<path d="M125.687 145.68C127.408 144.548 128.781 142.946 130.256 141.505C130.312 141.451 130.368 141.401 130.424 141.347C130.241 141.293 130.058 141.244 129.876 141.191C129.615 141.114 129.411 140.938 129.496 140.628C129.566 140.362 129.799 140.321 130.04 140.328C130.125 140.33 130.209 140.34 130.294 140.346C130.669 140.361 131.042 140.394 131.415 140.433C133.112 138.922 134.918 137.537 136.524 135.919C137.949 134.483 139.365 133.003 140.743 131.48C139.096 131.332 137.455 131.125 135.87 130.558C135.293 130.353 134.672 130.242 134.054 130.145C132.352 129.881 130.632 129.811 128.921 129.624C128.458 129.57 127.939 129.656 127.512 129.354C127.61 129.149 127.756 129.091 127.89 129.096C128.815 129.124 129.757 128.949 130.663 129.267C131.042 129.399 131.436 129.441 131.834 129.412C132.375 129.379 132.906 129.426 133.439 129.491C134.587 129.627 135.728 129.88 136.887 129.85C138.585 129.811 140.27 129.946 141.954 130.115C143.389 128.47 144.765 126.776 146.049 125.025C145.394 124.903 144.74 124.778 144.085 124.656C143.695 124.583 143.297 124.547 142.899 124.576C141.505 124.671 140.137 124.442 138.77 124.234C138.361 124.173 137.982 124.008 137.721 123.651C138.007 123.357 138.335 123.323 138.631 123.343C139.927 123.429 141.226 123.511 142.495 123.825C143.726 124.131 144.952 124.447 146.248 124.372C146.342 124.365 146.435 124.362 146.531 124.355C147.067 123.603 147.588 122.841 148.083 122.066C148.353 121.642 148.612 121.216 148.865 120.783C148.329 120.675 147.769 120.568 147.159 120.248C147.645 120.013 147.996 119.993 148.361 120.003C148.672 120.014 148.985 120.018 149.298 120.022C150.016 118.725 150.661 117.395 151.254 116.044C151.298 115.942 151.23 115.828 151.121 115.815C150.853 115.791 150.585 115.775 150.319 115.769C148.501 115.737 146.733 115.404 144.963 115.051C144.733 115.006 144.483 114.96 144.469 114.681C144.453 114.327 144.816 114.358 145.047 114.321C145.247 114.287 145.449 114.26 145.65 114.28C146.628 114.375 147.598 114.505 148.574 114.611C149.565 114.718 150.553 114.821 151.544 114.925C151.652 114.938 151.756 114.875 151.796 114.776C152.131 113.968 152.449 113.155 152.757 112.337C152.798 112.224 152.727 112.099 152.609 112.078C151.828 111.942 151.05 111.781 150.266 111.665C148.312 111.372 146.345 111.219 144.374 111.063C141.023 110.797 137.679 110.457 134.373 109.826C133.833 109.725 132.949 109.651 132.401 109.655C130.849 109.665 129.327 109.411 127.798 109.199C127.598 109.172 127.32 109.207 127.286 108.887C127.396 108.669 127.61 108.636 127.796 108.654C128.948 108.752 130.118 108.599 131.247 108.928C131.715 109.068 132.187 109.076 132.673 109.082C134.449 109.109 136.233 109.241 137.949 109.66C139.367 110.008 140.824 110.173 142.284 110.256C145.341 110.428 148.376 110.849 151.432 111.024C151.959 111.053 152.483 111.107 153.005 111.171C153.11 111.183 153.21 111.123 153.247 111.021C153.46 110.437 153.67 109.849 153.88 109.262C153.927 109.136 153.824 109.01 153.691 109.02C153.551 109.032 153.403 109.015 153.261 108.988C150.683 108.487 148.067 108.313 145.469 108.024C144.679 107.933 143.926 107.707 143.149 107.567C142.982 107.537 142.819 107.472 142.805 107.126C143.467 106.911 144.147 106.996 144.795 107.05C146.642 107.199 148.495 107.256 150.306 107.779C151.239 108.05 152.259 108.018 153.239 108.128C153.288 108.134 153.337 108.139 153.387 108.145C153.438 108.162 153.783 108.258 154.12 108.045C154.465 107.829 154.525 107.462 154.531 107.413C154.567 107.314 154.678 106.999 154.715 106.901C154.757 106.784 154.798 106.668 154.84 106.552C154.871 106.467 154.818 106.375 154.728 106.358C153.743 106.166 152.762 105.942 151.754 105.894C150.541 105.832 149.335 105.742 148.153 105.446C147.901 105.381 147.571 105.439 147.477 105.047C147.661 104.781 147.937 104.731 148.218 104.728C149.631 104.72 151.03 104.931 152.427 105.089C153.311 105.191 154.183 105.374 155.06 105.546C155.133 105.562 155.205 105.517 155.231 105.448C155.348 105.11 155.466 104.771 155.576 104.432C155.604 104.346 155.546 104.258 155.455 104.247C154.847 104.188 154.234 104.131 153.641 103.967C152.814 103.743 151.972 103.639 151.124 103.651C150.411 103.661 149.696 103.632 149.018 103.472C147.471 103.101 145.889 103 144.322 102.801C142.363 102.55 140.403 102.299 138.461 101.933C138.235 101.889 137.952 101.934 137.784 101.634C138.139 101.394 138.515 101.405 138.863 101.438C140.52 101.594 142.179 101.796 143.837 101.949C145.329 102.086 146.771 102.533 148.269 102.656C149.312 102.741 150.347 102.896 151.385 103.02C152.81 103.191 154.234 103.391 155.66 103.517C155.776 103.53 155.881 103.453 155.915 103.344C155.95 103.227 155.988 103.114 156.023 102.997C156.081 102.801 156.139 102.605 156.194 102.405C156.231 102.27 156.144 102.129 156.008 102.106C155.611 102.039 155.21 101.992 154.807 102.006C153.608 102.039 152.447 101.805 151.269 101.715C148.537 101.503 145.833 101.052 143.13 100.59C142.425 100.47 141.728 100.286 140.874 100.099C141.343 99.829 141.678 99.8569 142.004 99.8946C142.59 99.9623 143.176 100.094 143.762 100.137C145.62 100.277 147.476 100.47 149.334 100.613C151.706 100.798 154.086 101.037 156.425 101.542C156.5 101.238 156.563 100.936 156.613 100.628C156.645 100.408 156.598 99.9865 156.69 99.8015C153.986 99.507 151.282 99.2374 148.572 98.9849C146.19 98.7632 143.819 98.4396 141.457 98.0743C137.815 97.5116 134.138 97.2327 130.487 96.7222C127.662 96.3249 124.803 96.2899 121.956 96.1461C121.504 96.1223 121.117 96.1807 120.924 96.6743C120.733 97.1573 120.928 97.4715 121.297 97.763C122.03 98.3386 122.753 98.9235 123.36 99.6375C123.551 99.8623 123.798 99.9156 124.097 99.968C125.045 100.138 126.001 100.113 126.95 100.212C127.85 100.305 128.715 100.604 129.626 100.606C130.444 100.605 131.263 100.625 132.083 100.645C132.909 100.662 133.703 100.878 134.493 101.083C134.711 101.14 134.937 101.213 134.931 101.518C134.729 101.758 134.43 101.752 134.161 101.77C133.006 101.858 131.853 101.892 130.697 101.744C129.407 101.581 128.117 101.41 126.824 101.272C126.055 101.19 125.279 101.161 124.545 101.108C124.353 101.484 124.522 101.746 124.573 102.011C124.694 102.658 124.775 103.311 124.519 103.926C124.119 104.89 124.252 105.805 124.686 106.695C125.338 108.043 125.809 109.446 126.143 110.896C126.37 111.886 126.535 112.898 126.489 113.906C126.382 116.377 126.221 118.848 125.744 121.282C125.717 121.425 125.723 121.561 125.845 121.732C128.503 121.79 131.091 122.48 133.768 123.009C133.566 123.313 133.379 123.267 133.219 123.266C132.429 123.274 131.639 123.276 130.848 123.284C129.471 123.296 128.081 123.466 126.737 123.005C126.525 122.931 126.303 122.884 126.082 122.826C125.661 122.71 125.369 122.836 125.21 123.259C125.004 123.815 124.771 124.353 124.571 124.91C123.613 127.599 122.462 130.18 120.605 132.395C120.329 132.726 120.059 133.093 119.989 133.576C120.468 133.766 120.622 133.883 121.524 133.806C122.156 133.751 122.707 134.092 123.125 134.571C123.326 134.8 124.063 134.733 123.979 135.303C123.925 135.677 123.625 135.781 123.304 135.826C123.195 135.842 123.079 135.803 122.965 135.797C121.973 135.74 121.015 135.501 120.06 135.238C119.415 135.06 118.783 134.902 118.349 135.641C118.233 135.841 117.97 135.875 117.782 135.992C117.26 136.319 117.169 136.867 117.561 137.35C117.811 137.653 118.062 137.973 118.369 138.212C119.537 139.118 120.421 140.305 121.502 141.294C122.609 142.304 123.008 143.773 123.884 144.941C124.176 145.331 124.483 145.697 124.809 146.041C125.115 145.948 125.404 145.821 125.682 145.665L125.687 145.68ZM130.63 98.9938C129.337 98.7947 128.047 98.7809 126.745 98.8155C125.839 98.8389 124.938 98.7597 124.085 98.4087C123.926 98.344 123.769 98.2868 123.727 98.065C123.816 97.7871 124.066 97.8339 124.277 97.8582C126.154 98.0856 128.035 98.2744 129.906 98.5794C131.46 98.8335 133.052 98.8396 134.63 98.9435C135.213 98.9823 135.807 98.9513 136.42 99.3707C134.368 99.5819 132.5 99.2808 130.634 98.9942L130.63 98.9938ZM136.395 103.067C138.96 103.189 141.501 103.571 144.024 104.055C144.379 104.124 144.735 104.24 144.993 104.593C144.781 104.957 144.395 104.88 144.096 104.881C143.477 104.884 142.858 104.823 142.239 104.759C139.825 104.502 137.397 104.403 134.983 104.113C133.113 103.887 131.213 103.891 129.335 103.739C128.553 103.677 127.778 103.488 127.002 103.334C126.731 103.281 126.467 103.169 126.243 102.791C129.698 102.877 133.052 102.909 136.398 103.067L136.395 103.067ZM126.228 106.097C126.033 106.057 125.858 105.916 125.87 105.686C125.886 105.421 126.09 105.317 126.328 105.266C126.357 105.258 126.386 105.251 126.411 105.254C127.804 105.479 129.236 105.274 130.617 105.633C131.353 105.825 132.104 105.915 132.85 106.04C134.78 106.363 136.738 106.105 138.656 106.462C139.067 106.538 139.498 106.538 139.87 107.075C138.885 107.345 138.014 107.28 137.159 107.203C135.444 107.051 133.739 106.783 132.023 106.677C130.928 106.611 129.832 106.52 128.728 106.56C127.878 106.59 127.066 106.265 126.239 106.098L126.228 106.097ZM130.292 113.008C131.658 113.166 133.039 113.062 134.397 113.436C135.486 113.739 136.631 113.616 137.76 113.607C138.679 113.599 139.608 113.625 140.53 114.165C140.184 114.481 139.876 114.502 139.57 114.474C138.785 114.405 137.993 114.36 137.218 114.238C135.373 113.95 133.521 113.911 131.661 113.938C130.866 113.949 130.105 113.701 129.324 113.6C129.159 113.581 128.998 113.495 128.972 113.229C129.355 112.903 129.839 112.956 130.292 113.008ZM134.09 119.084C133.254 118.838 132.416 118.83 131.578 118.879C130.636 118.934 129.719 118.772 128.796 118.665C128.269 118.604 128.273 118.576 128.11 117.985C128.654 117.83 129.215 117.81 129.762 117.873C132.227 118.151 134.701 118.383 137.149 118.776C138.937 119.064 140.733 119.094 142.526 119.212C143.154 119.256 143.819 119.169 144.362 119.701C144.02 120.138 143.571 120.172 143.126 120.213C141.818 120.325 140.539 120.032 139.252 119.904C138.077 119.79 136.9 119.665 135.731 119.469C135.173 119.376 134.62 119.238 134.09 119.084Z" fill="#4177ED"/>
</g>
<path d="M21.3276 98.6758C19.2568 96.772 17.2711 94.7785 15.3696 92.7022C15.3977 92.7055 15.4258 92.7087 15.4574 92.7124C15.5818 92.7125 15.7029 92.6803 15.8062 92.6175C16.2584 93.1677 16.7102 93.7214 17.166 94.272C17.5996 94.7987 18.4296 94.1405 17.996 93.6138L14.3663 89.1931C14.0733 88.8356 13.7802 88.4781 13.4871 88.1206C13.1941 87.763 12.9207 87.358 12.5673 87.0611C12.0328 86.6081 11.2604 86.6434 10.8337 87.2273C10.3772 87.8539 10.5535 88.607 10.9575 89.205C11.4305 89.914 12.0536 90.5551 12.6088 91.199C13.7945 92.5737 15.0194 93.9174 16.2804 95.2261C17.7068 96.7033 19.1807 98.1397 20.6922 99.5272C21.1936 99.9906 21.8259 99.1352 21.3272 98.6793L21.3276 98.6758Z" fill="#006739"/>
<path d="M21.2833 117.454C20.2808 116.463 19.4571 115.372 18.7598 114.203C18.9523 114.076 19.0794 113.838 18.9799 113.56C18.05 110.956 17.124 108.348 16.194 105.744C16.556 105.875 17.0706 105.514 16.8921 105.028C16.4891 103.928 16.2036 102.796 16.0272 101.645C16.1562 101.759 16.2861 101.867 16.4242 101.965C17.2205 102.522 18.0944 102.286 18.9757 102.508C19.2556 102.58 19.545 102.506 19.6676 102.215C19.7662 101.977 19.6504 101.594 19.3741 101.523C19.3327 101.511 19.2906 101.506 19.2528 101.494C19.4399 101.445 19.6202 101.363 19.7823 101.221C20.2014 100.857 20.3555 100.324 20.4865 99.8052C20.5576 99.5288 20.277 99.2474 20.0208 99.2179C19.7049 99.1814 19.5049 99.4037 19.4335 99.6836C19.3747 99.9151 19.2536 100.317 19.0576 100.444C18.8197 100.594 18.249 100.454 17.9406 100.415C17.0919 100.309 16.2413 100.129 15.5824 99.5518C15.547 99.5193 15.5069 99.4969 15.4699 99.4784C15.3969 99.4024 15.3274 99.3268 15.2543 99.2508C14.6647 98.6278 14.0676 98.0075 13.4862 97.3748C12.9553 96.7978 12.4588 96.1998 12.1553 95.4712C11.9997 95.0939 11.5938 95.0969 11.3436 95.2921C11.1234 95.4125 10.9628 95.6642 11.0629 95.9675L14.1719 105.329C15.1622 108.303 15.9728 111.448 17.5046 114.201C18.3026 115.637 19.2892 116.95 20.4579 118.102C20.9366 118.577 21.7733 117.923 21.288 117.444L21.2833 117.454Z" fill="#006739"/>
<path d="M15.2 84.1281C15.1871 84.0554 15.1597 83.9847 15.1108 83.915C13.4997 81.5415 12.7606 78.7636 11.8732 76.0681C11.7573 75.7169 11.3153 75.6943 11.057 75.8672C11.057 75.8672 11.0566 75.8707 11.0491 75.8734C10.7801 75.8317 10.4833 75.9681 10.4432 76.3156C10.275 77.7723 10.1226 79.277 10.548 80.7062C10.5611 80.7469 10.5741 80.7875 10.5872 80.8281C10.6442 81.29 10.7764 81.7463 11.0305 82.1954C11.5559 83.1275 12.4195 83.7501 13.2239 84.4227C14.0575 85.1201 14.6219 86.1776 15.6356 86.6397C15.96 86.7874 16.3126 86.5365 16.3613 86.2078C16.4927 85.316 15.8605 84.6916 15.2035 84.1285L15.2 84.1281Z" fill="#006739"/>
<path d="M16.7091 73.6634C15.7919 71.1032 13.7054 68.9344 13.5721 66.1162C13.546 65.5405 12.7916 65.5744 12.5818 66.0054C12.4526 66.0154 12.3287 66.0722 12.2375 66.2146C11.139 67.8733 11.9302 69.6151 12.8918 71.1133C13.3651 71.8509 13.9002 72.5458 14.4913 73.1867C14.9908 73.7281 15.7358 74.7923 16.5515 74.2889C16.7585 74.1599 16.782 73.8638 16.706 73.6594L16.7091 73.6634Z" fill="#006739"/>
<path d="M136.237 95.3021C134.744 94.735 133.281 94.0965 131.791 93.5403C130.792 93.1688 130.007 92.5161 129.156 91.9342C129.054 91.862 128.971 91.7492 128.902 91.6416C128.36 90.7894 127.837 89.9252 127.28 89.0819C126.841 88.4159 126.553 87.6463 125.959 87.094C125.442 86.6145 125.094 86.0515 124.861 85.3915C124.783 85.1761 124.604 84.9955 124.467 84.8018C123.193 83.0185 121.745 81.3609 120.564 79.5137C119.828 78.3688 118.797 77.4388 118.208 76.1934C118.145 76.0617 118.022 75.955 117.913 75.8535C117.245 75.2286 116.754 74.4605 116.235 73.7247C115.397 72.5396 114.47 71.4473 113.427 70.4376C112.87 69.9003 112.374 69.3023 111.841 68.7393C111.448 68.3275 111.292 67.7403 110.909 67.3582C110.341 66.7912 109.825 66.1802 109.036 65.8081C107.049 64.8708 105.398 63.3677 103.433 62.3618C102.446 61.8566 101.623 61.0679 100.607 60.5629C100.059 60.2897 99.487 60.0352 98.9566 59.7001C96.958 58.4342 95.0494 57.0045 92.8102 56.159C91.5421 55.6818 90.655 54.7399 89.9147 53.6656C89.5677 53.1596 89.1846 52.6885 88.7187 52.3182C87.6827 51.4943 86.8748 50.4513 85.9349 49.5354C84.9304 48.5622 84.0114 47.4957 82.9544 46.5769C82.4467 46.1376 81.9738 45.674 81.5061 45.1967C80.9047 44.5831 80.2771 43.9806 79.6385 43.4125C79.1355 42.9631 78.6567 42.5201 78.2602 41.9799C77.977 41.5987 77.6856 41.2271 77.2872 40.9499C76.4053 40.3323 75.5818 39.6397 74.8321 38.8631C74.4284 38.4465 74.0096 38.0389 73.586 37.6414C72.4943 36.6226 71.2476 35.8064 70.0849 34.8789C69.5152 34.4219 68.8501 34.1139 68.0833 34.0395C67.552 33.9889 67.0329 33.8329 66.527 33.6251C64.8466 32.9295 63.2724 32.0541 61.7683 31.0339C61.0688 30.5619 60.3006 30.2526 59.4273 30.1767C58.8606 30.1254 58.4116 30.255 57.9969 30.6126C57.6691 30.8949 57.3417 31.1736 57.0018 31.4367C55.823 32.3427 54.6353 33.2335 53.5151 34.2175C52.3001 35.2829 51.1581 36.4244 49.94 37.486C48.888 38.4031 47.9547 39.462 46.9908 40.4782C46.5165 40.9819 46.043 41.4785 45.5559 41.97C44.7921 42.7319 43.9164 43.3848 43.2043 44.1918C41.7554 45.8349 39.9485 46.9743 37.9717 47.7989C36.4581 48.4315 35.1446 49.3647 33.7524 50.1785C32.1082 51.1411 30.6634 52.3792 29.2784 53.6847C28.7036 54.2265 28.1192 54.7601 27.6054 55.3588C27.5484 54.5591 27.3804 53.7963 26.9239 53.0678C26.6301 52.5928 26.3972 52.1462 26.2125 51.6198C26.0526 51.1567 25.8904 50.6827 25.583 50.2951C25.4402 50.1149 25.2664 49.9562 25.0742 49.8344C24.8255 49.6776 24.5362 49.6264 24.2828 49.4798C23.8761 49.2443 23.6956 48.7433 23.5222 48.3355C23.1031 47.3446 22.5464 46.4978 21.7041 45.8456C21.6867 45.7191 21.6251 45.6053 21.5073 45.517C21.2976 45.3612 20.912 45.3736 20.7658 45.6235C19.8271 47.2224 18.9413 48.8558 18.1132 50.5137C17.8225 50.69 17.686 51.1331 18.0403 51.391C19.4733 52.4421 20.928 53.5207 22.4993 54.3601C23.2463 54.7594 24.0176 54.9801 24.8207 55.2329C25.5139 55.4517 26.0611 55.8883 26.5775 56.3748C26.5739 56.4064 26.5773 56.4388 26.5771 56.4708C26.5737 56.5308 26.5852 56.5855 26.5971 56.6367C26.2971 56.9862 25.9687 57.304 25.5801 57.5579C24.9764 57.9505 24.5783 58.5021 24.2285 59.0984C23.9231 59.618 23.6577 60.16 23.3823 60.6973C23.3268 60.8083 23.2618 60.9395 23.4501 61.0644C23.735 60.9693 23.9953 60.7788 24.2672 60.611C24.7614 60.3053 25.2293 59.9182 25.7679 59.7208C27.0048 59.2661 27.8229 58.3113 28.6805 57.4144C29.3927 56.6679 30.0479 55.8614 30.8304 55.1835C32.0838 54.094 33.2897 52.9528 34.6157 51.9428C36.265 50.6892 37.7328 49.1905 39.519 48.1376C41.5153 46.9596 43.3695 45.5945 45.1967 44.1871C46.3598 43.2935 47.4729 42.3408 48.5646 41.3571C50.423 39.6794 52.2491 37.9732 53.98 36.167C55.2088 34.8897 56.4655 33.6476 57.8019 32.4859C57.9715 32.3419 58.0993 32.097 58.4737 32.1509C58.6568 32.9368 59.3075 33.4316 59.8411 34.0161C60.2042 34.4137 60.5587 34.8246 60.8905 35.247C61.2619 35.7274 61.6301 36.2039 62.1838 36.4919C62.4286 36.6197 62.6022 36.8105 62.608 37.0993C62.6201 37.4564 62.762 37.768 62.8925 38.0854C63.11 38.6049 63.0143 38.9709 62.5835 39.3444C62.251 39.6368 62.0044 39.9854 61.8875 40.4129C61.8371 40.6027 61.7466 40.7701 61.6456 40.9363C61.0417 41.9158 60.2685 42.7585 59.518 43.6215C59.1772 44.016 58.8796 44.437 58.6147 44.883C58.4909 45.0928 58.4511 45.3443 58.6524 45.5418C58.8249 45.7111 59.0427 45.7043 59.258 45.626C59.4179 45.5662 59.5786 45.4994 59.7334 45.4212C60.7724 44.8939 61.7996 44.3153 62.6206 43.4889C63.2884 42.8191 64.0604 42.5099 64.9353 42.3263C65.1067 42.2892 65.2771 42.2306 65.4434 42.2996C65.8029 42.4514 66.1502 42.3706 66.5195 42.3137C67.8893 42.0948 68.8584 43.0355 68.726 44.4287C68.6999 44.6853 68.6629 44.9443 68.6403 45.2013C68.6107 45.55 68.4567 45.8061 68.1507 45.9913C67.6875 46.2757 67.3155 46.6632 66.9392 47.0572C66.4336 47.5857 65.929 48.1357 65.3369 48.551C64.7024 48.9935 64.2341 49.569 63.7353 50.1303C63.2205 50.7075 63.2127 51.3291 63.4806 51.9967C63.5605 52.198 63.633 52.402 63.7434 52.5855C64.2539 53.4625 64.7566 54.3457 65.4252 55.1165C65.9804 55.7604 66.4058 56.4818 66.7278 57.2659C66.9776 57.8745 67.3267 58.4555 67.8409 58.8386C68.7514 59.5164 69.7377 60.0926 70.6993 60.6981C70.8884 60.816 71.124 60.8396 71.2954 60.6496C71.451 60.4719 71.366 60.2842 71.2575 60.1152C71.0226 59.7466 70.7313 59.4355 70.3561 59.2037C69.3622 58.6016 69.0021 57.5926 68.8091 56.553C68.6729 55.8224 68.4972 55.1263 68.179 54.4635C67.6407 53.3343 66.8561 52.3971 65.958 51.55C65.4512 51.0718 65.4471 50.954 65.9786 50.4782C66.6058 49.914 67.2418 49.365 67.8942 48.8285C68.3265 48.473 68.682 48.0125 69.2063 47.7849C69.9815 47.4476 70.7567 47.1103 71.5913 47.6762C72.1126 48.0281 72.3511 48.55 72.5216 49.1068C72.749 49.848 72.8956 50.6119 73.1226 51.3566C73.3419 52.0755 73.5843 52.7793 73.6852 53.5379C73.83 54.6252 74.0579 55.7008 74.1335 56.8015C74.1963 57.7051 74.5787 58.4286 75.3396 58.986C76.9394 60.1631 78.5712 61.2479 80.4773 61.8984C81.7779 62.3402 83.0539 62.8717 84.2693 63.5278C84.564 63.6864 84.9025 63.8037 85.1893 63.538C85.2343 63.3334 85.1226 63.2529 85.0376 63.1577C84.4442 62.5059 83.6929 62.0812 82.9007 61.7336C82.3286 61.4826 81.893 61.0659 81.5275 60.5969C81.2484 60.241 80.9882 59.8766 80.6587 59.5576C79.8528 58.7745 79.1225 57.9218 78.4078 57.0568C78.2425 56.8563 78.1045 56.6341 77.8745 56.5008C77.5409 56.3093 77.3796 55.9813 77.173 55.6764C76.6712 54.9391 76.4772 54.063 76.0505 53.2917C75.7357 52.7218 75.8373 52.0578 75.8831 51.3837L75.8866 51.3841C76.7476 51.8748 77.4772 52.457 78.127 53.1438C78.8211 53.8784 79.5109 54.6197 80.2415 55.3158C80.6293 55.6843 81.1038 55.9489 81.4892 56.3385C82.8028 57.6533 84.1953 58.8705 85.8998 59.6648C86.2102 59.8109 86.5051 59.998 86.8494 60.0662C88.0038 60.2955 88.8753 60.9724 89.6415 61.822C90.1207 62.354 90.4231 63.0007 90.8064 63.5927C91.4859 64.6386 92.138 65.7063 92.8332 66.7398C93.131 67.1797 93.4685 67.553 93.8803 67.8674C94.5959 68.4159 95.343 68.9077 96.1485 69.3244C96.9677 69.7462 97.8722 70.0143 98.5915 70.6238C98.6855 70.7022 98.8223 70.75 98.9478 70.7716C99.6415 70.8944 100.248 71.217 100.845 71.5598C101.605 71.9997 102.452 72.2469 103.209 72.7114C103.864 73.1106 104.608 73.378 105.278 73.7684C106.302 74.3596 107.341 74.9385 108.398 75.4589C109.616 76.0584 110.843 76.6163 111.95 77.4128C112.087 77.514 112.254 77.576 112.415 77.6302C113.395 77.9532 114.238 78.4773 114.928 79.2471C115.243 79.6 115.53 80.0137 115.918 80.2541C116.705 80.7398 117.282 81.4396 117.928 82.0691C118.162 82.2952 118.396 82.5179 118.715 82.6187C119.806 82.9618 120.694 83.5872 121.536 84.3708C122.91 85.6535 123.953 87.1825 124.993 88.7111C125.571 89.5603 126.078 90.4725 126.623 91.3536C127.453 92.6979 128.336 93.9808 129.818 94.7067C130.208 94.8976 130.569 95.1278 131.016 95.1688C131.988 95.2596 132.884 95.6583 133.835 95.8322C134.552 95.9648 135.25 96.2055 135.969 96.3561C136.375 96.4421 136.722 96.2473 136.754 95.97C136.797 95.5945 136.538 95.433 136.239 95.3166L136.237 95.3021ZM85.4611 56.4414C85.2637 56.6107 85.0465 56.4896 84.8691 56.3624C84.0051 55.7433 83.2548 55.0022 82.5766 54.1912C82.1325 53.6633 81.7162 53.1101 81.2365 52.6137C80.8235 52.1854 80.5588 51.6747 80.39 51.1039C80.0824 50.0404 79.5475 49.1285 78.6271 48.4745C77.9996 48.025 77.6769 47.3084 77.1724 46.7486C76.7814 46.3157 76.3856 45.893 75.9902 45.4668C74.971 44.3745 74.0638 43.2062 73.3746 41.8746C73.1915 41.5191 72.8894 41.2708 72.5661 41.0521C71.409 40.2604 70.589 39.1378 69.633 38.1453C69.56 38.0693 69.4925 37.9761 69.5461 37.8507C69.7256 37.7434 69.87 37.849 70.0202 37.9339C70.6789 38.2981 71.3453 38.656 71.9989 39.0338C72.6722 39.4246 73.2859 39.901 73.7655 40.5219C74.1182 40.9788 74.6389 41.2132 75.0835 41.5526C76.5287 42.6514 77.9406 43.7926 78.9712 45.3095C79.5032 46.093 79.9437 46.9299 80.1812 47.8608C80.3415 48.5053 80.7134 49.0426 81.1256 49.5384C81.6004 50.109 81.9164 50.7608 82.2347 51.4236C82.7072 52.4136 83.2142 53.3827 84.0228 54.1732C84.5408 54.6777 85.0629 55.2075 85.4101 55.8665C85.5096 56.0522 85.6815 56.257 85.4607 56.445L85.4611 56.4414ZM117.55 79.9838C116.976 79.6223 116.651 79.1472 116.311 78.7274C115.341 77.5234 114.091 76.7032 112.824 75.8776C111.825 75.2251 110.708 74.8293 109.658 74.2813C109.212 74.0483 108.789 73.7933 108.429 73.46C107.912 72.9841 107.326 72.6355 106.694 72.3526C105.906 71.9984 105.146 71.5835 104.408 71.1389C103.836 70.7954 103.162 70.6251 102.651 70.1855C101.495 69.1949 100.107 68.5899 98.8008 67.8558C98.2329 67.5377 97.7113 67.1573 97.2167 66.7587C96.0494 65.8094 94.9735 64.7462 93.8344 63.7681C92.899 62.9665 92.2071 61.9974 91.4267 61.0856C91.1569 60.7734 90.9747 60.4109 90.7897 60.041C90.2829 59.0399 89.6418 58.1229 88.9237 57.2575C88.5802 56.8443 88.2096 56.4494 87.9361 55.9839C87.5069 55.2656 86.9413 54.681 86.2554 54.2141C85.4835 53.691 84.9794 52.9428 84.4762 52.1875C84.4638 52.1718 84.4557 52.1496 84.4472 52.1308C84.3482 51.9095 84.2303 51.6683 84.4687 51.4824C84.6715 51.328 84.8899 51.4385 85.0583 51.5825C85.3366 51.8209 85.6302 52.0504 85.8647 52.3301C86.4994 53.0863 87.1838 53.8127 87.6423 54.7086C87.9469 55.3057 88.3707 55.8242 88.8768 56.2775C89.1959 56.5633 89.5173 56.8601 89.7679 57.2162C90.4884 58.2456 91.4643 58.9736 92.5032 59.6484C92.9134 59.9163 93.2626 60.2803 93.6221 60.6171C94.3923 61.3391 95.1505 62.074 95.916 62.8062C96.2459 63.1218 96.6414 63.3311 97.0436 63.5447C97.7841 63.9396 98.4927 64.3949 99.2021 64.8432C101.452 66.2733 103.688 67.7302 105.93 69.1734C107.055 69.8974 108.231 70.5241 109.349 71.2543C109.604 71.4189 109.851 71.5897 110.073 71.7967C110.134 71.8535 110.197 71.9568 110.267 71.9649C111.158 72.0679 111.602 72.8447 112.258 73.2939C112.871 73.7133 113.259 74.3592 113.712 74.9344C114.832 76.3549 115.932 77.7944 117.158 79.1275C117.348 79.3309 117.525 79.5505 117.564 79.9819L117.55 79.9838Z" fill="#AEFFE4"/>
</g>
</g>
<defs>
<clipPath id="clip0_9063_15817">
<rect width="168" height="168" fill="white"/>
</clipPath>
<clipPath id="clip1_9063_15817">
<rect width="166.07" height="166.07" fill="white" transform="translate(10.957 -8.1438) rotate(6.5873)"/>
</clipPath>
</defs>
</svg>
