<svg width="472" height="472" viewBox="0 0 472 472" fill="none" xmlns="http://www.w3.org/2000/svg">
<g clip-path="url(#clip0_9466_163975)">
<path d="M236 469.579C365.002 469.579 469.578 365.002 469.578 236C469.578 106.999 365.002 2.42188 236 2.42188C106.998 2.42188 2.42139 106.999 2.42139 236C2.42139 365.002 106.998 469.579 236 469.579Z" fill="#F0652A"/>
<path d="M236 471C106.416 471 1 365.584 1 236C1 106.416 106.416 1 236 1C365.584 1 471 106.416 471 236C471 365.584 365.584 471 236 471ZM236 3.83103C107.984 3.83103 3.83103 107.984 3.83103 236C3.83103 364.016 107.984 468.169 236 468.169C364.016 468.169 468.169 364.016 468.169 236C468.169 107.984 364.016 3.83103 236 3.83103Z" fill="#122315"/>
<path d="M448.489 286.556C476.41 169.039 403.779 51.138 286.262 23.2167C168.745 -4.70459 50.8445 67.9269 22.9232 185.444C-4.99813 302.96 67.6333 420.861 185.15 448.783C302.667 476.704 420.568 404.072 448.489 286.556Z" fill="#122315"/>
<path d="M52.3282 202.131C57.0565 202.73 60.0043 206.565 59.4279 211.199C59.304 212.193 59.0173 213.137 58.5416 214.035L65.2709 214.885L64.6379 219.967L42.1094 217.125L42.9859 210.177C43.6542 204.841 47.4407 201.519 52.3401 202.134L52.3282 202.131ZM51.6322 207.373C49.4747 207.098 47.7643 208.515 47.4676 210.867L47.2551 212.603L54.0081 213.458C54.3731 212.92 54.6188 212.254 54.7108 211.552C54.9861 209.394 53.707 207.629 51.644 207.376L51.6322 207.373Z" fill="#EFE9E0"/>
<path d="M58.9141 199.326L45.1804 195.788L46.4603 190.822L60.1939 194.359C62.807 195.03 64.7247 193.95 65.3421 191.561C65.9596 189.173 64.7941 187.297 62.1929 186.629L48.4592 183.092L49.7391 178.125L63.4727 181.663C68.9089 183.067 71.2715 187.263 69.8618 192.723C68.4522 198.182 64.353 200.718 58.9169 199.314L58.9141 199.326Z" fill="#EFE9E0"/>
<path d="M61.1713 160.548L59.2527 165.574L76.165 172.028L74.3324 176.85L57.4201 170.397L55.5014 175.423L51.1971 173.776L56.867 158.901L61.1713 160.548Z" fill="#EFE9E0"/>
<path d="M77.2188 137.685C81.3749 140.009 82.6762 144.676 80.3958 148.755C79.8992 149.637 79.2922 150.404 78.5158 151.044L84.4341 154.361L81.9343 158.837L62.1149 147.746L65.5415 141.629C68.1684 136.933 72.9203 135.277 77.2307 137.688L77.2188 137.685ZM74.6026 142.284C72.707 141.221 70.587 141.892 69.4207 143.962L68.5692 145.496L74.5112 148.818C75.0491 148.447 75.5205 147.934 75.8669 147.317C76.9293 145.422 76.4093 143.3 74.588 142.293L74.6026 142.284Z" fill="#EFE9E0"/>
<path d="M90.5481 135.619L95.2644 128.909L99.0295 131.565L91.3562 142.468L72.7809 129.4L75.726 125.204L90.5362 135.616L90.5481 135.619Z" fill="#EFE9E0"/>
<path d="M110.174 118.565L106.213 116.625L100.99 122.527L103.396 126.221L99.6763 130.42L87.7885 109.599L91.7646 105.112L113.879 114.375L110.159 118.574L110.174 118.565ZM98.4358 118.611L102.022 114.555L92.8358 110.012L98.4358 118.611Z" fill="#EFE9E0"/>
<path d="M110.469 87.1502L114.319 83.769L129.284 100.837L125.483 104.168L110.008 99.6542L118.969 109.876L115.119 113.257L100.154 96.1889L104.159 92.6821L119.687 97.6577L110.469 87.1502Z" fill="#EFE9E0"/>
<path d="M133.501 75.8881L126.47 80.7241L128.91 84.2762L134.611 80.3606L137.163 84.0764L131.474 87.9949L134.118 91.8453L141.149 87.0092L143.758 90.8011L132.505 98.5305L119.643 79.8138L130.896 72.0844L133.504 75.8762L133.501 75.8881Z" fill="#EFE9E0"/>
<path d="M150.777 66.0931L146.063 68.6946L154.786 84.5421L150.274 87.0292L141.55 71.1817L136.836 73.7832L134.622 69.7481L148.573 62.0726L150.798 66.1105L150.777 66.0931Z" fill="#EFE9E0"/>
<path d="M174.055 56.4246L166.087 59.4768L167.737 63.7779L173.945 61.4065L175.602 65.734L169.394 68.1055L172.562 76.3762L167.768 78.2095L159.656 56.9999L172.416 52.1263L174.067 56.4274L174.055 56.4246Z" fill="#EFE9E0"/>
<path d="M183.35 72.5459L176.827 50.802L181.735 49.3329L188.258 71.0768L183.35 72.5459Z" fill="#EFE9E0"/>
<path d="M208.271 66.4776L203.132 67.5545C202.317 63.1523 199.294 60.7357 195.59 61.2417L197.167 68.7973L192.148 69.8404L187.512 47.6206L194.685 46.1279C199.415 45.1412 203.109 47.2552 203.996 51.5122C204.58 54.311 203.609 56.6653 201.397 58.0881C204.874 59.0141 207.407 61.9639 208.28 66.4922L208.271 66.4776ZM193.411 50.8581L194.701 57.0467L196.094 56.7533C198.223 56.3099 199.34 54.8144 198.947 52.9476C198.55 51.0426 196.907 50.1276 194.74 50.5744L193.4 50.8553L193.411 50.8581Z" fill="#EFE9E0"/>
<path d="M210.846 64.9419L210.263 59.196C211.854 60.6981 213.96 61.5605 215.702 61.375C217.25 61.2184 218.223 60.1755 218.083 58.8185C217.694 55.042 209.869 56.2299 209.194 49.7129C208.794 45.7715 211.239 42.893 215.272 42.4774C216.923 42.3078 218.45 42.6081 220.062 43.3909L220.582 48.4597C219.292 47.3166 217.939 46.8079 216.582 46.9475C215.225 47.0872 214.375 47.9842 214.492 49.1234C214.825 52.4497 222.637 51.3208 223.339 58.1941C223.779 62.5447 221.191 65.5516 216.508 66.025C214.474 66.2285 212.655 65.8962 210.858 64.9447L210.846 64.9419Z" fill="#EFE9E0"/>
<path d="M240.749 46.47L235.365 46.5272L235.536 64.6263L230.379 64.6749L230.209 46.5758L224.825 46.6329L224.783 42.0271L240.704 41.8761L240.746 46.4819L240.749 46.47Z" fill="#EFE9E0"/>
<mask id="mask0_9466_163975" style="mask-type:alpha" maskUnits="userSpaceOnUse" x="25" y="25" width="421" height="421">
<circle cx="235.5" cy="235.5" r="210.5" fill="#D9D9D9"/>
</mask>
<g mask="url(#mask0_9466_163975)">
<path d="M382.318 112.259C380.063 112.233 377.205 112.306 374.344 112.832C372.691 113.135 370.945 113.103 369.256 112.998C364.169 112.681 359.093 112.511 354.002 112.995C352.046 113.179 350.073 113.139 348.24 112.208C346.63 111.389 344.956 111.516 343.257 111.902C340.706 112.486 338.148 113.049 335.586 113.572C334.165 113.864 332.721 113.973 331.329 113.424C329.499 112.699 329.113 110.592 330.632 109.325C331.213 108.846 331.978 108.521 332.711 108.304C337.491 106.894 342.405 106.093 347.327 105.382C348.463 105.219 349.701 105.328 350.827 105.584C352.944 106.064 354.983 105.909 357.029 105.313C357.281 105.241 357.538 105.151 357.794 105.14C363.57 104.895 368.059 101.655 372.677 98.7286C374.549 97.5416 376.382 96.3653 378.518 95.5824C383.468 93.7712 388.466 93.6016 393.582 94.4495C394.48 94.5974 395.458 94.9257 396.291 94.7237C399.485 93.9588 402.559 94.7597 405.618 95.3298C408.963 95.954 412.041 95.9071 415.039 93.966C416.89 92.7681 419.036 92.0285 421.05 91.0868C423.312 90.0296 425.351 88.691 427.241 87.0061C429.377 85.1011 431.769 83.3584 434.472 82.3842C441.056 80.0137 448.067 83.261 450.946 88.1571C451.74 89.5065 452.418 90.9352 453.013 92.3857C453.583 93.7748 454.435 94.5397 455.994 94.334C458.646 93.9804 461.196 94.7056 463.783 95.0484C465.696 95.301 467.254 96.2463 468.499 97.6426C469.802 99.1038 471.046 100.634 472.183 102.232C473.402 103.946 474.564 105.663 476.361 106.858C476.884 107.204 477.321 107.76 477.645 108.312C477.891 108.73 478.046 109.311 477.988 109.791C477.674 112.389 473.341 114.351 471.526 112.497C469.466 110.39 467.121 110.148 464.462 109.798C459.115 109.098 453.76 109.289 448.41 109.152C446.425 109.102 444.545 108.849 442.687 108.045C440.122 106.937 437.452 106.594 434.627 107.229C432.992 107.597 431.246 107.529 429.55 107.554C426.671 107.601 423.788 107.644 420.913 107.55C416.179 107.395 411.507 107.814 406.863 108.726C405.712 108.954 404.525 108.979 403.36 109.131C402.328 109.264 401.26 109.315 400.275 109.618C393.769 111.638 389.757 112.273 382.314 112.262L382.318 112.259Z" fill="#AEDEE5"/>
<path d="M351.31 117.855C346.479 117.556 340.832 118.122 335.24 117.188C333.814 116.95 332.389 116.755 331.065 116.149C329.943 115.633 329.055 114.875 329.001 113.529C328.958 112.4 329.972 111.408 331.559 110.917C332.71 110.56 333.912 110.495 335.059 110.729C338.097 111.354 341.067 110.798 344.014 110.268C348.279 109.503 352.547 109.052 356.888 109.091C363.693 109.153 370.512 109.283 377.302 108.951C384.872 108.579 392.456 108.554 400.015 107.76C403.904 107.352 407.866 107.684 411.784 107.461C416.868 107.172 421.941 106.649 427.021 106.245C431.055 105.923 435.078 105.353 439.144 105.714C443.567 106.108 448.052 105.667 452.425 106.786C454.579 107.338 456.773 107.728 458.938 108.236C463.065 109.207 467.222 109.333 471.411 108.716C471.927 108.64 472.45 108.55 472.969 108.55C475.102 108.539 476.646 110.257 475.195 112.508C473.738 114.767 471.811 116.062 469.325 116.762C465.162 117.935 460.915 118.714 456.65 119.403C452.901 120.009 449.124 120.839 445.35 120.532C437.261 119.876 429.121 120.832 421.057 119.594C419.256 119.317 417.402 119.356 415.569 119.36C408.241 119.378 400.92 119.255 393.607 118.775C392.434 118.7 391.218 118.555 390.078 118.757C383.27 119.98 376.483 118.808 369.732 118.4C363.848 118.043 357.978 117.92 351.31 117.859V117.855Z" fill="#FFAA85"/>
</g>
</g>
<path d="M199.062 314.921C196.761 315.714 194.612 314.728 192.49 314.059C187.691 312.544 183.074 310.565 178.492 308.478C169.771 304.512 161.884 299.313 154.489 293.272C149.772 289.418 145.632 285.012 141.671 280.451C138.292 276.558 135.351 272.318 132.674 267.893C130.607 264.476 128.675 260.974 126.995 257.379C124.76 252.594 122.677 247.716 121.327 242.575C120.908 240.983 120.458 239.398 120.023 237.813C118.173 231.068 117.56 224.18 117.23 217.227C117.071 213.852 117.086 210.509 117.276 207.142C117.598 201.445 118.262 195.813 119.542 190.239C121.051 183.653 123.15 177.287 126.002 171.16C129.575 163.476 133.796 156.186 139.049 149.499C143.689 143.597 148.775 138.174 154.551 133.327C158.741 129.81 163.199 126.733 167.823 123.873C173.938 120.089 180.514 117.251 187.264 114.774C190.903 113.436 194.647 112.482 198.391 111.612C203.415 110.449 208.528 109.687 213.699 109.355C216.788 109.154 219.891 108.899 222.968 109.042C227.569 109.254 232.197 109.266 236.752 110.178C239.115 110.653 241.497 111.067 243.89 111.341C245.636 111.542 247.2 112.285 248.872 112.69C255.735 114.353 262.179 117.093 268.522 120.158C274.64 123.115 280.285 126.799 285.666 130.88C290.376 134.456 294.701 138.483 298.62 142.932C300.986 145.623 303.337 148.324 305.455 151.204C308.594 155.471 311.612 159.824 313.913 164.62C315.189 167.283 316.78 169.804 317.804 172.587C320.539 180.004 323.092 187.464 324.384 195.318C325.559 202.461 326.095 209.643 325.819 216.836C325.478 225.773 324.062 234.574 321.273 243.135C319.247 249.359 316.691 255.319 313.797 261.19C312.478 263.869 310.685 266.203 309.3 268.801C308.738 269.86 307.876 270.127 306.74 270.158C303.349 270.254 299.989 269.729 296.606 269.713C293.444 269.698 290.279 269.686 287.121 269.562C285.258 269.489 285.041 269.307 285.169 267.46C285.383 264.391 284.506 261.461 284.273 258.454C284.203 257.53 283.707 256.965 282.88 256.575C278.558 254.526 276.991 250.835 276.925 246.351C276.906 245.033 276.533 244.106 275.346 243.491C274.163 242.88 273.197 242.003 272.432 240.909C272.041 240.352 271.901 239.746 272.351 239.193C272.851 238.578 273.565 238.509 274.225 238.888C275.117 239.398 275.932 240.051 276.828 240.561C278.031 241.245 279.303 241.674 280.704 241.245C280.824 240.318 280.11 240.283 279.66 240.128C278.116 239.591 276.886 238.648 275.788 237.465C272.626 234.056 268.782 232.854 264.165 233.689C261.721 234.133 259.296 234.609 256.871 235.138C253.217 235.934 249.601 235.618 246.16 234.01C245.206 233.561 244.593 232.92 244.635 231.791C244.655 231.242 244.608 230.689 244.616 230.14C244.639 227.701 245.341 227.184 247.793 227.655C249.077 227.902 250.381 228.092 251.688 228.161C252.856 228.223 254.024 228.065 254.753 227.017C254.707 226.159 254.098 225.908 253.547 225.649C251.716 224.787 250.249 223.392 248.561 222.325C247.599 221.714 247.723 221.057 248.294 220.261C248.938 219.364 249.733 218.777 250.878 218.804C252.336 218.835 253.756 218.44 255.196 218.378C257.081 218.297 257.966 217.002 258.862 215.708C259.226 215.182 259.238 214.486 258.703 214.003C258.078 213.439 257.562 213.844 257.104 214.32C256.627 214.815 256.169 215.333 255.684 215.82C254.877 216.627 254.745 216.647 253.019 216.299C253.132 215.441 253.873 215.074 254.408 214.621C256.111 213.172 256.662 211.212 256.953 209.144C257.054 208.433 257.186 207.571 255.983 207.328C254.687 208.881 255.366 211.332 253.83 212.7C252.425 213.953 251.207 215.503 248.934 216.434C249.372 213.968 248.821 211.784 250.016 209.666C251.106 207.734 251.316 205.484 251.591 203.3C251.642 202.894 251.58 202.461 250.831 202.133C249.361 203.725 250.005 206.555 247.813 207.884C246.385 207.536 246.199 205.592 244.697 205.132C244.088 205.932 244.309 206.651 244.686 207.304C245.097 208.016 245.5 208.808 246.117 209.311C247.456 210.401 247.529 211.719 247.184 213.211C246.858 214.618 246.649 216.059 246.067 217.393C245.221 219.337 243.689 219.708 242.156 218.278C240.822 217.033 239.285 215.947 238.381 214.169C240.178 213.041 242.626 213.323 243.786 211.297C244.018 210.888 243.898 210.501 243.506 210.184C242.455 209.871 241.609 210.868 240.469 210.752C239.86 208.487 241.594 206.214 240.507 203.88C239.429 204.282 239.433 205.159 239.324 205.925C239.087 207.567 238.762 209.187 238.052 210.69C237.745 211.34 237.439 212.267 236.473 212.012C235.639 211.792 235.15 211.089 235.092 210.153C234.944 207.838 235.154 205.611 236.601 203.667C236.764 203.447 236.938 203.23 237.082 202.995C237.38 202.512 237.671 201.947 237.155 201.499C236.515 200.938 235.988 201.452 235.569 201.909C235.15 202.361 234.793 202.871 234.451 203.385C233.997 204.065 233.563 204.75 232.818 205.248C231.383 203.362 233.113 201.279 232.298 199.408C231.099 199.168 230.839 199.976 230.549 200.757C229.218 204.313 229.827 207.695 231.689 210.845C233.086 213.211 234.673 215.452 237.272 216.79C238.242 217.292 239.274 218.038 239.188 219.542C237.439 220.029 236.449 217.524 234.51 218.51C234.898 220.964 236.88 222.174 238.552 223.531C238.703 224.474 238.017 224.976 237.683 225.622C235.976 228.931 234.475 232.297 233.869 236.023C232.969 241.539 234.261 246.506 237.287 251.117C238.606 253.131 239.817 255.218 241.299 257.124C241.865 257.851 242.273 258.693 242.152 259.609C241.792 262.408 241.97 265.241 241.442 268.032C241.202 269.296 240.569 269.825 239.344 269.775C235.142 269.601 230.94 269.775 226.727 269.512C223.1 269.288 219.422 269.647 215.783 269.926C213.036 270.134 210.32 270.714 207.574 270.954C203.698 271.294 201.39 273.551 200.218 276.972C199.601 278.773 200.152 280.775 200.067 282.689C199.911 286.187 199.946 289.693 199.772 293.191C199.714 294.362 199.644 295.494 199.845 296.666C200.292 299.286 199.477 301.853 199.345 304.454C199.178 307.79 198.177 311.106 199.225 314.457C199.256 314.562 199.151 314.709 199.073 314.933L199.062 314.921Z" fill="#FFEE52"/>
<path d="M256.293 406.872C249.209 406.675 242.129 407.178 235.049 407.193C233.059 407.197 232.818 404.112 234.816 404.109C241.652 404.093 248.488 403.625 255.327 403.768C258.478 403.834 261.589 404.101 264.72 404.456C268.196 404.851 271.715 405.199 275.156 404.364C275.245 404.344 275.327 404.337 275.412 404.329C276.343 402.771 275.622 401.329 273.825 400.947C273.36 400.846 272.867 400.842 272.382 400.842C264.39 400.819 256.398 400.823 248.402 400.781C239.518 400.73 230.634 400.707 221.754 400.526C219.348 400.475 216.978 400.87 214.541 400.56C211.275 400.143 207.954 400.645 204.648 400.572C202.604 400.529 200.536 400.831 198.476 400.634C196.063 400.406 193.654 400.556 191.245 400.553C189.32 400.553 187.412 400.808 185.491 400.696C183.706 400.591 181.902 400.363 180.133 400.51C175.257 400.916 170.376 400.63 165.5 400.738C160.398 400.854 155.289 400.769 150.183 400.804C138.055 400.881 125.924 400.692 113.8 401.21C112.986 401.244 112.097 401.078 111.449 401.743C110.794 402.412 111.368 403.181 111.36 403.908C111.36 403.969 111.352 404.035 111.345 404.101C135.239 403.939 159.199 402.385 183.004 405.179C184.995 405.411 184.405 408.449 182.434 408.221C159.168 405.492 135.743 406.988 112.384 407.181C112.493 407.267 112.609 407.348 112.73 407.429C114.98 408.929 117.144 410.567 119.441 411.986C121.102 412.029 122.758 412.191 124.419 412.346C126.96 412.581 129.509 412.558 132.054 412.74C134.56 412.918 137.062 413.235 139.58 413.231C142.125 413.231 144.666 412.906 147.207 412.794C152.425 412.562 157.589 412.62 162.772 413.292C168.111 413.98 173.391 413.841 178.756 413.826C180.746 413.822 180.987 416.907 178.989 416.91C173.748 416.922 168.537 417.123 163.323 416.477C158.008 415.817 152.798 415.639 147.44 415.878C144.783 415.998 142.125 416.338 139.464 416.315C137.144 416.296 134.835 416.052 132.527 415.863C130.095 415.662 127.654 415.701 125.222 415.507C125.167 415.503 125.113 415.5 125.059 415.492C127.623 417.177 130.164 418.889 132.868 420.35C135.351 421.692 137.675 423.334 140.193 424.595C149.341 429.159 159.091 432.209 168.677 435.665C173.883 437.539 179.346 438.44 184.68 439.816C191.613 441.609 198.74 442.483 205.812 443.581C208.664 444.025 211.605 443.959 214.406 444.477C219.992 445.513 225.637 445.587 231.255 446.031C235.848 446.398 240.465 446.344 245.07 445.985C245.861 445.923 246.567 445.699 247.091 445.096C247.828 444.249 248.802 443.728 249.702 443.098C251.82 441.613 254.284 440.628 256.049 438.614C257.225 437.273 258.916 436.287 259.587 434.621C260.456 432.464 261.977 430.999 263.688 429.581C264.906 428.572 266.016 427.432 267.118 426.295C267.626 425.773 268.254 425.263 268.231 424.324C265.958 423.802 263.855 424.448 261.733 424.386C261.046 424.366 260.301 424.347 259.863 423.845H232.248C230.258 423.845 230.017 420.76 232.015 420.76H260.662C262.974 418.735 265.065 416.497 267.164 414.259C263.544 414.05 259.944 414.502 256.336 414.935C252.352 415.415 248.507 415.546 244.507 415.229C236.124 414.572 227.779 414.649 219.371 414.649C217.381 414.649 217.141 411.565 219.139 411.565C227.561 411.565 235.945 411.426 244.34 412.129C248.841 412.504 253.116 412.206 257.585 411.669C261.674 411.178 265.736 410.857 269.837 411.414C269.849 411.414 269.856 411.418 269.868 411.422C270.043 411.244 270.213 411.062 270.392 410.884C271.354 409.914 272.235 408.878 273.053 407.792C267.494 408.333 261.865 407.023 256.282 406.868L256.293 406.872ZM184.486 413.122C188.816 413.115 193.146 413.01 197.467 412.79C201.51 412.581 205.603 413.273 209.618 412.705C211.605 412.427 211.818 415.511 209.851 415.789C205.836 416.354 201.743 415.666 197.7 415.874C193.374 416.095 189.049 416.203 184.719 416.207C182.729 416.207 182.488 413.126 184.486 413.122ZM223.457 421.514C225.493 421.97 225.827 422.229 225.827 422.415C225.819 422.967 222.82 423.342 221.917 423.458C214.406 424.401 207.919 422.53 200.49 422.588C194.686 422.631 181.002 423.91 177.266 422.813C176.855 422.693 175.633 422.333 175.652 421.935C175.668 421.576 176.677 421.355 177.034 421.278C182.744 420.022 213.544 420.675 217.137 420.644C219.5 420.625 220.819 420.923 223.457 421.514ZM229.303 407.193C222.312 407.819 215.302 407.085 208.303 407.491C201.316 407.897 194.356 407.893 187.357 407.885C185.367 407.885 185.126 404.8 187.124 404.8C194.123 404.808 201.079 404.808 208.07 404.406C215.069 404 222.079 404.735 229.07 404.109C231.068 403.931 231.29 407.015 229.303 407.193Z" fill="#4177ED"/>
<path d="M169.561 388.702C171.047 388.311 172.013 387.519 172.665 386.525C173.969 384.535 175.711 382.977 177.418 381.385C179.284 379.645 180.851 377.62 182.698 375.884C186.484 372.328 189.188 367.698 193.821 364.977C195.244 364.138 196.618 363.268 198.166 362.627C200.773 361.544 203.294 360.249 205.855 359.059C206.418 358.8 206.996 358.564 207.589 358.379C209.595 357.76 211.317 358.448 212.334 360.269C212.873 361.231 212.613 362.205 212.078 363.005C210.611 365.205 209.727 367.648 208.8 370.09C207.589 373.283 204.776 374.064 201.778 374.733C199.31 375.281 196.757 375.266 194.34 376.228C192.005 377.156 190.321 378.849 188.482 380.376C185.309 383.016 182.403 385.969 179.423 388.806C177.27 390.858 175.001 392.907 173.212 395.35C172.479 396.355 171.563 396.939 170.256 396.95C165.558 397.004 160.871 396.772 156.189 396.486C154.815 396.401 154.679 396.092 154.862 394.55C155.378 390.174 156.538 385.938 157.62 381.682C158.803 377.032 159.886 372.355 161.026 367.694C161.337 366.426 161.154 365.104 161.635 363.84C162.256 362.201 163.308 361.05 164.813 360.195C169.069 357.779 172.995 354.865 177.022 352.109C179.408 350.478 181.674 348.677 184.044 347.022C185.976 345.673 186.744 343.528 187.683 341.603C189.406 338.078 191.501 334.754 193.145 331.198C194.131 329.068 196.172 328.195 198.01 327.221C202.313 324.944 205.727 321.751 208.675 317.82C207.826 316.491 206.747 315.362 205.56 314.342C203.023 312.158 202.103 309.568 203.054 306.24C204.42 301.47 204.78 296.55 204.831 291.602C204.846 290.095 204.932 288.572 205.149 287.084C205.56 284.266 205.242 281.475 205.032 278.677C204.912 277.088 205.642 275.979 207.306 275.442C208.353 275.105 209.444 274.827 210.561 274.897C214.786 275.159 218.945 274.444 223.123 274.085C226.758 273.772 230.397 273.602 234.044 273.617C241.497 273.64 248.953 273.602 256.406 273.698C259.087 273.733 261.76 274.096 264.441 274.29C267.459 274.506 270.477 274.715 273.515 274.595C274.539 274.553 275.575 274.761 276.603 274.87C281.55 275.391 286.515 274.599 291.462 275.071C292.009 275.121 292.556 275.14 293.103 275.186C295.357 275.368 297.584 275.701 299.884 275.438C303.178 275.067 306.476 275.77 309.793 275.789C315.096 275.82 320.392 276.249 325.703 276.11C327.503 276.064 329.292 276.137 330.972 276.941C331.67 277.278 332.473 277.579 332.454 278.464C332.43 279.485 331.484 279.759 330.712 279.96C329.715 280.215 328.667 280.412 327.647 280.401C323.461 280.362 319.294 281.011 315.077 280.416C311.958 279.976 308.753 280.331 305.599 280.289C301.258 280.227 296.975 280.965 292.649 280.814C289.425 280.702 286.178 280.408 282.977 280.652C278.217 281.015 273.468 280.791 268.712 280.872C266.229 280.915 263.773 280.617 261.317 280.223C259.281 279.894 257.197 280.153 255.137 279.821C254.129 279.659 253.163 280.149 252.495 281.116C250.912 283.404 248.693 285.047 246.61 286.848C244.585 288.599 242.292 290.052 240.527 292.093C239.475 293.307 238.133 294.165 236.919 295.178C236.275 295.711 235.476 296.016 234.641 296.101C232.756 296.291 231.674 294.741 232.457 293.025C232.601 292.715 232.737 292.368 232.969 292.136C235.759 289.387 237.947 286.059 241.136 283.698C242.242 282.878 243.382 282.101 244.492 281.286C244.86 281.015 245.369 280.834 245.353 280.122C243.464 280.122 241.574 280.107 239.685 280.134C239.227 280.142 238.998 280.54 238.785 280.903C236.981 283.937 234.04 285.858 231.511 288.162C228.713 290.709 225.839 293.172 223.232 295.916C222.657 296.519 222.083 297.118 221.385 297.559C217.742 299.866 215.938 298.741 214.452 295.038C214.184 294.37 214.293 293.701 214.565 293.032C215.143 291.602 216.012 290.392 217.129 289.329C219.926 286.67 222.223 283.539 225.086 280.938C225.156 280.872 225.121 280.691 225.14 280.521C224.054 280.521 222.941 280.354 221.893 280.551C218.739 281.143 215.569 280.923 212.4 280.923C210.553 280.923 210.402 281.174 210.386 282.894C210.34 288.773 211.558 294.625 210.805 300.516C210.658 301.679 211.174 302.386 212.047 303.129C214.103 304.887 216.264 305.494 218.933 304.694C222.13 303.739 225.396 303.635 228.694 304.404C231.546 305.073 234.063 304.319 236.449 302.553C240.666 299.441 244.577 295.97 248.62 292.654C249.628 291.826 250.598 290.945 251.522 290.021C252.732 288.808 254.315 288.274 255.812 287.59C256.771 287.149 257.686 287.3 258.47 288.089C259.261 288.885 259.3 289.774 258.908 290.748C258.598 291.525 258.198 292.256 257.597 292.831C254.761 295.541 251.952 298.285 248.554 300.33C247.789 300.79 247.099 301.374 246.373 301.903C245.978 302.193 245.597 302.533 245.555 303.047C245.341 305.691 243.553 307.69 242.668 310.059C242.428 310.701 242.083 311.307 241.842 311.949C241.264 313.484 241.978 314.883 243.576 314.91C247.134 314.979 250.757 315.443 254.059 313.426C255.471 312.564 257.065 312.1 258.741 311.879C261.038 311.578 263.075 310.623 264.945 309.243C266.105 308.389 267.389 307.697 268.642 306.974C269.057 306.735 269.585 306.565 269.965 307.036C270.423 307.608 270.054 308.091 269.624 308.459C268.417 309.487 267.214 310.523 265.954 311.481C262.827 313.851 259.68 316.193 256.522 318.524C253.675 320.623 250.4 321.581 246.932 321.979C244.95 322.207 242.959 322.405 240.973 322.602C240.092 322.687 239.444 323.096 238.886 323.777C236.791 326.32 234.331 328.562 232.558 331.372C231.887 332.439 230.82 333.127 229.974 334.027C228.178 335.933 226.432 337.877 224.896 340.003C223.775 341.553 222.378 342.647 220.334 342.887C218.553 343.095 217.199 344.247 216.012 345.53C215.123 346.489 214.27 347.482 213.436 348.491C211.558 350.76 208.978 351.781 206.309 352.82C201.739 354.602 196.858 355.395 192.358 357.347C190.845 358.004 189.371 358.73 187.842 359.36C186.209 360.033 185.192 361.521 184.362 363.048C180.215 370.717 176.386 378.567 171.397 385.764C170.799 386.626 169.946 387.364 169.581 388.694L169.561 388.702ZM189.793 350.915C190.62 351.193 191.159 350.946 191.621 350.722C195.112 349.032 198.922 348.321 202.565 347.107C206.15 345.917 209.665 344.688 212.539 341.974C214.049 340.548 215.798 338.967 217.882 338.569C220.919 337.989 222.58 336.389 223.751 333.614C225.09 330.456 227.456 327.855 229.346 324.994C230.669 322.996 229.963 320.773 229.811 318.628C229.796 318.416 229.482 318.203 229.268 318.037C227.697 316.8 226.006 315.737 224.267 314.751C223.724 314.442 223.076 314.148 222.537 314.659C221.637 315.505 220.601 316.309 220.004 317.349C218.157 320.553 216.113 323.641 214.409 326.942C213.296 329.099 211.938 331.252 209.188 331.859C206.767 332.392 204.42 333.189 202.088 334.047C201.037 334.433 200.311 334.928 199.795 335.914C198.62 338.163 197.599 340.494 196.094 342.57C194.084 345.341 192.168 348.182 189.786 350.919L189.793 350.915Z" fill="#AEFFE4"/>
<path d="M392.029 222.46C392.331 223.078 392.801 223.179 393.251 223.364C394.989 224.083 395.78 225.776 395.295 227.535C394.81 229.298 393.697 230.716 392.715 232.193C392.168 233.016 390.892 232.977 389.724 232.135C388.498 231.249 387.303 230.306 386.209 229.27C384.316 227.477 382.632 225.448 380.638 223.782C378.551 222.042 378.811 219.831 380.045 217.91C381.631 215.429 383.416 213.063 384.793 209.917C383.653 210.613 382.846 211.146 382 211.614C381.36 211.97 380.673 212.569 379.932 211.908C379.203 211.258 379.304 210.35 379.684 209.608C380.339 208.328 381.108 207.095 381.907 205.893C386.038 199.686 389.666 193.231 391.784 186.03C392.005 185.284 392.335 184.623 392.995 184.167C394.562 183.084 396.075 183.683 396.475 185.639C397.526 190.803 399.578 195.589 401.918 200.269C402.162 200.76 402.449 201.232 402.759 201.688C402.86 201.839 403.089 201.9 403.38 202.078C404.296 201.143 404.494 199.91 404.785 198.754C405.289 196.756 405.7 194.734 406.166 192.724C406.336 191.978 406.569 191.252 407.33 190.869C408.474 190.293 409.902 190.869 410.146 192.361C410.899 196.91 413.261 200.857 414.736 205.132C416.198 209.368 418.646 213.129 421.114 216.855C421.568 217.543 422.091 218.204 422.429 218.95C422.926 220.052 422.413 220.713 421.211 220.554C419.015 220.268 417.417 219.078 416.253 217.215C414.503 214.416 412.815 211.591 411.329 208.642C411.252 208.487 411.038 208.402 410.674 208.116C409.739 210.706 409.65 213.195 410.433 215.634C411.124 217.779 411.927 219.889 413.661 221.548C414.468 222.321 415 223.465 414.542 224.798C413.486 225.123 412.668 224.779 411.869 224.161C410.41 223.032 409.498 221.501 408.598 219.951C407.981 218.884 407.337 217.818 405.848 217.505C405.196 218.734 405.363 219.882 405.972 221.014C406.953 222.839 408.206 224.481 409.487 226.101C409.743 226.426 410.084 226.692 410.282 227.044C410.639 227.674 410.744 228.389 410.297 228.996C409.906 229.529 409.289 229.657 408.618 229.522C408.234 229.444 407.865 229.112 407.337 229.46C408.047 230.875 408.971 232.115 410.239 233.093C412.202 234.605 414.177 236.097 416.132 237.619C416.935 238.246 417.932 238.81 417.172 240.12C416.579 241.141 415.915 241.342 414.317 240.971C413.797 240.851 413.316 240.503 412.559 240.658C413.39 242.08 414.627 242.795 416.039 243.301C417.013 243.649 417.995 243.974 418.949 244.36C419.647 244.643 420.109 245.164 419.927 245.968C419.729 246.85 419.213 247.406 418.227 247.495C417.114 247.6 416.121 247.024 415.054 246.85C414.879 247.773 415.43 248.133 415.907 248.508C417.917 250.1 420.078 251.415 422.545 252.215C423.612 252.559 424.982 252.671 425.102 254.213C425.23 255.833 424.497 256.988 423.026 257.684C422.716 257.831 422.406 257.989 422.115 258.171C421.634 258.473 421.125 258.82 421.447 259.477C421.754 260.108 422.363 260.355 423.015 260.138C423.593 259.945 424.128 259.609 424.664 259.3C425.257 258.952 425.835 258.898 426.409 259.3C427.065 259.764 427.131 260.425 426.972 261.143C426.72 262.288 425.998 263.119 425.094 263.776C424.38 264.294 423.589 264.699 422.623 265.275C423.597 265.554 424.376 265.426 425.149 265.299C425.622 265.221 426.091 265.04 426.565 265.02C427.465 264.986 428.454 264.958 428.892 265.952C429.284 266.837 429.106 267.792 428.419 268.441C427.686 269.133 427.569 269.798 427.666 270.776C427.849 272.654 426.825 273.729 424.877 273.868C420.299 274.196 415.969 273.304 411.939 271.085C411.213 270.687 410.503 270.262 409.793 269.84C408.396 269.017 407.966 268.143 408.292 266.802C408.575 265.635 409.297 265.179 410.976 265.024C412.063 264.924 413.172 265.241 414.441 264.808C413.304 263.316 411.88 262.299 410.433 261.337C409.262 260.556 408.299 259.609 407.539 258.442C407.194 257.912 406.946 257.363 406.93 256.718C406.903 255.4 407.407 254.866 408.742 254.754C409.122 254.723 409.525 255.063 409.913 254.661C407.004 251.546 404.257 248.307 401.964 244.72C401.557 244.086 401.138 243.425 400.909 242.722C400.618 241.821 400.311 240.801 401.239 240.055C401.953 239.479 403.268 239.9 404.137 240.905C404.404 241.218 404.61 241.589 404.897 241.883C405.312 242.304 405.607 242.876 406.379 243.116C405.588 241.013 404.187 239.39 403.202 237.538C401.79 234.879 400.482 232.27 399.667 229.282C397.891 222.788 396.665 216.148 394.531 209.751C394.147 208.603 393.825 207.412 392.901 206.199C390.415 210.056 387.648 213.45 385.732 217.729C387.61 217.362 388.905 216.376 390.275 215.553C390.981 215.127 391.613 214.567 392.448 214.385C393.852 214.084 394.736 214.795 394.748 216.229C394.756 217.168 394.321 217.941 393.867 218.722C393.15 219.955 392.3 221.13 392.04 222.464L392.029 222.46Z" fill="#006739"/>
<path d="M405.103 316.587C407.683 318.002 408.063 319.443 406.666 322.122C405.204 324.924 403.741 327.734 401.945 330.34C400.176 332.906 398.923 335.732 397.627 338.538C396.327 341.344 395.109 344.189 393.844 347.014C391.986 351.166 389.169 354.563 385.79 357.597C383.975 359.229 382.147 360.728 379.827 361.548C378.38 362.058 377.026 361.992 375.688 361.123C373.891 359.955 373.566 358.742 374.908 357.068C378.097 353.091 380.875 348.819 383.936 344.753C384.258 344.328 384.704 343.949 384.661 343.308C383.951 343.076 383.303 343.354 382.64 343.485C381.561 343.694 380.44 343.621 379.882 342.612C379.276 341.522 379.773 340.393 380.654 339.647C382.353 338.205 383.843 336.582 384.991 334.7C386.205 332.709 387.059 330.494 388.533 328.658C390.477 326.235 391.862 323.475 393.441 320.827C393.945 319.981 394.209 319.32 393.223 318.531C391.908 317.48 391.897 316.711 393.088 315.482C394.477 314.051 395.982 312.737 397.126 311.075C400.424 306.267 404.075 301.717 406.938 296.584C408.203 294.319 409.172 291.903 410.565 289.704C411.566 288.119 412.327 287.501 413.591 287.69C415.054 287.911 416.129 289.12 416.342 290.798C416.61 292.908 417.091 294.996 417.129 297.137C417.141 297.844 417.432 298.467 417.754 299.081C420.303 303.905 423.721 308.114 427.119 312.339C427.566 312.896 428.221 313.155 428.776 313.557C430.231 314.608 430.564 315.713 429.668 317.275C429.261 317.99 429.176 318.624 429.226 319.409C429.338 321.214 429.098 322.996 428.229 324.607C427.569 325.829 427.488 327.224 426.817 328.457C425.948 330.046 424.873 331.433 423.461 332.69C424.834 334.792 423.678 336.242 422.188 337.502C420.947 338.553 420.148 339.821 419.403 341.263C417.987 343.999 416.474 346.701 414.045 348.773C412.734 349.89 411.799 351.212 411.939 353.218C412.036 354.598 411.368 356.044 410.48 357.219C409.836 358.069 408.963 358.684 407.815 358.486C406.616 358.282 405.937 357.273 405.929 356.291C405.917 353.983 404.757 352.089 404.04 350.045C403.45 348.363 403.423 346.674 403.66 344.966C404.013 342.392 406.596 341.027 408.707 342.279C409.968 343.025 410.166 344.374 410.457 345.642C410.608 346.303 410.325 347.011 410.713 347.896C413.63 344.127 414.697 339.551 417.176 335.67C415.993 333.107 414.507 330.676 414.037 327.858C413.708 325.883 413.51 323.904 414.712 322.11C415.609 320.777 416.447 320.557 417.882 321.241C419.232 321.882 420.373 322.713 420.683 324.318C420.741 324.623 420.811 324.998 421.3 325.199C421.983 324.093 422.014 322.748 422.545 321.589C422.778 321.078 422.483 320.68 422.157 320.29C421.541 319.552 420.982 318.763 420.349 318.036C417.77 315.083 415.422 311.964 413.506 308.358C411.807 309.707 410.938 311.527 409.685 313.019C408.435 314.504 406.771 315.474 405.11 316.583L405.103 316.587Z" fill="#006739"/>
<path d="M296.541 408.433C294.969 412.979 292.587 416.89 289.949 420.686C290.453 421.053 290.954 420.817 291.326 420.628C292.766 419.894 293.697 420.671 294.562 421.621C295.45 422.596 295.179 423.651 294.671 424.694C293.483 427.126 291.939 429.282 289.953 431.153C287.742 433.233 285.321 435.061 282.989 436.994C281.662 438.091 280.615 439.491 279.152 440.438C278.109 441.114 277.1 441.848 275.804 441.933C275.059 441.984 274.543 442.444 273.969 442.815C270.093 445.296 265.919 446.247 261.376 445.173C259.836 444.809 259.568 444.268 260.232 442.822C261.213 440.677 262.614 438.806 264.165 437.048C267.665 433.086 271.389 429.309 274.524 425.042C276.514 422.333 278.221 419.441 279.703 415.986C278.431 416.558 277.418 416.902 276.522 417.443C275.37 418.139 274.086 418.359 272.848 418.765C271.766 419.121 270.73 419.148 270.101 418.089C269.496 417.068 270.21 416.245 270.865 415.538C271.8 414.529 272.836 413.613 273.764 412.596C277.022 409.025 279.591 404.954 282.268 400.954C285.666 395.879 287.951 390.305 289.759 384.519C290.407 382.447 291.322 381.612 292.82 381.798C294.465 382.002 295.606 383.332 295.718 385.265C296.048 390.896 297.798 396.161 299.819 401.367C300.719 403.694 302.139 405.689 303.392 407.811C304.831 410.25 306.457 412.523 308.09 414.815C308.734 415.715 309.502 416.457 310.305 417.219C312.916 419.697 315.927 421.61 318.879 423.612C319.221 423.844 319.554 424.095 319.837 424.393C322.565 427.234 321.901 429.619 318.049 430.589C316.982 430.856 315.942 431.107 314.906 431.517C312.602 432.433 310.852 431.814 309.467 429.205C306.88 424.335 303.504 419.983 300.614 415.313C299.217 413.056 297.669 410.895 296.541 408.437V408.433Z" fill="#006739"/>
<path d="M328.326 361.328C327.457 361.791 326.537 362.236 325.676 362.762C325.044 363.144 324.403 363.256 323.697 363.144C321.641 362.82 320.92 361.351 321.905 359.538C322.351 358.715 323.053 358.177 323.806 357.686C326.18 356.137 327.821 354.022 329.102 351.494C330.657 348.421 331.844 345.19 333.404 342.125C334.126 340.706 334.948 339.357 336.228 338.364C338.075 336.934 340.496 337.804 341.027 340.096C341.167 340.691 341.272 341.336 341.194 341.936C340.403 348.085 341.683 354.1 342.347 360.153C342.789 364.176 343.056 368.215 343.518 372.239C343.906 375.629 342.769 378.872 341.99 382.146C341.291 385.08 340.05 387.874 339.782 390.912C339.759 391.183 339.666 391.453 339.937 391.809C341.101 392.176 342.257 391.774 343.421 391.345C344.709 390.874 345.974 390.356 347.386 390.282C348.461 390.224 349.326 390.526 349.83 391.461C350.37 392.458 349.912 393.317 349.213 394.074C345.993 397.564 342.831 401.101 339.972 404.901C338.568 406.768 337.125 408.608 335.755 410.498C335.103 411.398 334.378 412.202 333.524 412.913C332.682 413.613 331.79 414.181 330.719 413.563C329.559 412.894 328.493 412.024 328.69 410.49C328.904 408.859 329.226 407.239 329.587 405.631C329.847 404.479 329.912 403.331 329.912 402.156C329.912 398.044 330.137 393.939 330.262 389.83C330.374 386.197 330.778 382.575 330.747 378.938C330.719 375.958 329.761 373.14 329.544 370.283C328.749 370.067 328.636 370.538 328.442 370.875C326.103 374.933 324.38 379.289 322.316 383.472C319.814 388.531 318.413 394.059 315.38 398.871C314.123 400.865 312.734 402.725 311.003 404.309C309.475 405.705 308.229 405.875 307.128 404.986C305.968 404.046 305.762 402.5 306.856 400.923C310.627 395.466 312.897 389.204 316.252 383.53C316.349 383.367 316.462 383.174 316.214 382.884C315.333 383.259 314.433 383.777 313.393 383.854C311.578 383.982 310.778 382.88 311.585 381.268C312.187 380.07 313.18 379.173 314.313 378.505C315.639 377.724 316.757 376.719 317.808 375.633C319.387 374.006 321.063 372.467 322.615 370.825C324.834 368.478 326.638 365.776 328.341 363.021C328.636 362.541 328.861 362.039 328.33 361.328H328.326Z" fill="#006739"/>
<path d="M361.764 237.361C361.465 238.072 361.302 238.377 361.209 238.698C360.554 240.913 359.545 242.896 357.733 244.434C357.163 244.917 356.15 245.621 357.035 246.44C357.95 247.287 358.416 246.1 358.943 245.574C359.281 245.238 359.533 244.813 359.832 244.434C360.294 243.85 360.852 243.518 361.632 243.727C362.478 243.955 362.854 244.558 362.974 245.373C363.137 246.471 362.819 247.43 362.07 248.218C361.457 248.867 360.806 249.494 360.103 250.043C359.378 250.607 358.85 251.314 358.311 252.025C357.923 252.539 357.923 253.054 358.389 253.51C358.866 253.974 359.401 253.881 359.898 253.544C360.883 252.876 361.539 251.882 362.346 251.04C362.792 250.572 363.075 249.679 363.952 250.128C364.875 250.599 364.774 251.484 364.507 252.304C364.01 253.807 363.475 255.264 362.198 256.37C360.689 257.676 359.673 259.451 358.078 260.703C357.279 261.333 357.221 262.203 357.919 263.157C359.297 263.018 360.069 262.083 360.782 261.074C361.461 260.119 362.109 259.137 363.172 258.55C363.711 258.252 364.255 257.854 364.895 258.291C365.585 258.763 365.519 259.451 365.364 260.15C364.825 262.57 363.273 264.286 361.399 265.766C360.806 266.238 360.15 266.64 359.743 267.301C359.506 267.684 359.529 268.074 359.836 268.561C361.838 268.457 362.361 266.126 364.103 265.701C364.922 267.069 364.72 267.977 363.176 269.021C361.407 270.215 359.564 271.298 357.752 272.43C356.585 273.161 355.432 273.911 354.451 274.892C353.939 275.403 353.512 275.963 353.962 276.709C354.47 277.555 355.223 277.42 355.96 277.08C358.684 275.835 361.058 274.084 363.215 272.028C363.564 271.696 363.836 271.282 364.2 270.973C365.108 270.211 366.578 270.239 367.444 270.988C368.243 271.68 368.297 272.554 367.479 273.76C366.392 275.364 365.131 276.821 363.444 277.845C360.01 279.925 356.453 281.73 352.554 282.789C350.61 283.319 348.651 283.624 346.63 283.427C345.326 283.299 344.321 282.692 343.468 281.73C343.836 280.74 344.872 280.439 345.179 279.573C345.446 278.812 345.997 278.031 345.117 277.327C344.248 276.632 343.448 276.895 342.727 277.613C342.335 278.004 341.97 278.417 341.567 278.792C341 279.322 340.341 279.666 339.538 279.716C338.296 279.793 337.117 279.542 336.457 278.441C335.844 277.42 336.062 276.257 336.733 275.317C338.056 273.462 339.518 271.715 341.54 270.563C343.169 269.636 344.593 268.449 346.001 267.231C346.478 266.818 346.886 266.362 347.126 265.774C347.386 265.148 347.34 264.553 346.843 264.058C346.284 263.501 345.706 263.726 345.155 264.085C344.868 264.274 344.612 264.51 344.337 264.719C343.681 265.214 342.971 265.453 342.254 264.897C341.528 264.336 341.28 263.555 341.575 262.686C341.862 261.832 342.378 261.124 343.06 260.494C345.532 258.214 347.704 255.62 350.424 253.587C351.153 253.042 351.991 252.42 352.096 251.256C351.087 250.019 350.257 250.731 349.365 251.477C348.123 252.509 347.378 252.481 346.556 251.511C346.11 250.986 346.032 250.398 346.226 249.772C346.346 249.382 346.459 248.945 346.711 248.639C348.729 246.212 350.738 243.777 352.841 241.423C353.481 240.708 354.234 240.093 354.715 239.247C354.986 238.768 355.266 238.25 354.878 237.705C354.517 237.194 353.974 237.14 353.396 237.191C352.926 237.233 352.531 237.678 351.902 237.38C351.557 236.035 352.034 234.74 352.534 233.484C353.597 230.797 354.688 228.119 356.03 225.556C356.573 224.524 357.085 223.477 357.415 222.34C357.687 221.405 358.113 220.508 359.316 220.446C360.418 220.392 361.516 221.123 361.958 222.39C362.528 224.014 363.091 225.633 363.777 227.214C364.988 229.997 366.365 232.676 368.123 235.169C368.86 236.213 369.659 237.353 368.945 238.779C368.681 239.313 369.023 239.695 369.314 240.082C371.071 242.405 373.069 244.469 375.571 246.015C377.096 246.958 378.601 247.924 380.126 248.867C380.898 249.343 381.728 249.768 381.6 250.881C381.48 251.925 380.584 252.068 379.82 252.362C379.695 252.408 379.598 252.516 379.389 252.667C379.99 255.338 381.721 257.371 383.443 259.404C383.711 259.717 384.017 259.999 384.297 260.305C384.832 260.885 385.313 261.542 384.847 262.33C384.359 263.161 383.528 263.532 382.555 263.405C381.887 263.32 381.259 262.933 380.401 263.192C380.39 264.526 381.111 265.612 381.697 266.733C382.046 267.401 382.508 268.024 382.791 268.716C383.567 270.613 383.001 271.429 380.964 271.456C380.634 271.46 380.277 271.282 379.963 271.603C379.913 272.384 380.382 273.01 380.654 273.702C381.422 275.681 380.758 276.539 378.59 276.431C375.994 276.303 374.093 274.8 372.262 273.223C370.225 271.472 369.221 268.998 367.944 266.725C367.707 266.304 367.541 265.793 368.006 265.403C368.588 264.912 369.046 265.337 369.438 265.716C370.183 266.431 371.044 267.092 371.575 267.946C372.549 269.512 373.841 269.775 375.602 269.299C375.308 267.68 374.248 266.489 373.325 265.283C372.227 263.853 371.428 262.253 370.485 260.738C370.14 260.189 369.709 259.555 370.183 258.867C370.64 258.55 371.056 258.697 371.35 258.987C372.309 259.938 373.562 260.065 374.78 260.251C376.262 260.471 377.03 259.594 376.561 258.152C376.045 256.571 375.083 255.249 374.016 253.95C370.749 249.977 367.122 246.282 364.356 241.914C363.483 240.538 362.749 239.077 361.776 237.341L361.764 237.361Z" fill="#006739"/>
<path d="M221.983 392.439C221.983 389.733 223.546 388.06 225.773 386.974C226.793 386.475 227.387 385.849 227.751 384.793C228.838 381.647 230.677 378.884 232.512 376.147C233.738 374.319 234.805 372.405 235.965 370.546C238.672 366.202 241.815 362.209 246.598 359.932C248.612 358.974 250.303 357.559 252.177 356.403C257.977 352.828 264.146 349.94 270.136 346.717C278.469 342.229 286.298 337.034 293.363 330.734C294.519 329.702 295.885 329.072 297.177 328.291C297.778 327.928 298.531 327.758 299.093 328.357C299.71 329.014 299.842 329.806 299.349 330.63C298.992 331.225 298.546 331.747 298.022 332.203C292.374 337.131 286.958 342.337 280.855 346.74C279.327 347.842 278.256 349.322 277.329 350.984C275.517 354.235 273.174 357.126 270.698 359.897C267.897 363.032 265.515 366.433 263.44 370.098C260.487 375.312 255.859 378.713 250.466 381.133C246.137 383.077 241.702 384.797 237.439 386.869C234.04 388.516 230.793 390.483 227.55 392.427C226.2 393.235 224.753 393.587 223.274 393.869C222.231 394.066 221.792 393.502 221.971 392.447L221.983 392.439Z" fill="#AEFFE4"/>
<path d="M435.643 261.364C434.444 261.283 433.862 261.681 433.257 261.99C432.539 262.358 431.806 262.396 431.057 262.099C429.894 261.635 429.63 260.931 430.239 259.83C430.677 259.041 431.321 258.411 431.938 257.758C432.966 256.664 434.006 255.566 434.568 254.148C433.994 253.556 433.63 254.024 433.249 254.237C432.345 254.735 431.445 255.242 430.545 255.748C429.862 256.131 429.226 256.088 428.652 255.539C427.996 254.909 428 254.159 428.462 253.475C429.191 252.393 430.025 251.38 430.797 250.325C431.275 249.672 431.923 249.107 431.996 248.188C430.654 247.117 429.343 246.862 427.958 248.118C427.554 248.481 427.046 248.74 426.569 249.011C425.979 249.347 425.389 249.421 424.889 248.841C424.373 248.246 424.35 247.615 424.765 246.947C425.176 246.282 425.816 245.868 426.41 245.401C432.31 240.751 436.97 234.957 441.408 228.989C443.189 226.592 443.515 223.867 441.85 220.767C440.233 223.639 438.258 225.904 436.341 228.223C432.958 232.321 429.331 236.17 425.094 239.413C423.399 240.712 422.809 240.882 422.041 240.186C421.277 239.495 421.428 238.787 422.643 237.129C424.419 234.702 426.379 232.394 427.814 229.429C424.889 230.152 422.619 231.66 420.354 233.163C419.838 233.503 419.388 233.944 418.872 234.28C418.239 234.69 417.58 234.76 416.982 234.184C416.459 233.677 416.451 233.067 416.757 232.479C417.234 231.567 417.65 230.608 418.394 229.862C421.009 227.238 422.666 224.003 424.47 220.825C426.231 217.721 427.488 214.382 429.42 211.348C430.763 209.241 431.43 206.702 432.4 204.359C432.609 203.853 432.761 203.312 433.036 202.84C433.692 201.704 434.887 201.12 435.977 201.379C437.245 201.681 437.691 202.589 437.816 203.807C438.056 206.149 438.506 208.484 440.023 210.354C441.063 211.638 441.951 213.037 443.057 214.254C444.042 215.337 444.589 216.55 444.539 217.98C444.504 218.982 444.69 219.894 445.23 220.721C446.809 223.144 446.684 225.668 445.586 228.185C445.129 229.236 444.997 230.098 445.862 230.983C446.25 231.381 446.502 232.008 446.277 232.518C445.439 234.427 446.265 236.306 446.296 238.192C446.32 239.634 446.393 241.06 446.009 242.471C445.699 243.611 445.722 244.786 445.68 245.953C445.555 249.382 445.528 252.814 445.33 256.239C445.098 260.209 444.873 264.186 443.887 268.07C443.635 269.064 443.375 270.057 443.565 271.12C443.72 271.994 443.294 272.755 442.743 273.381C441.788 274.464 440.811 275.538 439.752 276.516C438.828 277.37 437.288 277.189 436.039 275.956C434.762 274.699 433.505 273.435 432.085 272.338C431.29 271.723 431.119 270.873 431.379 269.922C431.705 268.716 432.171 267.587 432.955 266.59C434.146 265.075 434.809 263.301 435.666 261.356L435.643 261.364ZM436.101 217.497C433.3 218.75 431.701 221.189 430.146 223.655C429.862 224.103 429.777 224.687 430.51 225.17C433.129 223.195 434.727 220.462 436.101 217.493V217.497Z" fill="#006739"/>
<path d="M377.833 377.257C377.946 378.258 378.714 378.637 379.218 379.143C380.921 380.855 381.72 383.252 383.645 384.802C384.343 385.362 384.122 386.166 383.707 386.873C383.21 387.716 382.524 388.207 381.495 388.045C379.598 387.743 377.915 386.912 376.549 385.629C375.195 384.353 373.775 383.178 372.347 381.992C370.132 380.148 368.425 377.782 366.571 375.583C365.787 374.655 364.937 373.774 364.363 372.506C363.067 375.115 363.126 377.686 363.013 380.19C362.885 383.024 362.156 385.764 361.892 388.555C361.55 392.165 359.851 395.396 359.347 398.941C359.048 401.044 358.583 403.119 358.237 405.214C357.76 408.09 356.162 410.065 353.539 411.298C349.535 413.18 346.083 415.971 342.242 418.128C341.598 418.487 341.14 419.16 340.562 419.647C339.441 420.59 338.04 420.687 337.16 419.921C336.453 419.307 336.364 418.105 337.012 416.852C338.238 414.491 340.24 412.74 342.04 410.857C343.351 409.485 344.442 408.001 345.283 406.358C347.642 401.759 350.866 397.661 353.132 393.031C355.029 389.154 356.282 385.034 355.999 380.612C354.656 380.117 353.795 380.426 352.973 381.427C351.623 383.074 350.113 384.593 348.686 386.178C347.708 387.264 346.428 387.279 345.186 387.353C344.748 386.738 345.167 386.34 345.334 385.93C346.738 382.479 348.662 379.301 350.66 376.174C352.422 373.422 353.365 370.322 354.645 367.369C355.925 364.412 356.973 361.359 357.752 358.212C358.486 355.256 361.081 354.038 363.514 353.014C364.84 352.453 366.051 353.818 366.834 354.977C367.719 356.288 368.623 357.621 369.236 359.067C370.477 361.985 372.553 364.416 373.876 367.288C374.598 368.857 375.738 370.133 377.333 371.003C380.751 372.866 380.913 374.887 377.841 377.257H377.833Z" fill="#006739"/>
<path d="M380.592 311.512C379.129 318.52 375.979 324.948 371.886 331.329C373.43 331.213 374.586 331.113 375.517 332.025C376.336 332.825 376.596 333.672 375.859 334.572C372.821 338.291 370.198 342.318 366.338 345.387C363.603 347.563 360.992 349.933 358.354 352.244C358.199 352.379 358.071 352.557 357.896 352.662C357.198 353.087 356.488 353.694 355.638 353.087C354.699 352.422 355.037 351.552 355.347 350.671C355.956 348.932 357.551 347.861 358.315 346.238C358.478 345.89 358.959 345.693 358.831 345.182C358.296 345.02 357.923 345.395 357.52 345.604C356.961 345.89 356.391 346.114 355.766 346.199C354.455 346.377 353.419 345.797 352.74 344.8C352.019 343.744 352.713 342.794 353.45 342.048C354.901 340.575 356.434 339.187 357.919 337.749C360.697 335.055 365.182 327.649 366.078 324.283C365.407 323.997 364.837 324.352 364.356 324.677C363.056 325.551 361.733 325.346 360.391 324.909C358.428 324.271 357.962 322.83 359.32 321.291C360.41 320.054 361.535 318.833 362.847 317.812C364.387 316.614 365.675 315.169 366.714 313.537C369.962 308.431 373.376 303.426 376.208 298.069C376.72 297.098 377.108 296.055 377.69 295.131C378.761 293.43 379.793 293.121 381.705 293.43C383.024 293.647 383.575 294.404 383.87 295.575C384.374 297.57 384.312 299.684 385.158 301.609C385.907 303.306 386.617 305.022 387.362 306.723C388.359 309 389.026 311.384 389.701 313.765C389.794 314.094 389.879 314.434 389.911 314.774C390.058 316.378 389.123 317.121 387.602 316.506C385.255 315.555 383.412 313.893 381.701 312.072C381.472 311.829 381.329 311.485 380.592 311.516V311.512Z" fill="#006739"/>
<path d="M382.209 254.368C383.587 253.135 384.479 251.685 386.399 251.728C387.071 251.743 387.606 251.361 387.761 250.677C387.92 249.962 387.435 249.509 386.915 249.154C386.582 248.926 386.182 248.771 385.79 248.659C381.271 247.372 377.961 244.531 375.269 240.785C373.015 237.647 371.467 234.075 369.104 231.014C368.569 230.318 368.712 229.541 368.879 228.834C369.531 226.082 370.52 223.434 371.901 220.964C372.856 219.26 373.857 219.302 374.644 221.065C375.7 223.427 377.279 225.166 379.622 226.341C381.403 227.234 383.067 228.37 384.723 229.48C386.822 230.886 386.776 232.398 384.626 233.797C383.703 234.396 382.718 234.903 381.771 235.463C381.158 235.826 380.53 236.251 380.821 237.079C381.115 237.906 381.907 237.832 382.586 237.736C383.401 237.624 384.211 237.434 385.007 237.226C385.81 237.013 386.535 237.067 387.075 237.74C387.684 238.501 387.168 239.15 386.776 239.8C386.24 240.681 385.771 241.605 385.189 242.451C384.615 243.286 383.932 244.052 383.28 244.867C383.893 245.872 384.704 245.652 385.503 245.451C387.645 244.914 389.007 243.329 390.38 241.79C391.02 241.071 391.606 240.31 392.405 239.746C392.917 239.386 393.406 238.926 394.081 239.251C394.872 239.63 394.787 240.407 394.69 241.064C394.271 243.854 393.604 246.583 392.487 249.196C391.687 251.063 390.865 252.922 389.883 254.727C390.232 254.859 390.403 254.979 390.465 254.936C393.131 253.119 395.939 251.481 398.1 249.015C398.325 248.756 398.535 248.458 398.814 248.276C399.423 247.89 399.881 248.099 400.052 248.783C400.207 249.401 400.075 250.012 399.877 250.607C399.051 253.046 397.895 255.257 395.947 257.043C394.613 258.264 393.445 259.667 392.32 261.287C393.6 261.813 394.225 261.105 394.721 260.564C396.23 258.925 398.143 257.8 399.827 256.39C400.087 256.169 400.389 255.991 400.692 255.837C401.262 255.539 401.875 255.323 402.418 255.837C402.895 256.289 402.764 256.892 402.504 257.375C401.243 259.714 400.413 262.307 398.085 263.989C396.708 264.986 395.648 266.37 394.624 267.715C395.101 268.557 395.722 268.345 396.285 268.086C396.917 267.792 397.363 267.247 397.844 266.748C398.562 266.006 399.268 265.241 400.071 264.599C400.851 263.977 401.809 263.606 402.74 264.279C403.726 264.99 403.47 265.972 403.07 266.891C402.096 269.118 400.979 271.213 398.702 272.465C398.003 272.848 396.785 273.408 397.456 274.46C398.089 275.445 399.07 274.684 399.815 274.247C401.006 273.547 402.248 272.96 403.516 272.419C404.09 272.175 404.672 271.963 405.316 272.021C406.364 272.113 406.787 272.74 406.387 273.721C406.042 274.564 405.464 275.267 404.668 275.731C400.626 278.097 396.506 280.327 392.099 281.935C391.024 282.329 389.79 282.418 388.63 282.426C387.536 282.434 386.415 282.198 385.837 281.058C386.388 279.226 387.525 278.159 389.472 277.935C390.283 277.842 391.082 277.517 391.586 276.767C392.137 275.948 391.87 275.31 390.888 275.136C390.26 275.024 389.662 275.19 389.061 275.372C388.072 275.669 387.067 275.928 386.066 276.187C385.48 276.338 384.945 276.238 384.642 275.662C384.273 274.962 384.673 274.51 385.205 274.096C386.101 273.393 387.125 273.018 388.242 272.906C388.937 272.836 389.596 272.682 390.248 272.438C390.911 272.195 391.303 271.769 391.202 271.047C391.09 270.247 390.457 270.088 389.81 270.15C389.131 270.216 388.46 270.413 387.788 270.556C386.562 270.819 384.095 269.168 383.882 267.951C383.734 267.108 384.332 266.868 384.941 266.694C386.818 266.157 388.463 265.137 390.163 264.232C391.389 263.579 391.536 262.879 390.644 261.785C390.17 261.202 389.635 260.634 389.03 260.193C386.644 258.45 385.003 255.891 382.198 254.376L382.209 254.368Z" fill="#006739"/>
<path d="M267.3 269.513C263.261 269.327 259.56 269.455 255.855 269.853C254.296 270.019 252.69 269.733 251.107 269.679C250.075 269.644 249.516 269.095 249.625 268.117C249.962 265.149 249.78 262.06 251.859 259.502C252.853 258.276 253.535 256.854 253.768 255.219C254.009 253.541 254.936 252.331 256.686 251.875C257.143 251.756 257.617 251.57 257.993 251.296C260.464 249.506 263.227 249.015 266.222 249.247C267.389 249.336 268.363 249.618 269.182 250.461C272.572 253.955 276.592 256.603 280.844 258.914C281.914 259.498 282.504 260.197 282.574 261.457C282.694 263.649 282.974 265.833 283.148 268.024C283.222 268.933 283.012 269.737 281.833 269.636C278.407 269.343 274.978 269.601 271.548 269.532C269.488 269.489 269.019 268.971 269.674 267.054C270.408 264.913 271.102 262.748 272.138 260.723C272.456 260.101 272.619 259.447 272.813 258.79C273.085 257.882 272.933 257.209 272.153 256.622C271.61 256.212 271.063 255.737 270.691 255.18C269.186 252.934 266.994 252.482 264.518 252.714C263.029 252.853 262.683 253.572 263.657 254.728C265.124 256.463 266.838 257.971 268.596 259.413C269.112 259.834 269.511 260.224 269.333 260.955C268.662 263.749 268.002 266.548 267.3 269.513Z" fill="#FFEE52"/>
<path d="M194.795 393.062C197.185 393.966 198.694 393.046 199.958 391.028C202.546 386.893 205.289 382.877 208.323 379.046C210.833 375.877 213.04 372.467 215.57 369.317C218.732 365.379 221.579 361.123 225.897 358.243C228.912 356.233 231.053 353.292 233.707 350.895C234.165 350.482 234.607 350.041 235.092 349.659C235.499 349.338 235.961 349.249 236.426 349.593C236.869 349.918 236.974 350.362 236.888 350.872C236.783 351.498 236.489 352.047 236.12 352.546C233.001 356.74 229.843 360.91 226.755 365.127C225.498 366.844 224.345 368.645 223.193 370.434C220.656 374.377 217.579 377.918 214.914 381.76C213.502 383.793 212.164 385.88 210.895 388.002C209.875 389.707 208.722 391.326 207.997 393.216C207.524 394.449 206.565 395.412 204.967 395.242C204.486 395.191 204.013 395.334 203.613 395.659C203.229 395.972 202.794 396.189 202.29 396.177C198.22 396.073 194.17 396.765 190.1 396.482C189.689 396.455 189.262 396.459 188.871 396.343C187.427 395.918 186.939 394.886 187.583 393.498C188.549 391.419 190.023 389.68 191.497 387.952C192.343 386.962 193.371 386.123 193.945 384.91C194.058 384.674 194.306 384.496 194.504 384.307C195.167 383.665 195.893 383.02 196.859 383.619C197.72 384.152 197.545 385.022 197.316 385.849C196.824 387.643 196.296 389.421 195.377 391.059C195.047 391.647 194.69 392.242 194.787 393.062H194.795Z" fill="#AEFFE4"/>
<path d="M337.924 288.63C337.815 289.256 337.567 289.913 337.078 290.412C336.174 291.34 335.802 292.48 335.464 293.69C335.173 294.737 334.719 295.773 334.153 296.701C332.244 299.816 330.657 303.09 329.164 306.406C326.871 311.493 323.969 316.216 320.935 320.882C318.119 325.219 315.038 329.339 311.593 333.193C311.046 333.803 310.441 334.379 309.805 334.893C309.242 335.346 308.583 335.585 307.935 334.998C307.306 334.429 307.419 333.761 307.776 333.119C308.447 331.921 309.071 330.684 309.867 329.567C313.025 325.126 315.671 320.441 317.653 315.339C318.794 312.409 320.439 309.665 321.979 306.909C322.495 305.989 322.727 305.007 323.127 304.068C324.632 300.531 326.27 297.099 328.997 294.25C330.413 292.77 331.48 290.976 333.253 289.809C333.664 289.538 333.831 288.897 334.102 288.421C334.58 287.586 335.321 287.115 336.24 286.941C337.47 286.713 338.079 287.316 337.924 288.618V288.63Z" fill="#AEFFE4"/>
<path d="M430.902 292.955C430.13 294.168 429.505 295.223 428.803 296.225C427.891 297.531 426.658 297.921 425.428 297.38C424.392 296.924 424.019 295.954 424.334 294.381C424.671 292.688 425.548 291.188 426.188 289.611C426.786 288.146 427.333 286.681 427.69 285.143C427.767 284.81 427.849 284.474 427.965 284.153C428.535 282.58 429.905 281.367 431.01 281.432C432.17 281.502 434.37 283.539 434.456 284.857C434.618 287.412 436.007 289.19 437.893 290.686C438.607 291.254 439.154 291.872 439.511 292.746C440.089 294.168 439.41 295.108 438.521 296.035C437.629 296.971 436.617 296.959 435.507 296.453C433.788 295.672 432.508 294.315 430.902 292.947V292.955Z" fill="#006739"/>
<path d="M279.699 308.342C279.679 308.528 279.699 308.744 279.629 308.933C278.535 311.89 278.147 315.064 276.855 317.955C275.947 319.98 274.07 321.159 272.533 322.593C270.787 324.221 268.778 325.57 266.869 327.023C266.601 327.228 266.283 327.394 265.965 327.506C264.883 327.885 263.971 327.634 263.16 326.791C262.326 325.925 262.532 325.056 262.986 324.151C263.812 322.508 265.193 321.314 266.598 320.247C268.611 318.724 270.132 316.714 271.474 314.747C273.247 312.149 275.261 309.703 276.847 306.974C277.018 306.68 277.212 306.386 277.453 306.147C278.407 305.196 279.206 305.401 279.505 306.688C279.629 307.217 279.637 307.774 279.699 308.342Z" fill="#AEFFE4"/>
<path d="M148.181 393.727C149.171 391.125 150.66 388.856 153.531 388.018C154.02 388.416 153.962 388.841 153.884 389.239C153.5 391.191 153.101 393.143 152.701 395.095C152.484 396.15 151.948 396.807 150.746 396.807C144.891 396.815 139.037 396.854 133.183 396.873C132.713 396.873 132.209 396.95 131.662 396.328C132.745 393.711 133.478 390.82 135.441 388.396C136.508 388.953 136.795 389.931 137.33 390.692C137.687 391.195 137.912 391.79 138.459 392.138C138.882 392.409 139.34 392.59 139.821 392.343C140.314 392.092 140.411 391.616 140.383 391.114C140.372 390.909 140.356 390.7 140.298 390.503C140.065 389.726 140.026 389.003 140.802 388.485C141.656 387.913 142.498 388.048 143.316 388.57C144.325 389.212 145.047 390.047 145.563 391.168C146.044 392.211 146.35 393.591 148.17 393.73L148.181 393.727Z" fill="#006739"/>
<path d="M246.971 259.296C247.121 262.35 246.646 265.261 246.618 268.222C246.61 268.995 246.605 269.946 245.795 269.996C245.01 270.043 244.769 269.641 244.782 268.427C244.826 263.904 244.869 259.381 244.44 254.882C244.345 253.88 243.926 253.304 243.476 252.728C241.835 250.629 240.62 248.113 240.194 244.869C240.071 243.934 240.045 242.964 240.002 242.005C239.984 241.576 240.094 241.182 240.403 241.042C240.707 240.903 240.937 241.12 241.096 241.495C241.439 242.307 241.738 243.161 242.111 243.938C243.023 245.836 244.015 247.641 245.345 248.909C246.022 249.555 246.298 250.498 246.467 251.611C246.853 254.174 247.063 256.756 246.971 259.304V259.296Z" fill="#FFEE52"/>
<path d="M263.071 303C261.702 303.066 261.027 302.073 261.679 300.851C262.098 300.066 262.633 299.324 263.362 298.783C264.759 297.743 265.849 296.422 266.924 295.076C268.833 292.68 271.486 291.126 273.733 289.105C273.93 288.927 274.202 288.799 274.466 288.73C275.3 288.517 276.153 287.875 276.991 288.637C277.868 289.437 277.445 290.341 277.216 291.304C276.751 293.237 275.331 294.462 274.097 295.826C271.824 298.339 269.314 300.565 266.237 302.084C265.236 302.579 264.189 302.888 263.079 303H263.071Z" fill="#AEFFE4"/>
<path d="M240.407 341.842C240.341 340.849 240.729 340.142 241.318 339.527C242.789 337.997 244.201 336.408 245.749 334.962C248.088 332.778 249.725 333.749 251.638 335.905C252.224 336.566 252.003 337.339 251.525 337.993C249.978 340.099 248.185 342.013 246.11 343.586C244.946 344.471 243.46 344.591 241.982 344.05C240.857 343.636 240.29 342.932 240.403 341.839L240.407 341.842Z" fill="#AEFFE4"/>
<path d="M365.418 282.893C363.552 282.866 362.753 281.602 363.436 280.203C363.773 279.507 364.316 278.959 364.914 278.495C365.942 277.695 367.067 277.03 368.099 276.226C369.053 275.484 370.582 275.743 371.292 276.601C372.029 277.49 371.528 278.301 371.016 279.044C369.585 281.119 367.56 282.321 365.414 282.893H365.418Z" fill="#006739"/>
<defs>
<clipPath id="clip0_9466_163975">
<rect width="470" height="470" fill="white" transform="translate(1 1)"/>
</clipPath>
</defs>
</svg>
