<svg width="168" height="168" viewBox="0 0 168 168" fill="none" xmlns="http://www.w3.org/2000/svg">
<g clip-path="url(#clip0_9063_16127)">
<g clip-path="url(#clip1_9063_16127)">
<mask id="mask0_9063_16127" style="mask-type:luminance" maskUnits="userSpaceOnUse" x="-30" y="-30" width="229" height="229">
<path d="M198.928 58.0807L58.082 -30L-29.9986 110.846L110.847 198.926L198.928 58.0807Z" fill="white"/>
</mask>
<g mask="url(#mask0_9063_16127)">
<path d="M40.6911 154.46C79.3487 178.636 130.287 166.895 154.463 128.237C178.638 89.5797 166.897 38.6412 128.239 14.4659C89.5819 -9.70946 38.6433 2.03131 14.468 40.689C-9.70736 79.3466 2.03342 130.285 40.6911 154.46Z" fill="#FFED52"/>
<path d="M40.4242 154.886C1.59275 130.602 -10.2423 79.2543 14.0417 40.4228C38.3257 1.59139 89.6734 -10.2437 128.505 14.0403C167.336 38.3244 179.171 89.6721 154.887 128.504C130.603 167.335 79.2557 179.17 40.4242 154.886ZM127.975 14.8884C89.6105 -9.10327 38.8814 2.58923 14.8898 40.9532C-9.1019 79.3172 2.5906 130.046 40.9546 154.038C79.3185 178.03 130.048 166.337 154.039 127.973C178.031 89.6092 166.338 38.8801 127.975 14.8884Z" fill="#122315"/>
<path d="M43.4764 150.004C79.6737 172.641 127.368 161.648 150.005 125.451C172.642 89.2533 161.649 41.5587 125.451 18.9219C89.254 -3.71479 41.5594 7.2783 18.9227 43.4756C-3.71407 79.673 7.27902 127.368 43.4764 150.004Z" fill="#122315"/>
<path d="M90.5627 21.7522C90.4972 23.1036 89.3812 23.9481 87.753 23.872L84.7764 23.7322L85.1498 15.7159L87.9005 15.8436C89.4482 15.9152 90.4344 16.8446 90.3767 18.1634C90.3342 19.0247 89.8586 19.6319 89.1189 19.7947C90.0514 20.0234 90.6139 20.7504 90.5668 21.759L90.5638 21.7571L90.5627 21.7522ZM86.8938 17.2734L86.8113 19.0519L87.4752 19.0835C88.0948 19.1125 88.5378 18.7642 88.5581 18.2517C88.583 17.7253 88.1785 17.3389 87.5539 17.3111L86.8901 17.2794L86.8938 17.2734ZM87.5076 22.3846C88.1813 22.414 88.6714 22.0368 88.7008 21.4632C88.7283 20.8927 88.2788 20.4782 87.5895 20.4473L86.7499 20.41L86.6572 22.3446L87.5046 22.3827L87.5076 22.3846Z" fill="#EFE9E0"/>
<path d="M91.7571 20.0276C92.1811 17.6498 94.2447 16.2431 96.6618 16.6709C99.085 17.1024 100.535 19.1304 100.109 21.5112C99.6849 23.889 97.631 25.2934 95.2041 24.8679C92.7889 24.4371 91.3313 22.4084 91.7571 20.0276ZM98.2694 21.1862C98.5182 19.7952 97.7111 18.6193 96.3557 18.3803C95.0111 18.1439 93.8536 18.975 93.6056 20.3581C93.3568 21.7491 94.1639 22.925 95.5036 23.1625C96.859 23.4015 98.0195 22.5724 98.2645 21.1873L98.2675 21.1892L98.2694 21.1862Z" fill="#EFE9E0"/>
<path d="M105.908 27.5687L104.141 27.0014C104.656 25.5055 104.15 24.2346 102.921 23.7457L102.089 26.3433L100.364 25.7895L102.811 18.1491L105.281 18.9392C106.91 19.4615 107.672 20.7554 107.204 22.2175C106.897 23.1807 106.189 23.7338 105.257 23.7845C106.162 24.6761 106.427 26.0256 105.908 27.5687ZM104.065 20.1711L103.382 22.3034L103.861 22.4572C104.589 22.6919 105.197 22.426 105.398 21.7847C105.61 21.1332 105.263 20.5618 104.52 20.3226L104.061 20.1771L104.065 20.1711Z" fill="#EFE9E0"/>
<path d="M112.184 30.3514L110.492 29.5848C111.176 28.1575 110.816 26.8402 109.653 26.2131L108.528 28.6986L106.878 27.9503L110.184 20.638L112.546 21.7068C114.101 22.4127 114.715 23.7844 114.08 25.1798C113.663 26.0991 112.896 26.5736 111.969 26.5153C112.767 27.5061 112.877 28.8758 112.186 30.3484L112.184 30.3514ZM111.192 22.7985L110.272 24.8368L110.73 25.0441C111.429 25.3601 112.058 25.1662 112.337 24.5481C112.62 23.921 112.34 23.3162 111.63 22.9976L111.192 22.7985Z" fill="#EFE9E0"/>
<path d="M114.79 27.1117C116.06 25.0544 118.494 24.5088 120.586 25.7963C122.684 27.0876 123.28 29.5072 122.007 31.5626C120.737 33.6199 118.309 34.1692 116.211 32.878C114.122 31.5924 113.517 29.1671 114.787 27.1098L114.79 27.1117ZM120.417 30.5851C121.156 29.3838 120.841 27.9945 119.672 27.2715C118.511 26.5541 117.127 26.9014 116.39 28.0997C115.648 29.2991 115.966 30.6903 117.124 31.4058C118.293 32.1288 119.678 31.7815 120.417 30.5851Z" fill="#EFE9E0"/>
<path d="M131.483 34.2109L132.913 35.4304L126.172 40.2313L124.697 38.9758L127.314 34.2049L123.01 37.5412L121.524 36.2782L125.199 28.8678L126.613 30.0731L123.898 35.0616L128.374 31.5703L129.718 32.7148L126.99 37.6958L131.469 34.2064L131.472 34.2083L131.483 34.2109Z" fill="#EFE9E0"/>
<path d="M140.591 44.6586L141.745 46.1392L134.175 49.4794L132.984 47.9509L136.514 43.8056L131.624 46.2047L130.428 44.6645L135.523 38.1503L136.663 39.6136L133 43.9511L138.09 41.4393L139.174 42.8307L135.501 47.1577L140.591 44.6459L140.591 44.6586Z" fill="#EFE9E0"/>
<path d="M135.608 51.7569L142.445 47.5573L143.395 49.0978L136.556 53.3003L135.608 51.7569Z" fill="#EFE9E0"/>
<path d="M137.66 54.2665L139.475 53.33C139.186 54.0455 139.179 54.8499 139.46 55.4007C139.713 55.8886 140.179 56.0711 140.609 55.8566C141.803 55.2402 140.396 52.8177 142.46 51.7572C143.702 51.1169 144.969 51.5507 145.629 52.8221C145.895 53.3429 145.999 53.8832 145.947 54.5134L144.349 55.3357C144.561 54.7636 144.551 54.253 144.331 53.824C144.11 53.3979 143.703 53.2352 143.344 53.4153C142.297 53.9568 143.674 56.3811 141.5 57.4978C140.122 58.2078 138.801 57.7402 138.039 56.259C137.707 55.6175 137.586 54.9708 137.665 54.2575L137.662 54.2556L137.66 54.2665Z" fill="#EFE9E0"/>
<path d="M147.584 61.718L146.468 58.9153L145.054 59.4773L145.956 61.7468L144.476 62.3342L143.576 60.0666L142.04 60.6772L143.155 63.4799L141.642 64.0801L139.861 59.5943L147.32 56.6339L149.103 61.1216L147.59 61.7217L147.584 61.718Z" fill="#EFE9E0"/>
<path d="M144.126 66.6467L144.925 69.4351L143.362 69.8877L142.061 65.3555L149.779 63.1408L150.281 64.8845L144.132 66.6505L144.129 66.6486L144.126 66.6467Z" fill="#EFE9E0"/>
<path d="M152.46 74.5309L147.099 72.8709L144.071 73.4661L143.723 71.6767L146.75 71.0815L151.088 67.5245L151.48 69.5373L148.42 71.6918L152.064 72.5242L152.456 74.5369L152.46 74.5309Z" fill="#EFE9E0"/>
<path d="M125.793 87.7027C125.913 87.5846 126.049 87.5879 126.176 87.5817C127.364 87.5224 128.568 87.358 129.742 87.4012C130.504 87.4282 131.185 87.6646 131.901 87.8008C132.283 87.8721 132.67 87.9213 133.074 87.9138C133.825 87.8969 134.533 88.0535 135.287 88.0198C136.154 87.9827 137.013 87.989 137.887 87.9227C138.551 87.8736 139.229 87.796 139.877 87.845C140.05 87.8566 140.227 87.8073 140.403 87.7836C141.668 87.6015 142.86 87.6454 143.926 88.1559C144.416 88.3915 144.992 88.4212 145.53 88.5352C145.774 88.5873 146.027 88.4779 146.269 88.3289C147.263 87.7096 148.258 87.5481 149.253 87.4836C149.621 87.4608 149.989 87.3382 150.36 87.2544C151.143 87.0756 151.873 87.0978 152.555 87.3386C152.76 87.4107 152.901 87.5842 153.127 87.633C153.807 87.7794 154.509 87.6989 155.24 87.4132C155.901 87.1542 156.535 87.1716 157.174 87.1184C157.538 87.0894 157.74 87.3793 157.722 87.788C157.716 87.9512 157.719 88.1241 157.66 88.2802C157.437 88.9017 157.506 89.4652 157.533 90.0355C157.54 90.1774 157.558 90.3148 157.544 90.4658C157.463 91.2952 157.245 91.5824 156.512 91.681C155.959 91.7551 155.397 91.8566 154.872 91.7326C154.626 91.6718 154.331 91.721 154.054 91.7637C152.947 91.933 151.87 91.9872 150.822 91.8336C149.88 91.6971 148.978 91.4639 148.085 91.2103C147.207 90.9582 146.363 90.6156 145.493 90.3431C144.948 90.1727 144.378 90.0468 143.814 89.9172C143.382 89.8175 142.973 89.6805 142.584 89.4858C142.303 89.3469 141.996 89.2781 141.651 89.3218C141.049 89.3948 140.476 89.3227 139.878 89.3647C138.41 89.4677 136.944 89.5539 135.481 89.6162C134.483 89.6604 133.534 89.4791 132.556 89.4542C131.096 89.4142 129.949 88.6596 128.583 88.4259C128.24 88.3673 127.922 88.2501 127.56 88.2465C126.951 88.2375 126.415 88.0396 125.877 87.8444C125.827 87.8275 125.783 87.7928 125.799 87.7062L125.793 87.7027Z" fill="#AEFFE4"/>
</g>
<path d="M122.351 120.471C122.901 119.685 123.132 118.775 123.209 117.872C123.352 116.144 122.737 114.634 121.538 113.392C120.743 112.57 120.281 112.522 119.269 113.053C118.104 113.663 116.951 114.3 115.759 114.86C114.301 115.545 112.786 115.927 111.182 115.92C109.918 115.914 108.709 115.587 107.484 115.346C106.619 115.176 105.815 114.823 105.049 114.415C104.533 114.139 104.019 114.034 103.467 114.13C102.107 114.372 100.75 114.649 99.3945 114.91C97.0442 115.362 94.6958 115.844 92.285 115.467C91.3402 115.318 90.3732 115.251 89.503 114.769C88.3118 114.107 87.2135 113.337 86.2914 112.319C85.8495 111.825 85.3092 111.696 84.6843 111.956C83.9322 112.265 83.1567 112.505 82.3537 112.649C81.2728 112.844 80.2001 113.12 79.1016 113.117C76.379 113.111 73.7322 112.743 71.3427 111.312C69.8425 110.411 68.7705 109.165 68.2843 107.456C67.9643 106.335 68.0506 105.897 67.8583 104.751C67.7947 104.386 67.6741 104.186 67.3602 104.081C66.9848 103.955 66.5978 103.867 66.1992 103.885C64.9966 103.941 63.795 102.79 62.6501 102.541C62.5849 102.525 62.5299 102.486 62.5175 102.366C62.7873 102.268 63.0668 102.334 63.3358 102.377C65.9575 102.791 68.5976 102.963 71.2441 103.117C72.3366 103.183 73.4264 103.294 74.5155 103.412C76.2767 103.609 78.0356 103.829 79.7926 104.052C81.3114 104.244 82.8355 104.38 84.3516 104.615C85.4748 104.792 86.6066 104.929 87.7399 105.05C89.4389 105.233 91.1435 105.34 92.829 105.631C93.9724 105.829 95.1176 105.991 96.2787 106.087C97.6098 106.199 98.951 106.187 100.273 106.413C101.177 106.566 102.088 106.711 103.001 106.81C105.024 107.029 107.051 107.213 109.068 107.474C111.057 107.734 113.055 107.937 115.043 108.205C115.691 108.289 116.76 108.374 117.414 108.4C118.007 108.425 118.594 108.5 119.185 108.528C120.798 108.602 122.205 108.152 123.3 106.874C123.59 106.538 123.653 106.123 123.83 105.746C124.688 103.915 124.846 102.075 123.983 100.202C123.722 99.6339 123.393 99.1325 122.928 98.7165C122.534 98.3661 122.105 98.3394 121.651 98.5723C121.297 98.7513 120.953 98.9486 120.603 99.1344C118.81 100.089 116.938 100.456 114.946 99.9279C114.5 99.8075 114.05 99.7216 113.589 99.6712C113.215 99.6292 112.893 99.7318 112.638 100.019C112.355 100.338 112.022 100.584 111.641 100.767C109.873 101.608 108.013 102.183 106.061 102.163C103.447 102.137 101.003 101.426 98.8531 99.8977C98.0338 99.3146 97.3007 99.2938 96.4298 99.833C95.4057 100.464 94.239 100.777 93.0767 101.042C92.3188 101.214 91.5511 101.322 90.7752 101.383C89.9434 101.446 89.1139 101.586 88.2709 101.534C87.2433 101.471 86.2318 101.322 85.2154 101.174C83.0133 100.856 80.8981 100.258 78.8438 99.4237C78.2354 99.1767 77.6503 98.8858 77.0745 98.5799C75.7158 97.8595 74.5247 96.8978 73.2987 95.9852C72.0326 95.0434 70.8756 93.9738 69.7568 92.8698C68.7815 91.9096 67.8642 90.89 66.9309 89.8894C66.5159 89.4465 66.0192 89.0941 65.4363 88.6463C65.9365 88.4797 66.3003 88.4779 66.6731 88.5151C67.3714 88.585 68.0611 88.7287 68.7681 88.7581C69.6695 88.7965 71.1358 88.9382 72.0294 89.0426C73.0499 89.1638 74.0719 89.3027 75.0898 89.4682C78.0921 89.9534 81.0974 90.4072 84.1523 90.5084C86.202 90.5771 88.2555 90.6732 90.2864 91.0387C92.3517 91.409 94.4426 91.6119 96.5301 91.8335C97.9635 91.9878 99.4141 91.9946 100.837 92.2052C102.309 92.4251 103.788 92.5664 105.26 92.799C107.376 93.1345 109.51 93.3891 111.634 93.6714C113.455 93.9136 115.284 94.128 117.1 94.3967C117.799 94.4999 118.477 94.7283 119.171 94.8787C119.714 94.9972 120.55 94.8659 121.032 94.5832C122.061 93.9765 123.077 93.3654 123.54 92.0917C124.284 90.0556 124.92 88.0728 124.029 85.8981C123.651 84.9745 123.104 84.2696 122.343 83.7142C120.94 82.691 119.332 82.1357 117.635 81.837C116.809 81.6914 116.084 81.843 115.552 82.6146C115.185 83.148 114.544 83.4854 114.404 84.1897C114.394 84.2459 114.326 84.295 114.276 84.3347C113.265 85.1575 112.2 85.8751 110.933 86.267C109.881 86.5889 108.819 86.6621 107.748 86.5471C106.972 86.4619 106.193 86.3414 105.441 86.0966C103.892 85.5945 102.826 84.4654 101.81 83.2838C101.376 82.7787 100.903 82.4286 100.233 82.3187C99.2609 82.1607 98.2887 82.0154 97.3124 81.8968C96.1431 81.7534 94.9784 81.5627 93.8534 81.1885C93.1701 80.9613 92.4276 80.9555 91.7626 80.6522C91.5817 80.5683 91.3801 80.5839 91.1808 80.576C90.5713 80.5575 90.0834 80.8777 89.606 81.1878C88.9285 81.6312 88.2118 81.7707 87.4145 81.7057C85.0543 81.5136 82.7041 81.2654 80.3555 80.968C79.8348 80.9008 79.3035 80.8771 78.797 80.7604C77.5439 80.4645 76.4943 79.7831 75.7194 78.7691C75.185 78.0638 74.5724 77.9768 73.8122 78.2058C73.5818 78.2743 73.357 78.3672 73.1205 78.432C72.1254 78.7101 71.0565 78.8128 70.1387 78.4473C69.0542 78.015 67.9461 77.5805 67.0738 76.6556C65.8411 75.347 64.1624 74.9517 62.4023 74.9598C61.0933 74.9666 59.9235 75.4773 58.8087 76.1267C58.2253 76.4663 57.6089 76.7853 57.1558 77.2899C56.7473 77.7431 56.3613 78.227 56.0435 78.762C55.3943 79.84 55.2205 80.9778 55.4498 82.1843C55.5696 82.8261 55.8197 83.4327 55.9997 84.058C56.1626 84.4309 56.3494 84.7853 56.5962 85.1106C57.2625 85.9983 58.2612 86.5812 59.1118 87.2674C59.3639 87.4709 59.299 87.9013 59.0359 88.062C58.4357 88.4286 57.82 88.7731 57.1572 89.0131C56.8215 89.1367 56.5649 88.847 56.517 88.5503C56.3562 87.5076 56.0331 86.5176 55.5478 85.5805C55.4887 85.4685 55.4767 85.3609 55.4895 85.2605C55.1225 84.6475 54.872 83.9615 54.6452 83.2777C53.988 82.0288 52.9414 81.3159 51.5759 80.9997C50.4434 80.7375 49.3407 80.9942 48.2609 81.2611C46.8929 81.602 45.5692 82.079 44.6367 83.2634C43.9067 84.1908 43.2406 85.1291 43.1433 86.3647C43.079 87.1874 43.1234 88.0031 43.1276 88.8228C43.1309 89.3042 43.2507 89.7793 43.4952 90.1949C43.8397 90.7772 44.0894 91.4044 44.2927 92.0526C44.3541 92.2411 44.4305 92.4723 44.1802 92.5659C43.8872 92.6744 43.8093 92.4256 43.7326 92.2151C43.7082 92.154 43.6876 92.0869 43.6858 92.0232C43.6904 91.6092 43.454 91.3406 43.1709 91.0801C42.8323 90.7683 42.5165 90.4333 42.197 90.1042C41.8169 89.7123 41.4577 89.3 40.9625 89.032C40.011 88.5204 38.9729 88.4339 37.9212 88.3224C35.6202 88.0756 33.8246 89.1204 32.2536 90.6059C31.1684 91.628 30.4873 92.9571 30.128 94.4249C29.9232 95.2723 29.8563 96.1726 30.0475 96.98C30.552 99.113 31.7032 100.825 33.777 101.755C34.0542 101.879 34.3652 101.915 34.6488 102.021C35.6007 102.379 36.4354 102.317 37.3551 102.413C37.9887 102.48 38.6335 102.429 39.2494 102.264C39.8264 102.107 40.3731 101.987 40.8391 102.028C41.2707 102.064 41.3894 103.681 41.4691 104.16C41.493 104.309 41.596 104.444 41.6181 104.595C41.789 105.748 42.4193 106.68 43.0837 107.571C43.8552 108.604 44.8632 109.372 46.1448 109.702C48.0123 110.182 49.9166 110.477 51.822 110.776C52.221 110.838 52.445 110.987 52.57 111.373C52.853 112.234 53.2743 113.027 53.8334 113.739C54.5353 114.637 55.4455 115.281 56.4701 115.742C57.2024 116.071 57.979 116.303 58.732 116.598C59.7974 117.015 60.9025 117.314 62.0205 117.479C63.9026 117.756 65.8043 117.895 67.6951 118.131C69.5103 118.361 71.3265 118.597 73.1233 118.937C76.2335 119.523 79.3508 120.084 82.476 120.579C84.4781 120.898 86.4839 121.21 88.5036 121.427C90.5045 121.64 92.4927 121.987 94.4715 122.349C96.4987 122.721 98.5476 122.897 100.58 123.201C101.491 123.337 102.421 123.289 103.332 123.426C105.564 123.763 107.818 123.892 110.059 124.147C111.342 124.295 112.632 124.373 113.903 124.634C114.543 124.763 115.174 125.061 115.839 124.944C116.694 124.791 117.557 124.73 118.387 124.349C119.64 123.773 120.688 123.003 121.49 121.874C121.809 121.424 122.043 120.924 122.36 120.476L122.351 120.471ZM113.137 101.915C113.485 101.911 113.841 101.909 114.185 101.945C115.726 102.1 117.262 102.331 118.789 102.602C119.097 102.657 119.3 102.805 119.39 103.107C118.483 103.578 113.373 102.896 112.521 102.192C112.656 101.943 112.899 101.916 113.139 101.912L113.137 101.915ZM114.725 104.442C114.538 104.754 114.225 104.754 113.929 104.728C112.18 104.564 110.504 104.078 108.822 103.614C108.808 103.61 108.805 103.575 108.801 103.555C109.728 103.147 114.118 103.791 114.726 104.446L114.725 104.442ZM98.4274 101.578C97.8623 101.842 97.366 101.569 96.8554 101.379C97.4137 101.219 97.9333 101.315 98.4274 101.578ZM94.3088 103.071C95.2679 103.138 96.2435 103.097 97.1857 103.257C98.6059 103.499 100.066 103.404 101.465 103.787C101.786 103.874 102.092 103.958 102.23 104.344C101.827 104.667 101.398 104.82 100.894 104.793C99.818 104.741 98.7656 104.537 97.7182 104.332C97.0712 104.207 96.4208 104.167 95.7719 104.078C94.9882 103.971 94.2322 103.774 93.4799 103.537C93.3395 103.495 93.1907 103.439 93.1001 103.191C93.5235 103.08 93.9057 103.036 94.3047 103.065L94.3088 103.071ZM74.1327 98.6911C74.6504 98.8565 75.0771 99.1275 75.4865 99.4461C75.7554 99.6559 75.803 99.8732 75.6523 100.088C75.4308 100.295 75.1345 100.356 74.8183 100.341C74.2488 100.319 73.6797 100.275 73.1275 100.139C71.7335 99.7879 70.3208 99.5005 68.9471 99.0708C68.7204 98.9999 68.4765 98.9766 68.2409 98.9335C67.9146 98.8753 67.7456 98.7322 67.7866 98.3534C67.8279 97.9874 67.9538 97.766 68.3412 97.7665C68.6462 97.7654 68.9526 97.782 69.2576 97.7809C70.9405 97.7829 72.5421 98.1883 74.1308 98.6941L74.1327 98.6911ZM68.9214 95.6656C69.5336 95.5065 70.1311 95.5175 70.6957 95.8414C70.9111 95.9636 71.1557 96.079 71.0627 96.3877C70.9821 96.65 70.7449 96.7559 70.4954 96.775C69.9424 96.8126 69.4081 96.6537 68.8739 96.5613C68.6679 96.5242 68.6005 96.3653 68.5919 96.1724C68.5777 95.9217 68.6763 95.7374 68.9274 95.6693L68.9214 95.6656ZM65.7404 100.325C66.0874 100.184 66.4348 100.055 66.8247 100.111C68.3829 100.34 69.929 100.627 71.471 100.941C72.5177 101.154 73.5869 101.264 74.6363 101.466C76.1816 101.761 77.7562 101.883 79.2963 102.233C79.402 102.257 79.5129 102.26 79.6005 102.407C79.2146 102.624 78.8422 102.566 78.4717 102.538C77.1372 102.446 75.8023 102.474 74.4655 102.438C72.8422 102.395 71.2567 102.103 69.6713 101.746C68.5103 101.482 67.3576 101.066 66.131 101.107C66.0036 101.111 65.8646 101.087 65.7466 101.042C65.5702 100.978 65.4574 100.845 65.4575 100.645C65.4598 100.454 65.5999 100.383 65.7453 100.324L65.7404 100.325ZM86.5568 86.3302C86.6499 85.9548 86.9057 85.9523 87.1047 85.9808C88.0147 86.1122 88.997 85.9345 89.7866 86.6117C88.6648 86.919 87.5806 86.9329 86.5568 86.3302ZM120.181 88.6571C120.371 88.7134 120.594 88.8108 120.667 89.0862C120.424 89.3218 120.112 89.2809 119.817 89.3003C118.721 89.3656 117.704 89.0049 116.685 88.709C116.141 88.5523 115.592 88.4094 115.047 88.2605C114.82 88.1975 114.604 88.0959 114.298 87.9793C116.349 88.0117 118.293 88.11 120.181 88.6571ZM108.432 89.2673C109.475 89.332 110.507 89.5687 111.554 89.6608C112.708 89.7615 113.861 89.8573 115.021 89.9363C115.568 89.9743 116.115 90.0868 116.658 90.1641C116.052 90.5937 115.417 90.7299 114.76 90.753C112.74 90.8236 110.75 90.6129 108.766 90.2392C107.417 89.9833 106.056 89.7533 104.673 89.7181C103.855 89.6988 103.063 89.5199 102.276 89.3447C100.616 88.9734 98.9895 88.4608 97.3081 88.1763C97.2283 88.164 97.156 88.1062 97.0841 88.0279C98.5014 87.968 99.9218 87.8766 101.314 88.1841C103.663 88.707 106.023 89.1198 108.43 89.2703L108.432 89.2673ZM87.1536 83.7228C88.6193 83.6389 90.0797 83.6434 91.513 83.9978C91.5782 84.0136 91.6426 84.0372 91.7063 84.0353C93.3645 83.9968 94.9484 84.4704 96.5638 84.7136C97.9212 84.9163 99.2676 85.2164 100.615 85.488C100.884 85.5439 101.182 85.5881 101.376 85.9512C100.914 86.2707 100.425 86.2114 99.9597 86.1828C98.6079 86.1045 97.2682 85.9003 95.9079 85.8625C95.2601 85.8451 94.615 85.6501 93.9658 85.5817C92.1173 85.3845 90.2879 85.1034 88.4819 84.6451C87.806 84.4726 87.2322 83.997 86.3532 84.1227C86.6437 83.7582 86.9048 83.7339 87.1476 83.719L87.1536 83.7228ZM66.8839 93.0908C67.189 94.2028 67.2007 95.3774 66.6328 96.4854C65.8014 98.1082 64.4527 99.0782 62.7951 99.7091C62.4062 99.8577 62.0154 99.8426 61.6291 99.847C60.7555 99.8509 59.8807 99.8166 59.0111 99.7605C58.5896 99.7345 58.2195 99.5198 57.8292 99.2507C57.3358 99.0797 57.0647 98.66 56.8816 98.1328C56.7233 97.6795 56.4237 97.292 56.2544 96.836C56.0886 96.3946 56.0082 95.9566 56.021 95.4894C56.0411 94.6974 56.1477 93.9137 56.3105 93.1401C56.545 92.0319 57.3585 91.3442 58.1721 90.6566C59.2288 89.7667 60.4353 89.3707 61.805 89.3602C62.4011 89.3536 62.9533 89.4571 63.4114 89.7978C63.7152 90.0253 64.0471 90.1745 64.379 90.3237C65.6201 90.8789 66.5276 91.8008 66.8809 93.0889L66.8839 93.0908ZM77.9742 86.8824C76.8082 86.9203 75.6498 86.7795 74.5211 86.5447C73.6448 86.3593 72.7737 86.5191 71.9053 86.4346C71.1628 86.3621 70.4461 86.1682 69.7189 86.0177C69.5444 85.9836 69.3915 85.888 69.2833 85.7411C69.1178 85.5126 69.1811 85.2645 69.4356 85.1444C69.6184 85.0586 69.8174 85.0205 70.0152 85.0441C70.7738 85.1309 71.5467 85.1348 72.2727 85.4137C72.3937 85.4602 72.5233 85.4996 72.6503 85.5165C74.0747 85.6986 75.4623 86.1328 76.9186 86.1306C77.5394 86.1311 78.1043 86.3677 78.71 86.6589C78.4567 86.9507 78.2005 86.8738 77.9723 86.8854L77.9742 86.8824ZM79.0897 83.4988C80.4102 83.6869 81.7222 83.9154 83.0316 84.1548C83.7306 84.2835 84.0063 84.4559 84.3603 84.8565C84.1148 85.2157 83.7944 85.228 83.4569 85.1878C82.8073 85.1067 82.1483 85.0739 81.5151 84.9198C79.5764 84.4536 77.598 84.2376 75.6251 84.0127C75.4509 83.9913 75.2756 83.965 75.1032 83.974C73.82 84.0594 72.5905 83.7324 71.3516 83.487C70.8623 83.3895 70.3521 83.3789 69.8849 83.1659C69.6871 83.0756 69.444 83.0111 69.4759 82.7267C69.5086 82.4679 69.7274 82.3713 69.95 82.3354C70.558 82.2362 71.171 82.2027 71.7813 82.3134C72.6212 82.4634 73.4574 82.6195 74.2947 82.7805C75.8824 83.0814 77.4873 83.268 79.0855 83.4921L79.0897 83.4988ZM69.7951 79.9166C70.4927 79.961 71.1959 79.9964 71.877 80.1805C72.8724 80.4486 73.8944 80.5208 74.9097 80.6639C75.2858 80.7157 75.5727 80.8701 75.7082 81.3133C75.3743 81.7006 74.945 81.7073 74.5419 81.6719C73.5195 81.587 72.4963 81.4766 71.4784 81.3444C70.8119 81.257 70.1323 81.2238 69.4816 81.0045C69.14 80.8909 68.9036 80.7222 68.7906 80.343C69.0177 79.9598 69.3942 79.891 69.8 79.9154L69.7951 79.9166ZM58.785 84.9703C58.6513 84.8242 58.5063 84.696 58.3621 84.56C58.0486 84.268 57.8108 83.915 57.7573 83.4939C57.6751 82.8588 57.4606 82.262 57.318 81.6434C57.2491 81.3335 57.2339 81.0113 57.3681 80.7367C57.7632 79.925 58.1916 79.1132 58.9785 78.6215C59.6826 78.1822 60.3432 77.6658 61.166 77.4299C61.9285 77.2106 62.6768 77.0074 63.477 77.2076C64.1112 77.3667 64.7818 77.3942 65.3302 77.8038C65.4516 77.8964 65.6183 77.9631 65.6845 78.0838C66.1043 78.8257 66.7928 79.398 67.0852 80.2103C67.2974 80.7974 67.5453 81.3943 67.4489 82.0552C67.3794 82.5329 67.4767 83.0106 67.381 83.4968C67.2835 83.9861 67.0979 84.4162 66.7467 84.9177C66.3182 85.8962 65.3092 86.2698 64.2961 86.57C62.1315 87.2049 60.2963 86.6199 58.7861 84.9752L58.785 84.9703ZM40.0355 99.3868C39.8743 99.4444 39.6825 99.4245 39.5323 99.5182C38.703 100.038 37.7694 100.071 36.8564 100.004C35.9482 99.9364 35.03 99.8249 34.1856 99.422C33.75 99.212 33.3465 98.9639 32.9926 98.63C32.4259 98.0963 32.2462 97.3837 32.1696 96.673C32.0141 95.2418 32.2142 93.862 33.1444 92.7012C33.6332 91.6729 34.5359 91.116 35.4142 90.5314C35.7942 90.2771 36.2685 90.1986 36.6724 90.1927C38.1291 90.1698 39.5857 90.147 40.8057 91.2559C41.3446 91.7472 41.6986 92.2479 41.8351 92.9294C42.0697 94.1141 42.2665 95.3127 42.1242 96.5201C42.0524 97.1214 41.8653 97.7339 41.6127 98.2846C41.3203 98.9188 40.6705 99.1712 40.0433 99.3875L40.0355 99.3868ZM45.0906 89.7836C44.6756 89.4073 44.6101 88.812 44.6436 88.2451C44.6647 87.8915 44.6929 87.5464 44.5975 87.1991C44.5391 86.9791 44.6084 86.7682 44.6748 86.5554C45.1293 85.1222 46.0268 84.1202 47.4379 83.577C48.3001 83.2449 49.1615 82.9206 50.0832 82.8134C51.0801 82.699 52.0381 82.7937 52.7167 83.6349C53.0973 84.1063 53.3946 84.6508 53.6983 85.1784C53.8698 85.4774 53.975 85.8225 54.1128 86.1421C54.8096 87.7409 54.2615 89.0906 53.2417 90.3413C53.1158 90.496 52.9607 90.6241 52.8407 90.7826C52.0713 91.8063 51.0038 92.1601 49.7884 92.1837C49.6356 92.1882 49.4823 92.1799 49.3306 92.1892C48.5288 92.2381 47.7368 92.2513 47.2012 91.6413C46.2314 91.239 45.7644 90.3925 45.0906 89.7836ZM46.6944 95.4847C46.18 95.7341 45.6794 96.0213 45.1102 96.1114C44.6797 96.1799 44.2429 96.2652 43.9257 95.8125C43.583 95.3273 44.7773 94.3441 45.1951 94.1427C45.8054 93.8532 46.4271 93.6125 47.0929 93.4411C48.3604 93.1207 49.6113 93.2402 50.875 93.2926C51.631 93.3235 52.3335 93.5668 53.0032 93.9023C53.0212 93.9136 53.0381 93.92 53.0561 93.9312C53.8899 94.3776 53.5202 95.6888 52.5768 95.5908C52.5483 95.5897 52.5236 95.5825 52.497 95.5784C52.2415 95.527 51.986 95.4423 51.7553 95.3313C50.0463 94.5044 48.3667 94.6838 46.7023 95.4854L46.6944 95.4847ZM51.6567 106.721C50.7829 107.358 49.842 107.783 48.7491 107.804C48.5296 107.809 48.3157 107.771 48.1036 107.696C47.753 107.577 47.4068 107.411 47.0442 107.351C45.4025 107.083 44.7278 105.835 44.1729 104.496C43.9209 103.893 43.7862 103.241 43.5983 102.615C43.5361 102.401 43.4935 102.183 43.5303 101.964C43.7051 100.931 44.0014 99.9577 44.8846 99.2719C45.5606 98.7442 46.2303 98.2 47.0081 97.8361C48.6482 97.0734 50.469 97.2282 52.0763 98.2376C53.5137 98.9989 54.0704 100.302 54.2367 101.836C54.2461 101.921 54.2528 102.017 54.2307 102.099C53.9352 103.131 53.6674 104.172 53.0767 105.104C52.682 105.728 52.2559 106.283 51.6567 106.721ZM57.0531 102.871C56.7357 103.186 56.224 102.991 56.1885 102.548C56.1691 102.285 56.0826 102.044 55.9834 101.802C55.9579 101.736 55.9538 101.663 55.9636 101.594C55.9594 101.587 55.9572 101.577 55.958 101.57C55.925 101.416 55.8981 101.265 55.8906 101.111C55.8735 100.858 56.0762 100.647 56.3123 100.603C56.5756 100.555 56.7678 100.721 56.8666 100.95C56.9277 101.092 57.1615 101.138 57.2903 101.186C57.5035 101.265 57.6908 101.365 57.859 101.516C58.0492 101.685 58.0791 102.037 57.8865 102.225C57.6298 102.469 57.3038 102.624 57.055 102.868L57.0531 102.871ZM64.7397 111.818C64.1764 112.612 63.5074 113.382 62.4707 113.646C62.132 113.735 61.8015 113.87 61.48 114.011C60.8333 114.298 60.1559 114.308 59.4786 114.251C58.9792 114.21 58.4813 114.12 57.9826 114.07C57.5597 114.027 57.1625 113.929 56.9378 113.721C56.4857 113.451 56.1901 113.204 55.934 112.893C55.6564 112.557 55.3913 112.208 55.0744 111.902C54.6395 111.484 54.5288 110.914 54.4679 110.338C54.4286 109.968 54.4344 109.592 54.3951 109.221C54.3043 108.327 54.6353 107.537 54.996 106.754C55.1778 106.363 55.4753 106.074 55.8935 105.919C56.3746 105.736 56.7621 105.403 57.1743 105.111C58.1264 104.435 59.1647 103.988 60.3333 103.906C61.1231 103.849 61.9061 103.93 62.6703 104.142C63.4297 104.354 64.1463 104.681 64.8516 105.026C65.3162 105.25 65.6532 105.644 65.8303 106.134C66.1163 106.93 66.2128 107.749 66.0462 108.596C65.8211 109.755 65.4091 110.861 64.7356 111.811L64.7397 111.818ZM67.1156 112.445C68.9146 112.561 70.6421 112.779 72.3792 113.227C73.647 113.553 74.9818 113.725 76.2724 113.928C76.6399 113.987 76.9538 114.358 77.3752 114.617C76.0773 114.94 74.9208 114.862 73.773 114.511C73.0387 114.286 72.2823 114.175 71.5203 114.107C70.0131 113.978 68.5344 113.682 67.0689 113.333C67.0254 113.322 66.9838 113.309 66.9434 113.3C66.6366 113.204 66.3088 113.062 66.395 112.691C66.4794 112.322 66.8425 112.428 67.1216 112.449L67.1156 112.445ZM83.2862 118.297C81.7682 118.098 80.2479 117.89 78.7314 117.708C76.7061 117.467 74.7498 116.869 72.7204 116.688C71.5444 116.582 70.3548 116.551 69.1815 116.401C67.8841 116.236 66.5957 115.976 65.3062 115.745C65.0627 115.701 64.8503 115.581 64.8025 115.217C65.2053 114.973 65.6361 115.017 66.0291 115.042C67.2524 115.119 68.4624 115.317 69.6556 115.609C70.5248 115.819 71.4186 115.936 72.2968 116.119C74.3423 116.547 76.4238 116.599 78.4971 116.736C79.0681 116.777 79.6124 116.946 80.1751 117.039C81.4473 117.251 82.7226 117.432 83.9994 117.63C84.3343 117.681 84.6853 117.713 84.9715 118.042C84.4102 118.366 83.8433 118.366 83.2911 118.296L83.2862 118.297ZM89.7005 117.54C87.9191 117.322 85.2535 117.118 83.5122 116.696C82.0969 116.353 81.5923 115.866 80.0553 115.418C80.4835 115.24 80.7814 115.263 81.0777 115.269C82.6172 115.294 84.1209 115.576 85.6135 115.909C86.792 116.171 88.0007 116.218 89.1898 116.403C90.3957 116.594 91.6223 116.72 92.7649 117.192C93.0368 117.304 93.3384 117.388 93.5425 117.729C92.653 117.964 91.8183 117.959 90.9866 117.756C90.5599 117.652 90.1287 117.595 89.6956 117.541L89.7005 117.54ZM94.599 120.565C93.7561 120.48 92.9064 120.399 92.1062 120.099C91.8762 120.013 91.5881 119.954 91.526 119.573C91.9378 119.301 92.3285 119.55 92.7047 119.535C93.3738 119.512 94.0624 119.45 94.7165 119.684C94.996 119.784 95.4013 119.862 95.357 120.227C95.3075 120.612 94.8822 120.592 94.6009 120.562L94.599 120.565ZM107.922 120.952C106.539 120.75 105.176 120.464 103.822 120.122C103.168 119.955 102.502 119.834 101.844 119.673C101.385 119.561 100.911 119.464 100.542 119.008C101.949 118.471 108.622 119.613 109.34 120.517C108.941 120.922 108.45 121.028 107.924 120.949L107.922 120.952ZM118.653 119.538C118.223 119.473 117.802 119.36 117.367 119.301C117.018 119.253 116.673 119.191 116.324 119.215C114.83 119.298 113.369 119.035 111.904 118.819C110.045 118.544 108.186 118.27 106.325 118.006C106.02 117.961 105.724 117.881 105.439 117.777C105.271 117.718 105.115 117.629 105.154 117.32C105.705 117.164 106.246 117.194 106.787 117.241C108.268 117.366 109.75 117.509 111.232 117.619C111.956 117.675 112.669 117.788 113.374 117.92C114.046 118.045 114.72 118.062 115.393 118.058C116.445 118.049 117.489 118.159 118.526 118.32C118.656 118.339 118.792 118.349 118.911 118.399C119.189 118.514 119.522 118.601 119.454 119.017C119.398 119.353 119.046 119.596 118.65 119.536L118.653 119.538Z" fill="#FF6A00"/>
<path d="M96.6823 135.082C96.2311 135.684 95.7847 136.251 95.3695 136.841C95.1528 137.148 94.9512 137.464 94.6844 137.73C94.488 137.924 94.2785 138.039 93.996 138.071C93.0575 138.172 92.2107 138.559 91.386 138.998C90.3585 139.548 89.4472 140.279 88.4445 140.869C87.8959 141.193 87.8193 141.662 88.1815 142.209C88.6781 142.962 88.9193 143.029 89.7736 142.73C90.3851 142.512 90.9123 142.162 91.4227 141.773C91.9496 141.377 92.5146 141.046 93.1127 140.737C93.3808 141.055 93.4062 141.321 93.1844 141.649C92.6177 142.495 91.9348 143.227 91.2033 143.937C90.6367 144.483 90.081 145.065 89.6057 145.685C88.8828 146.621 87.9632 147.338 87.1601 148.182C86.3124 149.078 85.3261 149.728 84.0972 150.027C83.5382 150.161 83.0413 150.542 82.4987 150.77C81.7741 151.075 81.1269 151.55 80.3689 151.789C80.0598 151.883 79.8357 152.102 79.6416 152.339C79.3478 152.689 79.3611 153.147 79.6476 153.556C80.0038 154.066 80.1177 154.071 80.6879 153.952C81.5448 153.775 82.277 153.324 83.0305 152.932C83.8275 152.518 84.6747 152.21 85.4253 151.683C86.099 151.212 86.97 151.552 87.0283 152.239C87.0656 152.679 86.9842 153.15 86.6102 153.441C85.8296 154.049 85.1326 154.764 84.2767 155.279C83.9702 155.463 83.7521 155.718 83.5441 156.017C83.2214 156.487 82.8129 156.84 82.1996 156.994C81.267 157.232 80.3741 157.62 79.6232 158.268C79.3601 158.495 79.0911 158.585 78.7348 158.608C76.3122 158.769 73.9408 158.328 71.5521 158.068C70.2682 157.928 68.9869 157.811 67.712 157.61C67.4273 157.565 67.1583 157.488 66.8942 157.377C66.4394 157.185 66.2335 156.814 66.18 156.36C66.1243 155.895 66.3436 155.545 66.7501 155.328C67.5591 154.888 68.367 154.442 69.1917 154.037C70.0794 153.604 70.9045 153.045 71.8472 152.717C72.2822 152.568 72.7023 152.376 73.1478 152.25C74.4355 151.884 75.6582 151.336 76.8801 150.795C77.0573 150.718 77.2181 150.581 77.3552 150.442C77.664 150.135 78.0526 149.84 77.853 149.319C77.6681 148.829 77.0328 148.465 76.4805 148.494C76.1917 148.51 75.9212 148.582 75.657 148.705C74.8383 149.081 74.0196 149.457 73.1893 149.804C72.6797 150.019 72.1525 150.136 71.5936 149.936C71.331 149.843 71.032 149.848 70.7495 149.813C70.2584 149.752 69.8163 149.592 69.4418 149.258C68.8728 148.747 68.9146 147.994 69.616 147.699C70.4445 147.354 71.2306 146.904 72.1073 146.668C74.0643 146.145 75.9381 145.429 77.7457 144.492C78.9987 143.841 80.1525 143.049 81.3594 142.333C81.7768 142.085 82.2115 141.89 82.6716 141.728C84.1209 141.217 85.5859 140.74 86.9296 139.972C87.0454 139.906 87.1653 139.848 87.2668 139.766C87.6004 139.499 87.6889 139.104 87.5211 138.699C87.3347 138.257 87.1759 138.158 86.6423 138.258C86.1028 138.354 85.5633 138.483 85.0664 138.731C84.4759 139.029 83.8588 139.256 83.2323 139.464C82.6699 139.65 82.3076 139.503 81.9905 138.95C81.7426 138.52 81.8056 138.26 82.3178 137.834C83.1872 137.11 84.1779 136.579 85.1979 136.108C87.1575 135.208 88.9749 134.035 90.8859 133.045C92.8471 132.029 94.5488 130.621 96.3725 129.398C96.8304 129.092 97.2793 128.781 97.7271 128.465C98.8457 127.676 99.4663 128.21 99.7392 129.361C99.8623 129.884 99.7314 130.44 99.5836 130.923C99.344 131.719 99.3314 132.532 99.2155 133.331C99.0897 134.199 98.8677 135.06 98.8532 135.943C98.8262 137.54 98.6748 139.142 99.0445 140.724C99.1856 141.325 99.1439 141.945 99.104 142.562C99.0784 142.929 98.9491 143.236 98.5684 143.298C98.175 143.361 97.7325 143.522 97.4067 143.109C97.2153 142.869 97.0179 142.625 97.0064 142.296C96.9712 140.786 96.6179 139.298 96.6805 137.778C96.7144 136.99 96.6236 136.196 96.8138 135.418C96.8329 135.335 96.8322 135.242 96.67 135.095L96.667 135.093L96.6823 135.082Z" fill="#006739"/>
<path d="M105.514 113.381C105.59 113.108 105.715 113.061 105.849 113.053C106.997 112.983 108.032 112.375 109.186 112.33C109.476 112.32 109.639 112.151 109.647 111.872C109.659 111.526 109.389 111.519 109.147 111.493C108.108 111.381 107.093 111.584 106.083 111.786C104.662 112.065 103.366 112.617 102.205 113.513C101.868 113.773 101.428 113.936 101.009 114.053C99.6364 114.441 98.2617 114.753 96.8118 114.705C95.4492 114.657 94.2006 114.248 92.9258 113.846C91.6311 113.437 90.4653 112.875 89.4435 111.969C89.0438 111.615 88.5306 111.369 88.0339 111.15C86.8966 110.655 85.8418 109.962 84.5811 109.745C84.0922 109.66 83.5981 109.497 83.1542 109.274C82.6466 109.019 82.1326 109.081 81.6129 109.085C81.4413 109.086 81.2413 109.12 81.2236 109.355C81.2123 109.539 81.3584 109.639 81.5082 109.666C82.5302 109.872 83.4416 110.354 84.3665 110.795C84.4242 110.823 84.4988 110.823 84.5527 110.857C84.7494 110.976 85.0435 111.039 85.0112 111.344C84.9819 111.617 84.7383 111.74 84.506 111.812C83.4528 112.149 82.3771 112.356 81.2689 112.289C80.3739 112.233 79.474 112.212 78.5861 112.099C77.6952 111.984 76.8103 111.872 75.958 111.569C75.2594 111.319 74.4853 111.344 73.8148 110.983C72.5775 110.322 71.3526 109.647 70.4728 108.501C69.7837 107.603 69.2171 106.636 69.1882 105.476C69.1593 104.349 69.676 104.142 70.4949 104.213C71.956 104.343 73.4029 104.589 74.858 104.748C77.2497 105.01 79.6249 105.412 82.0526 105.363C83.2317 105.337 84.4148 105.452 85.5945 105.518C86.3824 105.565 87.1448 105.779 87.9323 105.846C88.3717 105.883 88.8075 105.827 89.2383 105.871C89.9584 105.946 90.6852 105.984 91.3888 106.132C92.6142 106.386 93.8647 106.426 95.1026 106.566C96.2115 106.693 97.3231 106.775 98.4159 107.021C99.3161 107.221 100.244 107.217 101.156 107.325C102.374 107.47 103.563 107.796 104.792 107.857C106.804 107.96 108.789 108.338 110.806 108.42C111.505 108.449 112.2 108.563 112.894 108.646C114.501 108.843 116.126 108.912 117.739 109.038C118.152 109.071 118.566 109.109 118.966 109.242C119.92 109.563 120.266 110.351 119.847 111.273C119.501 112.04 118.862 112.495 118.144 112.863C116.072 113.923 113.875 114.283 111.574 114.157C110.48 114.094 109.386 114.036 108.303 113.895C107.375 113.778 106.461 113.561 105.501 113.382L105.514 113.381Z" fill="#AEFFE4"/>
<path d="M97.433 98.1552C97.5054 97.9129 97.6991 97.8964 97.8647 97.8583C98.4188 97.7254 98.9749 97.5562 99.5391 97.5005C100.214 97.4348 100.801 97.1431 101.408 96.8978C101.779 96.7458 101.837 96.4784 101.609 96.1643C101.35 95.811 100.996 95.7978 100.604 95.8906C99.2971 96.1944 98.019 96.5916 96.7522 97.0375C95.7057 97.4044 94.6311 97.5828 93.5349 97.6893C91.4169 97.903 89.2915 97.862 87.1672 97.9258C85.8327 97.9667 84.4997 98.1252 83.1644 98.1739C81.5597 98.2334 80.0493 97.7891 78.5748 97.2005C77.6798 96.8451 76.7557 96.4964 75.9825 95.9462C74.8449 95.1389 73.6174 94.4421 72.6259 93.4344C72.0701 92.87 71.3231 92.5446 70.7684 91.9851C69.9459 91.1539 68.8674 90.7588 67.8582 90.2527C67.5855 90.1155 67.4383 89.9443 67.501 89.6374C67.5662 89.3197 67.8068 89.2284 68.0874 89.1996C68.1725 89.1903 68.265 89.2023 68.3478 89.2166C70.0857 89.5572 71.8807 89.5667 73.5991 90.0452C74.5454 90.3118 75.5153 90.514 76.423 90.9024C77.0943 91.1888 77.8016 91.331 78.5089 91.4732C79.1738 91.6097 79.8471 91.6931 80.5162 91.803C81.47 91.9576 82.4186 92.0006 83.3935 91.9349C84.4369 91.8663 85.4776 92.1419 86.521 92.24C88.2428 92.3997 89.9538 92.6567 91.6644 92.9011C93.0757 93.1042 94.4922 93.2855 95.9102 93.3177C98.0446 93.3644 100.13 93.7557 102.233 94.0121C102.474 94.0414 102.713 94.0452 102.954 94.046C104.252 94.0445 105.518 94.3528 106.81 94.373C107.971 94.3902 109.126 94.5164 110.287 94.4796C111.341 94.4469 112.375 94.7061 113.414 94.8386C114.631 94.9993 115.85 95.0824 117.076 95.1153C118.018 95.1418 118.954 95.2724 119.82 95.6934C120.805 96.1717 120.891 97.247 119.999 97.881C118.63 98.8506 117.101 99.0492 115.486 98.8981C113.711 98.7302 112.005 98.2846 110.325 97.7177C109.433 97.4181 108.517 97.1957 107.671 96.7751C107.614 96.7474 107.551 96.7208 107.489 96.7069C107.31 96.6739 107.126 96.6802 107.014 96.8473C106.891 97.0293 107.001 97.1811 107.126 97.3137C107.599 97.8178 108.193 98.1476 108.811 98.4258C109.369 98.6743 109.944 98.888 110.507 99.1276C110.723 99.2213 111.006 99.3023 110.954 99.6117C110.895 99.9459 110.587 99.9657 110.328 99.9664C109.452 99.9605 108.581 99.8869 107.711 99.7514C105.485 99.4054 103.272 98.9638 101.012 98.8384C100.074 98.7854 99.139 98.6469 98.2047 98.5211C97.9241 98.4832 97.5847 98.4794 97.4428 98.153L97.4398 98.1511L97.433 98.1552Z" fill="#AEFFE4"/>
<path d="M80.5034 77.038C80.1997 76.4771 79.8694 76.0787 79.3382 75.8549C77.9671 75.281 76.5513 75.3252 75.1377 75.6459C73.0683 76.1151 70.9856 76.3259 68.8688 76.2111C68.0634 76.1659 67.3092 75.9319 66.6147 75.5559C65.997 75.2238 65.5274 74.6883 65.5272 73.942C65.5263 73.1369 65.9258 72.5113 66.6561 72.1301C67.1893 71.8508 67.7487 71.7296 68.35 71.6679C70.3781 71.4646 72.3738 71.6663 74.3736 71.9415C75.3503 72.0729 76.327 72.2043 77.3037 72.3357C77.8757 72.4141 78.4227 72.6061 78.9258 72.8415C80.1429 73.415 81.4402 73.7136 82.7252 74.0586C84.4807 74.5312 86.2695 74.9037 88.0674 75.1151C89.7994 75.3186 91.5478 75.4824 93.3031 75.4754C94.5769 75.4716 95.8331 75.6694 97.1009 75.7619C97.6669 75.8032 98.2364 75.8592 98.8025 75.9006C100.598 76.0228 102.376 76.2387 104.15 76.5145C105.406 76.7075 106.675 76.7303 107.938 76.8239C108.634 76.8713 109.333 76.8999 110.017 77.0654C110.632 77.2161 111.262 77.289 111.882 77.4229C112.623 77.5857 113.286 77.892 113.963 78.1949C114.746 78.5427 115.127 79.1142 115.099 80.0055C115.056 81.4336 114.351 82.3809 113.073 83.0449C111.549 83.8346 109.974 83.9335 108.348 83.7543C107.027 83.6075 105.819 83.0729 104.629 82.5084C104.535 82.466 104.458 82.3761 104.383 82.2959C104.202 82.1119 103.938 81.9469 104.079 81.6349C104.21 81.3457 104.49 81.4582 104.725 81.4552C105.643 81.4412 106.575 81.5239 107.415 81.0071C107.489 80.9618 107.576 80.9289 107.594 80.7734C106.876 80.3824 106.07 80.3118 105.27 80.3037C103.252 80.2841 101.235 80.3232 99.2213 80.3103C97.9276 80.3059 96.6419 80.1354 95.352 80.0916C93.8294 80.0399 92.3432 79.7566 90.8904 79.3734C89.0087 78.8761 87.1656 78.2237 85.517 77.1469C85.1162 76.8879 84.7045 76.7263 84.2005 76.9656C84.1626 77.4462 84.4941 77.7161 84.7817 77.996C84.936 78.1425 85.1402 78.2494 85.3267 78.3577C85.6129 78.52 85.7017 78.7714 85.6607 79.0835C85.6187 79.3907 85.401 79.5255 85.1286 79.6011C84.8318 79.6823 84.5332 79.7666 84.22 79.7541C82.9114 79.7069 81.6593 79.4492 80.4786 78.8776C80.0201 78.6575 79.5222 78.5671 79.0281 78.4707C78.6336 78.3949 78.2769 78.2386 77.9383 78.0268C77.6566 77.8506 77.4967 77.5797 77.5538 77.2485C77.6153 76.9035 77.9427 76.8665 78.2204 76.8025C78.5107 76.7381 78.7756 76.8412 79.0543 76.9155C79.4833 77.0295 79.9111 77.2387 80.4956 77.0373L80.5034 77.038Z" fill="#AEFFE4"/>
<path d="M46.2503 138.119C45.9082 138.193 45.6579 138.32 45.4488 138.514C44.3811 139.501 43.1 140.13 41.8024 140.732C41.3805 140.926 40.9804 141.126 40.6229 141.445C40.0263 141.972 39.498 141.917 38.9613 141.335C38.5714 140.912 38.3153 140.402 38.0052 139.924C37.8359 139.668 37.6711 139.432 37.367 139.292C37.0051 139.124 36.7054 138.836 36.5725 138.449C36.4314 138.048 36.2104 137.701 35.9509 137.377C35.9224 137.342 35.894 137.308 35.8704 137.272C35.263 136.25 35.4167 135.804 36.4224 135.249C37.2119 134.814 38.0231 134.416 38.8231 134.004C40.1556 133.319 41.4109 132.512 42.7051 131.762C44.2261 130.883 45.7541 130.013 47.2687 129.118C47.8326 128.783 48.3891 128.426 48.907 128.025C49.5879 127.496 50.3193 127.053 51.0496 126.605C51.6499 126.238 52.1775 125.768 52.7359 125.342C53.0323 125.114 53.3557 124.937 53.691 124.767C54.4131 124.406 55.3555 125.246 55.1009 126.066C55.0499 126.234 55.006 126.411 54.9142 126.558C54.3459 127.487 54.0995 128.554 53.6703 129.54C53.5095 129.911 53.5479 130.356 53.4283 130.76C53.3087 131.165 53.1748 131.552 52.9361 131.907C52.5174 132.517 52.3251 133.184 52.2035 133.925C51.9738 135.299 51.915 136.68 51.8641 138.061C51.8293 139.023 51.9291 139.99 51.9562 140.953C51.9822 141.845 52.1648 142.726 52.0754 143.629C52.0228 144.147 51.7886 144.421 51.3146 144.579C50.8357 144.738 50.4656 144.624 50.1315 144.265C49.6304 143.726 49.1435 143.171 48.6416 142.541C48.4407 142.982 48.6122 143.381 48.53 143.759C48.4043 144.36 48.3536 144.974 48.3973 145.598C48.4424 146.206 47.5689 147.089 46.9728 147.096C46.7552 147.097 46.5952 146.993 46.4727 146.829C46.2424 146.531 46.0612 146.2 45.9867 145.833C45.8831 145.339 45.7577 144.839 45.7402 144.341C45.722 143.75 45.5648 143.168 45.6084 142.578C45.6949 141.44 45.9054 140.317 46.1061 139.196C46.1676 138.851 46.1951 138.514 46.2465 138.125L46.2503 138.119Z" fill="#006739"/>
<path d="M109.566 148.831C109.276 148.908 108.983 148.984 108.693 149.069C108.063 149.255 107.587 149.036 107.195 148.537C106.977 148.259 106.951 147.98 107.115 147.678C107.244 147.446 107.406 147.239 107.596 147.049C108.647 145.976 109.824 145.053 111.07 144.227C111.548 143.909 112.049 143.655 112.383 143.16C112.546 142.92 112.683 142.681 112.761 142.396C112.958 141.694 112.942 141.534 112.586 141.29C111.813 140.765 111.412 140.681 110.941 141.187C110.299 141.874 109.445 142.273 108.796 142.91C108.234 143.463 107.75 143.743 106.987 143.404C106.758 143.303 106.46 143.353 106.351 143.048C106.232 142.711 106.383 142.463 106.611 142.218C107.02 141.778 107.519 141.452 107.961 141.053C109.315 139.828 110.686 138.622 112.057 137.416C113.18 136.426 114.361 135.505 115.426 134.449C116.58 133.304 117.732 132.148 118.906 131.023C119.525 130.434 119.848 130.457 120.615 130.858C121.111 131.118 121.582 131.35 121.686 131.978C121.714 132.154 121.752 132.319 121.708 132.496C121.426 133.533 121.296 134.602 120.881 135.618C120.666 136.142 120.627 136.764 120.482 137.336C120.073 138.977 119.654 140.62 119.338 142.278C119.118 143.437 119.057 144.62 119.107 145.814C119.146 146.739 119.305 147.584 119.694 148.416C119.96 148.982 119.798 149.369 119.279 149.719C118.893 149.983 118.541 149.958 118.095 149.538C117.33 148.809 116.896 147.929 117.115 146.832C117.174 146.532 117.208 146.224 117.255 145.923C117.319 145.526 117.225 145.117 116.808 144.91C116.371 144.696 115.917 144.528 115.45 144.849C115.117 145.074 114.784 146.054 114.972 146.547C115.196 147.129 115.009 147.541 114.659 147.981C113.63 149.259 112.904 150.673 112.839 152.358C112.824 152.695 112.683 152.994 112.431 153.237C111.933 153.713 111.398 154.121 110.706 154.275C110.169 154.394 109.649 154.565 109.138 154.775C108.267 155.135 107.361 155.398 106.431 155.571C106.134 155.627 105.864 155.804 105.577 155.904C104.914 156.131 104.626 156.03 104.297 155.491C103.999 155 104.06 154.676 104.515 154.202C105.263 153.419 106.173 152.817 106.92 152.037C107.87 151.043 108.792 150.023 109.572 148.822L109.566 148.831ZM109.193 152.595C109.768 152.609 110.161 152.413 110.567 152.25C110.689 152.202 110.864 152.136 110.852 152.008C110.798 151.461 111.07 150.96 111.097 150.297C110.429 151.105 109.839 151.816 109.196 152.597L109.193 152.595Z" fill="#006739"/>
<path d="M69.914 52.5517C70.1016 52.7316 70.2751 52.8942 70.4395 53.0513C70.9307 52.8124 71.0124 52.655 70.847 52.2597C70.7796 52.1009 70.7036 51.9158 70.5769 51.8116C70.1159 51.4357 70.0714 50.9202 70.0479 50.3844C70.0264 49.8123 70.0479 49.238 70.1334 48.6745C70.2183 48.1189 70.4431 47.9927 70.9818 48.1712C71.1848 48.2398 71.3725 48.253 71.54 48.1118C71.7334 47.9492 71.6473 47.7536 71.5829 47.5633C71.5466 47.4614 71.5256 47.3482 71.4758 47.2546C70.8913 46.1762 71.3014 45.1737 71.7471 44.181C71.8585 43.9296 72.0316 43.7794 72.3748 43.844C72.8116 43.9254 73.1058 43.5549 72.8924 43.163C72.5752 42.5769 72.7379 42.0034 72.8688 41.4474C73.1201 40.379 73.5621 39.3589 73.7186 38.2354C72.3313 39.5939 71.2463 41.229 69.602 42.4518C69.9392 42.4792 70.101 42.347 70.2858 42.2916C70.4997 42.2295 70.7219 42.1475 70.8919 42.3622C71.0732 42.5923 70.9967 42.8279 70.8288 43.0231C70.2824 43.6568 69.6985 44.2505 69.045 44.7756C67.9853 45.6303 66.7791 46.2725 65.6444 47.2137C66.0662 47.1857 66.311 46.9677 66.5875 46.8322C67.1241 46.5674 67.3957 46.6664 67.6671 47.1655C67.8173 47.4387 67.7539 47.6533 67.5883 47.8916C67.2195 48.428 66.7237 48.8141 66.1867 49.1661C65.1926 49.8159 64.221 50.4964 63.2441 51.1652C63.0844 51.2738 62.9169 51.3817 62.7962 51.6147C63.4598 51.5002 64.0203 51.2171 64.573 50.9333C64.9286 50.7513 65.2909 50.5986 65.669 50.4806C65.9537 50.3919 66.2355 50.4014 66.4377 50.6779C66.6583 50.9784 66.6998 51.4588 66.5075 51.7262C66.2879 52.0307 66.0113 52.2997 65.7025 52.5068C64.3206 53.4434 62.9982 54.4715 61.4941 55.2234C60.7402 55.6023 59.9343 55.8112 59.1504 56.0713C58.7046 56.2177 58.1483 55.8407 58.0413 55.3985C57.9709 55.1044 58.1628 54.7575 58.5514 54.6629C59.0606 54.5352 59.4544 54.2188 59.8965 53.9784C60.0558 53.8903 60.181 53.7769 60.2784 53.621C60.4115 53.4083 60.4025 53.2026 60.2527 53.0088C60.1018 52.8102 59.892 52.8458 59.7174 52.945C59.2775 53.1952 58.8529 53.4674 58.4224 53.7359C58.0679 53.9561 57.7131 54.0636 57.3051 53.8626C56.5836 53.5032 56.4688 52.8602 57.0144 52.2677C57.891 51.3193 58.9739 50.7209 60.1669 50.2997C60.7357 50.0968 61.2262 49.7657 61.7073 49.4163C61.9513 49.2396 62.2304 49.0265 62.0657 48.6566C61.9272 48.3449 61.5136 48.2863 61.0812 48.4911C61.0028 48.5297 60.9268 48.578 60.8485 48.6166C60.3276 48.8828 60.0789 48.8273 59.7943 48.3825C59.489 47.904 59.5375 47.58 59.9609 47.2361C60.4361 46.8496 60.9681 46.5987 61.5781 46.5633C62.8422 46.4951 63.9449 45.9383 65.0469 45.3893C65.1069 45.3601 65.1586 45.3174 65.2114 45.2796C65.4426 45.1032 65.7061 44.9219 65.5166 44.5783C65.3417 44.2647 65.0614 44.4062 64.8126 44.4841C64.626 44.5425 64.4473 44.635 64.2588 44.6964C64.0588 44.763 63.8643 44.754 63.7302 44.5617C63.5992 44.3714 63.6427 44.1818 63.7611 44.0058C63.9691 43.7065 64.2591 43.5293 64.5967 43.4028C66.1716 42.8244 67.6535 42.0545 69.0617 41.1426C69.3004 40.9876 69.5511 40.84 69.6924 40.574C69.8476 40.2792 69.7603 40.1121 69.4415 40.0753C69.0942 40.0374 68.8068 40.1703 68.5284 40.3755C68.0926 40.6991 67.8596 40.6785 67.6536 40.3412C67.4918 40.0733 67.5803 39.7451 67.9899 39.5302C68.6138 39.1992 69.1833 38.7883 69.7896 38.4254C71.2064 37.5731 72.4625 36.4911 73.831 35.5627C74.1398 35.3556 74.3609 35.0353 74.5715 34.7251C74.8481 34.3228 75.179 33.967 75.5718 33.679C75.8828 33.4483 76.2054 33.4124 76.5391 33.6587C76.8837 33.9075 76.9061 34.205 76.776 34.5864C76.4727 35.4847 76.139 36.3849 76.1208 37.3406C76.101 38.5455 76.0549 39.759 76.4323 40.9288C76.6157 41.502 76.5197 41.9756 76.1925 42.192C75.8212 42.4392 75.496 42.3859 75.1503 41.9988C75.0084 41.8392 74.8911 41.6533 74.7204 41.4131C74.4792 42.3587 74.3332 43.2387 74.3248 44.1588C74.3204 44.919 74.5315 45.6346 74.5894 46.3753C74.632 46.9272 74.5105 47.1347 74.0823 47.3129C73.6424 47.4964 73.4375 47.1974 73.2177 46.9223C73.1383 46.8227 73.1087 46.6833 72.9019 46.5873C72.8792 47.4235 72.8655 48.232 73.0088 49.0095C73.2015 50.0346 73.113 50.2294 72.0654 50.3913C72.0235 50.3984 71.986 50.425 71.9036 50.4568C71.8719 51.2874 72.0923 52.0881 72.2757 52.8948C72.3251 53.1091 72.397 53.3208 72.413 53.5351C72.4709 54.3425 72.146 54.7021 71.318 54.7595C71.1186 55.1517 71.374 55.5032 71.493 55.8195C71.7824 56.5966 71.9358 57.4179 72.3642 58.1527C72.7069 58.738 72.6734 59.3715 72.1925 59.9337C71.8777 60.3038 71.5945 60.3768 71.1472 60.1721C70.7516 59.9914 70.4377 59.6867 70.1351 59.4308C69.8631 59.5525 69.966 59.7211 69.9652 59.8623C69.968 60.7645 69.1358 61.282 68.3727 60.809C67.3729 60.1879 66.7194 59.2665 66.393 58.1286C66.2792 57.7239 66.1396 57.3406 65.8816 57C65.598 56.6268 65.4693 56.1794 65.3368 55.738C65.2207 55.357 65.4126 55.1101 65.727 54.9274C66.0905 54.7128 66.5768 54.6751 66.7839 54.8505C66.8955 54.9453 66.8985 55.0806 66.9209 55.2113C66.9924 55.6437 67.062 56.0791 67.1334 56.5114C67.1764 56.7759 67.2554 57.0296 67.4078 57.2458C67.5573 57.4602 67.7644 57.4688 67.9908 57.3602C68.2122 57.2528 68.2422 57.1048 68.1835 56.8721C68.0053 56.1771 68.0169 56.1718 68.6622 55.8C68.9603 56.0031 69.0509 56.3516 69.2127 56.6528C69.3183 56.8439 69.3902 57.0556 69.5006 57.2456C69.6411 57.4877 69.8399 57.6829 70.1423 57.5594C70.4709 57.4272 70.5017 57.1713 70.3943 56.8499C70.1161 56.0214 69.8582 55.1806 69.5984 54.3428C69.5224 54.0911 69.4708 53.8337 69.4113 53.5755C69.3103 53.1371 69.4288 52.7944 69.92 52.5555L69.914 52.5517Z" fill="#006739"/>
<path d="M113.541 50.8419C113.329 51.4011 113.287 51.9545 113.314 52.4921C113.346 53.2414 113.263 53.9862 113.224 54.7288C113.175 55.707 113.272 56.6594 113.375 57.6204C113.383 57.6878 113.398 57.7511 113.405 57.8186C113.448 58.2832 113.526 58.832 113.077 59.0844C112.611 59.3481 112.059 59.2985 111.588 58.9582C111.536 58.9214 111.489 58.863 111.365 58.9146C111.362 59.6336 111.455 60.3634 111.667 61.0712C111.801 61.5175 111.865 61.9746 111.869 62.4354C111.872 62.9835 111.586 63.1674 111.055 63.0642C110.587 62.9719 110.283 62.6189 109.805 62.3288C110.078 63.5664 110.204 64.7248 110.665 65.7931C110.848 66.2202 110.947 66.6695 111.055 67.1164C111.13 67.43 111.096 67.7507 110.763 67.9174C110.408 68.0915 110.124 67.9389 109.905 67.6481C109.697 67.3678 109.469 67.0999 109.327 66.7736C108.713 65.3684 108.124 63.9577 108.095 62.3767C108.085 61.8533 108.221 61.3756 108.41 60.9063C108.515 60.6463 108.711 60.465 108.983 60.3973C109.264 60.3273 109.515 60.3671 109.6 60.7039C109.612 60.7447 109.617 60.7897 109.627 60.8335C109.674 61.0587 109.753 61.2663 110.003 61.3188C110.141 61.3462 110.27 61.2855 110.338 61.157C110.467 60.9169 110.324 60.7191 110.189 60.5553C109.92 60.2327 109.848 59.8336 109.801 59.4496C109.683 58.4714 109.577 57.4879 109.697 56.4958C109.755 56.044 109.93 55.6495 110.195 55.2858C110.32 55.1135 110.472 54.9836 110.688 55.0185C110.958 55.0665 110.929 55.3066 110.933 55.4928C110.94 55.8888 111.068 56.2107 111.355 56.4906C111.525 56.6593 111.683 56.8126 111.916 56.6665C112.16 56.5103 112.388 56.3193 112.255 55.9652C112.163 55.7198 112.084 55.4662 111.996 55.2196C111.898 54.9498 111.808 54.6808 111.693 54.4174C111.341 53.601 111.315 52.7681 111.498 51.9027C111.729 50.8005 111.991 49.7141 112.395 48.6618C112.599 48.1351 112.853 48.01 113.665 48.0511C113.715 47.4906 113.738 46.9212 113.819 46.3588C113.866 46.0299 113.966 45.7759 114.205 45.5542C114.416 45.3568 114.603 45.1317 114.679 44.85C114.752 44.5791 114.719 44.3124 114.489 44.1268C114.283 43.9563 114.073 44.0919 113.874 44.184C113.582 44.318 113.388 44.5679 113.225 44.8286C112.74 45.5969 112.074 46.1557 111.259 46.5384C111.141 46.5938 111.024 46.6619 110.918 46.7376C110.348 47.1563 110.373 47.5429 110.981 47.89C111.455 48.1655 111.441 48.1944 111.304 48.7132C111.093 49.4981 110.498 49.9557 109.92 50.4325C109.445 50.8269 108.952 51.1943 108.468 51.5752C108.053 51.8992 107.644 52.2269 107.131 52.4066C106.863 52.5017 106.619 52.6657 106.467 52.929C106.385 53.0736 106.359 53.2283 106.455 53.3677C106.561 53.5255 106.731 53.4989 106.873 53.4458C107.036 53.3851 107.192 53.2953 107.331 53.1941C107.724 52.9189 108.173 52.8332 108.632 52.7531C108.913 52.7038 109.159 52.7701 109.328 53.0133C109.513 53.2835 109.46 53.5547 109.303 53.8192C109.189 54.0147 109.004 54.1447 108.835 54.281C107.942 55.0024 106.963 55.5948 106.002 56.2191C105.114 56.7981 104.166 57.2553 103.24 57.7559C103.049 57.8615 102.829 57.9121 102.632 58.0012C101.882 58.3408 101.623 59.0672 101.984 59.7304C102.166 60.0654 102.401 60.137 102.746 60.0191C103.366 59.8068 103.753 59.315 104.119 58.8228C104.389 58.458 104.705 58.3183 105.133 58.3608C105.69 58.4171 105.913 58.7607 105.688 59.2743C105.452 59.8107 105.021 60.1999 104.607 60.5954C103.978 61.1943 103.21 61.5894 102.485 62.0361C100.98 62.9626 99.335 63.5931 97.6751 64.1475C96.7223 64.4646 95.711 64.5951 94.692 64.5247C94.1229 64.4815 93.6296 64.0771 93.5668 63.6043C93.513 63.2038 93.9361 62.5138 94.3805 62.3498C94.8335 62.1787 95.3071 62.0747 95.756 61.8968C96.6732 61.5367 97.592 61.1941 98.5743 61.0498C98.9415 60.9959 99.2982 60.8521 99.6137 60.6409C99.8764 60.4675 100.038 60.2431 99.8623 59.9168C99.7088 59.629 99.4851 59.4933 99.1565 59.6255C98.7912 59.7764 98.4281 59.937 98.0658 60.0898C97.6076 60.2826 97.2213 60.1869 96.9674 59.8197C96.6315 59.3303 96.6222 58.9452 96.9471 58.5523C97.22 58.2226 97.5673 57.9938 97.9578 57.8295C98.95 57.4161 99.9421 57.0028 100.933 56.5845C101.052 56.534 101.181 56.4812 101.283 56.3988C101.966 55.8336 102.763 55.5525 103.624 55.4283C103.984 55.3786 104.269 55.1565 104.558 54.9539C104.817 54.7737 104.865 54.537 104.734 54.2593C104.609 53.9933 104.401 53.8385 104.102 53.91C103.891 53.9613 103.691 54.0612 103.487 54.1339C103.193 54.2376 102.947 54.2045 102.718 53.9572C102.472 53.6908 102.444 53.4229 102.583 53.1138C102.816 52.601 103.24 52.316 103.745 52.1022C104.829 51.642 105.941 51.2291 106.86 50.4531C107.064 50.2804 107.289 50.1415 107.555 50.0954C108.149 49.9918 108.657 49.6671 109.209 49.45C109.447 49.3568 109.642 49.2246 109.57 48.9128C109.472 48.4969 109.257 48.2875 108.915 48.3072C108.591 48.3255 108.344 48.5131 108.088 48.6903C107.644 48.9925 107.208 48.9238 106.975 48.5236C106.743 48.1204 106.906 47.6803 107.376 47.4489C108.362 46.9651 109.379 46.5382 110.345 46.008C111.781 45.2179 113.071 44.228 114.255 43.101C114.481 42.8875 114.686 42.653 114.949 42.4924C115.637 42.0643 116.231 42.3687 116.251 43.1693C116.26 43.4956 116.246 43.8373 116.17 44.1524C115.759 45.8629 115.682 47.5863 115.855 49.3289C115.894 49.72 115.883 50.1175 115.805 50.515C115.636 51.3928 114.828 51.7301 114.086 51.2241C113.925 51.1151 113.84 50.9116 113.556 50.8179L113.553 50.8239L113.541 50.8419Z" fill="#006739"/>
<path d="M76.5484 51.353C76.3682 51.1278 76.1434 51.1873 75.9336 51.2229C75.2262 51.3474 74.7157 50.9573 74.213 50.5679C73.9411 50.3561 73.9505 50.0744 74.1873 49.8223C74.8885 49.0811 75.6736 48.4923 76.7608 48.5803C77.2179 48.616 77.6248 48.4453 78.0433 48.336C78.276 48.2772 78.5368 48.1402 78.4533 47.8337C78.3807 47.5632 78.1192 47.508 77.8629 47.5312C77.6018 47.5555 77.3429 47.6228 77.0814 47.6344C76.5632 47.6563 76.3572 47.3191 76.6256 46.87C76.7827 46.6055 77.0068 46.3871 77.2747 46.2254C78.6967 45.3513 80.1218 44.4791 81.5378 43.6013C81.823 43.4253 82.1212 43.3283 82.4606 43.2988C82.9604 43.2529 83.4692 43.1792 83.8998 42.8774C84.0804 42.7485 84.2801 42.6025 84.1607 42.3402C84.0592 42.1225 83.8599 42.0145 83.6224 42.0411C83.4268 42.0605 83.2376 42.1298 83.0435 42.1668C82.5224 42.2536 82.2362 41.9579 82.3645 41.4462C82.4987 40.9048 82.8877 40.5895 83.3864 40.4053C84.0646 40.1541 84.7765 39.9823 85.403 39.6071C86.0681 39.2101 86.8527 39.1088 87.5272 38.7302C87.7973 38.5781 88.0645 38.4242 88.2837 38.207C88.4381 38.0534 88.636 37.877 88.4585 37.6409C88.2839 37.4067 88.0269 37.3377 87.7568 37.4898C87.4113 37.6822 87.0722 37.8912 86.7349 38.0972C86.5682 38.1972 86.4254 38.3455 86.2208 38.3593C85.7841 37.9111 85.7778 37.7279 86.1803 37.3376C86.4359 37.0889 86.715 36.8758 87.0455 36.7407C88.9126 35.9615 90.5176 34.7683 92.0978 33.5346C92.4084 33.2912 92.6449 32.9597 92.9829 32.7458C93.2516 32.5762 93.5469 32.444 93.8349 32.67C94.1009 32.878 94.1517 33.1766 94.0632 33.5048C93.9995 33.74 93.9593 33.9776 93.8926 34.211C93.6113 35.194 93.7534 36.1666 93.9611 37.1344C94.0404 37.5008 94.0441 37.8283 93.7533 38.1133C93.4377 38.4245 93.2261 38.4297 92.8912 38.1119C92.5998 37.838 92.3477 37.8679 92.161 38.2264C92.0373 38.4575 91.9001 38.7302 91.981 38.9809C92.2115 39.7254 92.0993 40.5181 92.3179 41.2551C92.4579 41.7178 92.5852 42.181 92.6053 42.6688C92.615 42.8666 92.6235 43.0595 92.5261 43.2487C92.2959 43.6967 91.9336 43.8161 91.4912 43.577C91.2571 43.4514 91.0694 43.2715 90.8911 43.0767C90.799 42.9774 90.6694 42.938 90.5289 42.996C90.3651 43.0645 90.2905 43.1971 90.3141 43.3661C90.3653 43.7108 90.3877 44.075 90.5011 44.4002C90.819 45.2785 90.7618 46.2098 90.9088 47.1147C90.9256 47.2211 90.9005 47.3346 90.8821 47.444C90.8404 47.6972 90.8827 48.003 90.5642 48.1123C90.275 48.2149 90.0603 48.0181 89.8547 47.8603C89.2366 47.3821 89.0124 46.6874 88.9733 45.9501C88.9267 45.0581 88.8977 44.1645 89.0156 43.2627C89.1334 42.361 89.3637 41.5795 90.272 41.1804C90.5372 41.0628 90.5111 40.838 90.5254 40.6219C90.6235 39.3117 91.0045 38.0826 91.593 36.9082C91.6931 36.7082 91.8464 36.5497 91.9595 36.3621C92.0821 36.1594 92.1455 35.9448 91.9402 35.7664C91.741 35.5917 91.5143 35.6542 91.3434 35.8142C90.7378 36.3692 90.1966 36.9813 89.8518 37.7327C89.622 38.2268 89.3206 38.622 88.9073 38.9763C88.1361 39.6363 87.375 40.3067 86.4338 40.7185C86.2963 40.7785 86.1748 40.8859 86.0703 40.9998C85.9429 41.1369 85.9185 41.3092 86.0012 41.4902C86.0787 41.6596 86.2203 41.6731 86.3841 41.6713C86.7419 41.6657 87.0832 41.5999 87.3946 41.4153C87.6636 41.2584 87.9379 41.1798 88.1525 41.4765C88.3731 41.7771 88.2029 42.0292 87.9732 42.2232C87.2496 42.8337 86.5346 43.4704 85.687 43.8991C84.7293 44.3841 83.8269 44.987 82.8081 45.3629C82.5811 45.446 82.3634 45.5475 82.1288 45.6092C81.8943 45.671 81.6676 45.7668 81.4851 45.932C81.3198 46.0829 81.1782 46.2695 81.2883 46.5134C81.4006 46.7671 81.6156 46.8765 81.8797 46.8208C82.3095 46.7269 82.728 46.5842 83.1162 46.3768C83.4658 46.191 83.8049 45.9821 84.1339 45.7626C84.3734 45.5997 84.5825 45.472 84.8068 45.7665C85.0158 46.039 85.0955 46.3181 84.8399 46.6002C84.572 46.8953 84.2632 47.1691 83.8874 47.2968C82.8263 47.667 81.8236 48.1572 80.8377 48.687C80.5867 48.8218 80.2963 48.8862 80.0101 48.8906C79.4181 48.9039 78.9051 49.1709 78.3798 49.3843C77.995 49.5397 77.8297 49.8574 77.9473 50.0893C78.0701 50.3329 78.387 50.406 78.7561 50.2825C79.4643 50.05 80.0867 49.6014 80.8409 49.4686C81.3561 49.378 81.6389 49.459 81.8576 49.8292C82.0205 50.102 81.9144 50.5317 81.5958 50.8411C81.5014 50.9321 81.3897 51.004 81.2751 51.0741C79.657 52.0548 77.9735 52.9071 76.1941 53.566C75.6789 53.7566 75.1424 53.8879 74.5898 53.905C74.4399 53.9113 74.2762 53.9132 74.1376 53.8682C73.8236 53.7636 73.6341 53.52 73.5642 53.2053C73.5039 52.9216 73.7261 52.773 73.9168 52.6213C74.1998 52.4022 74.4917 52.2554 74.8716 52.2345C75.3729 52.2062 75.8772 52.113 76.289 51.7745C76.4029 51.6789 76.5506 51.5962 76.5398 51.3601L76.5484 51.353Z" fill="#006739"/>
<path d="M118.249 74.3296C118.118 74.1647 117.954 74.2078 117.801 74.2328C117.287 74.3204 116.914 74.037 116.546 73.7526C116.346 73.5985 116.353 73.3944 116.525 73.2138C117.03 72.6793 117.6 72.2606 118.392 72.3268C118.725 72.3553 119.019 72.231 119.325 72.1554C119.492 72.1143 119.683 72.0165 119.621 71.7947C119.566 71.5972 119.377 71.5586 119.191 71.5758C119.003 71.5911 118.814 71.6398 118.621 71.6483C118.245 71.6632 118.093 71.4185 118.288 71.0941C118.398 70.9046 118.562 70.7488 118.758 70.6293C119.788 70.002 120.819 69.3796 121.848 68.7475C122.057 68.6198 122.27 68.5528 122.516 68.5319C122.881 68.5016 123.249 68.4478 123.561 68.2347C123.692 68.1456 123.837 68.0403 123.749 67.8477C123.677 67.69 123.53 67.6109 123.357 67.6277C123.214 67.6427 123.079 67.6917 122.936 67.7145C122.555 67.7766 122.349 67.56 122.438 67.1906C122.536 66.8014 122.816 66.5725 123.178 66.4404C123.67 66.2603 124.188 66.1383 124.643 65.8721C125.126 65.5863 125.694 65.5168 126.186 65.2445C126.383 65.1348 126.576 65.0262 126.733 64.8697C126.843 64.7595 126.986 64.6318 126.859 64.461C126.732 64.2901 126.547 64.2406 126.349 64.3503C126.099 64.49 125.856 64.6383 125.61 64.7847C125.489 64.8588 125.385 64.9648 125.238 64.973C124.917 64.647 124.912 64.5148 125.204 64.2346C125.388 64.0537 125.591 63.9016 125.831 63.8054C127.183 63.2502 128.347 62.3944 129.489 61.5079C129.714 61.3356 129.886 61.0933 130.131 60.942C130.327 60.8225 130.538 60.7252 130.75 60.8916C130.947 61.0437 130.984 61.2584 130.918 61.4967C130.872 61.6637 130.843 61.8372 130.797 62.0043C130.594 62.7153 130.699 63.4193 130.858 64.1188C130.917 64.3848 130.92 64.6201 130.713 64.8243C130.485 65.0486 130.329 65.0512 130.086 64.82C129.876 64.6221 129.692 64.6442 129.556 64.9011C129.469 65.0675 129.367 65.2626 129.428 65.4462C129.6 65.9835 129.52 66.5586 129.682 67.0933C129.785 67.4286 129.88 67.7632 129.897 68.1157C129.904 68.2577 129.911 68.3997 129.842 68.5361C129.678 68.8586 129.413 68.9428 129.093 68.7678C128.921 68.6767 128.786 68.5463 128.653 68.405C128.585 68.3334 128.491 68.3038 128.39 68.345C128.271 68.3955 128.216 68.4903 128.236 68.6113C128.276 68.8612 128.29 69.1246 128.378 69.3584C128.612 69.9969 128.575 70.6698 128.684 71.3217C128.696 71.3959 128.677 71.4798 128.664 71.5596C128.637 71.7428 128.665 71.9646 128.437 72.0428C128.226 72.1147 128.069 71.9712 127.92 71.8569C127.467 71.5072 127.303 71.004 127.273 70.4724C127.234 69.8272 127.21 69.1787 127.291 68.529C127.372 67.8794 127.539 67.3126 128.197 67.0277C128.391 66.9446 128.368 66.7804 128.378 66.6242C128.447 65.6749 128.717 64.7893 129.141 63.9453C129.215 63.7999 129.323 63.6879 129.404 63.5512C129.496 63.4044 129.539 63.2482 129.389 63.1211C129.244 62.993 129.081 63.0409 128.956 63.1544C128.519 63.5525 128.126 63.9945 127.879 64.5362C127.715 64.892 127.499 65.1778 127.198 65.4318C126.638 65.907 126.092 66.3868 125.409 66.6804C125.311 66.7234 125.221 66.8006 125.145 66.8822C125.053 66.983 125.035 67.1051 125.093 67.2378C125.15 67.3607 125.252 67.3704 125.373 67.3709C125.634 67.3672 125.879 67.3208 126.108 67.1886C126.305 67.074 126.5 67.0212 126.657 67.2363C126.818 67.4533 126.696 67.6353 126.53 67.7735C126.005 68.2125 125.49 68.6698 124.873 68.9761C124.176 69.324 123.527 69.7558 122.788 70.0234C122.625 70.0841 122.468 70.1564 122.295 70.1987C122.126 70.2428 121.96 70.3143 121.828 70.4319C121.707 70.5394 121.607 70.6728 121.687 70.8519C121.769 71.0329 121.927 71.1146 122.118 71.0757C122.429 71.0117 122.734 70.9106 123.015 70.7612C123.269 70.6283 123.512 70.48 123.752 70.3219C123.925 70.2051 124.076 70.1115 124.244 70.3292C124.395 70.5278 124.457 70.729 124.272 70.9305C124.077 71.1421 123.854 71.3399 123.583 71.4331C122.815 71.6948 122.085 72.0475 121.37 72.4253C121.189 72.5208 120.977 72.5672 120.77 72.5713C120.341 72.5779 119.97 72.7711 119.589 72.9205C119.311 73.0306 119.192 73.2606 119.278 73.4307C119.367 73.6076 119.597 73.6597 119.867 73.5744C120.383 73.4093 120.835 73.0872 121.38 72.9948C121.753 72.932 121.962 72.9916 122.124 73.2595C122.241 73.4581 122.169 73.7672 121.938 73.9897C121.868 74.0545 121.789 74.1088 121.705 74.1563C120.531 74.8604 119.312 75.4696 118.022 75.9387C117.648 76.0761 117.259 76.1659 116.859 76.1785C116.749 76.1807 116.632 76.1822 116.532 76.1488C116.304 76.0731 116.162 75.8929 116.113 75.6658C116.068 75.4631 116.228 75.3545 116.367 75.2455C116.569 75.0886 116.784 74.9852 117.06 74.9703C117.425 74.9528 117.792 74.8862 118.09 74.6432C118.175 74.575 118.279 74.5151 118.273 74.3446L118.249 74.3296Z" fill="#006739"/>
<path d="M68.1927 63.9946C68.1023 64.2925 67.9236 64.385 67.6426 64.2676C65.7392 63.465 63.7241 63.0677 61.6977 62.7217C60.857 62.5795 60.0253 62.3762 59.2195 62.1182C56.2971 61.1786 53.3456 61.192 50.413 61.9885C48.8562 62.4115 47.298 62.4167 45.7248 62.4792C43.8872 62.5514 42.0495 62.6236 40.2551 63.1064C39.6879 63.2602 39.1161 63.3946 38.5489 63.5484C37.9261 63.7176 37.2506 63.6912 36.5969 63.7034C36.0911 63.7122 35.9005 63.2971 35.7421 62.9104C35.5942 62.5469 35.818 62.2825 36.0691 62.0477C36.3793 61.7581 36.7421 61.5514 37.1317 61.3949C39.1974 60.5649 41.2807 59.8667 43.538 59.7568C45.1685 59.6759 46.8118 59.4613 48.3607 58.8709C49.2454 58.5362 50.1641 58.327 51.0697 58.0721C51.7681 57.8752 52.4739 58.0331 53.1471 58.1498C54.4995 58.387 55.8054 58.8451 57.1249 59.2284C58.4611 59.618 59.7903 60.0657 61.1806 60.2556C61.8561 60.3487 62.5105 60.5287 63.1504 60.7454C63.6902 60.9288 64.2416 61.0736 64.7954 61.1614C65.4349 61.2653 66.0088 61.5075 66.556 61.8122C67.0007 62.0611 67.3719 62.4141 67.3313 63.0057C67.3177 63.214 67.4162 63.3298 67.5818 63.425C67.8253 63.5689 68.0725 63.7069 68.1916 63.9898L68.1927 63.9946Z" fill="#AEFFE4"/>
<path d="M60.6359 152.831C60.0841 153.786 59.3966 154.019 58.3847 153.757C56.8293 153.352 55.4178 152.602 53.9339 152.029C53.8527 151.999 53.7744 151.937 53.6908 151.931C52.7179 151.86 52.2988 151.11 51.8528 150.41C51.5723 149.972 51.6338 149.694 52.0045 149.288C52.3088 148.961 52.6505 148.675 53.0451 148.484C53.8342 148.102 54.5848 147.642 55.3728 147.255C55.9974 146.949 56.5336 146.472 57.1309 146.103C58.1801 145.459 59.1934 144.759 60.1853 144.032C60.3457 143.916 60.512 143.803 60.6934 143.733C61.3884 143.455 61.8889 143.668 62.1825 144.352C62.491 145.078 62.348 145.827 62.2478 146.56C62.1112 147.559 61.8977 148.547 61.7128 149.536C61.6857 149.685 61.6213 149.829 61.5864 149.978C61.3876 150.762 60.9566 151.485 60.923 152.318C60.9125 152.529 60.715 152.651 60.6329 152.829L60.6359 152.831Z" fill="#006739"/>
<path d="M93.8033 148.007C94.0773 148.662 94.1378 149.325 94.3123 149.959C94.3714 150.171 94.4489 150.374 94.5294 150.579C94.6342 150.844 94.8114 151.034 95.1265 150.977C95.4562 150.917 95.7537 150.827 95.8426 150.412C95.9836 149.733 95.7886 149.098 95.6202 148.468C95.5094 148.065 95.4144 147.664 95.3523 147.25C95.2662 146.687 95.2008 146.125 94.9841 145.586C94.8182 145.177 94.8891 144.717 94.9372 144.281C94.9751 143.933 95.1719 143.785 95.4952 143.742C95.8556 143.692 96.0253 143.894 96.1058 144.198C96.3614 145.196 96.5956 146.202 96.8561 147.198C97.4314 149.405 98.0932 151.586 98.9045 153.715C99.1381 154.328 98.9896 154.885 98.6894 155.419C98.5076 155.743 98.1753 155.781 97.825 155.775C97.4559 155.765 97.3563 155.511 97.2504 155.24C97.1287 154.935 96.9808 154.638 96.8786 154.328C96.7794 154.02 96.6183 153.911 96.2927 153.978C95.969 154.043 95.7749 154.18 95.7448 154.528C95.7204 154.834 95.8297 155.085 96.0043 155.32C96.2863 155.709 96.5664 156.101 96.8398 156.497C96.978 156.696 97.0667 156.914 97.0625 157.174C97.0519 157.717 96.8866 158.068 96.5677 158.165C95.9563 158.349 95.4734 158.235 95.1693 157.795C94.3266 156.576 93.8017 155.222 93.475 153.771C93.1468 152.303 93.1502 150.804 93.0461 149.318C92.9972 148.616 93.2405 148.214 93.8044 148.012L93.8033 148.007Z" fill="#006739"/>
<path d="M84.323 58.1296C84.1905 57.4882 83.907 57.0149 83.6857 56.5222C83.4173 55.9249 83.3714 55.2917 83.3509 54.6578C83.3357 54.2689 83.5137 53.9176 83.8476 53.697C84.0949 53.5348 84.1238 53.3486 84.0935 53.0837C84.0546 52.7593 84.0705 52.4274 84.0765 52.0977C84.0827 51.6346 84.3293 51.3136 84.7059 51.078C85.2751 50.7211 85.8549 51.0337 85.8315 51.7111C85.7738 53.1632 86.3149 54.3979 87.1163 55.5494C87.2043 55.6753 87.2893 55.7993 87.3638 55.9335C87.5395 56.2392 87.6008 56.5277 87.3344 56.8405C87.0765 57.1461 86.8198 57.39 86.3857 57.231C86.3044 57.201 86.2193 57.177 86.0814 57.2575C86.1105 57.7176 86.3899 58.1174 86.5629 58.5341C86.7422 58.9672 87.0111 59.3772 86.6543 59.821C86.3088 60.2469 85.8379 60.1067 85.373 60.0702C84.4068 59.9954 83.4859 59.7947 82.5876 59.4247C81.7091 59.0629 81.0694 58.4127 80.4687 57.7202C80.2514 57.4676 79.993 57.1476 80.24 56.7727C80.4881 56.4026 80.8725 56.2345 81.315 56.2402C81.5593 56.2429 81.7874 56.3314 81.9473 56.5356C82.5443 57.3008 83.4044 57.6719 84.3248 58.1266L84.323 58.1296Z" fill="#006739"/>
<path d="M120.524 59.4195C120.202 59.4093 120.049 59.5471 120.143 59.8562C120.253 60.2208 120.107 60.48 119.883 60.7523C118.58 62.3094 117.192 63.7758 115.491 64.9091C115.362 64.9952 115.241 65.0948 115.099 65.1558C114.671 65.3468 114.339 65.1103 114.398 64.6428C114.462 64.1074 114.644 63.6627 115.123 63.3036C115.924 62.7036 116.778 62.1501 117.393 61.2878C117.068 61.2139 116.75 61.3154 116.434 61.3344C116.186 61.3504 115.931 61.3657 115.805 61.0997C115.665 60.8037 115.667 60.5006 115.887 60.2294C116.09 59.9773 116.375 59.868 116.671 59.7691C118.135 59.2802 119.384 58.4436 120.479 57.3653C120.795 57.054 121.098 56.7431 121.547 56.6241C121.818 56.5515 122.014 56.6036 122.171 56.8393C122.401 57.1916 122.608 57.5337 122.475 58.0005C122.398 58.2694 122.39 58.5688 122.394 58.8501C122.411 60.203 122.138 61.5124 121.831 62.8168C121.773 63.0686 121.795 63.2866 121.902 63.5159C122.013 63.752 122.102 64.0034 122.178 64.2552C122.253 64.4942 122.29 64.7629 122.012 64.8936C121.734 65.0242 121.429 64.9919 121.254 64.7116C120.905 64.1511 120.593 63.5688 120.609 62.8779C120.617 62.4786 120.582 62.0941 120.489 61.7026C120.384 61.2702 120.465 60.8285 120.547 60.3966C120.607 60.08 120.723 59.756 120.526 59.4244L120.524 59.4195Z" fill="#006739"/>
<path d="M90.9416 62.855C89.8748 63.6677 88.8405 63.2751 88.6685 61.9503C88.5466 60.9987 88.3906 60.0549 88.5336 59.073C88.5974 58.6376 88.4151 58.1693 88.1563 57.7698C87.8893 57.3569 87.8332 56.9133 88.0671 56.4593C88.3149 55.9764 88.79 55.79 89.2807 56.0051C89.5182 56.112 89.7497 56.2484 89.9486 56.4103C90.6438 56.9785 91.3941 57.4519 92.1969 57.8413C92.8326 58.1513 93.3506 58.6295 93.8672 59.0901C94.5125 59.6646 94.5247 60.2851 93.8184 60.8813C93.1378 61.4562 92.4974 62.0937 91.7303 62.5603C91.4845 62.7068 91.2316 62.8446 90.9356 62.8512C91.0515 62.6527 91.1272 62.4583 90.9437 62.2518C90.595 61.8628 90.1968 61.5596 89.691 61.4017C89.5276 61.7164 89.719 61.8569 89.8542 62.0207C90.155 62.3797 90.5869 62.5623 90.9356 62.8512L90.9416 62.855ZM92.1167 60.876C91.4908 60.2303 90.8841 59.5674 90.1045 59.1007C89.9697 59.0164 89.8134 59.0062 89.6954 59.1617C89.8264 59.6855 91.2119 60.7229 92.1148 60.879L92.1167 60.876Z" fill="#4177ED"/>
<path d="M99.7295 66.0666C99.2649 66.1096 98.8502 66.1462 98.4384 66.1846C98.1518 66.2097 97.8693 66.2081 97.6153 66.0409C97.4284 65.9199 97.2325 65.7932 97.2603 65.5354C97.2903 65.2541 97.4957 65.099 97.746 65.0721C98.3881 64.9985 98.9674 64.7188 99.5752 64.5402C100.466 64.276 101.285 63.8461 102.122 63.4608C102.878 63.1122 103.61 62.7152 104.356 62.3483C104.674 62.1929 105.012 62.0918 105.368 62.0766C105.9 62.0463 106.207 62.3012 106.286 62.8089C106.317 63.0247 106.272 63.1966 106.062 63.3067C105.229 63.7448 104.458 64.3047 103.584 64.6754C103.318 64.7881 103.036 64.8326 102.773 64.9393C102.506 65.0472 102.322 65.1869 102.397 65.5338C102.465 65.8515 102.653 65.9647 102.95 65.9757C103.221 65.9825 103.47 65.9174 103.709 65.7957C104.003 65.6459 104.298 65.501 104.596 65.3579C104.82 65.2523 105.055 65.2033 105.299 65.26C105.648 65.341 105.765 65.5886 105.585 65.9018C105.431 66.176 105.194 66.3947 104.913 66.5236C103.933 66.9777 102.945 67.3772 101.831 67.3391C100.877 67.3051 100.018 67.1644 99.7287 66.0745L99.7295 66.0666Z" fill="#006739"/>
<path d="M126.031 79.8604C126.196 80.297 126.342 80.684 126.49 81.0729C126.593 81.3416 126.718 81.5949 126.98 81.7501C127.17 81.8651 127.37 81.9858 127.59 81.848C127.829 81.6978 127.879 81.4453 127.794 81.2085C127.579 80.5989 127.577 79.9556 127.471 79.3311C127.319 78.4146 127.347 77.49 127.325 76.5717C127.308 75.7396 127.346 74.9049 127.349 74.0732C127.35 73.7191 127.293 73.3707 127.151 73.0443C126.943 72.5561 126.581 72.3882 126.091 72.5398C125.883 72.6056 125.748 72.7214 125.741 72.9589C125.711 73.8993 125.546 74.8377 125.595 75.7856C125.61 76.0745 125.694 76.3476 125.713 76.6305C125.733 76.9182 125.687 77.1441 125.343 77.2287C125.027 77.3066 124.843 77.1874 124.703 76.9247C124.575 76.6823 124.528 76.4316 124.533 76.1637C124.539 75.834 124.54 75.5055 124.538 75.175C124.535 74.927 124.476 74.6943 124.316 74.498C124.09 74.2192 123.816 74.2232 123.613 74.5214C123.434 74.7806 123.341 75.0893 123.348 75.398C123.369 76.4781 123.445 77.5429 123.967 78.528C124.416 79.3711 124.918 80.0812 126.028 79.8664L126.031 79.8604Z" fill="#006739"/>
<path d="M75.8312 68.4508C75.2278 68.1026 74.8297 67.4993 74.9249 67.1003C75.036 66.6362 75.6543 66.1808 76.3166 66.1615C77.4316 66.125 78.5462 66.0759 79.6619 66.1316C80.3161 66.1655 80.9709 66.1582 81.6232 66.1618C82.2264 66.1638 82.8086 66.186 83.122 66.8448C83.3602 67.3439 83.1858 68.0227 82.6878 68.2657C80.6903 69.2468 78.6304 69.4343 76.504 68.7882C76.2478 68.7113 76.029 68.5745 75.8312 68.4508Z" fill="#AEFFE4"/>
<path d="M32.4163 88.527C32.3749 87.9467 32.4866 87.4747 32.8782 87.1484C33.9088 86.3005 34.885 85.3728 36.223 84.9797C36.9843 84.7555 37.731 84.7347 38.4926 84.8567C38.7508 84.8972 39.0003 84.9782 39.2569 85.0345C40.2538 85.2535 40.771 86.0064 41.2252 86.8198C41.3742 87.0881 41.3232 87.3897 41.1062 87.6167C40.8855 87.8497 40.6038 87.8402 40.3145 87.7427C39.0127 87.2913 37.6595 87.2288 36.2984 87.2655C35.4086 87.2885 34.5776 87.5442 33.7993 87.9954C33.3942 88.2298 33.0041 88.5403 32.4204 88.5338L32.4163 88.527Z" fill="#AEFFE4"/>
<path d="M45.9598 79.9013C46.368 79.1686 47.1204 78.8721 47.8049 78.5707C48.995 78.0476 50.2367 77.6819 51.5696 77.8902C52.4346 78.0268 53.2 78.3762 53.9038 78.8705C54.1581 79.0504 54.3229 79.3202 54.4334 79.6102C54.5374 79.8838 54.5823 80.1786 54.3698 80.4251C54.1536 80.6776 53.855 80.6617 53.5748 80.5699C52.845 80.3303 52.1055 80.1263 51.3465 80.0268C50.5047 79.913 49.6591 79.772 48.8008 79.9313C48.1638 80.0499 47.5718 80.2633 47.0723 80.6888C46.8666 80.8644 46.65 81.0041 46.3869 81.0648C46.1678 81.1153 45.9403 81.1523 45.7666 80.9769C45.5635 80.7749 45.6483 80.5194 45.7192 80.2928C45.7612 80.1523 45.8743 80.0313 45.9549 79.9025L45.9598 79.9013Z" fill="#AEFFE4"/>
<path d="M105.565 146.771C105.373 147.13 105.018 147.358 104.661 147.577C103.836 148.082 102.998 148.563 102.224 149.154C101.807 149.473 101.285 149.535 100.792 149.584C100.238 149.643 99.7221 148.828 99.922 148.248C100.06 147.847 100.294 147.514 100.695 147.306C101.303 146.994 101.891 146.653 102.483 146.319C103.114 145.964 103.708 145.547 104.283 145.102C104.542 144.901 104.841 144.642 105.172 144.853C105.549 145.089 105.779 145.475 105.819 145.938C105.843 146.232 105.739 146.5 105.56 146.772L105.565 146.771Z" fill="#006739"/>
<path d="M81.048 54.1807C80.6429 54.7486 79.8961 54.9361 79.1955 55.1565C78.2996 55.4425 77.357 55.5367 76.4226 55.6444C76.0052 55.6918 75.5983 55.6625 75.2155 55.4481C74.8974 55.27 74.6915 55.0328 74.7571 54.6612C74.822 54.2974 75.1274 54.1758 75.4425 54.1519C76.5826 54.0686 77.6617 53.6763 78.7797 53.475C79.127 53.4129 79.4571 53.2983 79.7764 53.1478C80.0375 53.0235 80.32 52.9584 80.6055 52.9952C81.2237 53.0733 81.4513 53.5825 81.0469 54.1758L81.048 54.1807Z" fill="#006739"/>
<path d="M89.2722 50.9136C88.9124 51.4557 88.4144 51.532 87.944 51.1044C87.4615 50.6693 87.12 50.1555 86.9958 49.4942C86.8491 48.7355 86.7935 47.9712 86.7701 47.2021C86.7593 46.866 86.9224 46.6053 87.1525 46.3907C87.4751 46.088 87.849 46.0967 88.137 46.4228C88.4007 46.7211 88.5943 47.0714 88.6384 47.4742C88.7311 48.2992 88.7661 49.1298 89.262 49.8568C89.4679 50.1606 89.5413 50.5567 89.274 50.9107L89.2722 50.9136Z" fill="#006739"/>
<path d="M119.232 63.5279C119.541 63.7543 119.715 63.9963 119.755 64.3257C119.822 64.8719 119.934 65.4051 120.072 65.9375C120.184 66.3785 119.929 66.8194 119.503 67.0074C119.115 67.1815 118.873 66.9424 118.664 66.6827C118.075 65.9388 117.918 65.0569 118.002 64.1424C118.053 63.5868 118.831 63.2689 119.235 63.5298L119.232 63.5279Z" fill="#006739"/>
<path d="M63.09 91.6234C63.7856 92.2043 64.3897 92.9781 64.419 94.1178C64.4535 95.5026 64.1343 96.7328 63.0326 97.6613C62.1033 98.4474 61.1257 98.7574 59.8786 98.3318C58.7544 97.9498 58.1728 97.1066 57.5638 96.2339C57.4032 96.0042 57.3328 95.6767 57.4093 95.4078C57.7719 94.1547 57.9428 92.8149 58.9947 91.8595C59.5039 91.3984 60.0724 91.1161 60.764 91.09C61.7358 91.0558 62.3798 91.1793 63.0889 91.6186L63.09 91.6234ZM60.1353 96.6748C61.0141 97.216 62.0501 96.926 62.368 96.0243C62.6271 95.29 62.6401 94.5227 62.5706 93.7539C62.5545 93.573 62.4834 93.4201 62.3579 93.2874C61.762 92.6605 60.2667 92.7717 59.7589 93.4838C59.6506 93.637 59.6172 93.8037 59.6243 93.9791C59.6347 94.269 59.5732 94.5474 59.479 94.8179C59.1693 95.6997 59.3386 96.1891 60.1353 96.6748Z" fill="#FF6A00"/>
<path d="M57.0657 112.154C56.0692 111.714 55.8484 110.8 55.737 109.839C55.6604 109.195 55.7703 108.559 55.9634 107.95C56.116 107.466 56.3803 107.01 56.8494 106.753C57.6787 106.301 58.445 105.742 59.3105 105.358C59.7579 105.162 60.2274 105.051 60.7051 104.987C61.8425 104.848 62.6722 105.455 63.4191 106.18C63.8783 106.626 64.1693 107.221 64.3497 107.825C64.5769 108.589 64.2762 109.309 63.8373 109.931C63.2504 110.756 62.5848 111.541 61.7919 112.162C60.8532 112.896 59.825 113.387 58.5768 112.79C58.0925 112.558 57.5331 112.479 57.0754 112.151L57.0657 112.154ZM58.1626 110.859C58.2915 110.94 58.4113 111.048 58.5511 111.098C60.0304 111.619 59.933 111.741 61.0726 110.766C61.6935 110.233 62.1624 109.563 62.7511 109.002C62.9782 108.785 62.9666 108.557 62.8528 108.286C62.5473 107.561 61.933 107.144 61.3367 106.704C61.1602 106.573 60.9238 106.604 60.6998 106.622C59.6286 106.715 58.7458 107.214 57.945 107.901C57.0284 108.687 57.1396 110.249 58.1626 110.859Z" fill="#FF6A00"/>
<path d="M38.7202 91.9474C39.8203 92.7146 40.6181 93.6721 40.542 95.1336C40.5187 95.5775 40.7141 95.9916 40.6664 96.4412C40.4583 98.387 39.2638 99.0573 37.5156 99.1063C36.5063 99.1338 35.5237 98.9653 34.5819 98.5514C34.1945 98.3843 33.8724 98.1661 33.7013 97.8131C33.3134 97.0203 33.0292 96.1881 33.3067 95.2778C33.4867 94.69 33.5798 94.0812 33.7695 93.4912C34.0871 92.5101 34.7852 91.967 35.6961 91.657C36.7332 91.3051 37.7627 91.2653 38.7191 91.9426L38.7202 91.9474ZM35.5339 97.0625C36.4022 97.4804 37.3167 97.6313 38.2654 97.4075C38.6764 97.3102 38.9234 97.0353 38.9696 96.5681C39.0639 95.564 38.8967 94.6382 38.2424 93.858C37.4397 92.9017 36.1191 93.0471 35.4714 93.9761C34.9707 94.6968 34.7854 95.6397 35.1309 96.5603C35.2107 96.7728 35.3305 96.9478 35.529 97.0636L35.5339 97.0625Z" fill="#FF6A00"/>
<path d="M47.1545 90.3903C46.2828 89.791 45.6349 89.0606 45.7183 87.9539C45.7713 87.2492 45.8195 86.5123 46.4007 85.9628C46.6211 85.7505 46.7969 85.4894 47.0041 85.2646C47.6895 84.5219 48.4659 84.0736 49.5453 84.1609C50.888 84.2669 52.3736 85.2709 52.8229 86.519C53.2231 87.6322 52.7727 89.3057 51.8306 90.1255C51.4528 90.4563 51.0395 90.7439 50.5794 90.973C49.951 91.2846 49.3283 91.3537 48.6866 91.0733C48.17 90.8461 47.6542 90.6111 47.1623 90.3911L47.1545 90.3903ZM48.0795 89.0178C48.4428 89.2034 48.7403 89.3477 49.0235 89.5081C49.8618 89.974 51.4341 89.1397 51.2115 87.9625C51.1845 87.8123 51.1771 87.6575 51.1599 87.5051C51.0171 86.3069 49.7551 85.6719 48.725 86.2991C48.4638 86.4568 48.2337 86.6714 47.9931 86.8628C47.262 87.4519 47.3427 88.5695 48.0776 89.0208L48.0795 89.0178Z" fill="#FF6A00"/>
<path d="M51.0798 99.2807C51.5743 99.4899 51.8315 99.9384 51.9914 100.476C52.2467 101.328 52.3363 102.184 52.2084 103.076C52.0511 104.14 51.5537 104.876 50.5147 105.264C49.7968 105.532 49.0946 105.835 48.3232 105.915C47.8051 105.97 47.333 105.859 46.8959 105.598C46.0665 105.104 45.459 104.416 45.103 103.505C44.9981 103.24 45.0256 102.969 45.0552 102.708C45.1717 101.622 45.411 100.58 46.2489 99.7863C47.5564 98.5488 49.8594 98.3925 51.0835 99.2747L51.0798 99.2807ZM46.919 101.714C46.7965 101.884 46.6675 102.07 46.5907 102.293C46.5228 102.488 46.4913 102.685 46.6388 102.836C46.9565 103.168 47.1879 103.571 47.5209 103.892C47.7145 104.075 47.9206 104.146 48.1824 104.18C48.9463 104.279 49.6092 103.972 50.2847 103.698C50.4563 103.631 50.5841 103.506 50.5992 103.316C50.6601 102.512 50.7326 101.702 50.4275 100.924C50.3522 100.731 50.2357 100.604 50.0376 100.534C48.9478 100.157 47.5468 100.677 46.9179 101.71L46.919 101.714Z" fill="#FF6A00"/>
<path d="M59.6609 84.7604C58.8667 84.3304 58.1629 82.4229 58.3869 81.1248C58.4312 80.8607 58.5587 80.6236 58.7082 80.4044C59.4166 79.3717 60.3511 78.6305 61.5658 78.3146C62.5655 78.056 63.4747 78.3953 64.3269 78.8657C65.1214 79.3084 65.7293 79.9428 66.1082 80.7968C66.4044 81.4697 66.4563 82.14 66.2306 82.8409C66.0581 83.3834 65.9223 83.9404 65.5404 84.3978C65.0581 84.9757 64.4803 85.4064 63.7204 85.4815C62.4492 85.6078 61.1799 85.6644 59.6609 84.7604ZM63.6922 80.2072C63.1783 79.9025 62.7318 79.6232 62.1709 79.6602C61.3789 79.7068 60.2198 80.787 60.1203 81.5793C60.1151 81.6011 60.1147 81.6217 60.1173 81.6441C60.231 82.3822 60.5523 83.0084 61.0519 83.5626C61.4238 83.9744 61.8847 83.8708 62.3332 83.8803C62.4853 83.8837 62.64 83.8762 62.794 83.8767C63.9468 83.8597 64.9557 82.5731 64.6836 81.4483C64.5429 80.8601 64.1833 80.4351 63.6934 80.2121L63.6922 80.2072Z" fill="#FF6A00"/>
<path d="M60.3904 95.4876C60.0106 95.2418 59.9144 94.8356 60.1509 94.4708C60.402 94.0692 61.0154 93.915 61.3637 94.1579C61.7301 94.412 61.8308 94.8043 61.6175 95.1253C61.2809 95.6235 60.8152 95.7616 60.3934 95.4895L60.3904 95.4876Z" fill="#FF6A00"/>
<path d="M60.8063 109.095C60.5567 109.515 59.7762 109.856 59.4642 109.682C59.0495 109.452 58.8728 108.941 59.0816 108.567C59.3398 108.108 60.0285 107.88 60.4443 108.115C60.8481 108.342 61.0046 108.765 60.8063 109.095Z" fill="#FF6A00"/>
<path d="M37.6099 95.9034C37.3217 96.3776 36.7065 96.5348 36.2394 96.2552C35.846 96.0176 35.6829 95.2652 35.9344 94.8431C36.196 94.3981 36.8839 94.278 37.3833 94.5861C37.8208 94.8597 37.915 95.4022 37.6081 95.9064L37.6099 95.9034Z" fill="#FF6A00"/>
<path d="M49.8749 88.2398C49.5893 88.6698 49.2334 88.7724 48.8839 88.5247C48.4512 88.2166 48.3543 87.8516 48.6035 87.4531C48.864 87.0365 49.362 86.8602 49.6673 87.072C50.0527 87.3422 50.1425 87.8319 49.8768 88.2368L49.8749 88.2398Z" fill="#FF6A00"/>
<path d="M49.3859 102.669C49.061 103.196 48.6998 103.32 48.2506 103.052C47.7955 102.78 47.6963 102.371 47.967 101.932C48.2406 101.495 48.6524 101.323 48.958 101.514C49.5454 101.881 49.6648 102.21 49.3859 102.669Z" fill="#FF6A00"/>
<path d="M61.6932 82.6742C61.274 82.4245 61.0303 81.7677 61.2334 81.4362C61.4954 81.0039 62.3411 80.7449 62.7576 80.972C63.1712 81.1973 63.3703 81.9721 63.1143 82.3748C62.8602 82.7745 62.1194 82.9324 61.6943 82.679L61.6932 82.6742Z" fill="#FF6A00"/>
<mask id="mask1_9063_16127" style="mask-type:luminance" maskUnits="userSpaceOnUse" x="7" y="20" width="59" height="62">
<path d="M65.1441 40.6987L33.3789 20.8337L7.70433 61.8888L39.4695 81.7538L65.1441 40.6987Z" fill="white"/>
</mask>
<g mask="url(#mask1_9063_16127)">
<path d="M31.3361 59.7123C29.5485 58.6444 27.8374 57.4743 26.217 56.1525C25.4937 55.5626 24.7109 55.0147 23.8662 54.5656C22.3033 53.7383 20.7323 52.8976 19.5364 51.5369C19.4176 51.4001 19.2607 51.2644 19.1641 51.1123C18.6782 52.2092 18.1774 53.2966 17.6766 54.3841C17.5686 54.6167 17.6442 54.8891 17.848 55.0499C18.2124 55.3404 18.2363 55.6221 18.1234 56.2893C18.0874 56.5003 17.9277 56.6756 17.7213 56.7257C17.471 56.786 17.2256 56.8117 16.978 56.7944C16.7303 56.7771 16.519 56.8951 16.4223 57.1097C15.3505 59.4701 14.3304 61.8545 13.5138 64.3203C13.4073 64.6372 13.6133 64.9744 13.9415 65.0296C14.2696 65.0848 14.5776 65.1189 14.9043 65.1231C15.9747 65.138 17.0402 65.2208 18.1037 65.4065C19.7094 65.6853 21.3381 65.6408 22.958 65.67C23.0483 65.6723 23.1304 65.6278 23.1769 65.4734C23.0042 65.3029 22.8331 65.0833 22.6109 64.9319C21.6014 64.2464 20.5739 63.583 19.5607 62.9035C19.3427 62.7588 19.0467 62.6321 19.2454 62.2144C19.9943 62.2367 20.7188 62.4647 21.4321 62.7106C23.2262 63.3282 25.0112 63.9734 26.6827 64.8936C27.1382 65.1451 27.569 65.0894 28.0059 64.9041C29.2739 64.3631 30.5044 63.7486 31.5233 62.8059C32.0248 62.344 32.5591 61.9028 33.001 61.3829C33.1981 61.1477 33.163 60.7839 32.9165 60.6048C32.4105 60.2341 31.8519 60.014 31.3428 59.7082L31.3361 59.7123Z" fill="#4177ED"/>
<path d="M63.8292 40.3555C63.7367 40.2768 63.6374 40.2023 63.5363 40.1307C60.1133 37.6983 56.5776 35.4329 52.9804 33.2792C50.7725 31.9569 48.685 30.4555 46.476 29.1282C44.5357 27.9648 42.922 26.839 41.0169 25.6058C40.87 25.514 40.7202 25.4203 40.5733 25.3285C40.4655 25.261 40.3231 25.2887 40.2406 25.3872C40.0075 25.6666 39.5005 25.7706 39.2442 26.0272C39.1565 26.1141 39.1647 26.2609 39.2621 26.3385C40.3034 27.1398 41.4448 27.7744 42.6342 28.3389C43.1414 28.5811 43.9393 29.0384 44.3914 29.3753C45.9253 30.5222 47.5263 31.5484 49.2285 32.4461C50.7175 33.2314 51.9344 34.4385 53.3035 35.4156C53.6811 35.6851 54.0741 35.9099 54.4692 36.1446C56.7266 37.4478 58.8324 38.9732 60.9091 40.5387C61.0054 40.6114 61.1065 40.683 61.1971 40.7647C61.3683 40.9176 61.4788 41.1076 61.3637 41.3316C61.2707 41.5069 61.1302 41.5316 60.9841 41.4986C60.6327 41.4206 60.0971 41.1773 59.7869 41C58.7257 40.3905 57.6704 39.7848 56.7453 38.9644C56.2257 38.502 55.5844 38.1676 54.9832 37.7958C54.406 37.439 53.8355 37.078 53.3871 36.5684C52.0965 35.1193 50.3186 34.3493 48.7809 33.2418C48.0366 32.7054 47.2961 32.1631 46.6047 31.5556C45.6042 30.6757 44.3908 30.1295 43.2427 29.499C42.3557 29.011 41.4671 28.5387 40.6786 27.8997C40.4857 27.7415 40.27 27.64 40.0519 27.5286C39.5931 27.2958 39.1529 27.0331 38.7259 26.7494C38.642 26.6969 38.5382 26.7029 38.4655 26.7658C38.1567 27.0396 37.8359 27.3059 37.5099 27.5605C37.4035 27.6441 37.4102 27.8067 37.5222 27.8809C38.937 28.8115 40.3181 29.7627 41.559 30.9181C41.3031 31.0541 41.1611 30.8944 41.0147 30.8153C39.5859 30.0803 38.312 29.1043 36.998 28.1992C36.898 28.1325 36.7676 28.1343 36.6716 28.2077C36.3108 28.4781 35.9488 28.7437 35.5849 29.0122C37.1417 29.9691 38.6626 30.9702 40.0672 32.1571C41.0677 33.0037 42.227 33.6495 43.3343 34.3587C45.2949 35.6098 47.203 36.9448 49.161 38.2068C51.6516 39.8102 54.0917 41.4945 56.6104 43.053C56.9341 43.2554 57.2105 43.52 57.4832 43.7905C57.66 43.9678 57.9836 44.0702 57.9277 44.4396C57.6287 44.6444 57.365 44.4461 57.0986 44.3254C54.5884 43.16 52.3139 41.6042 50.0788 39.9855C48.4438 38.8004 46.8035 37.637 45.0339 36.6471C44.039 36.0916 43.0785 35.4743 42.1803 34.7708C41.0693 33.901 39.8144 33.2746 38.6434 32.5006C37.3964 31.6749 36.1644 30.8253 34.9542 29.9475C34.7789 29.8212 34.5432 29.8448 34.3948 30.0021C34.1283 30.2815 33.8559 30.5572 33.5804 30.831C33.4489 30.9613 33.4552 31.1779 33.5961 31.2993C34.2175 31.8255 34.8606 32.3235 35.5975 32.7051C36.5403 33.1906 37.2287 33.9962 38.0011 34.6877C38.14 34.8121 38.3228 34.9598 38.1702 35.3437C37.2892 34.7928 36.5026 34.1841 35.6238 33.7763C34.6108 33.3096 33.692 32.7057 32.8005 32.0649C32.6342 31.9442 32.4071 31.9606 32.2602 32.1022C31.6659 32.6726 31.0756 33.2498 30.5157 33.8585C31.0536 34.2782 31.5803 34.6826 32.1189 35.0611C34.1106 36.4692 35.9737 38.0429 38.1853 39.1592C39.5032 39.8249 40.6849 40.8016 41.9574 41.5932C43.2059 42.3698 44.4301 43.1854 45.6703 43.9818C46.2689 44.3645 46.7877 44.8348 47.2847 45.3333C47.4937 45.539 47.7664 45.7429 47.6101 46.1662C46.957 46.2706 46.367 46.0475 45.8317 45.6835C44.8971 45.0449 43.9888 44.3643 43.0617 43.7136C42.2047 43.111 41.3457 42.5113 40.4726 41.9277C39.5994 41.3442 38.8248 40.743 38.0952 40.0366C37.0708 39.0416 35.9347 38.1853 34.721 37.4263C33.1507 36.4443 31.5632 35.4765 30.1976 34.2139C29.0309 35.5728 28.0991 37.1162 27.034 38.5594C28.1754 39.0606 29.1144 39.8855 30.164 40.5335C31.5721 41.4016 32.9783 42.2727 34.3534 43.1868C35.5244 43.9608 36.5466 44.946 37.7318 45.7039C39.4335 46.7889 41.184 47.7961 42.7654 49.0602C43.1902 49.4009 43.6337 49.7116 43.9048 50.298C43.3855 50.3818 43.0094 50.1966 42.6547 49.9706C41.2878 49.1033 39.9442 48.1921 38.5518 47.3589C36.3612 46.0557 34.5172 44.2981 32.475 42.8042C31.7686 42.2873 30.937 41.9173 30.1237 41.5713C29.2954 41.2159 28.5571 40.75 27.8735 40.1766C27.4986 39.863 27.0858 39.5965 26.6928 39.3049C26.6438 39.27 26.5996 39.234 26.5505 39.1992C25.1953 40.9863 23.9135 42.736 22.7909 44.6977C21.7485 46.5179 20.741 48.3556 19.5618 50.0945C19.4914 50.2005 19.5419 50.353 19.6682 50.3777C19.8487 50.4156 20.0349 50.5112 20.1911 50.588C21.1003 51.0274 21.9304 51.6132 22.8646 52.0057C23.8675 52.4286 24.566 53.2781 25.4833 53.8309C26.4906 54.44 27.4942 55.0551 28.4366 55.7612C30.3657 57.2093 32.4596 58.3938 34.5012 59.6622C35.2024 60.1007 35.8123 60.0653 36.4527 59.6278C36.9575 59.2807 37.4881 58.9788 38.0467 58.7321C38.2442 58.643 38.4293 58.5336 38.4942 58.2032C37.8515 57.4511 36.8206 56.9732 36.3559 55.9697C36.6493 55.7072 36.9135 55.7848 37.1502 55.9328C38.1421 56.5531 39.2776 56.8839 40.28 57.4608C41.3532 58.0777 42.4112 58.039 43.4596 57.6358C44.4207 57.2655 45.4113 57.1013 46.4061 57.0106C48.7593 56.7939 51.0433 56.2546 53.3326 55.727C54.3993 55.4811 54.987 54.548 54.8224 53.4779C54.7401 52.9429 54.4986 52.4292 54.688 51.8598C54.7772 51.5904 54.5547 51.4263 54.3348 51.2846C53.7662 50.9207 53.1987 50.5616 52.6537 50.1666C52.0285 49.7131 51.4288 49.2255 50.8952 48.5124C51.3106 48.5346 51.5249 48.7186 51.7553 48.8502C52.824 49.4477 53.8957 50.047 54.9569 50.6565C55.321 50.8675 55.6867 50.9961 56.0824 50.7767C56.671 50.4486 57.2544 50.109 57.6498 49.5434C58.1045 48.8897 58.2982 48.6399 57.6832 47.9301C57.4132 47.6153 57.4421 47.3291 57.6498 47.0171C57.8705 46.6841 58.1007 46.3694 58.4828 46.1916C59.0063 45.9478 59.5211 45.6778 60.0506 45.4378C60.4425 45.2577 60.9079 45.1068 60.9237 44.6082C60.9396 44.1095 60.4327 44.0135 60.096 43.8654C59.1055 43.4294 58.1769 42.8946 57.4008 42.1424C56.309 41.0886 55.0912 40.2562 53.7277 39.5702C52.79 39.0964 51.8513 38.6177 50.9601 38.0563C48.9561 36.7946 47.0521 35.3663 45.2411 33.8294C44.9605 33.5914 44.5987 33.3568 44.5872 32.8952C45.2777 32.8977 45.245 32.9565 46.2568 33.5183C49.3712 35.2576 52.028 37.6485 55.0097 39.5799C56.91 40.8141 58.9096 41.8896 60.7345 43.2309C61.3399 43.6762 61.9569 43.5827 62.549 43.2692C63.0009 43.0266 63.4374 42.7285 63.8279 42.3974C64.8374 41.5363 64.8218 41.2014 63.8033 40.3435L63.8292 40.3555ZM31.0804 53.2667C30.3833 52.7682 29.7972 52.139 29.1132 51.6196C27.2351 50.2033 25.3015 48.869 23.3443 47.5658C23.0562 47.3732 22.6838 47.2487 22.5629 46.9021C22.6315 46.6991 22.769 46.6725 22.8754 46.7223C24.4135 47.4425 26.123 47.9154 27.3181 49.1839C28.0286 49.9409 28.8033 50.5753 29.7079 50.9952C30.7658 51.49 31.7244 52.1437 32.7575 52.6647C33.2921 52.9365 33.5625 53.364 33.7174 54.1029C32.6391 54.1539 31.8285 53.797 31.0793 53.2618L31.0804 53.2667ZM50.7358 54.7533C49.7931 55.0142 47.9314 53.7582 47.2334 52.3879C48.368 53.1934 49.8703 53.4575 50.7358 54.7533ZM54.5271 46.8109C53.4614 46.2153 52.4002 45.6059 51.445 44.8335C50.6385 44.1832 49.8235 43.5401 49.0178 42.882C48.3256 42.3157 47.4995 41.9701 46.7447 41.5105C45.6955 40.8752 44.7179 40.1388 43.7271 39.4233C43.3454 39.1471 43.0949 38.7945 42.9182 38.3171C43.394 38.1895 43.7424 38.3657 44.0731 38.5767C45.8521 39.7183 47.5661 40.9237 49.0066 42.4999C49.7876 43.3509 50.9305 43.6697 51.9551 44.1311C52.9995 44.6008 53.8981 45.2837 54.8627 45.8744C54.9406 45.9231 55.0147 45.9778 55.0747 46.0487C55.2574 46.263 55.4376 46.5216 55.2581 46.7887C55.0598 47.0857 54.7635 46.9463 54.5222 46.8121L54.5271 46.8109Z" fill="#4177ED"/>
</g>
</g>
</g>
<defs>
<clipPath id="clip0_9063_16127">
<rect width="168" height="168" fill="white"/>
</clipPath>
<clipPath id="clip1_9063_16127">
<rect width="166.12" height="166.12" fill="white" transform="translate(58.082 -30) rotate(32.0206)"/>
</clipPath>
</defs>
</svg>
