<svg width="20" height="20" viewBox="0 0 20 20" fill="none" xmlns="http://www.w3.org/2000/svg">
<path d="M2 19.6002V10.0002C2 10.0002 3.39843 9.80644 4.3 9.80021C5.27941 9.79345 6.8 10.0002 6.8 10.0002V19.6002C6.8 19.6002 5.34051 19.8002 4.4 19.8002C3.45949 19.8002 2 19.6002 2 19.6002Z" fill="#55DD4A"/>
<path d="M13.1992 19.4801V4.1203C13.1992 4.1203 14.5976 3.81027 15.4992 3.80031C16.4786 3.78948 17.9992 4.1203 17.9992 4.1203V19.4801C17.9992 19.4801 16.5397 19.8001 15.5992 19.8001C14.6587 19.8001 13.1992 19.4801 13.1992 19.4801Z" fill="#55DD4A"/>
<path d="M7.60156 19.6V0.6C7.60156 0.6 8.99999 0.412208 9.90156 0.4C10.881 0.386738 12.4016 0.6 12.4016 0.6V19.6C12.4016 19.6 10.9421 19.8 10.0016 19.8C9.06106 19.8 7.60156 19.6 7.60156 19.6Z" fill="#55DD4A"/>
</svg>
