<svg width="198" height="198" viewBox="0 0 198 198" fill="none" xmlns="http://www.w3.org/2000/svg">
<g clip-path="url(#clip0_9087_97212)">
<path d="M191.747 133.163C210.422 82.0951 184.163 25.5573 133.095 6.88212C82.0274 -11.7931 25.4897 14.4662 6.81445 65.5338C-11.8608 116.601 14.3985 173.139 65.4662 191.814C116.534 210.49 173.072 184.23 191.747 133.163Z" fill="#E5CA0A"/>
<path d="M185.027 130.704C167.736 177.985 115.204 202.384 67.9227 185.094C20.6417 167.803 -3.75741 115.27 13.533 67.9894C30.8235 20.7083 83.3562 -3.6908 130.637 13.5997C177.918 30.8901 202.317 83.4229 185.027 130.704ZM14.6594 68.4013C-2.40558 115.066 21.6736 166.91 68.3382 183.975C115.003 201.04 166.847 176.961 183.912 130.296C200.977 83.6315 176.898 31.7875 130.233 14.7225C83.5684 -2.34252 31.7245 21.7367 14.6594 68.4013Z" fill="#122315"/>
<path d="M31.5982 106.792L32.305 110.297C29.3013 110.831 27.6454 112.875 27.9671 115.4L33.1163 114.367L33.8029 117.789L18.6494 120.831L17.6693 115.936C17.0185 112.712 18.4801 110.209 21.3793 109.63C23.2856 109.247 24.8821 109.92 25.8387 111.439C26.492 109.079 28.5103 107.365 31.5982 106.792ZM20.8885 116.827L25.1112 115.983L24.9197 115.029C24.6312 113.577 23.6207 112.813 22.3391 113.069C21.0422 113.332 20.4116 114.448 20.7051 115.922L20.8865 116.833L20.8885 116.827Z" fill="#122315"/>
<path d="M19.0254 96.1912L19.1393 101.995L22.0763 101.939L21.9854 97.2356L25.0509 97.1749L25.1418 101.878L28.3225 101.815L28.2087 96.0106L31.344 95.9501L31.529 105.243L16.0786 105.552L15.8936 96.2595L19.029 96.1989L19.0254 96.1912Z" fill="#122315"/>
<path d="M25.86 80.1479C30.408 80.9153 32.9467 84.5883 32.1541 89.2923L31.3296 94.1879L16.0924 91.6209L16.919 86.7197C17.7116 82.0158 21.312 79.3806 25.8621 80.1423L25.86 80.1479ZM29.0369 88.9211C29.4873 86.2649 27.9607 84.15 25.2612 83.6965C22.5616 83.243 20.4269 84.7369 19.9822 87.3952L19.7652 88.7009L28.8199 90.2268L29.0369 88.9211Z" fill="#122315"/>
<path d="M28.4024 78.3354L19.4165 74.8142L20.6862 71.5681L29.6721 75.0893C31.3781 75.7577 32.7633 75.1841 33.3784 73.6237C33.9935 72.0633 33.3607 70.701 31.6547 70.0327L22.6688 66.5115L23.9405 63.2598L32.9264 66.781C36.4822 68.1766 37.739 71.203 36.3351 74.7812C34.9313 78.3595 31.9526 79.729 28.3968 78.3333L28.4024 78.3354Z" fill="#122315"/>
<path d="M32.3071 63.8402C28.4387 61.3709 27.3915 56.6421 29.8746 52.7533C30.5408 51.7136 31.3308 50.9605 32.4438 50.3319L35.6635 52.3861C34.4339 52.6734 33.4221 53.3899 32.7677 54.4149C31.3541 56.63 31.9839 59.3381 34.2565 60.7855C36.5067 62.2246 39.2468 61.6637 40.6604 59.4487C41.3148 58.4237 41.5423 57.2108 41.2836 55.9725L44.4829 58.0129C44.3356 59.3886 44.0024 60.404 43.348 61.429C40.8904 65.2827 36.1776 66.3039 32.3035 63.8325L32.3071 63.8402Z" fill="#122315"/>
<path d="M43.4731 41.6606L39.5313 45.9245L41.6882 47.9141L44.8761 44.4609L47.1322 46.544L43.9443 49.9971L46.2814 52.1542L50.2232 47.8903L52.5272 50.0163L46.2178 56.8452L34.8674 46.3601L41.1768 39.5311L43.4808 41.6571L43.4731 41.6606Z" fill="#122315"/>
<path d="M59.7199 34.7086C62.4594 38.4234 61.7265 42.8251 57.8882 45.6593L53.8881 48.6057L44.7217 36.1618L48.7218 33.2153C52.558 30.3868 56.986 30.9959 59.7199 34.7086ZM55.9009 43.2234C58.0668 41.6266 58.4452 39.0457 56.823 36.845C55.2028 34.6387 52.6245 34.2359 50.4585 35.8327L49.3901 36.6174L54.8381 44.0101L55.9009 43.2234Z" fill="#122315"/>
<path d="M123.44 178.992L118.576 164.322L121.887 163.227L126.751 177.897L123.44 178.992Z" fill="#122315"/>
<path d="M132.104 158.615L135.219 157.048L142.166 170.853L139.089 172.403L129.662 166.789L133.82 175.05L130.705 176.618L123.759 162.813L126.99 161.186L136.378 167.116L132.099 158.613L132.104 158.615Z" fill="#122315"/>
<path d="M146.026 152.708L141.427 156.249L143.22 158.575L146.944 155.705L148.818 158.138L145.094 161.007L147.031 163.527L151.63 159.986L153.542 162.471L146.177 168.138L136.746 155.896L144.112 150.229L146.024 152.713L146.026 152.708Z" fill="#122315"/>
<path d="M164.424 147.653L166.592 147.302L166.49 150.569L164.095 150.811C163.753 151.887 163.173 152.933 162.336 153.903C159.253 157.484 154.456 157.903 150.931 154.86C147.4 151.815 147.108 147.019 150.19 143.439C153.289 139.845 158.064 139.437 161.595 142.482C163.265 143.925 164.2 145.748 164.422 147.659L164.424 147.653ZM159.81 151.722C161.543 149.712 161.305 146.976 159.247 145.201C157.19 143.425 154.446 143.597 152.719 145.609C151.006 147.6 151.239 150.335 153.296 152.11C155.353 153.885 158.097 153.713 159.81 151.722Z" fill="#122315"/>
<path d="M164.616 141.049L156.085 136.544L157.714 133.462L166.245 137.966C167.865 138.819 169.306 138.406 170.088 136.926C170.873 135.44 170.401 134.022 168.777 133.162L160.247 128.657L161.876 125.574L170.407 130.079C173.783 131.86 174.695 135.014 172.9 138.411C171.105 141.808 167.991 142.836 164.614 141.055L164.616 141.049Z" fill="#122315"/>
<path d="M179.484 121.142L176.484 121.023L174.857 126.134L177.373 127.765L176.213 131.407L163.08 121.713L164.32 117.82L180.644 117.5L179.484 121.142ZM172.192 124.403L173.311 120.892L166.335 120.596L172.19 124.409L172.192 124.403Z" fill="#122315"/>
<path d="M178.327 111.173L179.111 105.64L182.217 106.077L180.944 115.065L165.641 112.906L166.129 109.45L178.333 111.175L178.327 111.173Z" fill="#122315"/>
<path d="M182.28 103.213L166.827 102.797L166.921 99.3114L182.373 99.7269L182.28 103.213Z" fill="#122315"/>
<path d="M169.045 86.2977L169.435 89.9409L181.684 88.6198L182.059 92.1116L169.81 93.4326L170.205 97.0778L167.09 97.4127L165.928 86.6382L169.043 86.3033L169.045 86.2977Z" fill="#122315"/>
<path d="M180.376 81.1175L165.37 84.798L164.537 81.4119L179.543 77.7315L180.376 81.1175Z" fill="#122315"/>
<path d="M163.851 69.9002L165.892 75.3353L168.64 74.3008L166.985 69.8962L169.857 68.8182L171.512 73.2227L174.487 72.1061L172.447 66.671L175.38 65.5645L178.654 74.265L164.186 79.7052L160.912 71.0047L163.851 69.9002Z" fill="#122315"/>
<path d="M172.978 62.4466L169.553 64.3771C170.057 62.9797 170.021 61.4288 169.435 60.3888C168.915 59.4677 167.997 59.1448 167.189 59.5991C164.94 60.867 167.814 65.4313 163.926 67.6184C161.581 68.9401 159.113 68.2025 157.757 65.7943C157.208 64.812 156.977 63.7746 157.022 62.5583L160.046 60.856C159.683 61.9688 159.734 62.9594 160.188 63.7672C160.643 64.575 161.44 64.8604 162.112 64.4834C164.096 63.3665 161.268 58.7997 165.365 56.4922C167.965 55.0287 170.543 55.8317 172.114 58.6237C172.795 59.8382 173.082 61.0678 172.972 62.4446L172.978 62.4466Z" fill="#122315"/>
<path d="M71.03 164.197L73.2241 165.094L70.0585 172.812L71.0249 173.21L70.225 175.154L67.0646 173.859L71.03 164.197Z" fill="#122315"/>
<path d="M67.3883 168.405C65.8573 171.288 63.2982 172.379 61.0058 171.16C58.7022 169.936 58.1862 167.213 59.7228 164.331C61.2498 161.458 63.7962 160.35 66.1054 161.576C68.3977 162.795 68.9153 165.532 67.3883 168.405ZM61.8033 165.435C60.881 167.175 60.9695 168.688 62.0217 169.251C63.074 169.813 64.382 169.034 65.3022 167.299C66.2184 165.575 66.132 164.057 65.0777 163.5C64.0234 162.943 62.7174 163.717 61.8013 165.44L61.8033 165.435Z" fill="#122315"/>
<path d="M113.964 30.1442L111.638 29.6939L113.217 21.5034L112.19 21.3057L112.589 19.2408L115.942 19.8887L113.964 30.1442Z" fill="#122315"/>
<path d="M116.707 25.302C117.641 22.1746 119.927 20.5963 122.42 21.3365C124.925 22.0807 125.962 24.6459 125.032 27.7809C124.102 30.8971 121.823 32.4907 119.319 31.7464C116.831 31.0083 115.783 28.4202 116.707 25.302ZM122.769 27.1059C123.331 25.2212 122.941 23.7508 121.802 23.4102C120.656 23.0676 119.534 24.0867 118.97 25.977C118.412 27.8505 118.796 29.3189 119.941 29.6615C121.087 30.0041 122.215 28.9871 122.773 27.1136L122.769 27.1059Z" fill="#122315"/>
<path d="M115.229 60.177L86.4727 138.812L113.002 148.514L141.759 69.8787L115.229 60.177Z" fill="#122315"/>
<path d="M83.6043 48.6126L54.8477 127.248L81.377 136.95L110.134 58.3142L83.6043 48.6126Z" fill="#122315"/>
</g>
<defs>
<clipPath id="clip0_9087_97212">
<rect width="198" height="198" fill="white"/>
</clipPath>
</defs>
</svg>
