<svg width="198" height="198" viewBox="0 0 198 198" fill="none" xmlns="http://www.w3.org/2000/svg">
<g clip-path="url(#clip0_9087_97163)">
<path d="M71.5471 193.948C123.763 209.118 178.391 179.086 193.561 126.87C208.731 74.6541 178.699 20.0267 126.483 4.8565C74.2671 -10.3137 19.6396 19.718 4.46943 71.9341C-10.7008 124.15 19.3309 178.778 71.5471 193.948Z" fill="#AEDEE5"/>
<path d="M73.5438 187.078C25.1994 173.033 -2.7049 122.275 11.3404 73.9305C25.3858 25.5861 76.1435 -2.31815 124.488 11.7272C172.832 25.7725 200.737 76.5303 186.691 124.875C172.646 173.219 121.888 201.123 73.5438 187.078ZM124.153 12.8789C76.4392 -0.983293 26.347 26.5551 12.4848 74.2692C-1.37743 121.983 26.161 172.075 73.8751 185.938C121.589 199.8 171.681 172.262 185.544 124.547C199.406 76.8334 171.867 26.7411 124.153 12.8789Z" fill="#122315"/>
<path d="M39.888 61.7378L29.1003 55.0246L30.616 52.588L41.4037 59.3012L39.888 61.7378Z" fill="#122315"/>
<path d="M37.1032 43.8289L38.9024 41.5928L48.8042 49.5585L47.0323 51.7653L38.0674 50.7763L43.9959 55.5434L42.1967 57.7796L32.2949 49.8138L34.1624 47.4919L43.209 48.7345L37.1089 43.8306L37.1032 43.8289Z" fill="#122315"/>
<path d="M53.6491 36.6869C56.1528 39.5331 55.8726 43.1924 52.926 45.7849L49.8608 48.4859L41.465 38.9507L44.5303 36.2497C47.4752 33.6629 51.1381 33.8447 53.6475 36.6926L53.6491 36.6869ZM51.1278 43.9327C52.7891 42.4705 52.9134 40.3318 51.4291 38.6392C49.9433 36.9524 47.8054 36.8035 46.1441 38.2657L45.3262 38.985L50.3156 44.6537L51.1335 43.9344L51.1278 43.9327Z" fill="#122315"/>
<path d="M56.0481 36.9182L51.8685 30.1738L54.3079 28.6642L58.4891 35.4029C59.285 36.6843 60.4771 36.9871 61.6516 36.2595C62.8261 35.532 63.0831 34.3267 62.2872 33.0453L58.1059 26.3066L60.5452 24.797L64.7265 31.5357C66.381 34.2036 65.7145 36.8186 63.0318 38.4812C60.3475 40.1495 57.71 39.582 56.0555 36.9142L56.0481 36.9182Z" fill="#122315"/>
<path d="M68.3959 34.3347L67.1074 31.3692C68.2083 31.9003 69.4775 32.0019 70.38 31.6117C71.1766 31.2652 71.5167 30.5438 71.2157 29.8474C70.3711 27.8995 66.3954 29.8637 64.9366 26.5008C64.0547 24.4675 64.8642 22.5154 66.9476 21.6108C67.7943 21.2416 68.661 21.1455 69.6579 21.286L70.7946 23.8967C69.9128 23.51 69.1047 23.4678 68.4026 23.7672C67.7046 24.0739 67.4002 24.6938 67.6517 25.2826C68.3965 26.9965 72.3664 25.0741 73.9096 28.6168C74.8848 30.8637 74.011 32.9089 71.6007 33.9547C70.5553 34.409 69.522 34.5438 68.4017 34.3364L68.3959 34.3347Z" fill="#122315"/>
<path d="M81.9691 19.5067L79.0745 20.3372L81.8754 30.0738L79.1023 30.8713L76.3014 21.1347L73.4068 21.9652L72.6966 19.4909L81.2604 17.0266L81.9707 19.501L81.9691 19.5067Z" fill="#122315"/>
<path d="M94.6345 27.7969L91.7198 28.2052C91.4243 25.7147 89.8227 24.2552 87.7361 24.4008L88.3391 28.677L85.5014 29.0767L83.7262 16.494L87.7884 15.9219C90.4646 15.5436 92.4497 16.8598 92.7873 19.2694C93.0114 20.8506 92.3852 22.1289 91.0895 22.8461C92.9955 23.493 94.3041 25.234 94.6288 27.7952L94.6345 27.7969ZM86.9081 18.5244L87.4055 22.0306L88.1962 21.9185C89.4018 21.7468 90.0791 20.9556 89.9264 19.8984C89.773 18.8224 88.8895 18.2488 87.665 18.4212L86.9081 18.5244Z" fill="#122315"/>
<path d="M104.929 15.0551L100.745 22.8927L100.761 27.7754L97.8745 27.7879L97.8576 22.9053L93.6155 15.0925L96.863 15.0791L99.2963 20.4774L101.672 15.0595L104.919 15.0461L104.929 15.0551Z" fill="#122315"/>
<path d="M108.956 28.4094L110.938 15.8556L113.772 16.3002L111.79 28.8539L108.956 28.4094Z" fill="#122315"/>
<path d="M124.679 18.9662L127.435 19.767L123.914 31.9729L121.192 31.1821L118.64 22.5367L116.534 29.8476L113.778 29.0468L117.3 16.8409L120.159 17.6716L122.512 26.489L124.679 18.9662Z" fill="#122315"/>
<path d="M138.164 24.6479L140.734 25.9167L135.117 37.315L132.58 36.0619L131.593 27.0948L128.232 33.9165L125.661 32.6477L131.278 21.2494L133.947 22.5654L134.704 31.6585L138.165 24.6422L138.164 24.6479Z" fill="#122315"/>
<path d="M139.833 32.6335C142.133 29.5734 146.058 29.0671 149.159 31.3972C152.281 33.7396 152.869 37.6388 150.57 40.6989C148.27 43.7591 144.361 44.2761 141.244 41.9353C138.137 39.6035 137.533 35.6937 139.833 32.6335ZM148.208 38.9254C149.547 37.1396 149.259 34.8999 147.515 33.5914C145.785 32.2936 143.553 32.6394 142.216 34.4195C140.877 36.2052 141.165 38.4449 142.894 39.7427C144.633 41.0496 146.869 40.7112 148.208 38.9254Z" fill="#122315"/>
<path d="M161.638 43.2688L163.778 45.5683L151.593 51.1312L149.344 48.7131L155.752 36.9421L157.893 39.2416L152.408 48.1119L161.638 43.2688Z" fill="#122315"/>
<path d="M158.391 60.1083L159.978 58.2203L157.472 54.5905L155.141 55.4047L153.358 52.8174L166.271 49.1561L168.177 51.9218L160.169 62.6939L158.386 60.1066L158.391 60.1083ZM159.942 53.7237L161.665 56.2189L165.369 51.8331L159.948 53.7253L159.942 53.7237Z" fill="#122315"/>
<path d="M172.321 64.5592L170.936 61.8827L161.944 66.5466L160.613 63.9851L169.605 59.3211L168.22 56.6446L170.51 55.4581L174.61 63.3727L172.321 64.5592Z" fill="#122315"/>
<path d="M163.611 70.1935L175.414 65.4764L176.479 68.1409L164.676 72.8579L163.611 70.1935Z" fill="#122315"/>
<path d="M171.56 72.3788C175.274 71.4446 178.641 73.5226 179.59 77.2905C180.541 81.0774 178.553 84.4766 174.833 85.4092C171.119 86.3435 167.759 84.286 166.809 80.4992C165.865 76.7329 167.846 73.3131 171.566 72.3805L171.56 72.3788ZM174.113 82.5406C176.279 81.9953 177.459 80.0703 176.929 77.959C176.4 75.8666 174.45 74.7285 172.287 75.268C170.121 75.8133 168.941 77.7383 169.462 79.8348C169.992 81.9461 171.942 83.0842 174.112 82.5463L174.113 82.5406Z" fill="#122315"/>
<path d="M181.82 95.0012L181.983 97.8633L169.296 98.5831L169.135 95.7587L176.451 90.4898L168.856 90.9241L168.693 88.062L181.381 87.3364L181.548 90.3117L174.003 95.4516L181.812 95.0052L181.82 95.0012Z" fill="#122315"/>
<path d="M15.8361 116.551L18.0441 115.452L17.1955 111.123L14.739 110.938L14.1371 107.855L27.4408 109.651L28.0868 112.945L16.4454 119.629L15.8435 116.546L15.8361 116.551ZM19.805 111.316L20.3877 114.294L25.5324 111.75L19.805 111.316Z" fill="#122315"/>
<path d="M31.5983 124.454L32.574 127.148L20.629 131.476L19.6623 128.815L25.1619 121.671L18.0154 124.261L17.0397 121.566L28.9846 117.239L29.9984 120.037L24.249 127.122L31.6041 124.456L31.5983 124.454Z" fill="#122315"/>
<path d="M32.9923 141.12C29.681 142.979 26.1619 141.938 24.242 138.516L22.2391 134.952L33.3187 128.726L35.3216 132.29C37.2432 135.707 36.298 139.26 32.994 141.115L32.9923 141.12ZM26.43 137.145C27.5157 139.076 29.581 139.645 31.549 138.539C33.5095 137.437 34.1031 135.372 33.0174 133.441L32.4856 132.491L25.8998 136.189L26.4317 137.139L26.43 137.145Z" fill="#122315"/>
<path d="M31.5169 149.702L41.4696 141.794L43.2529 144.039L33.3003 151.947L31.5169 149.702Z" fill="#122315"/>
<path d="M49.6133 150.839L51.6394 152.87L42.654 161.854L40.6515 159.849L42.606 151.047L37.2283 156.425L35.2022 154.395L44.1876 145.411L46.2904 147.519L44.0774 156.377L49.6116 150.845L49.6133 150.839Z" fill="#122315"/>
<path d="M57.4711 160.437L53.6454 157.586L52.1076 159.649L55.0911 161.87L53.5426 163.95L50.5591 161.728L47.5966 165.702L45.2977 163.99L52.8918 153.806L59.0163 158.369L57.4785 160.433L57.4711 160.437Z" fill="#122315"/>
<path d="M56.0607 164.246C57.8683 160.869 61.6664 159.773 65.0917 161.607C68.5326 163.452 69.7101 167.205 67.9025 170.582C66.095 173.959 62.314 175.06 58.8715 173.221C55.4462 171.387 54.2532 167.623 56.0607 164.246ZM65.2932 169.19C66.3494 167.223 65.7191 165.051 63.7983 164.027C61.8947 163.008 59.7402 163.687 58.6839 165.655C57.6277 167.622 58.2581 169.793 60.1616 170.813C62.0808 171.842 64.2353 171.163 65.2915 169.196L65.2932 169.19Z" fill="#122315"/>
<path d="M67.8175 176.453L68.8956 173.405C69.3405 174.547 70.2043 175.488 71.1291 175.812C71.9523 176.101 72.6905 175.806 72.9437 175.084C73.6493 173.084 69.402 171.812 70.6247 168.352C71.3626 166.261 73.2885 165.386 75.431 166.138C76.3041 166.448 77.0059 166.963 77.6369 167.743L76.6881 170.431C76.306 169.543 75.7414 168.963 75.027 168.705C74.3052 168.452 73.6598 168.706 73.449 169.303C72.8248 171.067 77.0466 172.362 75.7559 176.013C74.9415 178.324 72.9089 179.225 70.4236 178.348C69.3475 177.967 68.4987 177.36 67.8191 176.448L67.8175 176.453Z" fill="#122315"/>
<path d="M87.4455 172.246L84.5059 171.584L82.2876 181.466L79.47 180.834L81.6885 170.952L78.7489 170.291L79.3117 167.776L88.0083 169.731L87.4455 172.246Z" fill="#122315"/>
<path d="M97.4417 183.345L94.5109 183.102C94.7686 180.611 93.5324 178.835 91.4618 178.519L91.1107 182.829L88.252 182.595L89.2911 169.929L93.3812 170.266C96.0751 170.489 97.7207 172.204 97.5247 174.633C97.3922 176.222 96.5029 177.337 95.0839 177.751C96.8037 178.804 97.6932 180.79 97.4515 183.354L97.4417 183.345ZM91.9445 172.601L91.6535 176.127L92.4492 176.19C93.6634 176.288 94.4964 175.667 94.5831 174.598C94.6749 173.513 93.9298 172.762 92.704 172.66L91.9462 172.595L91.9445 172.601Z" fill="#122315"/>
<path d="M99.4401 178.626L98.963 170.707L101.828 170.533L102.305 178.451C102.396 179.957 103.303 180.792 104.682 180.708C106.061 180.624 106.856 179.686 106.765 178.181L106.288 170.263L109.153 170.089L109.63 178.007C109.819 181.144 107.994 183.124 104.837 183.319C101.681 183.508 99.6302 181.757 99.4401 178.626Z" fill="#122315"/>
<path d="M111.302 176.182C110.518 172.486 112.68 169.15 116.396 168.359C117.39 168.145 118.287 168.182 119.297 168.469L119.951 171.542C119.074 170.989 118.07 170.809 117.091 171.016C114.978 171.464 113.758 173.397 114.217 175.562C114.674 177.708 116.581 178.995 118.693 178.546C119.667 178.338 120.515 177.771 121.091 176.9L121.739 179.953C120.849 180.664 120.06 181.05 119.084 181.263C115.408 182.047 112.087 179.877 111.302 176.182Z" fill="#122315"/>
<path d="M129.818 166.965L126.988 168.001L130.475 177.514L127.762 178.509L124.275 168.996L121.445 170.032L120.558 167.611L128.93 164.545L129.818 166.965Z" fill="#122315"/>
<path d="M134.268 170.868L130.447 163.917L132.961 162.535L136.782 169.486C137.51 170.809 138.684 171.175 139.896 170.508C141.107 169.847 141.423 168.653 140.701 167.331L136.88 160.38L139.394 158.998L143.216 165.949C144.728 168.7 143.93 171.276 141.158 172.795C138.393 174.316 135.788 173.615 134.275 170.864L134.268 170.868Z" fill="#122315"/>
<path d="M155.882 162.433L153.553 164.229C152.069 162.214 149.954 161.73 148.213 162.889L150.848 166.308L148.575 168.058L140.818 157.994L144.068 155.49C146.213 153.839 148.582 154.005 150.066 155.934C151.04 157.198 151.13 158.623 150.356 159.876C152.335 159.501 154.333 160.367 155.877 162.431L155.882 162.433ZM144.589 158.189L146.751 160.992L147.383 160.504C148.344 159.764 148.542 158.741 147.887 157.892C147.225 157.028 146.167 156.97 145.19 157.723L144.589 158.189Z" fill="#122315"/>
<path d="M156.023 148.113L152.65 151.489L154.359 153.197L157.093 150.462L158.881 152.243L156.147 154.978L157.996 156.827L161.369 153.451L163.195 155.274L157.796 160.683L148.802 151.707L154.202 146.298L156.027 148.121L156.023 148.113Z" fill="#122315"/>
<path d="M22.4612 89.4451C19.2501 88.8415 17.4456 86.7327 17.9258 84.1817C18.4036 81.6175 20.8511 80.3154 24.0639 80.9132C27.2578 81.5118 29.0828 83.6141 28.5993 86.1766C28.1191 88.7276 25.6626 90.0396 22.467 89.4467L22.4612 89.4451ZM23.6273 83.2284C21.6946 82.8657 20.271 83.4028 20.0544 84.5764C19.8319 85.7483 20.9651 86.7672 22.8995 87.1242C24.8207 87.4835 26.2386 86.9447 26.461 85.7728C26.6776 84.5993 25.5503 83.582 23.629 83.2227L23.6273 83.2284Z" fill="#122315"/>
<path d="M25.4379 71.899C27.3155 72.4942 29.0337 74.087 30.7913 76.7848L29.9625 79.4024C29.1325 77.6824 28.1874 76.4012 27.2605 75.6348C27.4613 76.184 27.4722 76.7029 27.2802 77.2995C26.729 79.047 24.9079 79.9471 22.8314 79.2879C20.6117 78.5871 19.692 76.5552 20.3845 74.3641C21.0887 72.1329 23.0782 71.1451 25.4379 71.899ZM24.44 74.0075C23.4897 73.7066 22.6305 74.1405 22.3462 75.0335C22.0603 75.9322 22.5392 76.7859 23.478 77.0835C24.457 77.3927 25.3367 76.9524 25.6119 76.0692C25.9012 75.1591 25.4017 74.3118 24.4342 74.0059L24.44 74.0075Z" fill="#122315"/>
<path d="M174.436 116.138C177.577 117.025 179.184 119.3 178.473 121.791C177.762 124.3 175.208 125.372 172.067 124.484C168.937 123.6 167.314 121.339 168.03 118.831C168.737 116.334 171.308 115.248 174.436 116.138ZM172.711 122.223C174.606 122.761 176.072 122.355 176.393 121.205C176.721 120.058 175.684 118.942 173.795 118.406C171.918 117.873 170.452 118.28 170.125 119.427C169.797 120.575 170.834 121.69 172.711 122.223Z" fill="#122315"/>
<path d="M169.868 133.335C168.052 132.571 166.488 130.83 164.982 127.975L166.046 125.445C166.72 127.232 167.534 128.599 168.395 129.445C168.242 128.879 168.286 128.364 168.528 127.788C169.236 126.098 171.132 125.369 173.142 126.214C175.285 127.116 176.022 129.219 175.132 131.341C174.225 133.501 172.155 134.297 169.874 133.336L169.868 133.335ZM171.055 131.324C171.974 131.71 172.871 131.361 173.236 130.491C173.598 129.628 173.201 128.729 172.293 128.347C171.346 127.948 170.433 128.31 170.074 129.163C169.706 130.044 170.125 130.93 171.055 131.324Z" fill="#122315"/>
<path d="M151.124 76.7629L131.505 71.0629C127.457 82.4075 122.533 96.4243 117.425 112.339L114.193 111.4L118.818 95.4816C112.068 85.0513 102.732 75.9077 92.0604 70.1417L87.4691 85.9452C81.3329 76.6315 71.6921 67.853 61.3016 61.2055L44.601 118.689L133.892 144.631C141.58 118.169 147.131 94.3993 151.124 76.7629Z" fill="#122315"/>
<path d="M72.9729 131.262C71.9774 134.689 62.7451 125.252 61.9311 128.054C61.117 130.856 69.8821 104.664 69.8821 104.664L78.7924 107.253C78.7924 107.253 73.9684 127.836 72.9729 131.262Z" fill="#AEDEE5"/>
</g>
<defs>
<clipPath id="clip0_9087_97163">
<rect width="198" height="198" fill="white"/>
</clipPath>
</defs>
</svg>
