<svg width="212" height="212" viewBox="0 0 212 212" fill="none" xmlns="http://www.w3.org/2000/svg">
<rect x="0.710938" y="0.71167" width="211" height="211" rx="20" fill="#F3EDE4"/>
<path d="M123.401 73.82C123.401 72.6805 122.478 71.7551 121.347 71.7551C120.215 71.7551 119.293 72.6824 119.293 73.82C119.293 74.9576 120.215 75.8849 121.347 75.8849C122.478 75.8849 123.401 74.9576 123.401 73.82Z" fill="#122315"/>
<path d="M142.301 96.7839C142.32 96.7392 142.34 96.6963 142.359 96.6517C142.472 96.3873 142.581 96.121 142.688 95.8529C142.709 95.8026 142.729 95.7523 142.749 95.7021C142.853 95.4414 142.953 95.177 143.051 94.9126C143.073 94.8549 143.096 94.7972 143.116 94.7395C143.211 94.4825 143.301 94.2237 143.392 93.963C143.414 93.8979 143.438 93.8327 143.461 93.7675C143.548 93.5143 143.629 93.2592 143.711 93.0023C143.735 92.9297 143.759 92.857 143.781 92.7844C143.859 92.5349 143.933 92.2836 144.007 92.0322C144.031 91.9522 144.055 91.8721 144.079 91.792C144.15 91.5481 144.214 91.3005 144.281 91.0547C144.305 90.9653 144.329 90.8778 144.353 90.7884C144.416 90.5483 144.474 90.3062 144.531 90.0642C144.553 89.9673 144.579 89.8724 144.601 89.7756C144.657 89.5391 144.707 89.3008 144.757 89.0624C144.779 88.96 144.803 88.8576 144.824 88.7552C144.872 88.5225 144.914 88.2879 144.959 88.0533C144.979 87.9434 145.001 87.8354 145.022 87.7256C145.063 87.4966 145.1 87.2657 145.137 87.0348C145.155 86.9194 145.176 86.8039 145.194 86.6866C145.229 86.4613 145.259 86.2323 145.29 86.0052C145.307 85.8841 145.326 85.7631 145.34 85.6402C145.368 85.4168 145.392 85.1934 145.418 84.9681C145.433 84.8414 145.448 84.713 145.461 84.5864C145.483 84.3629 145.501 84.1395 145.52 83.9161C145.531 83.7857 145.544 83.6573 145.555 83.5269C145.572 83.3016 145.585 83.0745 145.598 82.8473C145.605 82.7189 145.616 82.5885 145.622 82.46C145.635 82.2143 145.642 81.9666 145.65 81.719C145.653 81.6073 145.659 81.4974 145.663 81.3876C145.672 81.0282 145.676 80.6689 145.676 80.3077C145.676 79.9744 145.67 79.6448 145.663 79.3134C145.661 79.2073 145.655 79.1011 145.653 78.995C145.646 78.7697 145.639 78.5444 145.627 78.3191C145.622 78.1981 145.614 78.0752 145.609 77.9542C145.598 77.7419 145.583 77.5315 145.568 77.3193C145.559 77.1982 145.551 77.0753 145.54 76.9543C145.524 76.7328 145.503 76.5112 145.481 76.2915C145.472 76.1853 145.463 76.0811 145.451 75.9749C145.42 75.6621 145.385 75.3512 145.346 75.0403C145.346 75.0291 145.344 75.0179 145.342 75.0067C145.301 74.6865 145.257 74.3681 145.209 74.0516C145.192 73.9454 145.176 73.8412 145.159 73.7351C145.126 73.5209 145.09 73.3068 145.053 73.0945C145.033 72.9735 145.011 72.8525 144.988 72.7315C144.951 72.5322 144.914 72.3349 144.876 72.1357C144.851 72.0146 144.827 71.8917 144.801 71.7707C144.759 71.5659 144.714 71.3611 144.668 71.1581C144.644 71.0483 144.62 70.9384 144.594 70.8304C144.531 70.5549 144.464 70.2812 144.394 70.0093C144.381 69.9609 144.37 69.9125 144.357 69.8641C144.283 69.5755 144.205 69.2888 144.125 69.0039C144.094 68.8922 144.061 68.7823 144.029 68.6725C143.974 68.4788 143.916 68.287 143.859 68.0953C143.82 67.9705 143.781 67.8458 143.742 67.721C143.687 67.5423 143.629 67.3654 143.57 67.1885C143.527 67.0619 143.486 66.9372 143.444 66.8105C143.383 66.6299 143.32 66.4512 143.255 66.2706C143.212 66.1533 143.172 66.0341 143.129 65.9168C143.048 65.6952 142.962 65.4737 142.877 65.254C142.831 65.1348 142.785 65.0175 142.738 64.8983C142.646 64.6675 142.553 64.4366 142.457 64.2076C142.405 64.0847 142.353 63.9637 142.301 63.8426C142.231 63.6788 142.16 63.5149 142.088 63.3529C142.029 63.2207 141.97 63.0904 141.91 62.9601C141.842 62.8093 141.772 62.6566 141.699 62.5076C141.636 62.3736 141.573 62.2414 141.509 62.1092C141.436 61.9602 141.362 61.8131 141.29 61.666C141.225 61.5357 141.16 61.4054 141.094 61.275C141.01 61.113 140.925 60.9548 140.842 60.7947C140.733 60.588 140.621 60.3832 140.51 60.1802C140.423 60.022 140.336 59.8637 140.247 59.7073C140.17 59.5714 140.09 59.4354 140.01 59.2995C139.936 59.171 139.86 59.0426 139.784 58.916C139.701 58.7763 139.616 58.6367 139.529 58.497C139.455 58.376 139.381 58.2568 139.306 58.1377C139.218 57.9962 139.129 57.8547 139.038 57.715C138.964 57.6014 138.89 57.4879 138.816 57.3743C138.721 57.2309 138.627 57.0876 138.532 56.946C138.466 56.8474 138.397 56.7505 138.329 56.6519C138.121 56.3502 137.908 56.0505 137.692 55.7544C137.638 55.6818 137.586 55.6073 137.532 55.5347C137.421 55.3839 137.308 55.2349 137.193 55.086C137.123 54.9947 137.054 54.9035 136.984 54.8123C136.871 54.6652 136.754 54.52 136.64 54.3729C136.569 54.2835 136.499 54.196 136.427 54.1066C136.308 53.9595 136.188 53.8124 136.067 53.6672C136.001 53.5871 135.934 53.5089 135.867 53.4307C135.738 53.278 135.608 53.1254 135.478 52.9727C135.443 52.9317 135.406 52.8908 135.371 52.8498C134.893 52.3043 134.401 51.7699 133.895 51.2504C133.839 51.1946 133.786 51.1368 133.73 51.081C133.582 50.9302 133.434 50.7831 133.284 50.6341C133.223 50.5745 133.163 50.5149 133.102 50.4554C132.95 50.3064 132.797 50.1593 132.643 50.0122C132.591 49.962 132.537 49.9135 132.486 49.8633C132.111 49.5132 131.732 49.1706 131.345 48.8336C130.958 48.4985 130.565 48.1689 130.167 47.8468C130.132 47.817 130.095 47.7891 130.059 47.7593C129.878 47.6141 129.695 47.4707 129.511 47.3292C129.463 47.292 129.415 47.2547 129.367 47.2175C129.182 47.076 128.994 46.9345 128.807 46.7967C128.77 46.7687 128.733 46.7427 128.698 46.7166C128.217 46.3628 127.726 46.0203 127.229 45.687C126.842 45.4282 126.452 45.1731 126.055 44.9254C126.039 44.9143 126.022 44.905 126.005 44.8938C125.792 44.7616 125.577 44.6313 125.363 44.5028C125.327 44.4823 125.292 44.46 125.255 44.4395C125.04 44.3129 124.824 44.1863 124.607 44.0634C124.583 44.0503 124.561 44.0373 124.537 44.0243C123.942 43.6891 123.337 43.3689 122.725 43.0617C122.359 42.8773 121.988 42.6967 121.614 42.5236C121.61 42.5236 121.609 42.5198 121.605 42.5198C121.368 42.41 121.129 42.302 120.89 42.1977C120.86 42.1847 120.831 42.1716 120.801 42.1586C120.564 42.0543 120.327 41.9538 120.086 41.8533C120.07 41.8458 120.051 41.8384 120.033 41.8309C119.008 41.4064 117.964 41.0228 116.899 40.6821C116.899 40.6821 116.897 40.6821 116.895 40.6821C116.643 40.602 116.39 40.5238 116.136 40.4475C116.104 40.4382 116.073 40.4289 116.043 40.4196C115.793 40.3451 115.541 40.2725 115.29 40.2036C115.282 40.2017 115.275 40.1999 115.269 40.198C111.776 39.2354 108.1 38.7178 104.302 38.7178C98.251 38.7178 92.5042 40.0248 87.3241 42.3709C87.3204 42.3709 87.3167 42.3746 87.3129 42.3765C87.2555 42.4025 87.2 42.4286 87.1426 42.4547C86.9296 42.5515 86.7184 42.652 86.5092 42.7526C86.424 42.7935 86.3369 42.8345 86.2517 42.8773C86.0036 42.9983 85.7573 43.1212 85.5128 43.246C85.4461 43.2795 85.3813 43.3149 85.3165 43.3484C85.1202 43.4508 84.9257 43.5532 84.7312 43.6593C84.6442 43.7059 84.559 43.7524 84.472 43.8008C84.2349 43.9312 83.9997 44.0634 83.7645 44.1993C83.6904 44.2421 83.6182 44.2849 83.5459 44.3278C83.3644 44.4339 83.1848 44.54 83.0052 44.648C82.9181 44.7001 82.8311 44.7541 82.744 44.8063C82.5181 44.9459 82.2921 45.0874 82.068 45.2308C81.9884 45.2811 81.9106 45.3332 81.8328 45.3835C81.6661 45.4933 81.4976 45.6032 81.3328 45.7149C81.2457 45.7745 81.1568 45.8322 81.0698 45.8918C80.8531 46.0389 80.6383 46.1897 80.4253 46.3405C80.342 46.4001 80.2605 46.4597 80.1771 46.5193C80.0234 46.631 79.8697 46.7427 79.716 46.8581C79.6271 46.9233 79.54 46.9885 79.4511 47.0555C79.2456 47.21 79.0418 47.3683 78.84 47.5266C78.7529 47.5954 78.6677 47.6643 78.5825 47.7332C78.4399 47.8468 78.2992 47.9604 78.1584 48.0758C78.0695 48.1484 77.9825 48.2211 77.8936 48.2937C77.6991 48.4557 77.5065 48.6195 77.3158 48.7852C77.2269 48.8634 77.138 48.9416 77.0491 49.0198C76.9194 49.1334 76.7898 49.2488 76.662 49.3643C76.5731 49.4443 76.4842 49.5225 76.3972 49.6045C76.2138 49.772 76.0323 49.9433 75.8527 50.1146C75.7619 50.2003 75.6712 50.2878 75.5823 50.3753C75.4637 50.4889 75.3471 50.6043 75.2304 50.7216C75.1415 50.8091 75.0544 50.8966 74.9655 50.9842C74.7933 51.1573 74.6248 51.3323 74.4562 51.5092C74.3636 51.606 74.2729 51.7029 74.1821 51.7997C74.0747 51.9133 73.9692 52.0287 73.8636 52.1423C73.7766 52.2391 73.6877 52.3341 73.6006 52.4309C73.4413 52.6096 73.2821 52.7884 73.1246 52.969C73.032 53.0751 72.9413 53.1812 72.8505 53.2874C72.7561 53.3991 72.6598 53.5127 72.5672 53.6244C72.4468 53.7677 72.3283 53.913 72.2097 54.0582C72.0931 54.2016 71.9782 54.3449 71.8634 54.4902C71.7727 54.6056 71.6819 54.721 71.593 54.8365C71.5078 54.9463 71.4245 55.0581 71.3393 55.1679C71.2078 55.3429 71.0763 55.5179 70.9485 55.6948C70.8578 55.8196 70.7652 55.9462 70.6744 56.0709C70.5855 56.1957 70.4966 56.3204 70.4096 56.4471C70.3355 56.5532 70.2614 56.6612 70.1873 56.7692C70.0484 56.9703 69.9132 57.1732 69.778 57.378C69.704 57.4897 69.6317 57.5996 69.5595 57.7113C69.4725 57.8454 69.3873 57.9794 69.3021 58.1153C69.2373 58.2177 69.1743 58.3201 69.1113 58.4226C68.9724 58.6478 68.8354 58.875 68.7002 59.104C68.6409 59.2046 68.5816 59.3051 68.5224 59.4057C68.439 59.549 68.3575 59.6924 68.2761 59.8376C68.2224 59.9344 68.1686 60.0313 68.1149 60.1281C67.9779 60.3739 67.8445 60.6234 67.713 60.8729C67.6649 60.9659 67.6149 61.059 67.5667 61.1521C67.4871 61.3048 67.4093 61.4575 67.3334 61.612C67.2889 61.7014 67.2445 61.7908 67.2 61.882C67.0685 62.1483 66.9408 62.4164 66.8148 62.6864C66.7741 62.7739 66.7333 62.8614 66.6926 62.9508C66.6185 63.1109 66.5463 63.2729 66.474 63.4349C66.437 63.5168 66.4018 63.5987 66.3666 63.6806C66.2425 63.9674 66.1203 64.2541 66.0036 64.5446C65.9703 64.6284 65.9351 64.7103 65.9018 64.7941C65.8332 64.9635 65.7666 65.1329 65.7018 65.3024C65.674 65.3731 65.648 65.4457 65.6203 65.5184C65.5036 65.8256 65.3906 66.1328 65.2832 66.4437C65.2554 66.5238 65.2276 66.6039 65.1999 66.6839C65.1387 66.8608 65.0795 67.0377 65.0202 67.2146C65.0017 67.2723 64.9832 67.3319 64.9647 67.3896C64.8572 67.7192 64.7554 68.0506 64.6554 68.382C64.6331 68.4583 64.6091 68.5365 64.5868 68.6129C64.5331 68.7972 64.4813 68.9815 64.4294 69.1659C64.4183 69.2068 64.4072 69.2459 64.3961 69.2869C64.2998 69.6425 64.2072 70 64.1201 70.3575C64.1016 70.4339 64.0831 70.5083 64.0646 70.5847C64.0201 70.7746 63.9738 70.9664 63.9312 71.1563C63.9275 71.1693 63.9257 71.1805 63.9238 71.1935C63.8368 71.5827 63.7571 71.9755 63.6812 72.3684C63.6664 72.4429 63.6516 72.5173 63.6386 72.5937C63.5256 73.1951 63.4275 73.8021 63.3404 74.4128C63.3293 74.4873 63.3201 74.5636 63.3089 74.6381C63.283 74.8336 63.2571 75.0272 63.233 75.2227C63.0293 76.8947 62.9219 78.5928 62.9219 80.317C62.9219 95.8678 71.4115 109.423 83.9849 116.559C84.0182 116.578 84.0515 116.597 84.083 116.615C84.4201 116.805 84.759 116.991 85.1016 117.172C85.1424 117.194 85.1831 117.217 85.2257 117.237C85.4017 117.328 85.5776 117.42 85.7535 117.507C85.8147 117.537 85.8758 117.569 85.935 117.598C86.4907 117.876 87.0537 118.14 87.6241 118.393C87.6815 118.419 87.7389 118.444 87.7963 118.47C88.3816 118.725 88.9742 118.969 89.5724 119.198C89.6132 119.213 89.6539 119.229 89.6946 119.244C90.3206 119.483 90.954 119.704 91.5948 119.913C91.6115 119.918 91.6263 119.924 91.643 119.928C92.5227 120.211 93.4153 120.466 94.321 120.691C94.3284 120.693 94.3358 120.695 94.3432 120.697C97.5305 121.488 100.862 121.911 104.292 121.911C115.575 121.911 125.8 117.369 133.265 110.007C133.269 110.004 133.273 110 133.276 109.996C133.508 109.767 133.737 109.536 133.963 109.302C133.969 109.296 133.976 109.289 133.982 109.283C134.21 109.047 134.436 108.806 134.66 108.564C134.663 108.561 134.667 108.557 134.671 108.551C134.895 108.307 135.117 108.062 135.336 107.812C135.338 107.808 135.341 107.806 135.343 107.803C135.564 107.553 135.778 107.3 135.993 107.043C135.993 107.041 135.997 107.039 135.999 107.037C136.212 106.782 136.423 106.524 136.63 106.263C136.632 106.261 136.634 106.257 136.636 106.255C136.843 105.995 137.047 105.732 137.247 105.466C137.249 105.462 137.253 105.46 137.254 105.457C137.454 105.192 137.651 104.924 137.845 104.656C137.849 104.652 137.851 104.647 137.855 104.643C138.047 104.375 138.236 104.105 138.423 103.833C138.427 103.826 138.432 103.82 138.436 103.813C138.621 103.543 138.801 103.271 138.979 102.995C138.984 102.986 138.992 102.977 138.997 102.967C139.173 102.695 139.345 102.422 139.516 102.146C139.523 102.133 139.531 102.12 139.54 102.109C139.707 101.837 139.871 101.562 140.032 101.284C140.042 101.267 140.053 101.251 140.062 101.234C140.22 100.962 140.375 100.686 140.527 100.411C140.538 100.389 140.551 100.368 140.564 100.346C140.712 100.074 140.858 99.8002 141.001 99.5246C141.014 99.4985 141.029 99.4725 141.042 99.4464C141.183 99.1746 141.318 98.9027 141.453 98.6272C141.468 98.5955 141.484 98.5639 141.501 98.5303C141.633 98.2604 141.759 97.9904 141.884 97.7185C141.901 97.6813 141.92 97.6422 141.938 97.605C142.06 97.3387 142.177 97.0687 142.294 96.7987L142.301 96.7839ZM112.65 112.674H96.5008V62.4201L90.4836 62.3643L90.4984 60.0257L90.5336 54.2258L95.3285 49.9322L98.3269 47.2473H112.65V112.674ZM116.695 73.8226C116.695 71.2419 118.782 69.1435 121.349 69.1435C123.916 69.1435 126.003 71.2419 126.003 73.8226C126.003 76.4032 123.914 78.4997 121.349 78.4997C118.784 78.4997 116.695 76.4013 116.695 73.8226ZM121.951 88.9842H118.581L133.052 69.0542H136.421L135.647 70.1192L125.618 83.931L121.949 88.9824L121.951 88.9842ZM133.48 88.9768C133.343 88.9768 133.21 88.9693 133.076 88.9582C132.33 88.893 131.634 88.651 131.028 88.273C129.707 87.4463 128.826 85.9735 128.826 84.2996C128.826 81.719 130.913 79.6206 133.48 79.6206C136.047 79.6206 138.132 81.719 138.132 84.2996C138.132 86.8803 136.045 88.9787 133.48 88.9787V88.9768Z" fill="#122315"/>
<path d="M133.48 82.2317C132.346 82.2317 131.426 83.1571 131.426 84.2966C131.426 85.4361 132.348 86.3614 133.48 86.3614C134.611 86.3614 135.534 85.4361 135.534 84.2966C135.534 83.1571 134.611 82.2317 133.48 82.2317Z" fill="#122315"/>
<path d="M55.5018 141.127H63.5637V137.183H55.5018V134.271H64.4175V130.108H50.7773V147.247H55.5018V141.127Z" fill="#122315"/>
<path d="M75.252 147.589C80.5117 147.589 84.4584 143.599 84.4584 138.678V138.628C84.4584 133.705 80.5599 129.765 75.3001 129.765C70.0404 129.765 66.0938 133.757 66.0938 138.678V138.726C66.0938 143.647 69.9904 147.589 75.252 147.589ZM70.9423 138.628C70.9423 136.155 72.6703 134.049 75.252 134.049C77.8337 134.049 79.6339 136.203 79.6339 138.678V138.726C79.6339 141.199 77.9041 143.305 75.3001 143.305C72.6962 143.305 70.9423 141.151 70.9423 138.678V138.628Z" fill="#122315"/>
<path d="M102.168 136.009V135.959C102.168 134.27 101.655 132.948 100.657 131.968C99.5126 130.794 97.7106 130.108 95.1048 130.108H87.043V147.247H91.7675V142.056H93.838L97.2717 147.247H102.728L98.6607 141.273C100.779 140.366 102.168 138.629 102.168 136.009ZM97.418 136.303C97.418 137.552 96.4938 138.336 94.8863 138.336H91.7675V134.221H94.8603C96.4438 134.221 97.418 134.907 97.418 136.255V136.303Z" fill="#122315"/>
<path d="M108.281 134.272H113.397V147.248H118.121V134.272H123.234V130.109H108.281V134.272Z" fill="#122315"/>
<path d="M136.214 136.523H130.15V130.109H125.426V147.248H130.15V140.735H136.214V147.248H140.94V130.109H136.214V136.523Z" fill="#122315"/>
<path d="M148.754 143.207V140.489H156.939V136.742H148.754V134.147H157.789V130.108H144.078V147.247H157.913V143.207H148.754Z" fill="#122315"/>
<path d="M58.4829 150.661H50.6562V169.022H55.7178V163.775H58.2217C62.7629 163.775 66.0762 161.494 66.0762 157.165V157.113C66.0762 153.047 63.1018 150.661 58.4829 150.661ZM61.0127 157.402C61.0127 158.845 59.9163 159.789 58.1162 159.789H55.716V154.936H58.0902C59.9163 154.936 61.0127 155.776 61.0127 157.351V157.402Z" fill="#122315"/>
<path d="M73.2783 150.661H68.2148V169.022H82.1216V164.563H73.2783V150.661Z" fill="#122315"/>
<path d="M90.599 150.531L82.8242 169.022H88.1469L89.4507 165.743H96.494L97.8256 169.022H103.252L95.4772 150.531H90.5971H90.599ZM90.9379 161.783L92.9992 156.564L95.0346 161.783H90.9379Z" fill="#122315"/>
<path d="M117.264 160.368L109.75 150.662H105.027V169.023H110.035V158.951L117.836 169.023H122.271V150.662H117.264V160.368Z" fill="#122315"/>
<path d="M130.521 161.784H139.287V157.771H130.521V154.992H140.2V150.663H125.512V169.023H140.332V164.696H130.521V161.784Z" fill="#122315"/>
<path d="M141.895 155.12H147.373V169.023H152.436V155.12H157.914V150.662H141.895V155.12Z" fill="#122315"/>
<path d="M155.94 167.116C155.94 166.743 155.664 166.58 155.277 166.58H154.52V168.173H154.968V167.697H155.157L155.475 168.173H155.992L155.612 167.619C155.81 167.54 155.94 167.367 155.94 167.116ZM155.251 167.341H154.966V166.959H155.251C155.407 166.959 155.492 167.028 155.492 167.149C155.492 167.263 155.405 167.339 155.251 167.339V167.341Z" fill="#122315"/>
<path d="M155.173 165.79C154.284 165.79 153.578 166.527 153.578 167.402V167.411C153.578 168.286 154.274 169.014 155.173 169.014C156.071 169.014 156.767 168.277 156.767 167.402V167.393C156.767 166.518 156.071 165.79 155.173 165.79ZM156.499 167.402C156.499 168.137 155.921 168.754 155.173 168.754C154.425 168.754 153.845 168.147 153.845 167.411V167.402C153.845 166.665 154.423 166.05 155.173 166.05C155.923 166.05 156.499 166.657 156.499 167.393V167.402Z" fill="#122315"/>
<rect x="1.21094" y="1.21167" width="210" height="210" rx="19.5" stroke="#122315" stroke-opacity="0.18"/>
</svg>
