<svg width="211" height="211" viewBox="0 0 211 211" fill="none" xmlns="http://www.w3.org/2000/svg">
<rect width="211" height="211" rx="20" fill="#F3EDE4"/>
<g clip-path="url(#clip0_9087_96899)">
<path d="M169.718 157.278C168.766 157.283 167.811 157.244 166.863 157.31C166.139 157.361 165.638 157.093 165.158 156.577C163.853 155.174 162.513 153.801 161.176 152.428C160.912 152.155 160.597 151.93 160.144 151.55L160.144 157.199L157.123 157.199C157.1 156.893 157.052 156.548 157.052 156.202C157.046 150.61 157.046 145.02 157.048 139.428C157.048 138.41 157.546 137.9 158.543 137.899C158.722 137.899 158.903 137.915 159.078 137.895C159.801 137.816 160.076 138.105 160.067 138.86C160.035 141.82 160.053 144.781 160.057 147.74C160.057 148.083 160.091 148.427 160.109 148.77C160.187 148.815 160.268 148.861 160.346 148.906C161.391 147.814 162.529 146.793 163.461 145.611C164.763 143.958 166.432 144.161 168.337 144.362C168.135 144.669 168.02 144.919 167.84 145.104C166.346 146.641 164.831 148.152 163.357 149.706C163.196 149.877 163.121 150.401 163.244 150.531C165.291 152.674 167.376 154.78 169.459 156.89C169.507 156.938 169.63 156.91 169.718 156.919L169.718 157.278Z" fill="#122315"/>
<path d="M104.926 128.711C103.529 128.711 102.12 128.826 100.737 128.68C99.1916 128.519 97.6497 128.201 96.1471 127.802C94.5336 127.372 92.9058 126.9 91.3942 126.208C89.1511 125.18 86.9151 124.08 84.8329 122.762C80.6668 120.124 77.2967 116.62 74.5688 112.5C72.9535 110.06 71.6298 107.463 70.6603 104.703C69.1005 100.263 68.4243 95.6756 68.5549 90.9661C68.6085 89.0273 69.4922 89.1512 70.8266 89.4549C70.9966 89.4944 71.1612 89.5861 71.3311 89.5969C73.5742 89.7496 75.821 89.8736 78.0641 90.0461C79.3646 90.1449 80.6615 90.2958 81.9512 90.4827C82.1265 90.5079 82.3608 90.8744 82.3787 91.099C82.5182 92.8815 82.4968 94.682 82.749 96.4465C83.071 98.6998 83.8276 100.843 84.8955 102.867C86.4339 105.779 88.491 108.264 91.0794 110.277C92.9737 111.749 95.0219 112.954 97.3348 113.718C99.9733 114.589 102.655 115.222 105.42 115.204C106.862 115.195 108.314 114.782 109.735 114.435C111.084 114.106 112.397 113.624 113.724 113.209C115.786 112.563 117.495 111.301 119.155 109.98C121.228 108.331 122.952 106.358 124.279 104.058C125.687 101.621 126.85 99.0879 127.075 96.2219C127.206 94.5652 127.365 92.9085 127.431 91.2482C127.456 90.6067 127.682 90.454 128.269 90.418C130.132 90.3048 131.995 90.1341 133.857 89.9832C135.354 89.861 136.853 89.7496 138.348 89.6022C138.903 89.5483 139.445 89.3543 139.998 89.3148C140.926 89.2501 141.221 89.5555 141.271 90.4647C141.429 93.3721 141.252 96.2722 140.711 99.1202C140.375 100.894 139.79 102.631 139.184 104.34C138.559 106.101 137.889 107.862 137.041 109.52C135.041 113.429 132.349 116.85 129.056 119.725C126.451 121.998 123.657 124.052 120.405 125.36C118.849 125.987 117.314 126.673 115.738 127.247C114.887 127.556 113.972 127.698 113.083 127.893C112.257 128.075 111.429 128.289 110.592 128.386C108.712 128.605 106.824 128.759 104.939 128.941C104.935 128.865 104.932 128.792 104.926 128.716L104.926 128.711Z" fill="#122315"/>
<path d="M130.419 157.179C130.255 157.24 130.23 157.258 130.201 157.26C128.27 157.421 127.305 156.547 127.305 154.636C127.305 151.767 127.311 148.895 127.296 146.026C127.296 145.697 127.175 145.37 127.11 145.041C127.024 145.046 126.938 145.05 126.853 145.055C125.65 146.689 124.413 148.295 123.257 149.963C122.32 151.314 120.229 151.37 119.354 150.092C118.157 148.344 116.832 146.685 115.415 144.793C115.347 145.3 115.267 145.62 115.267 145.939C115.258 149.407 115.241 152.875 115.275 156.343C115.283 157.084 115.064 157.364 114.317 157.306C113.585 157.251 112.846 157.294 112.066 157.294C112.047 156.915 112.023 156.654 112.023 156.392C112.023 150.951 112.023 145.508 112.023 140.067C112.023 138.906 112.093 138.95 113.24 138.82C114.517 138.676 115.197 139.241 115.88 140.251C117.433 142.54 119.137 144.725 120.771 146.958C121.098 147.406 121.35 147.334 121.649 146.928C122.597 145.639 123.568 144.369 124.516 143.082C125.4 141.884 126.26 140.667 127.144 139.471C127.547 138.926 129.552 138.518 130.09 138.933C130.31 139.102 130.403 139.55 130.405 139.871C130.425 143.817 130.419 147.765 130.419 151.711C130.419 153.529 130.419 155.348 130.419 157.177L130.419 157.179Z" fill="#122315"/>
<path d="M43.3671 157.247L40.0954 157.247C40.0775 156.945 40.0471 156.687 40.0471 156.426C40.0435 150.931 40.0614 145.438 40.0274 139.943C40.0221 139.083 40.2707 138.795 41.1365 138.828C42.7392 138.887 44.351 138.752 45.9501 138.856C48.6405 139.032 50.9677 140.075 52.0016 142.723C53.1375 145.64 52.1394 149.142 48.7013 150.534C47.8033 150.899 46.7497 150.973 45.7641 151.001C43.3707 151.068 43.3707 151.027 43.3707 153.472C43.3707 154.69 43.3707 155.91 43.3707 157.244L43.3671 157.247ZM43.3761 148.011C44.2025 148.011 44.8536 148.013 45.5029 148.011C45.8589 148.011 46.2167 148.026 46.5691 147.986C47.9804 147.832 48.848 147.007 49.136 145.83C49.4365 144.601 49.0698 143.065 47.755 142.434C46.4635 141.816 45.1255 141.891 43.7803 141.907C43.6426 141.907 43.3957 142.217 43.3922 142.385C43.3635 144.222 43.3743 146.06 43.3743 148.01L43.3761 148.011Z" fill="#122315"/>
<path d="M68.2256 145.42C68.5261 145.003 68.7354 144.394 69.0556 144.33C69.7622 144.184 70.5546 144.198 71.2469 144.385C71.5063 144.455 71.7263 145.188 71.7299 145.621C71.7674 149.265 71.7621 152.91 71.7281 156.554C71.7263 156.8 71.3989 157.233 71.1932 157.253C70.3453 157.333 69.4849 157.287 68.6102 157.287C68.5208 156.888 68.451 156.581 68.4188 156.44C67.2614 156.859 66.156 157.515 64.9968 157.63C62.3136 157.892 59.77 156.331 58.8058 153.583C57.9078 151.025 58.076 148.545 59.8487 146.351C61.768 143.976 65.3009 143.262 68.0378 145.323C68.1236 145.388 68.2274 145.426 68.2238 145.424L68.2256 145.42ZM65.0612 154.816C67.2901 154.818 68.8588 153.21 68.8016 150.849C68.7461 148.529 67.3688 146.913 65.0952 146.843C63.1096 146.782 61.2976 148.529 61.362 150.834C61.4318 153.29 62.7734 154.814 65.0594 154.816L65.0612 154.816Z" fill="#122315"/>
<path d="M142.323 145.474C142.554 145.05 142.7 144.425 142.96 144.373C143.7 144.227 144.491 144.274 145.251 144.344C145.391 144.357 145.589 144.831 145.591 145.093C145.616 148.948 145.62 152.804 145.591 156.658C145.591 156.87 145.258 157.244 145.054 157.262C144.26 157.332 143.457 157.29 142.639 157.29C142.579 156.926 142.53 156.642 142.459 156.218C140.82 157.267 139.205 158.022 137.244 157.524C135.332 157.039 133.896 155.936 133.053 154.232C131.792 151.682 131.941 148.02 134.452 145.733C136.407 143.952 139.464 143.322 142.323 145.476L142.323 145.474ZM139.103 154.816C141.276 154.816 142.895 153.132 142.886 150.872C142.879 148.73 141.201 146.856 139.071 146.829C137.218 146.806 135.343 148.594 135.338 150.868C135.332 152.775 136.869 155.095 139.101 154.816L139.103 154.816Z" fill="#122315"/>
<path d="M90.0014 151.837C90.1553 153.088 90.7384 153.855 91.6149 154.419C92.7759 155.167 95.2999 155.321 96.2587 153.991C97.1334 152.779 98.3694 153.14 99.4928 153.212C100.081 153.249 99.8738 153.808 99.6681 154.195C98.7576 155.889 97.4035 156.872 95.5038 157.386C93.3554 157.968 91.4665 157.607 89.7045 156.451C87.1877 154.802 86.202 150.892 87.5275 148.012C88.3736 146.172 89.6526 144.916 91.4647 144.405C95.0011 143.41 99.0349 144.804 99.9006 149.005C99.9954 149.469 100.16 149.925 100.199 150.394C100.291 151.463 100.047 151.713 98.9669 151.715C96.323 151.718 93.6792 151.706 91.0354 151.713C90.6973 151.713 90.3592 151.794 90.0014 151.839L90.0014 151.837ZM96.8794 149.325C95.7399 146.914 94.2534 146.173 92.25 146.858C91.0533 147.268 90.1356 148.482 90.327 149.325L96.8776 149.325L96.8794 149.325Z" fill="#122315"/>
<path d="M85.5693 157.294C84.8305 157.294 84.1508 157.299 83.4728 157.29C83.2421 157.287 83.0131 157.251 82.6911 157.222C82.6911 154.976 82.7108 152.771 82.6786 150.568C82.6696 149.927 82.6035 149.253 82.396 148.653C81.9184 147.273 81.2118 146.78 79.9346 146.845C78.7379 146.906 77.5537 147.641 77.2406 148.901C77.0135 149.814 76.8847 150.768 76.8543 151.707C76.7952 153.524 76.8364 155.343 76.8364 157.226L73.96 157.226C73.9403 156.94 73.9027 156.654 73.901 156.369C73.8974 152.721 73.9188 149.075 73.8831 145.427C73.8741 144.565 74.0941 144.105 75.0297 144.252C75.1746 144.276 75.3284 144.27 75.4751 144.252C76.3713 144.146 77.0367 144.319 76.8328 145.614C77.3176 145.293 77.6646 145.057 78.017 144.829C80.0902 143.478 83.7376 143.97 85.0255 146.626C85.2527 147.095 85.5371 147.607 85.5442 148.103C85.5925 151.116 85.5675 154.133 85.5675 157.29L85.5693 157.294Z" fill="#122315"/>
<path d="M105.763 147.14C105.763 149.339 105.692 151.399 105.803 153.447C105.84 154.166 106.391 154.78 107.284 154.779C107.965 154.779 108.647 154.779 109.457 154.779C109.457 155.469 109.479 156.115 109.443 156.759C109.434 156.926 109.277 157.185 109.133 157.229C106.958 157.9 103.953 157.576 102.887 154.757C102.746 154.383 102.746 153.941 102.742 153.53C102.726 151.706 102.703 149.882 102.747 148.06C102.765 147.359 102.556 147.054 101.851 147.138C101.705 147.156 101.554 147.142 101.406 147.14C100.064 147.131 99.3398 145.958 100.023 144.772C100.189 144.483 100.746 144.292 101.13 144.281C103.043 144.224 102.692 144.373 102.733 142.621C102.78 140.684 102.298 140.81 104.611 140.776C105.429 140.763 105.821 141.011 105.737 141.904C105.667 142.637 105.722 143.381 105.722 144.26C106.676 144.26 107.529 144.287 108.38 144.253C109.184 144.22 109.489 144.545 109.477 145.365C109.452 147.086 109.434 147.14 107.74 147.14C107.117 147.14 106.497 147.14 105.763 147.14Z" fill="#122315"/>
<path d="M115.396 72.4054C114.559 72.0442 113.808 71.7513 113.083 71.3991C111.643 70.6984 111.709 70.7056 112.266 69.0794C112.806 67.4964 113.18 65.8558 113.67 64.253C114.246 62.3699 114.847 60.4958 115.478 58.6306C115.663 58.0844 116.022 57.743 116.707 58.0413C118.146 58.6648 119.618 59.2146 121.054 59.8435C121.587 60.0771 121.727 60.4958 121.406 61.0834C119.958 63.7409 118.53 66.4093 117.121 69.0884C116.62 70.0407 116.198 71.0344 115.725 72.0029C115.647 72.1628 115.496 72.2868 115.398 72.4036L115.396 72.4054Z" fill="#122315"/>
<path d="M70.4237 80.9853C70.7939 79.997 71.1517 79.0051 71.5381 78.0241C71.7295 77.5371 71.9656 77.0663 72.1982 76.5974C72.4861 76.0206 72.7741 75.6648 73.5433 76.0924C75.8831 77.3934 78.2658 78.617 80.6431 79.8497C81.8308 80.466 83.0365 81.0518 84.2493 81.616C84.8199 81.8819 84.8897 82.1748 84.5981 82.7336C84.1956 83.5063 83.9023 84.3346 83.566 85.1414C83.3799 85.5871 83.2744 85.7937 82.6143 85.5601C80.5733 84.836 78.4536 84.3328 76.3839 83.686C74.9618 83.2422 73.5702 82.6941 72.1606 82.209C71.9137 82.1245 71.6383 82.1209 71.3789 82.0688C70.8172 81.9556 70.4541 81.6753 70.4219 80.9871L70.4237 80.9853Z" fill="#122315"/>
<path d="M126.681 85.8546C126.381 85.1915 126.082 84.5429 125.796 83.8888C125.737 83.7558 125.751 83.5887 125.69 83.4576C124.98 81.9302 124.992 81.9608 126.563 81.1612C128.799 80.0238 131.012 78.8414 133.235 77.6789C134.207 77.1703 135.16 76.6277 136.155 76.1695C137.031 75.767 137.475 75.9467 137.829 76.811C138.392 78.1874 138.952 79.5692 139.43 80.9761C139.679 81.7056 138.947 81.8835 138.505 82.0309C135.89 82.9023 133.255 83.7217 130.622 84.5393C129.536 84.8753 128.434 85.1574 127.345 85.4808C127.161 85.5347 127.001 85.6695 126.679 85.8546L126.681 85.8546Z" fill="#122315"/>
<path d="M122.423 77.9195C122.24 77.7829 122.103 77.7002 121.99 77.5906C121.283 76.9132 120.604 76.207 119.874 75.5584C119.455 75.1864 119.505 74.9241 119.838 74.5306C122.414 71.4813 124.976 68.4194 127.532 65.3522C128.024 64.7628 128.528 64.6999 129.07 65.239C130.14 66.3045 131.188 67.3881 132.258 68.4536C132.785 68.9801 132.571 69.4059 132.106 69.7976C130.081 71.5011 128.05 73.1973 126.022 74.8971C125.008 75.7471 123.993 76.6006 122.979 77.4523C122.807 77.596 122.636 77.7416 122.423 77.9177L122.423 77.9195Z" fill="#122315"/>
<path d="M106.983 69.8792C105.675 69.8792 104.462 69.9026 103.253 69.8541C103.083 69.8469 102.802 69.5019 102.784 69.2952C102.611 67.2522 102.502 65.2038 102.337 63.1608C102.187 61.2938 101.983 59.4323 101.824 57.5671C101.725 56.4099 101.988 56.1063 103.129 56.0793C104.376 56.0506 105.627 56.047 106.873 56.0793C107.875 56.1045 108.154 56.4944 108.067 57.4809C107.925 59.0855 107.839 60.6955 107.696 62.3001C107.476 64.7797 107.229 67.2576 106.981 69.881L106.983 69.8792Z" fill="#122315"/>
<path d="M93.6554 57.9553C93.8289 58.1081 94.2242 58.2913 94.3351 58.5824C94.6893 59.515 94.9308 60.4889 95.2295 61.443C95.5694 62.5337 95.9343 63.6172 96.2706 64.7097C96.6516 65.9424 97.0094 67.184 97.385 68.4184C97.5639 69.0042 97.6945 69.6152 97.9646 70.156C98.2329 70.6915 98.0469 70.9359 97.5925 71.1191C96.7518 71.4587 95.8431 71.6798 95.081 72.1469C94.4299 72.5458 94.2546 72.2278 94.0203 71.7804C93.2493 70.307 92.4837 68.8299 91.7181 67.3547C90.6234 65.2434 89.5071 63.1411 88.4625 61.0028C88.3337 60.7405 88.4804 60.0594 88.6843 59.9606C90.1279 59.2706 91.6197 58.6795 93.0973 58.0631C93.2046 58.0182 93.3298 58.0164 93.6518 57.9553L93.6554 57.9553Z" fill="#122315"/>
<path d="M90.3408 75.0376C90.1762 75.2873 90.0653 75.5281 89.8918 75.7078C89.3283 76.2882 88.7237 76.8272 88.1728 77.4202C87.7506 77.873 87.3982 77.9557 86.8956 77.5136C85.6542 76.4247 84.3752 75.379 83.1105 74.317C81.3396 72.8292 79.5687 71.3414 77.7924 69.859C77.2719 69.4242 77.0143 69.0342 77.6421 68.4323C78.7083 67.4081 79.6957 66.303 80.7439 65.259C81.311 64.6948 81.8297 64.7541 82.3574 65.4172C83.6275 67.0146 84.9386 68.5796 86.2534 70.1411C87.3893 71.4888 88.5574 72.8112 89.7022 74.1517C89.9222 74.4105 90.1029 74.7051 90.3426 75.0394L90.3408 75.0376Z" fill="#122315"/>
<path d="M53.4883 157.294C53.4883 153.374 53.4883 149.645 53.4883 145.915C53.4883 143.645 53.4919 141.376 53.4954 139.107C53.4954 138.036 53.6224 137.887 54.6456 137.903C56.6079 137.933 56.6133 137.498 56.6115 139.881C56.6079 145.318 56.5936 150.757 56.6276 156.195C56.633 157.039 56.4201 157.402 55.5347 157.309C54.8943 157.241 54.2414 157.296 53.4883 157.296L53.4883 157.294Z" fill="#122315"/>
<path d="M150.905 157.244L147.93 157.244C147.93 156.637 147.93 156.076 147.93 155.516C147.93 152.107 147.954 148.698 147.914 145.292C147.905 144.461 148.168 144.127 148.982 144.257C149.07 144.271 149.161 144.258 149.251 144.258C150.219 144.258 150.787 144.723 150.955 145.651C150.97 145.726 151.038 145.791 151.102 145.894C151.989 144.727 153.104 144.086 154.565 144.237C154.794 144.26 155.18 144.429 155.195 144.564C155.284 145.351 155.316 146.149 155.275 146.939C155.27 147.047 154.73 147.227 154.452 147.202C153.274 147.096 152.238 147.354 151.644 148.44C151.293 149.081 150.986 149.832 150.95 150.547C150.851 152.456 150.911 154.373 150.907 156.287C150.907 156.58 150.907 156.871 150.907 157.244L150.905 157.244Z" fill="#122315"/>
</g>
<rect x="0.5" y="0.5" width="210" height="210" rx="19.5" stroke="#122315" stroke-opacity="0.18"/>
<defs>
<clipPath id="clip0_9087_96899">
<rect width="144" height="116" fill="white" transform="translate(32.8711 48.8679)"/>
</clipPath>
</defs>
</svg>
