<svg width="198" height="198" viewBox="0 0 198 198" fill="none" xmlns="http://www.w3.org/2000/svg">
<path d="M99.4551 197.857C153.83 197.857 197.91 153.778 197.91 99.4024C197.91 45.0271 153.83 0.947266 99.4551 0.947266C45.0798 0.947266 1 45.0271 1 99.4024C1 153.778 45.0798 197.857 99.4551 197.857Z" fill="#FFAA85"/>
<path d="M99.7421 190.703C49.3987 190.703 8.44141 149.746 8.44141 99.4023C8.44141 49.0589 49.3987 8.10156 99.7421 8.10156C150.085 8.10156 191.043 49.0589 191.043 99.4023C191.043 149.746 150.085 190.703 99.7421 190.703ZM99.7421 9.30092C50.0551 9.30092 9.6348 49.7212 9.6348 99.4082C9.6348 149.095 50.0551 189.516 99.7421 189.516C149.429 189.516 189.849 149.095 189.849 99.4082C189.849 49.7212 149.429 9.29496 99.7421 9.29496V9.30092Z" fill="#122315"/>
<path d="M43.0481 56.5417L46.849 51.613L49.3313 53.5284L42.2127 62.7593L36.5679 49.9065L33.3338 54.1013L30.8516 52.1859L37.4272 43.6531L43.0421 56.5417H43.0481Z" fill="#122315"/>
<path d="M49.2813 36.8146L44.9791 40.711L46.9482 42.8889L50.4329 39.7324L52.4915 42.0058L49.0068 45.1624L51.143 47.5193L55.4452 43.6229L57.5515 45.944L50.6656 52.1855L40.2891 40.7349L47.1749 34.4934L49.2813 36.8146Z" fill="#122315"/>
<path d="M68.6962 38.6764L65.665 40.5739C64.1076 37.9544 61.6074 37.119 59.3579 38.3124L62.1385 42.7697L59.1789 44.6195L50.9922 31.51L55.2228 28.8667C58.0153 27.1243 60.8675 27.6076 62.4309 30.1197C63.4572 31.7666 63.3975 33.503 62.3115 34.9291C64.752 34.7083 67.0672 35.9972 68.6902 38.6823L68.6962 38.6764ZM55.533 32.1903L57.8124 35.8421L58.6359 35.3289C59.8889 34.5472 60.2529 33.33 59.5608 32.2261C58.8567 31.1043 57.5917 30.9074 56.3147 31.701L55.5271 32.1903H55.533Z" fill="#122315"/>
<path d="M65.9995 31.1582C64.4003 26.7844 66.4887 22.4464 70.9282 20.8293C75.3855 19.2003 79.7533 21.1814 81.3525 25.5552C82.9516 29.929 80.8871 34.255 76.4238 35.884C71.9843 37.5011 67.5986 35.532 66.0054 31.1582H65.9995ZM77.9632 26.7903C77.0324 24.2424 74.5561 23.055 72.0679 23.962C69.5975 24.863 68.4698 27.3691 69.4006 29.917C70.3315 32.4709 72.8078 33.6583 75.2781 32.7513C77.7663 31.8444 78.9001 29.3382 77.9692 26.7844L77.9632 26.7903Z" fill="#122315"/>
<path d="M97.2996 16.0735L100.784 15.8706L101.679 31.3012L98.1947 31.5041L97.8247 25.1552L92.4903 25.4655L92.8602 31.8144L89.3755 32.0172L88.4805 16.5866L91.9652 16.3838L92.3053 22.3149L97.6398 22.0047L97.2937 16.0735H97.2996Z" fill="#122315"/>
<path d="M104.146 25.6266L105.566 16.0854L109.015 16.5986L107.595 26.1398C107.326 27.9538 108.192 29.177 109.85 29.4216C111.509 29.6663 112.697 28.7533 112.965 26.9394L114.385 17.3982L117.834 17.9113L116.414 27.4525C115.853 31.2296 113.18 33.1331 109.379 32.5662C105.578 31.9994 103.579 29.4037 104.14 25.6266H104.146Z" fill="#122315"/>
<path d="M131.167 22.3211L134.437 23.5384L129.055 38.0202L125.827 36.8208L123.523 26.0982L120.301 34.7682L117.031 33.5509L122.413 19.0691L125.809 20.3281L127.855 31.2358L131.173 22.3151L131.167 22.3211Z" fill="#122315"/>
<path d="M140.907 34.7683L146.379 38.3007L142.464 44.3691C140.525 44.6436 138.58 44.2796 136.742 43.0981C132.714 40.5025 131.748 35.8542 134.26 31.9578C136.796 28.0256 141.462 27.0649 145.43 29.6247C146.468 30.293 147.22 31.0449 147.709 31.9578L145.675 35.1143C145.245 33.9448 144.63 33.1035 143.688 32.4948C141.402 31.021 138.789 31.6177 137.291 33.9388C135.781 36.2779 136.312 38.9571 138.574 40.419C139.206 40.8247 139.875 41.0515 140.579 41.135L141.945 39.0227L139.272 37.2982L140.901 34.7742L140.907 34.7683Z" fill="#122315"/>
<path d="M157.851 44.4346L153.65 40.4248L151.621 42.549L155.023 45.7951L152.904 48.0148L149.503 44.7688L147.307 47.066L151.508 51.0759L149.342 53.3433L142.617 46.9228L153.286 35.7407L160.011 42.1612L157.845 44.4286L157.851 44.4346Z" fill="#122315"/>
<path d="M157.282 63.7618L155.164 60.8798C157.658 59.1314 158.302 56.5776 156.942 54.4235L152.705 57.5323L150.641 54.7218L163.094 45.5745L166.047 49.5962C167.993 52.2455 167.73 55.1276 165.343 56.8819C163.78 58.0335 162.044 58.0991 160.534 57.1265C160.94 59.5432 159.83 61.9478 157.276 63.7678L157.282 63.7618ZM162.76 50.1511L159.287 52.699L159.86 53.4807C160.737 54.6741 161.972 54.9426 163.022 54.1729C164.09 53.3912 164.192 52.1083 163.303 50.897L162.754 50.1511H162.76Z" fill="#122315"/>
<path d="M35.0476 146.887L38.8068 151.846L36.3126 153.743L29.2656 144.459L43.1508 142.376L39.9465 138.158L42.4467 136.26L48.9566 144.841L35.0476 146.887Z" fill="#122315"/>
<path d="M54.0595 153.887L49.8409 149.895L47.8241 152.031L51.2431 155.265L49.1368 157.497L45.7177 154.263L43.5338 156.572L47.7525 160.564L45.5984 162.843L38.8438 156.453L49.465 145.223L56.2196 151.607L54.0655 153.887H54.0595Z" fill="#122315"/>
<path d="M58.2974 171.794L55.3199 169.819C57.0563 167.318 56.7818 164.699 54.759 163.148L51.8591 167.527L48.9531 165.6L57.4859 152.717L61.6449 155.474C64.3837 157.288 65.1296 160.086 63.4947 162.551C62.4206 164.168 60.8214 164.83 59.0672 164.436C60.2785 166.561 60.0636 169.204 58.2974 171.794ZM58.7449 157.133L56.3701 160.719L57.1816 161.256C58.4168 162.074 59.6698 161.9 60.3859 160.814C61.1198 159.711 60.7737 158.475 59.5207 157.646L58.7449 157.133Z" fill="#122315"/>
<path d="M63.2932 166.012C65.0534 161.697 69.5167 159.895 73.8905 161.686C78.2882 163.482 80.1857 167.885 78.4195 172.199C76.6592 176.513 72.2198 178.321 67.8221 176.525C63.4483 174.735 61.5269 170.326 63.2932 166.012ZM75.0899 170.833C76.1162 168.321 75.0839 165.773 72.6315 164.77C70.197 163.774 67.6789 164.872 66.6526 167.384C65.6263 169.896 66.6585 172.444 69.0931 173.44C71.5455 174.443 74.0695 173.351 75.0958 170.839L75.0899 170.833Z" fill="#122315"/>
<path d="M94.8559 166.883L98.3227 167.253L96.6817 182.618L93.2149 182.248L93.8892 175.923L88.5786 175.356L87.9043 181.681L84.4375 181.311L86.0784 165.946L89.5452 166.316L88.9127 172.224L94.2234 172.79L94.8559 166.883Z" fill="#122315"/>
<path d="M100.894 176.871L99.9688 167.265L103.442 166.93L104.366 176.537C104.539 178.363 105.679 179.342 107.35 179.181C109.021 179.02 109.951 177.844 109.772 176.018L108.848 166.411L112.32 166.077L113.245 175.684C113.609 179.485 111.479 181.973 107.654 182.343C103.829 182.713 101.264 180.672 100.894 176.871Z" fill="#122315"/>
<path d="M122.752 162.98L126.082 161.93L130.73 176.669L127.442 177.707L119.041 170.654L121.822 179.479L118.492 180.529L113.844 165.791L117.299 164.705L125.611 172.062L122.752 162.986V162.98Z" fill="#122315"/>
<path d="M135.996 163.947L141.67 160.755L145.209 167.044C144.546 168.888 143.317 170.439 141.414 171.513C137.243 173.864 132.678 172.557 130.404 168.518C128.107 164.442 129.438 159.866 133.555 157.55C134.635 156.942 135.643 156.625 136.682 156.625L138.52 159.895C137.284 159.728 136.258 159.877 135.274 160.432C132.911 161.763 132.212 164.359 133.567 166.763C134.933 169.186 137.547 169.968 139.898 168.649C140.554 168.279 141.061 167.79 141.467 167.211L140.232 165.015L137.463 166.572L135.99 163.959L135.996 163.947Z" fill="#122315"/>
<path d="M148.267 150.981L143.786 154.675L145.653 156.942L149.281 153.953L151.232 156.322L147.605 159.311L149.627 161.764L154.109 158.07L156.101 160.493L148.929 166.4L139.102 154.472L146.274 148.559L148.267 150.981Z" fill="#122315"/>
<path d="M166.576 148.994L164.242 151.703C161.975 149.668 159.344 149.614 157.554 151.428L161.539 154.853L159.266 157.497L147.547 147.424L150.799 143.641C152.941 141.147 155.811 140.759 158.055 142.687C159.529 143.952 159.982 145.622 159.373 147.317C161.635 146.38 164.225 146.917 166.576 148.994ZM152.082 146.72L155.346 149.525L155.978 148.791C156.945 147.669 156.927 146.404 155.936 145.557C154.934 144.692 153.663 144.882 152.684 146.022L152.082 146.726V146.72Z" fill="#122315"/>
<path d="M23.9619 108.52C20.7039 108.729 18.4305 107.124 18.2634 104.534C18.0963 101.926 20.143 100.065 23.4069 99.8558C26.653 99.6469 28.9383 101.234 29.1054 103.842C29.2725 106.431 27.2079 108.317 23.9619 108.52ZM23.5561 102.207C21.593 102.332 20.3459 103.203 20.4235 104.397C20.501 105.59 21.8436 106.294 23.8127 106.169C25.7639 106.044 27.005 105.172 26.9334 103.979C26.8559 102.786 25.5133 102.081 23.5621 102.207H23.5561Z" fill="#122315"/>
<path d="M26.9168 92.7016L28.9873 92.803L28.689 99.0325L26.7974 98.943C24.5181 96.3235 23.0382 95.1301 21.815 95.0764C20.9677 95.0346 20.3173 95.5299 20.2755 96.407C20.2457 97.0634 20.5381 97.7914 21.3257 98.4716L18.8375 98.3523C18.3422 97.493 18.1513 96.7531 18.1931 95.9178C18.2945 93.8174 19.7146 92.5703 21.6658 92.6658C23.0681 92.7314 24.1958 93.4773 26.7616 96.0789L26.9227 92.7135L26.9168 92.7016Z" fill="#122315"/>
<path d="M175.02 90.8397C178.284 90.6667 180.54 92.2897 180.677 94.8794C180.82 97.487 178.75 99.3308 175.492 99.5098C172.246 99.6828 169.978 98.0777 169.835 95.4701C169.692 92.8805 171.774 91.0188 175.02 90.8397ZM175.36 97.1588C177.33 97.0514 178.583 96.1921 178.517 94.9987C178.451 93.8053 177.115 93.0893 175.146 93.1967C173.194 93.3041 171.941 94.1634 172.007 95.3508C172.073 96.5382 173.409 97.2602 175.36 97.1588Z" fill="#122315"/>
<path d="M171.914 106.629L169.844 106.509L170.208 100.286L172.099 100.393C174.349 103.036 175.823 104.242 177.04 104.313C177.887 104.361 178.544 103.878 178.597 103.001C178.633 102.344 178.347 101.61 177.565 100.924L180.053 101.067C180.543 101.933 180.722 102.672 180.674 103.508C180.554 105.608 179.122 106.837 177.171 106.724C175.769 106.64 174.647 105.889 172.111 103.263L171.914 106.629Z" fill="#122315"/>
<path d="M149.807 82.7607C149.807 110.43 127.377 132.865 99.7024 132.865C72.0275 132.865 49.5977 110.436 49.5977 82.7607" fill="#122315"/>
<path d="M80.6719 140.068C80.6719 129.554 89.1927 121.033 99.7065 121.033C110.22 121.033 118.741 129.554 118.741 140.068" fill="#122315"/>
<path d="M136.072 104.188C130.523 115.072 119.15 123.42 106.81 124.327L106.5 122.483C117.754 119.499 127.886 112.989 134.437 103.221L136.072 104.188Z" fill="#FFAA85"/>
<path d="M84.0445 54.3998C83.1315 57.2878 83.6029 60.2534 85.0469 62.9684C85.9718 64.842 86.5804 67.008 86.473 69.2098C86.3716 71.4295 85.5959 73.6373 84.0445 75.2603L81.6935 73.6433C81.6696 73.6134 81.7054 73.5001 81.7173 73.4165C82.2902 70.5524 81.9799 67.7002 80.7805 64.9971C78.9546 61.2558 78.7697 56.0228 81.6935 52.6873L84.0445 54.3938V54.3998Z" fill="#122315"/>
<path d="M99.2242 54.3998C98.3112 57.2878 98.7826 60.2534 100.227 62.9684C101.151 64.842 101.76 67.008 101.653 69.2098C101.551 71.4295 100.776 73.6373 99.2242 75.2603L96.8732 73.6433C96.8493 73.6134 96.8851 73.5001 96.897 73.4165C97.4699 70.5524 97.1596 67.7002 95.9602 64.9971C94.1343 61.2558 93.9494 56.0168 96.8732 52.6873L99.2242 54.3938V54.3998Z" fill="#122315"/>
<path d="M114.404 54.3998C113.491 57.2878 113.962 60.2534 115.406 62.9684C116.331 64.842 116.94 67.008 116.832 69.2098C116.731 71.4295 115.955 73.6373 114.404 75.2603L112.053 73.6433C112.029 73.6134 112.065 73.5001 112.077 73.4165C112.65 70.5524 112.339 67.7002 111.14 64.9971C109.314 61.2558 109.129 56.0168 112.053 52.6873L114.404 54.3938V54.3998Z" fill="#122315"/>
</svg>
