<svg width="198" height="198" viewBox="0 0 198 198" fill="none" xmlns="http://www.w3.org/2000/svg">
<g clip-path="url(#clip0_9087_97296)">
<path d="M99.0136 197.857C153.389 197.857 197.469 153.777 197.469 99.4023C197.469 45.0271 153.389 0.947266 99.0136 0.947266C44.6384 0.947266 0.558594 45.0271 0.558594 99.4023C0.558594 153.777 44.6384 197.857 99.0136 197.857Z" fill="#55DD4A"/>
<path d="M99.5858 191.096C49.2424 191.096 8.28516 150.139 8.28516 99.7957C8.28516 49.4524 49.2424 8.49512 99.5858 8.49512C149.929 8.49512 190.886 49.4524 190.886 99.7957C190.886 150.139 149.929 191.096 99.5858 191.096ZM99.5858 9.69447C49.8988 9.69447 9.47855 50.1147 9.47855 99.8017C9.47855 149.489 49.8988 189.909 99.5858 189.909C149.273 189.909 189.693 149.489 189.693 99.8017C189.693 50.1147 149.273 9.69447 99.5858 9.69447Z" fill="#122315"/>
<path d="M29.9393 70.4285C25.8519 68.3341 24.3661 63.7276 26.4725 59.6224C27.0334 58.5244 27.7554 57.701 28.7996 56.967L32.2007 58.7094C31.0014 59.1152 30.0646 59.9207 29.5096 61.0007C28.3103 63.3398 29.1935 65.9772 31.5922 67.2064C33.967 68.4236 36.6462 67.6121 37.8456 65.2731C38.4005 64.1931 38.5079 62.9579 38.1379 61.7526L41.5153 63.483C41.5033 64.8673 41.2646 65.9115 40.7097 66.9916C38.6272 71.061 34.0267 72.5229 29.9393 70.4285Z" fill="#122315"/>
<path d="M42.7913 57.4442L46.1626 52.9929L48.6628 54.8844L43.1851 62.1164L30.8633 52.784L32.9696 50.0034L42.7913 57.4383V57.4442Z" fill="#122315"/>
<path d="M50.0276 53.5961L38.9648 42.8078L41.3993 40.3076L52.4621 51.0959L50.0276 53.5961Z" fill="#122315"/>
<path d="M53.2551 30.593L57.8258 27.3052L66.8538 39.8477L64.0195 41.8885L56.7696 31.8162L61.3284 43.8217L59.0729 45.4448L49.4481 37.5147L56.4892 47.3005L53.6608 49.3412L44.6328 36.7986L49.2393 33.481L56.9009 39.9313L53.2491 30.587L53.2551 30.593Z" fill="#122315"/>
<path d="M77.6981 35.4747L75.8842 33.0879L70.9077 35.0868L71.2478 38.0643L67.7034 39.4845L66.8203 23.1827L70.6093 21.6611L81.2425 34.0426L77.6981 35.4627V35.4747ZM70.5377 31.9243L73.9569 30.5519L69.7501 24.9847L70.5377 31.9243Z" fill="#122315"/>
<path d="M87.9451 20.27L84.3649 21.0458L86.9725 33.0871L83.5415 33.833L80.9339 21.7916L77.3537 22.5673L76.6914 19.5063L87.2828 17.209L87.9451 20.27Z" fill="#122315"/>
<path d="M99.6061 19.4764L93.8122 19.8106L93.9793 22.7403L98.6753 22.4718L98.8543 25.5329L94.1583 25.8014L94.3432 28.9758L100.137 28.6417L100.316 31.7743L91.0376 32.3113L90.1484 16.8808L99.4271 16.3438L99.6061 19.4764Z" fill="#122315"/>
<path d="M116.118 33.8868L115.897 30.8973L110.635 29.8591L109.298 32.5442L105.551 31.8043L113.696 17.6626L117.7 18.4562L119.866 34.6327L116.118 33.8928V33.8868ZM112.055 27.0069L115.671 27.7229L115.176 20.7654L112.055 27.0129V27.0069Z" fill="#122315"/>
<path d="M122.104 27.3887C123.817 23.1283 128.268 21.2308 132.546 22.9493C133.692 23.4088 134.575 24.0532 135.399 25.0258L133.978 28.5702C133.465 27.4126 132.576 26.5534 131.448 26.1058C129.014 25.1273 126.466 26.2431 125.464 28.7432C124.467 31.2195 125.523 33.8092 127.958 34.7878C129.086 35.2413 130.321 35.2413 131.49 34.7579L130.076 38.2785C128.698 38.3918 127.636 38.2486 126.514 37.8011C122.271 36.1005 120.398 31.6551 122.104 27.3947V27.3887Z" fill="#122315"/>
<path d="M145.775 34.0897L142.648 32.1802L136.234 42.694L133.238 40.8622L139.659 30.3484L136.532 28.4389L138.167 25.7598L147.422 31.4045L145.787 34.0837L145.775 34.0897Z" fill="#122315"/>
<path d="M139.91 45.2473L149.469 33.1045L152.208 35.2645L142.649 47.4073L139.91 45.2473Z" fill="#122315"/>
<path d="M149.288 42.3595C152.713 39.2029 157.517 39.4535 160.721 42.9263C163.943 46.417 163.794 51.2085 160.369 54.365C156.944 57.5215 152.158 57.2829 148.942 53.7981C145.738 50.3254 145.869 45.516 149.294 42.3595H149.288ZM157.928 51.7216C159.921 49.8779 160.065 47.139 158.269 45.1878C156.484 43.2545 153.74 43.1769 151.747 45.0207C149.754 46.8645 149.611 49.6093 151.389 51.5367C153.185 53.4819 155.93 53.5595 157.928 51.7216Z" fill="#122315"/>
<path d="M173.119 60.9236L174.849 63.9548L161.423 71.6104L159.717 68.621L164.83 58.9187L156.793 63.5013L155.062 60.4701L168.488 52.8145L170.284 55.959L164.854 65.6375L173.119 60.9236Z" fill="#122315"/>
<path d="M30.2806 130.406C34.3083 128.198 38.9565 129.558 41.1703 133.604C41.767 134.69 42.0415 135.746 42.0594 137.017L38.7119 138.855C39.052 137.638 38.9088 136.409 38.324 135.341C37.059 133.037 34.3859 132.285 32.023 133.58C29.6779 134.863 28.8544 137.536 30.1135 139.84C30.6982 140.902 31.6529 141.689 32.8642 142.059L29.5347 143.885C28.401 143.098 27.667 142.316 27.0823 141.248C24.8864 137.238 26.2529 132.614 30.2806 130.406Z" fill="#122315"/>
<path d="M36.0853 148.491L39.5462 152.871L37.0878 154.816L31.4609 147.698L43.5859 138.115L45.7459 140.854L36.0794 148.491H36.0853Z" fill="#122315"/>
<path d="M39.0195 156.756L50.0106 145.896L52.4631 148.379L41.4719 159.239L39.0195 156.756Z" fill="#122315"/>
<path d="M61.9939 156.064L66.5645 159.351L57.5425 171.9L54.7081 169.865L61.9521 159.793L52.023 167.932L49.7676 166.309L54.2249 154.667L47.1898 164.453L44.3555 162.418L53.3775 149.87L57.984 153.182L54.3024 162.496L61.9998 156.064H61.9939Z" fill="#122315"/>
<path d="M69.2991 177.199L69.7347 174.233L64.8179 172.079L62.9263 174.406L59.4297 172.873L70.4507 160.832L74.192 162.472L72.7957 178.738L69.2991 177.205V177.199ZM66.8228 169.603L70.2001 171.083L71.2264 164.179L66.8228 169.603Z" fill="#122315"/>
<path d="M86.7378 169.532L83.1935 168.601L80.0667 180.517L76.6716 179.628L79.7983 167.712L76.2539 166.781L77.0475 163.75L87.5314 166.501L86.7378 169.532Z" fill="#122315"/>
<path d="M97.9927 170.605L92.2107 170.104L91.9601 173.028L96.6442 173.433L96.3757 176.488L91.6916 176.083L91.4171 179.251L97.2051 179.752L96.9365 182.879L87.6758 182.073L89.0124 166.679L98.2731 167.484L98.0046 170.605H97.9927Z" fill="#122315"/>
<path d="M115.881 181.287L114.658 178.548L109.354 179.365L109.008 182.343L105.23 182.928L108.065 166.853L112.104 166.232L119.653 180.702L115.876 181.287H115.881ZM109.718 176.209L113.363 175.648L110.523 169.275L109.718 176.215V176.209Z" fill="#122315"/>
<path d="M118.131 173.034C116.663 168.684 118.811 164.346 123.179 162.872C124.349 162.478 125.441 162.389 126.7 162.591L127.923 166.207C126.783 165.658 125.548 165.587 124.397 165.975C121.908 166.816 120.703 169.316 121.562 171.87C122.415 174.4 124.898 175.683 127.386 174.842C128.538 174.454 129.474 173.648 130.053 172.52L131.27 176.119C130.298 177.097 129.397 177.682 128.251 178.07C123.919 179.532 119.605 177.378 118.137 173.028L118.131 173.034Z" fill="#122315"/>
<path d="M138.927 158.862L135.728 160.646L141.731 171.404L138.67 173.117L132.667 162.359L129.469 164.143L127.941 161.404L137.405 156.123L138.933 158.862H138.927Z" fill="#122315"/>
<path d="M147.83 167.479L138.629 155.061L141.433 152.985L150.634 165.402L147.83 167.479Z" fill="#122315"/>
<path d="M148.028 158.123C144.699 154.865 144.705 150.055 148.011 146.678C151.328 143.283 156.12 143.181 159.455 146.439C162.785 149.697 162.791 154.489 159.473 157.884C156.167 161.261 151.364 161.381 148.034 158.123H148.028ZM156.937 149.017C154.998 147.119 152.247 147.119 150.397 149.017C148.56 150.897 148.625 153.641 150.564 155.539C152.504 157.436 155.254 157.436 157.092 155.557C158.948 153.665 158.882 150.914 156.943 149.017H156.937Z" fill="#122315"/>
<path d="M159.075 132.452L160.907 129.48L174.07 137.584L172.262 140.519L161.294 140.686L169.171 145.538L167.339 148.509L154.176 140.406L156.073 137.321L167.178 137.44L159.075 132.452Z" fill="#122315"/>
<path d="M28.9107 101.574L29.0241 103.943L20.6942 104.331L20.742 105.375L18.6416 105.477L18.4805 102.064L28.9107 101.574Z" fill="#122315"/>
<path d="M26.148 93.9189C27.95 93.9846 29.209 95.4823 29.1314 97.6006C29.0956 98.5255 28.8092 99.4086 28.2901 100.125L26.1122 100.041C26.6731 99.3907 26.9655 98.7462 26.9893 98.06C27.0251 97.0934 26.5717 96.4191 25.8139 96.3893C25.0859 96.3654 24.5548 96.9681 24.507 98.1316C24.4951 98.3822 24.507 98.8656 24.507 99.0565L22.705 98.9909C22.7348 98.6508 22.7588 98.3524 22.7647 98.1734C22.8005 97.1292 22.3351 96.4549 21.6071 96.4251C20.9507 96.4012 20.4972 96.9382 20.4674 97.7557C20.4435 98.424 20.7001 99.1401 21.2133 99.7845L18.9459 99.7009C18.4983 98.8178 18.2775 97.9884 18.3074 97.1113C18.379 95.2198 19.5604 93.8891 21.3088 93.9547C22.3828 93.9965 23.1227 94.5276 23.5941 95.5778C24.1729 94.4202 25.0142 93.8831 26.148 93.9249V93.9189Z" fill="#122315"/>
<path d="M170.292 98.8907L170.215 96.5218L178.545 96.2593L178.515 95.2151L180.615 95.1494L180.723 98.5625L170.286 98.8907H170.292Z" fill="#122315"/>
<path d="M172.952 106.588C171.15 106.493 169.915 104.983 170.022 102.865C170.07 101.94 170.368 101.063 170.899 100.353L173.077 100.466C172.504 101.111 172.206 101.749 172.17 102.435C172.123 103.402 172.564 104.082 173.322 104.124C174.05 104.16 174.593 103.563 174.652 102.399C174.664 102.143 174.658 101.666 174.67 101.475L176.472 101.57C176.437 101.91 176.407 102.208 176.401 102.388C176.347 103.432 176.807 104.112 177.535 104.148C178.191 104.184 178.65 103.653 178.692 102.835C178.728 102.167 178.483 101.451 177.976 100.794L180.244 100.914C180.673 101.803 180.888 102.638 180.84 103.515C180.739 105.407 179.539 106.72 177.791 106.63C176.717 106.576 175.983 106.027 175.53 104.971C174.933 106.123 174.08 106.642 172.952 106.582V106.588Z" fill="#122315"/>
<path d="M135.631 61.0162C118.888 59.4946 105.062 59.7273 94.1068 61.6785C83.1514 63.6297 74.9051 67.371 69.4453 72.8308C61.7122 80.564 57.8933 89.6517 57.8634 99.9626C57.8396 108.627 60.5963 116.437 66.0859 123.323L62.285 129.971C65.167 133.246 68.777 136.128 72.8048 138.796L77.984 133.777C83.6646 137.113 89.9001 138.784 96.6905 138.796C107.043 138.808 116.089 134.947 123.822 127.214C129.282 121.754 133.029 113.508 134.975 102.552C136.968 91.5551 137.2 77.7297 135.637 61.0281L135.631 61.0162ZM99.9425 95.7797C93.0865 102.904 86.8749 110.578 80.359 118.048L78.3361 116.563C83.605 107.988 89.9061 100.064 96.971 92.8858C104.042 85.6896 111.996 79.287 120.702 74.1793L122.116 76.3095C114.186 82.193 106.775 88.6611 99.9485 95.7797H99.9425Z" fill="#122315"/>
</g>
<defs>
<clipPath id="clip0_9087_97296">
<rect width="198" height="198" fill="white"/>
</clipPath>
</defs>
</svg>
