<svg width="198" height="198" viewBox="0 0 198 198" fill="none" xmlns="http://www.w3.org/2000/svg">
<g clip-path="url(#clip0_9087_97371)">
<path d="M119.482 195.705C172.669 184.4 206.621 132.119 195.315 78.932C184.01 25.745 131.729 -8.20683 78.5418 3.09841C25.3548 14.4037 -8.59701 66.6849 2.70823 119.872C14.0135 173.059 66.2947 207.011 119.482 195.705Z" fill="#F0652A"/>
<path d="M117.993 188.707C68.7498 199.174 20.1721 167.628 9.70512 118.384C-0.761845 69.1411 30.7849 20.5634 80.0281 10.0964C129.271 -0.37056 177.849 31.1762 188.316 80.4194C198.783 129.663 167.236 178.24 117.993 188.707ZM80.2774 11.2696C31.6762 21.6001 0.543177 69.5409 10.8737 118.142C21.2042 166.743 69.1449 197.876 117.746 187.546C166.347 177.215 197.48 129.275 187.15 80.6734C176.819 32.0722 128.872 0.934463 80.2762 11.2637L80.2774 11.2696Z" fill="#122315"/>
<path d="M23.5266 86.2913L24.6079 79.8697L31.7248 81.0654C32.7385 82.7349 33.1795 84.6665 32.8146 86.8243C32.0196 91.5502 28.1389 94.2722 23.5655 93.5057C18.9533 92.7292 16.2263 88.8251 17.0117 84.1684C17.2158 82.9477 17.6042 81.9623 18.2557 81.1528L21.9567 81.7753C21.053 82.6323 20.523 83.5257 20.3316 84.634C19.8816 87.31 21.4654 89.4806 24.1861 89.9394C26.9313 90.399 29.1831 88.8528 29.6251 86.1968C29.7484 85.4568 29.6908 84.7553 29.4906 84.0719L27.0104 83.6536L26.4817 86.7917L23.5208 86.2925L23.5266 86.2913Z" fill="#122315"/>
<path d="M25.8907 66.4767L23.8355 71.9036L26.5818 72.9425L28.2457 68.5444L31.1178 69.6298L29.454 74.0279L32.426 75.1531L34.4813 69.7262L37.4134 70.8354L34.1183 79.5272L19.6682 74.0522L22.9632 65.3604L25.8953 66.4697L25.8907 66.4767Z" fill="#122315"/>
<path d="M29.9481 52.8692L31.7825 49.905L44.9201 58.0442L43.1086 60.9731L32.1458 61.1133L40.0068 65.9819L38.1723 68.9461L25.0348 60.8069L26.9427 57.7294L38.0402 57.8778L29.9539 52.868L29.9481 52.8692Z" fill="#122315"/>
<path d="M49.7184 41.7135C53.0246 44.9271 53.028 49.3918 49.7104 52.8116L46.2518 56.3712L35.1669 45.6056L38.6256 42.0461C41.949 38.625 46.4122 38.4999 49.7184 41.7135ZM47.3542 50.7381C49.2315 48.8079 49.1779 46.2023 47.2111 44.2961C45.2501 42.3888 42.6441 42.4119 40.7668 44.3422L39.8467 45.2942L46.4341 51.6901L47.3542 50.7381Z" fill="#122315"/>
<path d="M56.5033 31.2372L51.7642 34.5992L53.4631 36.9954L57.3018 34.2762L59.0779 36.778L55.2393 39.4972L57.0775 42.0895L61.8165 38.7275L63.6285 41.2827L56.0477 46.6579L47.1092 34.0514L54.69 28.6761L56.502 31.2313L56.5033 31.2372Z" fill="#122315"/>
<path d="M75.5294 35.4523L72.2884 36.9648C71.0611 34.1755 68.6799 33.0468 66.3059 33.9601L68.5259 38.7222L65.3629 40.1998L58.8288 26.1916L63.3524 24.0832C66.3328 22.6933 69.107 23.5188 70.3599 26.199C71.1793 27.9586 70.9085 29.6693 69.6578 30.96C72.1082 31.037 74.2451 32.5959 75.5307 35.4582L75.5294 35.4523ZM63.2498 27.4175L65.0733 31.3183L65.9554 30.9051C67.2984 30.2781 67.8017 29.1157 67.2527 27.9392C66.6929 26.7405 65.4587 26.3867 64.0936 27.0246L63.2557 27.4162L63.2498 27.4175Z" fill="#122315"/>
<path d="M87.6247 19.8879L81.9333 21.0366L82.5145 23.9144L87.1237 22.9835L87.7322 25.9897L83.123 26.9206L83.7551 30.0377L89.4465 28.889L90.0686 31.9594L80.9553 33.7989L77.8939 18.6499L87.0072 16.8104L87.6293 19.8808L87.6247 19.8879Z" fill="#122315"/>
<path d="M105.21 29.3395L106.885 30.7588L104.343 32.8059L102.599 31.1452C101.564 31.5848 100.388 31.8225 99.1068 31.8204C94.3833 31.8117 90.9407 28.4441 90.9513 23.7873C90.9619 19.1306 94.4161 15.7793 99.1396 15.788C103.888 15.7975 107.306 19.1643 107.289 23.8223C107.283 26.0319 106.509 27.9289 105.203 29.3349L105.21 29.3395ZM99.1181 28.4872C101.767 28.4916 103.693 26.5327 103.701 23.8163C103.709 21.1 101.79 19.1289 99.1411 19.1245C96.5114 19.1222 94.5911 21.0799 94.5829 23.7962C94.5746 26.5126 96.4942 28.4837 99.1239 28.486L99.1181 28.4872Z" fill="#122315"/>
<path d="M109.11 26.1734L111.252 16.763L114.657 17.54L112.515 26.9505C112.108 28.7389 112.881 30.0204 114.515 30.3928C116.15 30.7652 117.403 29.9437 117.81 28.1553L119.951 18.7448L123.356 19.5219L121.214 28.9323C120.365 32.6571 117.559 34.3516 113.808 33.4956C110.065 32.6442 108.261 29.8982 109.11 26.1734Z" fill="#122315"/>
<path d="M129.924 38.9892L130.398 36.0273L125.516 33.8076L123.596 36.1128L120.119 34.5338L131.298 22.6411L135.013 24.3342L133.403 40.5799L129.926 39.0009L129.924 38.9892ZM127.546 31.3629L130.902 32.8884L132.019 26.0017L127.54 31.3641L127.546 31.3629Z" fill="#122315"/>
<path d="M138.969 40.8735L143.533 44.0942L141.729 46.6555L134.31 41.4247L143.214 28.7893L146.064 30.8007L138.962 40.8689L138.969 40.8735Z" fill="#122315"/>
<path d="M143.067 47.9753L153.466 36.5414L156.045 38.8907L145.647 50.3246L143.067 47.9753Z" fill="#122315"/>
<path d="M162.917 51.0459L160.521 48.2672L151.189 56.3084L148.897 53.6478L158.229 45.6066L155.84 42.8325L158.217 40.7839L165.294 48.9973L162.917 51.0459Z" fill="#122315"/>
<path d="M173.558 62.2592L162.762 62.7543L157.669 65.8011L155.865 62.7929L160.957 59.7461L166.488 50.4634L168.52 53.8562L164.388 59.7551L171.528 58.878L173.559 62.265L173.558 62.2592Z" fill="#122315"/>
<path d="M38.7458 142.878L42.5786 148.139L36.748 152.392C34.8421 151.949 33.1572 150.91 31.8673 149.147C29.0436 145.276 29.811 140.592 33.5617 137.861C37.3437 135.105 42.0425 135.888 44.8247 139.707C45.5553 140.705 45.9871 141.674 46.1084 142.704L43.077 144.916C43.0995 143.673 42.8299 142.663 42.1671 141.754C40.5666 139.563 37.91 139.176 35.6802 140.797C33.4295 142.434 32.9646 145.126 34.5496 147.302C34.99 147.91 35.5373 148.361 36.1627 148.692L38.1964 147.21L36.327 144.643L38.7516 142.877L38.7458 142.878Z" fill="#122315"/>
<path d="M52.7505 153.304L48.5847 149.26L46.5433 151.366L49.9169 154.638L47.7807 156.843L44.4071 153.571L42.1958 155.852L46.3616 159.896L44.1804 162.147L37.5102 155.677L48.2674 144.582L54.9376 151.052L52.7564 153.303L52.7505 153.304Z" fill="#122315"/>
<path d="M63.7305 157.259L66.6317 159.199L58.0549 172.057L55.1903 170.147L55.4211 159.178L50.2861 166.876L47.3849 164.937L55.9617 152.078L58.9748 154.085L58.453 165.177L63.7363 157.258L63.7305 157.259Z" fill="#122315"/>
<path d="M76.9055 171.809C75.1735 176.087 71.0415 177.771 66.6232 175.983L62.0178 174.119L67.8127 159.796L72.418 161.66C76.8364 163.448 78.6375 167.53 76.9055 171.809ZM67.6524 173.019C70.1492 174.032 72.5405 172.999 73.5691 170.462C74.5977 167.925 73.5927 165.522 71.096 164.509L69.8682 164.014L66.4247 172.524L67.6524 173.019Z" fill="#122315"/>
<path d="M88.9239 169.626L83.2419 168.436L82.6387 171.31L87.2413 172.271L86.6117 175.278L82.0089 174.317L81.3595 177.432L87.0416 178.621L86.401 181.692L77.3035 179.788L80.4683 164.658L89.5658 166.561L88.9252 169.632L88.9239 169.626Z" fill="#122315"/>
<path d="M101.764 182.634L98.1875 182.51C98.358 179.466 96.7495 177.38 94.2173 177.119L94.0407 182.373L90.5564 182.253L91.0854 166.805L96.0753 166.976C99.3628 167.089 101.458 169.084 101.36 172.039C101.291 173.981 100.271 175.381 98.5768 175.961C100.724 177.139 101.928 179.501 101.776 182.632L101.764 182.634ZM94.4639 169.899L94.3168 174.201L95.2873 174.232C96.7683 174.284 97.744 173.478 97.7903 172.175C97.8376 170.848 96.8909 169.981 95.3911 169.928L94.4627 169.893L94.4639 169.899Z" fill="#122315"/>
<path d="M116.726 168.078L111.018 169.145L111.558 172.031L116.181 171.165L116.748 174.18L112.125 175.046L112.711 178.173L118.42 177.106L118.995 180.187L109.86 181.897L107.01 166.709L116.145 164.999L116.72 168.079L116.726 168.078Z" fill="#122315"/>
<path d="M133.72 172.743L135.795 173.462L134.156 176.287L131.934 175.362C131.124 176.144 130.115 176.792 128.919 177.247C124.507 178.935 120.089 177.032 118.426 172.682C116.763 168.332 118.781 163.962 123.192 162.274C127.626 160.575 132.023 162.49 133.685 166.84C134.472 168.905 134.431 170.951 133.719 172.738L133.72 172.743ZM127.728 174.139C130.204 173.192 131.297 170.672 130.325 168.134C129.352 165.595 126.857 164.448 124.38 165.395C121.926 166.332 120.834 168.858 121.805 171.39C122.778 173.928 125.273 175.076 127.728 174.139Z" fill="#122315"/>
<path d="M136.362 167.387L131.062 159.327L133.98 157.413L139.28 165.473C140.288 167.004 141.751 167.34 143.146 166.415C144.549 165.494 144.821 164.021 143.813 162.491L138.513 154.43L141.43 152.517L146.731 160.577C148.83 163.767 148.101 166.966 144.895 169.075C141.683 171.185 138.462 170.582 136.363 167.393L136.362 167.387Z" fill="#122315"/>
<path d="M158.635 157.474L156.076 155.913L152.173 159.591L153.578 162.239L150.797 164.856L144.034 149.999L147.008 147.201L161.427 154.855L158.646 157.471L158.635 157.474ZM150.673 156.781L153.357 154.252L147.408 150.606L150.673 156.781Z" fill="#122315"/>
<path d="M162.123 148.656L165.531 144.228L168.018 146.14L162.481 153.326L150.24 143.892L152.367 141.128L162.126 148.643L162.123 148.656Z" fill="#122315"/>
<path d="M169.118 144.265L155.962 136.154L157.795 133.184L170.951 141.295L169.118 144.265Z" fill="#122315"/>
<path d="M166.065 123.283L164.56 126.622L175.788 131.69L174.345 134.888L163.117 129.82L161.612 133.16L158.758 131.869L163.216 121.991L166.076 123.28L166.065 123.283Z" fill="#122315"/>
<path d="M166.713 108.071L174.792 115.254L180.573 116.624L179.762 120.042L173.987 118.671L163.544 121.458L164.458 117.609L171.536 116.27L165.809 111.911L166.724 108.063L166.713 108.071Z" fill="#122315"/>
<path d="M27.6366 125.658C24.5152 126.614 21.9339 125.577 21.1737 123.091C20.411 120.593 21.9751 118.309 25.0965 117.352C28.2074 116.404 30.7967 117.422 31.5594 119.919C32.3183 122.399 30.7463 124.704 27.6366 125.658ZM25.7895 119.609C23.9053 120.186 22.8961 121.322 23.2422 122.462C23.5883 123.602 25.0651 123.978 26.9447 123.407C28.8115 122.834 29.8219 121.704 29.4745 120.558C29.1272 119.412 27.6517 119.042 25.7837 119.61L25.7895 119.609Z" fill="#122315"/>
<path d="M25.585 109.215C27.6532 108.842 29.2764 110.108 29.7054 112.499C29.881 113.468 29.7983 114.285 29.4638 115.18L27.2777 115.571C27.6534 114.698 27.7704 114.015 27.6387 113.28C27.4417 112.181 26.7838 111.583 25.9384 111.738C25.0871 111.895 24.6858 112.676 24.8927 113.821C25.0055 114.438 25.2671 114.98 25.7477 115.634L19.514 115.867L18.6336 110.979L20.7192 110.603L21.2735 113.669L23.0959 113.691C23.0316 113.503 22.9802 113.319 22.9484 113.112C22.5784 111.055 23.6862 109.551 25.5955 109.206L25.585 109.215Z" fill="#122315"/>
<path d="M172.128 78.4854C175.313 77.7718 177.808 79.0045 178.377 81.5372C178.95 84.0874 177.212 86.2442 174.027 86.9578C170.853 87.669 168.351 86.4562 167.778 83.906C167.209 81.3733 168.955 79.1966 172.128 78.4854ZM173.508 84.6586C175.43 84.2317 176.523 83.1758 176.263 82.0109C176.004 80.8461 174.564 80.359 172.642 80.7859C170.738 81.215 169.644 82.265 169.903 83.4299C170.163 84.5947 171.603 85.0818 173.508 84.6586Z" fill="#122315"/>
<path d="M172.918 95.0582C170.828 95.2707 169.306 93.8799 169.055 91.4628C168.956 90.4833 169.095 89.6729 169.502 88.8055L171.712 88.5799C171.273 89.4173 171.1 90.0946 171.179 90.8403C171.295 91.9566 171.9 92.5965 172.761 92.5112C173.621 92.4259 174.082 91.6691 173.966 90.5165C173.901 89.8959 173.677 89.3333 173.249 88.6375L179.481 88.8866L179.983 93.8309L177.876 94.0471L177.558 90.9426L175.743 90.7854C175.79 90.9767 175.824 91.1648 175.849 91.3728C176.059 93.451 174.841 94.8631 172.912 95.0595L172.918 95.0582Z" fill="#122315"/>
<path d="M99.1557 55.5594L100.721 62.9251L115.068 59.8757L106.64 72.4585C104.491 71.506 102.25 70.8355 99.9454 70.4104C99.8271 70.3989 99.7075 70.3816 99.63 70.3615C99.1188 70.2811 98.6017 70.2019 98.0893 70.1156C97.8513 70.0868 97.6205 70.0627 97.3913 70.0748C97.3212 70.0897 97.2379 70.0708 97.1534 70.0461C94.4694 69.8174 91.8349 69.9931 89.2084 70.5514C81.6851 72.1505 75.8523 76.1355 71.7435 82.4624C71.1092 83.4391 70.5846 84.3863 70.082 85.4082C67.2548 90.9626 66.4881 96.8842 67.8379 103.234C69.2807 110.022 72.7324 115.499 78.2362 119.667C83.74 123.834 89.9258 125.643 96.8385 125.131L98.6138 133.484L88.7908 135.571L90.3564 142.937L100.179 140.849L102.265 150.661L109.642 149.092L107.557 139.281L117.38 137.193L115.814 129.827L105.991 131.915L104.216 123.563C104.75 123.377 105.275 123.149 105.8 122.922C105.911 122.898 106.022 122.874 106.084 122.825C106.609 122.597 107.086 122.343 107.577 122.129C107.956 121.932 108.309 121.784 108.675 121.554C108.881 121.431 109.047 121.322 109.252 121.199C112.775 119.115 115.757 116.273 118.149 112.598C122.263 106.27 123.532 99.3265 121.936 91.8148C121.308 88.8615 120.222 86.0788 118.674 83.4736C117.126 80.8684 115.262 78.5561 113.043 76.5512L121.5 64.0781L124.547 78.4127L131.924 76.8446L126.194 49.8854L99.2114 55.6207L99.1614 55.5581L99.1557 55.5594Z" fill="#122315"/>
<path d="M83.1406 102.845C91.8256 101.688 100.417 99.8619 108.822 97.3861L109.814 102.055C107.63 102.312 105.471 102.661 103.314 103.046C96.8557 104.23 90.4263 105.609 84.1331 107.514L83.1406 102.845Z" fill="#F0652A"/>
<path d="M80.707 91.3994C89.392 90.2427 97.9834 88.4165 106.388 85.9408L107.38 90.61C105.196 90.8669 103.038 91.2159 100.881 91.6011C94.4221 92.7849 87.9927 94.1637 81.6995 96.0687L80.707 91.3994Z" fill="#F0652A"/>
</g>
<defs>
<clipPath id="clip0_9087_97371">
<rect width="198" height="198" fill="white"/>
</clipPath>
</defs>
</svg>
