<svg width="211" height="211" viewBox="0 0 211 211" fill="none" xmlns="http://www.w3.org/2000/svg">
<rect width="211" height="211" rx="20" fill="#F3EDE4"/>
<path d="M87.176 76.1484L104.829 76.2357C109.123 76.256 114.785 76.2844 117.702 78.0685C120.9 79.9845 123.401 83.4552 123.376 88.2147C123.35 93.37 120.611 97.2283 116.096 99.0347V99.1748C122.088 100.427 125.335 104.921 125.305 110.896C125.27 118.022 120.119 124.789 110.446 124.74L86.9375 124.625L87.178 76.1484H87.176ZM93.5474 97.0132L106.508 97.0782C113.868 97.1147 116.885 94.4802 116.909 89.3878C116.942 82.6656 112.177 81.6934 106.584 81.665L93.6228 81.6001L93.5453 97.0132H93.5474ZM93.4373 119.209L109.668 119.289C115.25 119.317 118.819 115.938 118.846 110.65C118.876 104.334 113.77 102.548 108.32 102.522L93.5229 102.449L93.4394 119.207L93.4373 119.209Z" fill="#122315"/>
<path d="M141.921 100.667C141.819 121.024 125.163 137.448 104.712 137.347C84.2685 137.245 67.7754 120.659 67.8773 100.302C67.9792 79.9443 84.6354 63.5204 105.079 63.6219C125.532 63.7315 142.023 80.3177 141.921 100.667ZM105.115 58.0079C81.57 57.8922 62.3844 76.8085 62.2662 100.255C62.15 123.701 81.146 142.806 104.691 142.924C128.245 143.04 147.432 124.124 147.549 100.677C147.665 77.2306 128.669 58.1256 105.113 58.0079H105.115Z" fill="#122315"/>
<path d="M62.0898 151.679L62.0625 157.248L147.169 157.662L147.196 152.093L62.0898 151.679Z" fill="#122315"/>
<path d="M144.572 145.956C144.678 145.956 144.775 145.948 144.871 145.948C144.959 145.94 145.049 145.922 145.118 145.898C145.197 145.863 145.25 145.81 145.295 145.749C145.34 145.678 145.358 145.591 145.358 145.477C145.358 145.38 145.342 145.293 145.307 145.24C145.273 145.179 145.22 145.134 145.159 145.108C145.097 145.074 145.034 145.055 144.947 145.037C144.867 145.027 144.796 145.027 144.708 145.027H144.099L144.095 145.965H144.572V145.958V145.956ZM144.782 144.637C145.134 144.637 145.391 144.71 145.566 144.852C145.733 144.994 145.821 145.205 145.819 145.496C145.819 145.768 145.737 145.952 145.595 146.084C145.444 146.206 145.258 146.277 145.028 146.301L145.87 147.609H145.375L144.568 146.326H144.082L144.076 147.598H143.608L143.622 144.639L144.779 144.645V144.637H144.782ZM142.684 146.959C142.78 147.223 142.929 147.462 143.122 147.657C143.308 147.852 143.528 148.002 143.783 148.118C144.029 148.226 144.313 148.278 144.604 148.28C144.896 148.282 145.179 148.23 145.428 148.126C145.684 148.012 145.907 147.864 146.092 147.671C146.278 147.479 146.43 147.251 146.528 146.979C146.636 146.715 146.699 146.435 146.699 146.127C146.699 145.818 146.649 145.536 146.536 145.272C146.432 145.009 146.282 144.779 146.106 144.584C145.913 144.39 145.693 144.239 145.446 144.132C145.199 144.024 144.916 143.961 144.625 143.961C144.333 143.961 144.05 144.02 143.801 144.124C143.544 144.237 143.314 144.385 143.137 144.568C142.941 144.761 142.798 144.988 142.692 145.252C142.586 145.516 142.531 145.788 142.529 146.105C142.519 146.403 142.57 146.695 142.684 146.959ZM142.268 145.1C142.403 144.793 142.588 144.538 142.821 144.31C143.053 144.083 143.326 143.917 143.636 143.787C143.946 143.657 144.282 143.596 144.618 143.598C144.971 143.598 145.299 143.663 145.615 143.797C145.915 143.931 146.188 144.099 146.408 144.329C146.636 144.558 146.83 144.824 146.952 145.122C147.093 145.431 147.152 145.766 147.15 146.127C147.148 146.488 147.085 146.821 146.942 147.13C146.807 147.446 146.622 147.708 146.39 147.935C146.159 148.171 145.892 148.337 145.593 148.467C145.275 148.589 144.947 148.648 144.594 148.648C144.241 148.648 143.923 148.583 143.614 148.459C143.306 148.325 143.033 148.157 142.804 147.919C142.576 147.69 142.391 147.424 142.26 147.107C142.12 146.799 142.069 146.464 142.071 146.103C142.065 145.741 142.128 145.408 142.27 145.1" fill="#122315"/>
<path d="M72.9643 39.1808C72.7625 38.8541 72.5159 38.5719 72.2183 38.3324C71.9187 38.0848 71.5763 37.8981 71.1972 37.756C70.8181 37.6221 70.4206 37.549 70.0048 37.547C69.2446 37.5429 68.5985 37.689 68.0583 37.9773C67.5264 38.2655 67.0922 38.6592 66.762 39.1504C66.4319 39.6416 66.1832 40.2038 66.0283 40.835C65.8754 41.4682 65.7919 42.1177 65.7898 42.7875C65.7878 43.4573 65.855 44.054 66.0099 44.6629C66.1567 45.2698 66.3931 45.8178 66.7254 46.311C67.0494 46.7961 67.4815 47.1939 68.0094 47.4882C68.5373 47.7804 69.1814 47.9347 69.9518 47.9367C70.9852 47.9428 71.8005 47.6282 72.3773 47.0072C72.9643 46.3759 73.321 45.5519 73.4596 44.5229L76.737 44.5391C76.6432 45.4971 76.419 46.3597 76.0522 47.131C75.6853 47.9043 75.2145 48.5619 74.6193 49.0936C74.0242 49.6355 73.3332 50.0455 72.5465 50.3317C71.7597 50.6098 70.8833 50.7539 69.9376 50.7498C68.7615 50.7437 67.7037 50.5367 66.76 50.1186C65.8163 49.7086 65.0336 49.1423 64.3835 48.4178C63.7414 47.7013 63.2523 46.8549 62.9119 45.8848C62.5715 44.9146 62.4003 43.8754 62.4064 42.7591C62.4125 41.6428 62.5858 40.5508 62.9445 39.5766C63.293 38.6024 63.7924 37.7418 64.4405 37.0233C65.0887 36.2967 65.8877 35.7284 66.8354 35.3205C67.773 34.9125 68.8349 34.7055 70.0191 34.7116C70.867 34.7156 71.67 34.8435 72.4201 35.085C73.1701 35.3347 73.8489 35.6898 74.4379 36.1587C75.0269 36.6275 75.5202 37.2019 75.9054 37.89C76.2906 38.578 76.5332 39.3716 76.6269 40.2505L73.3495 40.2342C73.2904 39.8466 73.1681 39.4934 72.9663 39.1768L72.9643 39.1808Z" fill="#122315"/>
<path d="M81.1256 47.7894C81.5821 48.2319 82.2445 48.4633 83.1006 48.4673C83.7182 48.4714 84.2501 48.3232 84.7026 48.0167C85.1449 47.7103 85.4221 47.3875 85.5301 47.0445L88.2246 47.0587C87.7844 48.3841 87.1179 49.3401 86.2231 49.9084C85.3283 50.4767 84.2481 50.7608 82.9844 50.7547C82.11 50.7507 81.3151 50.6066 80.618 50.3204C79.9128 50.0362 79.3218 49.6364 78.8305 49.1229C78.3475 48.6094 77.9704 47.9924 77.7095 47.2698C77.4486 46.5554 77.3202 45.7638 77.3243 44.9093C77.3284 44.0549 77.4649 43.3079 77.7421 42.5976C78.0193 41.8872 78.4107 41.2641 78.9182 40.7465C79.4257 40.229 80.027 39.819 80.7261 39.5247C81.4252 39.2304 82.1956 39.0822 83.0435 39.0883C83.9892 39.0924 84.8188 39.2811 85.524 39.6465C86.2292 40.0199 86.7999 40.507 87.2483 41.1241C87.6967 41.7411 88.0188 42.4474 88.2185 43.2308C88.4182 44.0143 88.4835 44.8424 88.4182 45.705L80.3775 45.6644C80.4163 46.6244 80.6608 47.3469 81.1276 47.7874L81.1256 47.7894ZM84.6088 41.9745C84.2399 41.5767 83.6835 41.3717 82.9416 41.3676C82.4565 41.3656 82.0489 41.4427 81.7207 41.6071C81.3926 41.7735 81.1358 41.9745 80.9401 42.2099C80.7444 42.4555 80.6099 42.7092 80.5304 42.9812C80.4509 43.2532 80.404 43.4906 80.3857 43.7098L85.3691 43.7342C85.2325 42.9589 84.9778 42.3682 84.6088 41.9704V41.9745Z" fill="#122315"/>
<path d="M92.7424 39.4106L92.7322 41.4687H92.7771C92.9197 41.1256 93.1154 40.8111 93.3641 40.5127C93.6127 40.2245 93.8879 39.9708 94.2079 39.7698C94.5279 39.5689 94.8642 39.4045 95.227 39.2908C95.5898 39.1772 95.9607 39.1264 96.35 39.1285C96.5539 39.1285 96.774 39.165 97.0206 39.2381L97.0063 42.0715C96.8657 42.0451 96.6884 42.0167 96.4846 41.9984C96.2807 41.9801 96.0871 41.9619 95.9016 41.9598C95.3452 41.9578 94.8683 42.0512 94.4769 42.2338C94.0876 42.4165 93.7758 42.6702 93.5373 42.995C93.2988 43.3197 93.1276 43.6871 93.0278 44.1194C92.9279 44.5517 92.8729 45.0165 92.8708 45.5178L92.8464 50.5229L89.7891 50.5087L89.8441 39.3964L92.7424 39.4106Z" fill="#122315"/>
<path d="M105.202 39.4708L105.192 41.5127L102.948 41.5025L102.921 47.0008C102.919 47.5204 103.005 47.8634 103.172 48.0319C103.339 48.2004 103.692 48.2897 104.205 48.2917C104.383 48.2917 104.542 48.2836 104.701 48.2775C104.86 48.2612 105.011 48.243 105.151 48.2186L105.139 50.5771C104.882 50.6197 104.591 50.644 104.273 50.6603C103.955 50.6765 103.645 50.6826 103.345 50.6826C102.868 50.6806 102.418 50.642 102.002 50.5791C101.578 50.5162 101.207 50.3903 100.881 50.1955C100.555 50.0088 100.308 49.7449 100.117 49.3999C99.9334 49.0548 99.8376 48.6063 99.8417 48.0441L99.8743 41.4985L98.0195 41.4883L98.0297 39.4465L99.8845 39.4566L99.9008 36.1321L102.958 36.1463L102.942 39.4708L105.204 39.481V39.4729L105.202 39.4708Z" fill="#122315"/>
<path d="M106.993 37.7638L107.005 35.2471L110.062 35.2613L110.05 37.778L106.993 37.7638ZM110.042 39.4951L109.987 50.5892L106.93 50.575L106.985 39.4809L110.042 39.4951Z" fill="#122315"/>
<path d="M111.252 41.5413L111.262 39.4995L113.09 39.5076L113.095 38.645C113.099 37.6606 113.413 36.8508 114.034 36.2216C114.656 35.5904 115.593 35.2879 116.839 35.294C117.112 35.294 117.387 35.3062 117.66 35.3326C117.933 35.3509 118.198 35.3793 118.455 35.3894L118.443 37.6687C118.08 37.622 117.709 37.6038 117.322 37.6017C116.906 37.5997 116.606 37.6951 116.427 37.8879C116.25 38.0807 116.16 38.4055 116.158 38.8622L116.154 39.5299L118.265 39.5401L118.255 41.5819L116.144 41.5717L116.099 50.6341L113.033 50.6199L113.078 41.5575L111.25 41.5494V41.5413H111.252Z" fill="#122315"/>
<path d="M120.344 37.8312L120.357 35.3145L123.414 35.3287L123.402 37.8454L120.344 37.8312ZM123.402 39.5625L123.347 50.6565L120.281 50.6423L120.336 39.5483L123.402 39.5625Z" fill="#122315"/>
<path d="M128.184 48.0224C128.64 48.4649 129.303 48.6963 130.159 48.7003C130.776 48.7044 131.308 48.5562 131.761 48.2498C132.203 47.9433 132.48 47.6206 132.588 47.2776L135.283 47.2918C134.843 48.6171 134.176 49.5731 133.29 50.1414C132.395 50.7097 131.314 50.9938 130.051 50.9878C129.176 50.9837 128.382 50.8396 127.684 50.5534C126.979 50.2693 126.388 49.8694 125.897 49.3559C125.414 48.8424 125.037 48.2254 124.776 47.5029C124.515 46.7884 124.387 45.9969 124.391 45.1424C124.395 44.2879 124.54 43.541 124.809 42.8306C125.086 42.0938 125.477 41.4789 125.985 40.9633C126.492 40.4478 127.093 40.0358 127.792 39.7415C128.492 39.4472 129.262 39.299 130.11 39.3051C131.056 39.3092 131.885 39.4979 132.59 39.8633C133.296 40.2367 133.866 40.7238 134.315 41.3408C134.763 41.9579 135.085 42.6642 135.285 43.4476C135.485 44.2311 135.55 45.0592 135.493 45.9218L127.452 45.8812C127.483 46.8574 127.727 47.58 128.184 48.0224ZM131.675 42.2075C131.314 41.8097 130.75 41.6047 130.008 41.6006C129.523 41.5986 129.115 41.6757 128.787 41.8401C128.459 42.0066 128.202 42.2075 128.006 42.4429C127.811 42.6885 127.676 42.9422 127.597 43.2142C127.517 43.4862 127.47 43.7237 127.452 43.9429L132.425 43.9672C132.289 43.1919 132.034 42.6013 131.675 42.2034V42.2075Z" fill="#122315"/>
<path d="M144.761 49.3537C144.396 49.9504 143.926 50.3867 143.341 50.6486C142.756 50.9104 142.101 51.0383 141.368 51.0342C140.538 51.0301 139.804 50.8678 139.171 50.539C138.537 50.2102 138.017 49.7758 137.613 49.2197C137.21 48.6636 136.904 48.0283 136.696 47.3139C136.488 46.5994 136.394 45.8525 136.399 45.0772C136.403 44.3303 136.513 43.6179 136.719 42.9237C136.924 42.2296 137.246 41.6248 137.656 41.0889C138.066 40.5633 138.588 40.135 139.199 39.8204C139.819 39.4977 140.536 39.3434 141.358 39.3475C142.02 39.3516 142.648 39.4936 143.237 39.7798C143.836 40.064 144.303 40.4719 144.645 41.0179H144.69L144.718 35.4404L147.776 35.4546L147.7 50.7805L144.794 50.7663L144.8 49.3496H144.765L144.761 49.3537ZM144.655 43.8635C144.57 43.4413 144.429 43.0699 144.219 42.7431C144.009 42.4163 143.744 42.1606 143.41 41.9556C143.084 41.7526 142.66 41.6532 142.167 41.6511C141.673 41.6491 141.239 41.7425 140.893 41.9434C140.546 42.1444 140.271 42.4062 140.059 42.7309C139.855 43.0557 139.702 43.4332 139.603 43.8553C139.503 44.2775 139.458 44.7159 139.454 45.1746C139.452 45.6049 139.503 46.0372 139.599 46.4594C139.694 46.8917 139.859 47.2692 140.08 47.6142C140.3 47.9491 140.581 48.2231 140.915 48.4363C141.249 48.6494 141.655 48.7488 142.132 48.7509C142.635 48.7529 143.051 48.6595 143.398 48.4586C143.734 48.2576 144.009 47.9958 144.215 47.6528C144.421 47.32 144.564 46.9323 144.653 46.5122C144.743 46.0819 144.79 45.6414 144.792 45.1848C144.786 44.7281 144.743 44.2877 144.657 43.8635H144.655Z" fill="#122315"/>
<path d="M69.47 168.22C69.3252 167.146 68.296 166.322 67.1118 166.316C64.9737 166.306 64.1604 168.114 64.1523 170.006C64.1441 171.8 64.939 173.617 67.0771 173.627C68.5344 173.635 69.3619 172.645 69.5454 171.22L71.8608 171.232C71.5999 173.923 69.7268 175.638 67.069 175.624C63.712 175.608 61.7533 173.099 61.7696 169.994C61.7859 166.791 63.7691 164.303 67.126 164.319C69.5107 164.331 71.502 165.732 71.7813 168.23L69.4761 168.218L69.47 168.22Z" fill="#122315"/>
<path d="M76.8499 167.394C79.3243 167.406 80.9059 169.042 80.8937 171.54C80.8815 174.021 79.2835 175.64 76.8091 175.628C74.3531 175.616 72.7613 173.972 72.7735 171.5C72.7857 169.028 74.3939 167.382 76.8499 167.394ZM76.8173 174.019C78.293 174.027 78.7312 172.77 78.7373 171.538C78.7434 170.28 78.3072 169.03 76.8418 169.022C75.3763 169.014 74.936 170.27 74.9299 171.52C74.9238 172.752 75.36 174.013 76.8173 174.019Z" fill="#122315"/>
<path d="M82.2478 167.623L84.2982 167.633L84.2901 169.084H84.3247C84.7181 168.102 85.7902 167.428 86.8419 167.434C86.9927 167.434 87.1782 167.463 87.3107 167.507L87.3005 169.504C87.0967 169.46 86.7787 169.431 86.5239 169.429C84.9423 169.421 84.3899 170.554 84.3818 171.926L84.3634 175.445L82.207 175.435L82.2458 167.623H82.2478Z" fill="#122315"/>
<path d="M88.149 167.661L90.1994 167.671L90.1953 168.666H90.2218C90.7375 167.842 91.5874 167.468 92.5596 167.472C95.0238 167.485 96.1183 169.47 96.1081 171.686C96.0979 173.77 94.9402 175.719 92.6432 175.707C91.7077 175.703 90.8068 175.293 90.2993 174.515H90.2646L90.2463 178.236L88.0898 178.226L88.1428 167.659H88.151L88.149 167.661ZM93.9517 171.623C93.9578 170.383 93.4605 169.096 92.0827 169.088C90.6682 169.082 90.2116 170.336 90.2055 171.605C90.1994 172.873 90.6784 174.089 92.0745 174.095C93.4707 174.101 93.9456 172.89 93.9517 171.623Z" fill="#122315"/>
<path d="M100.855 167.514C103.33 167.526 104.92 169.162 104.907 171.661C104.895 174.141 103.287 175.76 100.815 175.748C98.3422 175.736 96.7769 174.092 96.7891 171.62C96.8014 169.13 98.3993 167.502 100.855 167.514ZM100.823 174.139C102.298 174.147 102.747 172.891 102.753 171.659C102.759 170.427 102.323 169.15 100.849 169.142C99.3756 169.134 98.9435 170.39 98.9374 171.64C98.9394 172.872 99.3756 174.133 100.825 174.139H100.823Z" fill="#122315"/>
<path d="M106.264 167.743L108.314 167.753L108.306 169.204H108.341C108.734 168.222 109.806 167.548 110.85 167.554C111.001 167.554 111.186 167.582 111.318 167.627L111.308 169.624C111.115 169.58 110.797 169.551 110.532 169.549C108.95 169.541 108.398 170.674 108.39 172.046L108.371 175.565L106.215 175.555L106.254 167.743H106.262H106.264Z" fill="#122315"/>
<path d="M111.938 170.18C112.073 168.167 113.877 167.576 115.644 167.586C117.207 167.594 119.088 167.946 119.078 169.821L119.058 173.886C119.054 174.599 119.121 175.303 119.323 175.63L117.132 175.62C117.062 175.372 116.993 175.118 116.985 174.863C116.3 175.571 115.301 175.823 114.339 175.817C112.856 175.808 111.675 175.064 111.684 173.464C111.692 171.696 113.029 171.28 114.364 171.102C115.691 170.915 116.918 170.966 116.922 170.085C116.926 169.161 116.282 169.025 115.532 169.021C114.71 169.017 114.178 169.348 114.095 170.192L111.938 170.182V170.18ZM116.906 171.798C116.533 172.112 115.782 172.127 115.11 172.246C114.437 172.374 113.836 172.602 113.832 173.393C113.828 174.185 114.445 174.39 115.153 174.394C116.832 174.402 116.908 173.074 116.912 172.608L116.916 171.798H116.908H116.906Z" fill="#122315"/>
<path d="M123.436 167.836L125.018 167.844L125.009 169.279L123.428 169.271L123.409 173.142C123.405 173.872 123.591 174.049 124.314 174.053C124.545 174.053 124.757 174.037 124.987 173.994L124.979 175.675C124.616 175.733 124.139 175.75 123.715 175.748C122.398 175.742 121.243 175.427 121.251 173.878L121.273 169.269L119.965 169.263L119.973 167.828L121.282 167.834L121.294 165.494L123.45 165.504L123.438 167.836H123.436Z" fill="#122315"/>
<path d="M128.803 166.657L126.646 166.646L126.655 164.879L128.811 164.889L128.803 166.657ZM126.64 167.852L128.797 167.862L128.758 175.674L126.602 175.664L126.64 167.852Z" fill="#122315"/>
<path d="M134.293 167.678C136.767 167.69 138.357 169.326 138.345 171.824C138.333 174.305 136.724 175.924 134.252 175.912C131.78 175.9 130.214 174.256 130.227 171.784C130.239 169.312 131.837 167.666 134.293 167.678ZM134.26 174.303C135.736 174.311 136.184 173.054 136.19 171.822C136.197 170.59 135.76 169.314 134.287 169.306C132.813 169.297 132.381 170.554 132.375 171.804C132.369 173.054 132.805 174.296 134.262 174.303H134.26Z" fill="#122315"/>
<path d="M139.751 167.915L141.802 167.926L141.796 169.015H141.841C142.393 168.139 143.33 167.721 144.25 167.725C146.539 167.737 147.115 169.024 147.105 170.958L147.081 175.762L144.924 175.752L144.947 171.335C144.953 170.051 144.576 169.415 143.577 169.411C142.401 169.405 141.904 170.055 141.896 171.646L141.875 175.746L139.719 175.736L139.757 167.915H139.749H139.751Z" fill="#122315"/>
<rect x="0.5" y="0.5" width="210" height="210" rx="19.5" stroke="#122315" stroke-opacity="0.18"/>
</svg>
