<svg width="198" height="198" viewBox="0 0 198 198" fill="none" xmlns="http://www.w3.org/2000/svg">
<g clip-path="url(#clip0_9087_97542)">
<path d="M78.8637 195.024C132.051 206.33 184.332 172.378 195.637 119.191C206.942 66.0037 172.991 13.7225 119.804 2.41722C66.6166 -8.88802 14.3353 25.0638 3.03005 78.2508C-8.27519 131.438 25.6767 183.719 78.8637 195.024Z" fill="#73D3EB"/>
<path d="M80.3484 188.026C31.1052 177.559 -0.44163 128.981 10.0253 79.7376C20.4923 30.4944 69.0701 -1.05237 118.313 9.4146C167.557 19.8816 199.103 68.4593 188.636 117.703C178.169 166.946 129.592 198.493 80.3484 188.026ZM118.064 10.5878C69.4628 0.25725 21.5219 31.3904 11.1914 79.9916C0.860914 128.593 31.9941 176.534 80.5953 186.864C129.196 197.195 177.137 166.061 187.468 117.46C197.798 68.8591 166.666 20.9124 118.065 10.5819L118.064 10.5878Z" fill="#122315"/>
<path d="M45.6218 45.4748C42.6137 42.0049 42.9633 37.1746 46.4532 34.1586C47.3874 33.3506 48.3647 32.8568 49.6028 32.571L52.1007 35.4566C50.8353 35.3829 49.6648 35.7807 48.7518 36.5749C46.7638 38.2935 46.5946 41.0698 48.3583 43.1039C50.107 45.1227 52.8905 45.3727 54.8785 43.6541C55.7974 42.8612 56.3619 41.755 56.4649 40.4958L58.9477 43.3661C58.4197 44.6447 57.8064 45.5209 56.8875 46.3138C53.433 49.3068 48.6239 48.9435 45.6172 45.4677L45.6218 45.4748Z" fill="#122315"/>
<path d="M62.5238 38.1661L67.3192 35.2934L68.9311 37.9846L61.1439 42.6493L53.2016 29.3889L56.1934 27.5969L62.5238 38.1661Z" fill="#122315"/>
<path d="M74.7446 22.3293L69.3345 24.4491L70.4064 27.1841L74.7852 25.4674L75.9035 28.3282L71.5246 30.0449L72.6827 33.0057L78.0928 30.8859L79.2349 33.8067L70.5783 37.1946L64.9446 22.8022L73.6012 19.4143L74.7434 22.3351L74.7446 22.3293Z" fill="#122315"/>
<path d="M90.7528 31.332L89.4489 28.6269L84.1685 29.5909L83.9055 32.579L80.1488 33.2628L82.5446 17.1122L86.5618 16.38L94.5049 30.6411L90.7482 31.3249L90.7528 31.332ZM84.4455 26.4227L88.0755 25.7607L85.0641 19.4656L84.4512 26.4239L84.4455 26.4227Z" fill="#122315"/>
<path d="M105.494 15.5978L108.979 15.7345L108.381 31.1753L104.939 31.0414L99.4059 21.5691L99.0512 30.8149L95.5665 30.6781L96.1644 15.2373L99.7824 15.378L105.132 25.1103L105.499 15.6048L105.494 15.5978Z" fill="#122315"/>
<path d="M133.232 22.3776L136.638 23.6018L127.761 36.8375L124.247 35.578L125.715 25.1964L120.233 34.1394L116.703 32.8704L118.285 17.0166L121.652 18.2263L120.159 29.0664L125.852 19.7292L129.055 20.8796L127.538 31.7147L133.232 22.3776Z" fill="#122315"/>
<path d="M138.808 43.4309L139.698 40.5639L135.182 37.6703L132.95 39.6786L129.734 37.6164L142.494 27.4386L145.936 29.6405L142.025 45.4873L138.809 43.4251L138.808 43.4309ZM137.544 35.5431L140.647 37.5325L142.733 30.8752L137.538 35.5418L137.544 35.5431Z" fill="#122315"/>
<path d="M157.004 42.8214L154.288 40.3592L146.015 49.4897L143.417 47.1319L151.684 38.0001L148.968 35.5378L151.072 33.2155L159.109 40.4933L157.005 42.8156L157.004 42.8214Z" fill="#122315"/>
<path d="M164.844 52.4249L161.243 47.8712L158.94 49.6937L161.859 53.3826L159.453 55.2869L156.534 51.5981L154.041 53.5693L157.642 58.123L155.186 60.0654L149.421 52.7763L161.542 43.1889L167.307 50.4779L164.851 52.4203L164.844 52.4249Z" fill="#122315"/>
<path d="M161.558 71.387L159.859 68.2442C162.57 66.8561 163.559 64.4127 162.508 62.0968L157.883 64.5971L156.223 61.5296L169.82 54.1835L172.194 58.5739C173.756 61.4681 173.096 64.2865 170.492 65.6911C168.782 66.6149 167.056 66.4431 165.695 65.2693C165.76 67.7172 164.329 69.9446 161.55 71.3974L161.558 71.387ZM168.863 58.659L165.073 60.7023L165.532 61.5563C166.238 62.8592 167.426 63.2948 168.57 62.6778C169.735 62.047 170.013 60.7946 169.3 59.4717L168.857 58.6577L168.863 58.659Z" fill="#122315"/>
<path d="M20.0198 124.089L22.5932 122.543L21.1481 117.374L18.1496 117.389L17.1196 113.712L33.4169 114.614L34.5141 118.55L21.044 127.765L20.014 124.087L20.0198 124.089ZM24.3291 117.361L25.3186 120.914L31.3127 117.338L24.3291 117.361Z" fill="#122315"/>
<path d="M40.012 131.419L41.5754 134.539L27.7619 141.467L26.2203 138.388L31.8459 128.969L23.5768 133.116L22.0135 129.996L35.8269 123.068L37.4509 126.305L31.5098 135.687L40.0179 131.42L40.012 131.419Z" fill="#122315"/>
<path d="M44.5085 150.857C40.8963 153.731 36.4653 153.168 33.4944 149.437L30.3977 145.552L42.486 135.921L45.5826 139.806C48.5535 143.537 48.1149 147.982 44.5027 150.856L44.5085 150.857ZM35.8506 147.364C37.5315 149.472 40.1204 149.748 42.2639 148.044C44.4073 146.34 44.7147 143.746 43.0326 141.643L42.2095 140.608L35.0262 146.335L35.8494 147.37L35.8506 147.364Z" fill="#122315"/>
<path d="M45.2585 160.832L47.6797 157.736C47.7543 159.222 48.3809 160.636 49.3223 161.373C50.1594 162.027 51.1291 161.97 51.6997 161.238C53.2912 159.203 48.8768 156.093 51.6249 152.578C53.2842 150.454 55.8422 150.186 58.0196 151.881C58.9089 152.577 59.5176 153.444 59.9404 154.583L57.8103 157.315C57.7108 156.147 57.2909 155.252 56.5582 154.682C55.8254 154.111 54.9811 154.151 54.5103 154.759C53.1101 156.554 57.4787 159.678 54.5855 163.388C52.7502 165.737 50.0614 165.989 47.5397 164.02C46.4405 163.164 45.7004 162.14 45.2727 160.823L45.2585 160.832Z" fill="#122315"/>
<path d="M62.753 173.365L63.4296 170.441L58.7136 167.889L56.6372 170.052L53.278 168.234L65.2551 157.146L68.849 159.093L66.1121 175.184L62.753 173.365ZM60.911 165.586L64.155 167.344L65.7512 160.552L60.9156 165.594L60.911 165.586Z" fill="#122315"/>
<path d="M81.819 164.059L85.1477 165.102L80.5194 179.845L77.2316 178.811L74.3831 168.219L71.6109 177.042L68.2822 175.999L72.9105 161.257L76.3638 162.344L78.9688 173.134L81.8202 164.053L81.819 164.059Z" fill="#122315"/>
<path d="M84.6897 180.481L87.1229 165.217L90.5687 165.767L88.1297 181.029L84.6839 180.48L84.6897 180.481Z" fill="#122315"/>
<path d="M102.719 169.611L99.0529 169.496L98.6624 181.809L95.154 181.698L95.5445 169.385L91.8782 169.271L91.9768 166.138L102.811 166.482L102.712 169.615L102.719 169.611Z" fill="#122315"/>
<path d="M113.609 180.668L112.452 177.903L107.133 178.59L106.714 181.564L102.926 182.052L106.156 166.054L110.208 165.53L117.396 180.186L113.608 180.674L113.609 180.668ZM107.571 175.438L111.228 174.965L108.548 168.52L107.571 175.438Z" fill="#122315"/>
<path d="M126.228 164.458L122.739 165.577L126.498 177.308L123.154 178.378L119.394 166.648L115.905 167.766L114.947 164.781L125.271 161.473L126.228 164.458Z" fill="#122315"/>
<path d="M133.31 174.638L126.742 160.651L129.9 159.168L136.467 173.155L133.31 174.638Z" fill="#122315"/>
<path d="M135.203 165.578C132.588 161.721 133.553 157.01 137.466 154.358C141.394 151.692 146.11 152.548 148.725 156.404C151.34 160.26 150.39 164.956 146.462 167.623C142.55 170.275 137.818 169.434 135.203 165.578ZM145.746 158.424C144.222 156.179 141.526 155.63 139.338 157.117C137.163 158.595 136.674 161.297 138.203 163.543C139.733 165.79 142.423 166.337 144.596 164.866C146.791 163.38 147.275 160.671 145.752 158.425L145.746 158.424Z" fill="#122315"/>
<path d="M151.212 142.579L153.596 140.029L164.888 150.586L162.536 153.099L151.752 151.088L158.51 157.404L156.126 159.954L144.833 149.397L147.305 146.751L158.165 149.071L151.213 142.573L151.212 142.579Z" fill="#122315"/>
<path d="M24.4269 85.8118C21.2467 85.0748 19.5281 82.8855 20.1145 80.3565C20.7046 77.8101 23.1977 76.6136 26.3837 77.3518C29.5522 78.0863 31.2862 80.2606 30.6961 82.807C30.1097 85.336 27.5954 86.5463 24.4269 85.8118ZM25.8528 79.6486C23.9342 79.2042 22.4901 79.6842 22.2245 80.8477C21.9588 82.0113 23.045 83.0719 24.9636 83.5163C26.8648 83.957 28.3088 83.477 28.5803 82.3146C28.8518 81.1523 27.7598 80.0905 25.8587 79.6498L25.8528 79.6486Z" fill="#122315"/>
<path d="M30.9918 69.3513C33.1765 70.1511 34.0047 72.2244 33.2085 74.3915C32.4086 76.5762 30.3768 77.4681 28.057 76.6151C26.2067 75.9351 24.5662 74.2687 22.9296 71.4929L23.8734 68.9179C24.6294 70.6708 25.5064 71.9979 26.4025 72.8045C26.2278 72.2489 26.2411 71.7271 26.4576 71.1387C27.0916 69.419 28.9422 68.6045 30.9906 69.3571L30.9918 69.3513ZM30.2436 71.5225C29.2766 71.1645 28.3846 71.5727 28.0663 72.4384C27.7361 73.332 28.1972 74.2048 29.148 74.5533C30.0871 74.8993 30.9637 74.5061 31.2856 73.6229C31.6075 72.7397 31.171 71.8661 30.2436 71.5225Z" fill="#122315"/>
<path d="M175.393 100.6C178.648 100.871 180.661 102.793 180.44 105.382C180.223 107.983 177.924 109.526 174.664 109.254C171.422 108.979 169.399 107.073 169.616 104.472C169.831 101.882 172.15 100.331 175.393 100.6ZM174.864 106.905C176.823 107.071 178.188 106.391 178.283 105.198C178.383 104.011 177.153 103.109 175.193 102.949C173.245 102.785 171.886 103.466 171.786 104.652C171.687 105.839 172.91 106.74 174.859 106.898L174.864 106.905Z" fill="#122315"/>
<path d="M171.248 117.819C168.972 117.335 167.857 115.409 168.337 113.15C168.821 110.874 170.699 109.699 173.121 110.214C175.047 110.623 176.912 112.038 178.927 114.553L178.357 117.238C177.36 115.611 176.3 114.428 175.302 113.758C175.557 114.282 175.617 114.801 175.487 115.414C175.106 117.206 173.389 118.28 171.259 117.828L171.248 117.819ZM171.679 115.562C172.683 115.776 173.515 115.251 173.707 114.346C173.905 113.412 173.324 112.618 172.332 112.407C171.357 112.2 170.546 112.716 170.351 113.633C170.156 114.549 170.716 115.358 171.679 115.562Z" fill="#122315"/>
<path d="M129.944 85.9751C125.869 76.2452 118.939 65.1703 109.109 52.7532C95.0666 60.1571 84.2365 67.4569 76.563 74.6285C68.8883 81.806 64.2818 89.0135 62.7658 96.1458C60.6183 106.249 62.2645 115.408 67.5471 123.588C72.8238 131.768 80.5927 136.976 90.7484 139.135C100.904 141.293 110.061 139.683 118.267 134.369C126.473 129.056 131.649 121.347 133.797 111.244C135.313 104.112 134.036 95.6536 129.944 85.9751ZM94.1998 129.498L93.0424 129.404C83.7665 128.531 75.3528 121.276 72.7142 112.395C71.7113 108.991 71.6084 105.486 72.0603 102.068L74.1838 102.123L74.2703 103.294C74.7563 112.115 78.915 118.666 86.1761 123.479C88.7241 125.21 91.6273 126.505 94.6001 127.557L94.1882 129.495L94.1998 129.498Z" fill="#122315"/>
</g>
<defs>
<clipPath id="clip0_9087_97542">
<rect width="198" height="198" fill="white"/>
</clipPath>
</defs>
</svg>
