<svg width="32" height="32" viewBox="0 0 32 32" fill="none" xmlns="http://www.w3.org/2000/svg">
<rect width="32" height="32" rx="16" fill="#122315"/>
<path fill-rule="evenodd" clip-rule="evenodd" d="M8.60156 25.5999V6.3999H18.1074C18.1662 6.3999 18.2212 6.42929 18.2538 6.47822C19.6276 8.53893 21.3959 10.3072 23.4566 11.681C23.5055 11.7136 23.5349 11.7686 23.5349 11.8274V25.5999H8.60156ZM12.3348 20.7983C14.8192 21.0147 17.3172 21.0147 19.8016 20.7983V22.3302C19.1788 22.2651 18.5577 22.2306 17.9349 22.2076C16.0682 22.1483 14.1981 22.1521 12.3348 22.3302V20.7983ZM19.8016 17.2665C17.3172 17.4829 14.8192 17.4829 12.3348 17.2665V18.7983C14.1981 18.6203 16.0682 18.6164 17.9349 18.6758C18.5577 18.6988 19.1788 18.7332 19.8016 18.7983V17.2665Z" fill="#73D3EB"/>
</svg>
