<svg width="32" height="32" viewBox="0 0 32 32" fill="none" xmlns="http://www.w3.org/2000/svg">
<rect width="32" height="32" rx="16" fill="#122315"/>
<g clip-path="url(#clip0_9002_101902)">
<path d="M25.3533 6.83955C21.3161 6.47254 17.9824 6.52867 15.3408 6.9993C12.6992 7.46994 10.7108 8.37234 9.39429 9.68925C7.52962 11.5545 6.60879 13.7465 6.6016 16.2335C6.59584 18.3233 7.26057 20.2072 8.58425 21.8681L7.66775 23.4715C8.36268 24.2616 9.23315 24.9567 10.2043 25.6001L11.4532 24.3897C12.8229 25.1942 14.3265 25.5972 15.9638 25.6001C18.4601 25.603 20.6413 24.6718 22.506 22.8065C23.8224 21.4896 24.726 19.5006 25.195 16.8581C25.6756 14.2056 25.7317 10.8709 25.3548 6.84243L25.3533 6.83955ZM16.874 15.2317C15.2208 16.9502 13.6514 18.9101 12.0802 20.7121L11.5381 20.2375C12.8085 18.1693 14.3279 16.258 16.0314 14.5266C17.7364 12.7908 19.6543 11.2465 21.7535 10.0145L22.2157 10.7104C20.3035 12.1295 18.52 13.5147 16.874 15.2317Z" fill="#73D3EB"/>
</g>
<defs>
<clipPath id="clip0_9002_101902">
<rect width="20" height="20" fill="white" transform="translate(6 6)"/>
</clipPath>
</defs>
</svg>
