<svg width="168" height="168" viewBox="0 0 168 168" fill="none" xmlns="http://www.w3.org/2000/svg">
<g clip-path="url(#clip0_9063_16195)">
<g clip-path="url(#clip1_9063_16195)">
<path d="M108.701 163.599C152.121 148.912 176.25 101.535 162.593 57.7796C148.937 14.0244 102.668 -9.53988 59.2478 5.14741C15.8278 19.8347 -8.30054 67.2117 5.35568 110.967C19.0119 154.722 65.2813 178.286 108.701 163.599Z" fill="#55DD4A"/>
<path d="M108.852 164.081C65.2361 178.835 18.5951 155.081 4.87726 111.129C-8.84054 67.1763 15.4816 19.4188 59.0974 4.66524C102.713 -10.0883 149.354 13.6652 163.072 57.6178C176.79 101.57 152.468 149.328 108.852 164.081ZM59.3971 5.62548C16.3088 20.2005 -7.72173 67.3856 5.83014 110.806C19.382 154.227 65.4639 177.696 108.552 163.121C151.64 148.546 175.671 101.361 162.119 57.9401C148.567 14.5192 102.485 -8.94958 59.3971 5.62548Z" fill="#122315"/>
<path d="M119.486 153.124C157.296 132.453 172.006 84.9304 152.34 46.9788C132.674 9.02724 86.0809 -4.98152 48.2705 15.6894C10.46 36.3602 -4.24931 83.8831 15.4163 121.835C35.0819 159.786 81.6754 173.795 119.486 153.124Z" fill="#122315"/>
<path d="M20.8529 71.7626C18.5524 71.1949 17.2861 69.0275 17.8918 66.6679C18.0521 66.0364 18.3257 65.5291 18.7718 65.0252L20.6853 65.4961C20.1217 65.8488 19.743 66.3794 19.5806 66.9974C19.2362 68.337 19.9774 69.5771 21.3269 69.9111C22.6648 70.2415 23.9277 69.4962 24.272 68.1566C24.4325 67.5348 24.3492 66.8946 24.0273 66.3213L25.9292 66.7888C26.0769 67.4966 26.0708 68.0584 25.9141 68.6781C25.3137 71.0103 23.1514 72.3264 20.8509 71.7588L20.8529 71.7626Z" fill="#EFE9E0"/>
<path d="M20.8595 58.3956L21.5256 56.6789L28.9709 59.5243L28.3049 61.2409L25.243 60.0712L24.2257 62.7003L27.2876 63.87L26.6216 65.5867L19.1782 62.7451L19.8442 61.0285L22.7054 62.1219L23.7227 59.4928L20.8615 58.3994L20.8595 58.3956Z" fill="#EFE9E0"/>
<path d="M31.8781 53.9588L30.3676 53.6248L29.0319 56.1197L30.1461 57.1948L29.1935 58.9705L23.4877 52.7526L24.5073 50.8521L32.8345 52.1811L31.8819 53.9567L31.8781 53.9588ZM27.8456 54.9812L28.7666 53.2669L25.2528 52.4769L27.8456 54.9812Z" fill="#EFE9E0"/>
<path d="M29.5484 43.024L30.6148 41.524L37.0832 46.1829L36.0318 47.6648L30.3622 47.4134L34.2346 50.2017L33.1682 51.7016L26.6999 47.0427L27.8037 45.4831L33.5353 45.8916L29.5522 43.0219L29.5484 43.024Z" fill="#EFE9E0"/>
<path d="M36.8891 39.4536L39.2234 36.9361L41.9265 39.5024C41.8743 40.5303 41.501 41.5038 40.7192 42.3483C39.0047 44.1981 36.5463 44.2852 34.8072 42.6362C33.0544 40.9701 33.025 38.4683 34.7188 36.6445C35.1635 36.1659 35.6164 35.8444 36.1294 35.6762L37.5356 37.0128C36.899 37.131 36.4083 37.3703 36.0051 37.8066C35.033 38.8581 35.079 40.2633 36.1112 41.2462C37.1512 42.2345 38.5695 42.2026 39.5322 41.1612C39.8016 40.8716 39.9784 40.5446 40.0952 40.1867L39.1527 39.2919L38.0147 40.5224L36.8891 39.4536Z" fill="#EFE9E0"/>
<path d="M43.2128 31.1808L40.8913 33.1673L41.8594 34.3372L43.7386 32.7301L44.7498 33.9549L42.8707 35.562L43.919 36.8301L46.2406 34.8436L47.2752 36.0947L43.5623 39.2742L38.4711 33.1109L42.184 29.9314L43.2186 31.1825L43.2128 31.1808Z" fill="#EFE9E0"/>
<path d="M51.3115 25.6064L49.6953 26.6481L53.0398 32.0972L51.4919 33.0918L48.1473 27.6427L46.5311 28.6845L45.6802 27.2984L50.4625 24.2241L51.3135 25.6102L51.3115 25.6064Z" fill="#EFE9E0"/>
<path d="M56.017 21.3345L57.6506 20.5234L61.0692 27.7981L59.4357 28.6092L58.0293 25.6168L55.5287 26.8635L56.935 29.8559L55.3015 30.6671L51.8829 23.3924L53.5164 22.5813L54.8294 25.3749L57.3301 24.1282L56.017 21.3345Z" fill="#EFE9E0"/>
<path d="M64.9226 19.5405L62.0697 20.5686L62.5556 22.0222L64.8653 21.1886L65.3714 22.7096L63.0617 23.5432L63.586 25.1178L66.4389 24.0897L66.9551 25.6394L62.3927 27.2851L59.8403 19.6385L64.4026 17.9929L64.9188 19.5426L64.9226 19.5405Z" fill="#EFE9E0"/>
<path d="M76.6007 15.2646L78.4532 14.941L77.6788 23.2859L75.7689 23.6213L73.8772 18.4996L73.5856 24.0035L71.6661 24.3393L68.4753 16.686L70.3049 16.3652L72.2999 21.7047L72.5915 15.9656L74.3313 15.6597L76.3128 21.0016L76.6044 15.2626L76.6007 15.2646Z" fill="#EFE9E0"/>
<path d="M79.7596 18.9416C79.7675 16.4929 81.5559 14.7006 84.0056 14.6624C86.4649 14.6239 88.2322 16.3554 88.2242 18.8041C88.2163 21.2528 86.4375 23.0447 83.9782 23.0832C81.5285 23.1214 79.7517 21.3903 79.7596 18.9416ZM86.3611 18.8346C86.3665 17.4062 85.3721 16.3929 84.0016 16.4134C82.6406 16.4335 81.6435 17.484 81.6381 18.9124C81.6327 20.3409 82.6271 21.3542 83.988 21.334C85.3624 21.3114 86.3595 20.261 86.3631 18.8384L86.3611 18.8346Z" fill="#EFE9E0"/>
<path d="M94.9694 23.7056L93.133 23.4863C93.3793 21.9013 92.6623 20.736 91.3719 20.4873L91.0046 23.231L89.2143 23.0159L90.2996 14.9506L92.8602 15.2584C94.5506 15.4596 95.5258 16.5961 95.3173 18.1409C95.1805 19.1563 94.5802 19.8427 93.6753 20.0736C94.7222 20.7839 95.2149 22.072 94.9732 23.7035L94.9694 23.7056ZM91.8776 16.7222L91.5751 18.97L92.0746 19.0296C92.8333 19.1188 93.3793 18.7415 93.4697 18.06C93.5638 17.3667 93.1224 16.8735 92.3521 16.7809L91.8738 16.7243L91.8776 16.7222Z" fill="#EFE9E0"/>
<path d="M98.1565 22.7238L100.968 23.3646L100.582 24.9722L96.0158 23.9303L97.916 16.0064L99.6709 16.4074L98.1565 22.7238Z" fill="#EFE9E0"/>
<path d="M109.011 23.4972C108.201 25.7923 106.093 26.7994 103.768 25.9956L101.346 25.1564L104.062 17.4679L106.484 18.3071C108.809 19.1109 109.821 21.2021 109.011 23.4972ZM104.244 24.4121C105.559 24.8678 106.778 24.2543 107.257 22.8903C107.737 21.5302 107.17 20.2973 105.859 19.8396L105.215 19.6142L103.598 24.1829L104.246 24.4062L104.244 24.4121Z" fill="#EFE9E0"/>
<g clip-path="url(#clip2_9063_16195)">
<path d="M64.7073 130.801C64.9036 130.476 65.2099 130.558 65.4618 130.658C67.2583 131.362 69.2083 131.656 70.8983 132.657C71.424 132.968 71.9802 133.232 72.4673 133.605C72.9484 133.974 73.5052 134.044 74.0825 134.018C74.9204 133.979 75.4079 133.241 75.0217 132.501C74.3664 131.249 73.4697 130.243 71.9876 129.955C70.6846 129.7 69.4179 129.324 68.1716 128.874C67.8149 128.746 67.4247 128.66 67.1783 128.359C66.5441 127.584 65.6166 127.504 64.7393 127.393C63.9028 127.288 63.0402 127.345 62.1891 127.346C62.0555 127.347 61.922 127.431 61.8273 127.463C61.6289 127.693 61.5454 127.919 61.58 128.165C61.6882 128.921 61.8335 129.671 61.7946 130.445C61.7712 130.924 62.107 131.222 62.3469 131.567C62.5496 131.858 62.6365 132.165 62.4643 132.507C62.2594 132.916 61.8851 133.026 61.4949 132.967C58.9323 132.583 56.2802 132.559 53.9929 131.096C52.7621 130.31 51.4523 129.656 50.0009 129.326C49.5848 129.231 49.2095 129.021 48.8742 128.752C48.531 128.476 48.3046 128.132 48.2171 127.689C48.038 126.79 48.5282 126.256 49.4075 126.447C49.7721 126.526 50.1235 126.688 50.459 126.855C51.3436 127.301 52.2365 127.736 53.0869 128.24C54.264 128.939 55.5688 129.12 56.8983 129.213C57.6457 129.266 58.2956 128.825 58.4853 128.227C58.676 127.623 58.3938 126.956 57.7129 126.562C57.2658 126.303 56.7756 126.12 56.307 125.898C55.2406 125.396 54.173 124.895 53.1094 124.387C52.6309 124.158 52.2234 123.858 52.0548 123.308C51.8657 122.688 52.1651 122.228 52.8017 122.242C53.5715 122.26 54.2888 122.5 54.9894 122.794C55.8589 123.159 56.7173 123.558 57.6102 123.863C58.4117 124.136 59.2428 124.345 60.0765 124.507C62.4123 124.961 64.6288 125.763 66.8063 126.673C67.4114 126.927 67.9647 127.303 68.5384 127.628C68.8684 127.815 69.1998 127.997 69.5946 128C69.9019 128.002 70.1647 127.89 70.2905 127.59C70.3967 127.339 70.2809 127.126 70.1031 126.952C69.5251 126.385 68.8694 125.923 68.1338 125.592C66.7589 124.971 65.385 124.345 63.9877 123.779C62.7982 123.297 61.7406 122.585 60.6267 121.973C59.5883 121.402 58.5131 120.932 57.3575 120.642C57.0373 120.561 56.7065 120.488 56.4113 120.348C54.7962 119.582 53.058 119.39 51.2954 119.385C50.3051 119.383 49.31 119.519 48.3189 119.602C48.0202 119.628 47.7883 119.806 47.5951 120.035C47.4085 120.256 47.2534 120.518 47.0303 120.693C45.4663 121.916 44.9944 123.686 44.5786 125.478C44.4039 126.231 44.2262 126.975 43.868 127.671C43.5545 128.277 43.0675 128.621 42.4107 128.728C41.8867 128.814 41.461 128.558 41.3259 128.05C41.2132 127.629 41.214 127.193 41.3347 126.77C41.5205 126.122 41.7271 125.481 41.9419 124.842C42.1106 124.34 42.2872 123.839 42.4888 123.349C42.8773 122.406 42.5747 121.553 42.2058 120.724C41.9634 120.181 41.4351 120.266 40.96 120.318C40.3834 120.379 40.172 120.554 40.05 121.071C39.9947 121.304 39.9641 121.545 39.9601 121.784C39.9218 124.268 39.1718 126.614 38.4149 128.952C38.0282 130.148 37.4563 131.277 36.6638 132.266C35.7968 133.348 35.3374 134.609 34.9384 135.901C34.5366 137.202 34.2949 138.509 34.5794 139.867C34.6613 140.26 34.7292 140.729 34.3217 141.076C33.8458 141.079 33.55 140.745 33.2598 140.453C31.427 138.618 29.6221 136.759 28.0874 134.65C27.6902 134.103 27.562 133.557 27.73 132.908C28.0818 131.554 28.6219 130.263 29.1295 128.961C29.7079 127.48 30.3944 126.039 30.7578 124.485C30.8345 124.158 30.9879 123.802 30.9269 123.499C30.7067 122.403 30.9067 121.302 30.8784 120.206C30.8746 120.063 30.8686 119.918 30.8477 119.777C30.7895 119.376 30.4042 119.213 30.1253 119.488C29.8875 119.722 29.6593 119.983 29.4916 120.269C29.2014 120.769 28.9612 121.298 28.6999 121.816C28.3974 122.416 28.1843 123.055 27.7071 123.57C27.4908 123.803 27.3979 124.162 27.2823 124.476C27.0822 125.023 26.8503 125.551 26.5269 126.037C25.7077 127.267 24.5015 127.583 23.1528 127.54C22.742 127.528 22.4478 127.27 22.226 126.955C21.4117 125.803 20.7111 124.582 20.0874 123.408C20.2579 123.023 20.5056 122.979 20.7344 122.939C21.698 122.767 22.2223 122.106 22.5478 121.254C22.9107 120.307 23.2807 119.36 23.5574 118.389C23.8901 117.221 24.3669 116.122 24.9238 115.048C25.1677 114.577 25.4044 114.097 25.5818 113.599C25.9227 112.643 25.3667 111.644 24.4008 111.407C23.4665 111.179 22.4657 111.548 21.9001 112.39C21.5786 112.868 21.296 113.383 21.0637 113.91C20.4002 115.42 19.5327 116.812 18.6427 118.193C18.1239 118.998 17.6577 118.971 17.1738 118.147C16.7111 117.358 16.6104 116.597 17.1179 115.719C17.9377 114.295 18.5712 112.777 19.1066 111.224C19.154 111.087 19.201 110.949 19.267 110.821C20.2169 108.98 21.1458 107.129 22.1358 105.31C22.4059 104.811 22.8532 104.405 23.2272 103.964C23.4738 103.674 23.8093 103.683 24.1497 103.684C24.9872 103.686 25.8256 103.667 26.794 103.655C26.4731 102.846 25.8986 102.509 25.3382 102.217C24.2134 101.63 22.976 101.288 21.8757 100.626C21.2872 100.272 20.5756 100.497 19.9161 100.586C19.378 100.659 19.1578 101.118 18.8441 101.481C17.4419 103.111 16.4991 105.007 15.5912 106.926C15.2204 107.712 14.8345 108.491 14.4516 109.271C14.3665 109.445 14.2585 109.607 14.0508 109.658C13.3433 109.011 13.1337 108.182 13.5666 107.269C14.2895 105.744 14.9038 104.16 15.8414 102.746C16.198 102.207 16.291 101.728 16.0928 101.13C15.9445 100.683 15.946 100.185 15.8196 99.7284C15.5061 98.5891 14.7205 98.2555 13.6361 98.7896C13.2934 98.9579 12.9795 99.1906 12.648 99.3857C12.4455 99.5051 12.2351 99.6083 12.0917 99.6844C11.7284 99.5818 11.6696 99.3515 11.6344 99.1131C11.4597 97.9342 11.2518 96.765 11.3049 95.5526C11.3353 94.8353 11.5365 94.2275 12.0541 93.7396C12.9613 92.8843 13.5162 91.8455 13.8363 90.6504C14.0937 89.6919 14.6181 88.9093 15.515 88.3936C16.9078 87.5951 18.5107 87.8283 19.4963 89.04C19.8528 89.4795 20.2 89.9352 20.4821 90.4247C21.4194 92.0498 22.7147 93.3647 24.1179 94.5457C25.2288 95.4792 26.4549 96.3069 27.7282 97.0066C29.8405 98.1689 31.7561 99.6231 33.7955 100.887C35.5307 101.963 37.0424 103.301 38.5899 104.609C39.2709 105.185 40.0072 105.709 40.7753 106.164C44.1372 108.155 47.3811 110.35 50.9524 111.987C51.975 112.456 52.8897 113.148 53.8659 113.719C55.411 114.624 56.9762 115.495 58.5141 116.414C60.9831 117.891 63.4454 119.378 65.5606 121.36C65.9422 121.717 66.4013 121.959 66.8901 122.151C68.0819 122.622 69.1315 123.294 70.1291 124.121C71.5407 125.292 72.8378 126.607 74.3977 127.602C74.9531 127.956 75.4901 128.336 76.0836 128.632C77.8888 129.527 79.4039 130.773 80.5895 132.416C80.8381 132.761 81.0978 133.1 81.3761 133.419C81.5597 133.63 81.7536 133.902 81.9981 133.978C83.5333 134.459 84.776 135.536 86.3792 135.919C89.0315 136.554 91.097 138.213 92.9934 140.095C93.629 140.725 94.2804 141.341 94.9204 141.967C95.088 142.131 95.2603 142.297 95.3956 142.489C95.7281 142.958 95.6894 143.421 95.3148 143.784C94.9321 144.155 94.5078 144.193 94.0221 143.861C93.7913 143.703 93.5839 143.504 93.3861 143.304C92.9897 142.899 92.5787 142.504 92.2261 142.064C90.9132 140.427 89.1968 139.397 87.2485 138.709C85.8689 138.223 84.4999 137.706 83.1004 137.281C81.8372 136.898 80.5433 136.603 79.1874 136.733C78.4761 136.8 77.7673 136.782 77.0586 136.686C76.2088 136.57 75.3525 136.616 74.5037 136.778C73.4612 136.976 72.5177 136.774 71.6828 136.143C70.856 135.519 69.9747 134.949 69.2337 134.232C68.4058 133.433 67.4976 132.79 66.4855 132.271C65.9405 131.991 65.3924 131.711 64.9389 131.287C64.8016 131.159 64.6642 131.031 64.7091 130.797L64.7073 130.801ZM37.004 108.537C36.7552 107.991 36.3484 107.837 35.9334 107.774C34.9827 107.629 34.1424 107.218 33.2819 106.835C32.3304 106.412 31.33 106.177 30.2499 106.343C29.3055 106.488 28.3537 106.474 27.4337 106.203C26.2244 105.849 26.0228 106.506 26.0065 107.329C25.9925 108.006 26.1929 108.299 26.8437 108.443C27.2087 108.523 27.5933 108.563 27.9696 108.553C28.9165 108.528 29.8668 108.505 30.8094 108.406C32.3793 108.24 33.9322 108.262 35.4841 108.495C35.9417 108.564 36.4016 108.716 37.004 108.537ZM37.5813 112.859C36.6399 113.171 35.9679 113.905 35.5715 114.874C35.1906 115.804 34.8692 116.763 34.5765 117.724C34.3052 118.615 34.512 119.054 35.2896 119.492C36.0766 119.938 36.4281 119.811 36.7878 118.897C37.2796 117.647 37.7568 116.391 38.2114 115.129C38.3887 114.635 38.5302 114.12 38.6117 113.604C38.7184 112.931 38.3161 112.629 37.583 112.859L37.5813 112.859Z" fill="#AEFFE4"/>
<path d="M107.665 82.6684C108.07 82.6421 108.447 82.6279 108.824 82.5907C109.336 82.5412 109.753 82.7319 110.11 83.0677C111.414 84.2925 112.807 85.4186 113.938 86.8269C114.497 87.5238 115.16 88.1346 115.74 88.8157C116.075 89.2074 116.356 89.652 116.626 90.0932C116.777 90.3389 116.849 90.6448 116.547 90.8603C116.266 91.0617 115.992 90.9333 115.775 90.7405C115.458 90.459 115.168 90.147 114.865 89.8509C114.259 89.2557 113.608 88.7339 112.834 88.5013C112.482 88.7219 112.477 88.9784 112.614 89.1763C113.503 90.4512 114.247 91.8259 115.353 92.9518C117.015 94.6447 118.802 96.1627 120.852 97.359C121.732 97.8732 122.361 98.5944 122.769 99.5577C123.138 100.428 123.651 101.232 124.074 102.08C124.412 102.758 124.38 103.242 124.019 103.348C123.472 103.51 123.251 103.06 123.029 102.726C122.415 101.802 121.518 101.174 120.751 100.414C120.717 100.381 120.681 100.348 120.642 100.324C120.469 100.224 120.287 100.185 120.122 100.337C119.967 100.481 119.936 100.676 119.998 100.866C120.057 101.045 120.139 101.219 120.231 101.382C120.786 102.374 121.33 103.373 121.91 104.348C122.451 105.256 123.195 105.988 124.073 106.557C124.885 107.082 125.494 107.77 126.004 108.586C127.021 110.209 128.337 111.55 129.897 112.646C131.836 114.008 133.438 115.754 135.172 117.349C135.443 117.598 135.729 117.881 135.555 118.335C135.106 118.66 134.745 118.333 134.358 118.212C133.768 118.029 133.497 118.112 133.261 118.534C133.022 118.961 133.049 119.278 133.454 119.691C134.528 120.782 135.815 121.592 137.214 122.161C138.486 122.678 139.68 123.346 140.947 123.86C141.12 123.929 141.305 124.015 141.429 124.145C142.354 125.118 143.505 125.755 144.687 126.345C144.763 126.382 144.803 126.488 144.91 126.626C144.891 127.402 144.222 127.768 143.682 128.354C142.869 127.904 141.98 127.875 141.078 127.886C140.351 127.895 139.68 127.662 139.056 127.306C138.236 126.84 137.412 126.38 136.606 125.893C136.245 125.675 135.886 125.434 135.585 125.143C133.476 123.115 131.505 120.955 129.594 118.737C128.359 117.303 127.324 115.734 126.29 114.153C125.517 112.971 124.545 111.927 123.716 110.781C122.722 109.406 121.772 107.997 120.83 106.584C119.574 104.701 118.343 102.796 117.096 100.905C116.922 100.642 116.805 100.286 116.373 100.345C116.091 100.532 116.186 100.789 116.303 100.974C116.818 101.786 117.109 102.689 117.339 103.616C117.482 104.19 117.787 104.642 118.196 105.058C119.506 106.389 120.04 108.113 120.382 109.906C120.568 110.885 120.58 111.896 121.079 112.801C121.229 113.073 121.215 113.447 121.242 113.779C121.324 114.82 121.389 115.862 121.466 116.981C121.938 116.815 121.897 116.441 121.955 116.158C122.074 115.581 122.239 115.046 122.702 114.631C123.362 114.04 124.118 114.209 124.358 115.058C124.619 115.981 124.671 116.941 124.57 117.905C124.484 118.72 124.455 119.532 124.556 120.342C124.58 120.532 124.567 120.731 124.62 120.911C125.185 122.838 125.352 124.826 125.455 126.896C125.675 126.502 125.885 126.1 126.119 125.714C126.435 125.191 126.842 124.787 127.505 124.872C128.167 124.954 128.653 125.272 128.838 125.961C129.364 127.937 129.929 129.894 130.237 131.936C130.459 133.4 130.676 134.857 130.76 136.339C130.764 136.407 130.859 136.468 130.912 136.533C131.117 136.426 131.137 136.219 131.139 136.039C131.146 134.65 131.437 133.27 131.339 131.877C131.323 131.64 131.333 131.395 131.371 131.159C131.575 129.893 132.421 129.328 133.636 129.621C134.253 129.77 134.633 130.119 134.697 130.781C134.888 132.779 135.079 134.776 135.283 136.773C135.33 137.241 135.188 137.612 134.848 137.937C132.3 140.37 129.7 142.737 126.77 144.702C126.49 144.89 126.172 145.034 125.931 145.264C124.63 146.507 123.045 147.344 121.622 148.412C120.036 149.603 118.237 150.422 116.565 151.462C116.262 151.651 115.912 151.899 115.515 151.672C115.319 151.365 115.517 151.11 115.631 150.857C116.696 148.524 117.512 146.102 118.29 143.667C118.629 142.603 119.041 141.583 119.655 140.645C120.359 139.572 120.746 138.402 120.842 137.123C120.928 135.974 121.12 134.835 121.412 133.712C121.582 133.058 121.713 132.395 121.569 131.72C121.519 131.491 121.491 131.247 121.238 131.139C120.939 131.108 120.81 131.335 120.696 131.538C120.007 132.759 119.371 133.969 119.381 135.45C119.392 137.017 118.811 138.474 117.958 139.792C116.807 141.574 115.722 143.391 114.329 145.022C113.332 146.187 112.591 147.574 111.743 148.867C111.181 149.727 110.513 150.481 109.646 151.034C109.491 151.133 109.307 151.187 109.173 151.245C108.599 151.055 108.639 150.579 108.559 150.174C108.462 149.682 108.564 149.217 108.83 148.792C109.445 147.81 110.067 146.833 110.694 145.859C111.216 145.046 111.753 144.243 112.272 143.428C112.426 143.185 112.641 142.916 112.648 142.658C112.675 141.713 113.294 141.196 113.937 140.672C114.161 140.49 114.384 140.303 114.572 140.086C114.86 139.756 114.818 139.577 114.35 138.964C113.764 139.087 113.394 139.565 113.039 139.988C112.127 141.073 110.981 141.877 109.913 142.774C109.025 143.518 108.118 143.566 107.162 142.951C106.402 142.461 106.174 141.904 106.488 141.004C106.762 140.217 107.257 139.567 107.814 138.949C109.398 137.194 110.916 135.387 112.195 133.362C111.93 133.138 111.776 133.384 111.638 133.515C110.799 134.309 109.897 135.038 109.205 135.985C108.831 136.495 108.303 136.856 107.782 137.203C107.589 137.33 107.348 137.425 107.122 137.449C106.377 137.529 105.858 136.921 106.012 136.185C106.105 135.742 106.36 135.404 106.665 135.081C107.69 133.994 108.743 132.927 109.708 131.788C110.601 130.733 111.331 129.561 111.778 127.944C111.017 128.536 110.703 129.119 110.386 129.699C109.559 131.208 108.358 132.39 107.074 133.491C106.535 133.952 106.128 133.963 105.64 133.661C105.272 133.434 105.116 133.088 105.284 132.686C105.43 132.336 105.618 131.983 105.858 131.689C107.147 130.109 107.857 128.269 108.234 126.314C108.587 124.488 109.271 122.913 110.872 121.843C110.949 121.792 111.007 121.703 111.056 121.621C111.104 121.542 111.127 121.45 111.167 121.352C110.976 121.054 110.751 121.254 110.575 121.362C109.829 121.816 109.134 122.331 108.748 123.161C108.728 123.204 108.706 123.248 108.68 123.289C108.471 123.623 108.262 123.96 107.786 123.85C107.365 123.753 107.191 123.43 107.257 122.838C107.303 122.406 107.387 121.986 107.642 121.61C107.827 121.337 107.978 121.04 108.121 120.794C107.949 120.405 107.701 120.543 107.49 120.601C107.099 120.709 106.736 120.663 106.387 120.484C105.965 120.268 105.811 119.863 105.97 119.4C106.1 119.024 106.33 118.708 106.629 118.461C107.111 118.064 107.588 117.642 108.12 117.327C109.158 116.713 109.818 115.794 110.438 114.743C110.016 114.453 109.668 114.706 109.342 114.807C108.645 115.023 107.954 115.147 107.233 115.007C106.42 114.849 106.119 114.325 106.443 113.556C106.536 113.337 106.663 113.118 106.824 112.944C107.509 112.203 108.122 111.392 108.991 110.829C109.5 110.5 110.057 110.151 110.175 109.474C109.996 108.95 109.56 108.895 109.137 108.846C108.123 108.728 107.228 108.324 106.396 107.766C106.24 107.661 106.078 107.556 106.06 107.277C106.47 106.568 107.378 106.424 107.914 105.81C108.42 105.233 108.882 104.636 109.206 103.939C108.765 103.62 108.414 103.762 108.084 103.969C107.76 104.175 107.47 104.439 107.139 104.63C106.827 104.809 106.499 104.817 106.232 104.494C106.081 103.954 106.356 103.476 106.535 102.983C107.177 101.217 107.844 99.459 108.465 97.6865C108.718 96.9652 108.694 96.2024 108.735 95.2808C108.179 95.6885 108.038 96.1537 107.825 96.5617C107.579 97.0336 107.349 97.5185 106.942 97.8759C106.589 98.1844 106.27 98.5805 105.764 98.5233C105.473 98.3655 105.471 98.1086 105.474 97.878C105.486 96.8247 105.477 95.7646 105.717 94.7275C106.509 91.2937 106.868 87.8059 107.267 84.3219C107.326 83.8086 107.224 83.2583 107.665 82.6728L107.665 82.6684ZM114.145 106.02C113.731 106.82 113.147 107.569 113.198 108.421C113.253 109.354 112.986 110.095 112.46 110.815C112.293 111.043 112.178 111.318 112.081 111.585C112.04 111.696 112.112 111.847 112.127 111.942C112.51 112.244 113.037 111.906 113.418 112.41C113.595 113.075 113.353 113.807 113.113 114.53C112.856 115.303 112.557 116.063 112.293 116.835C112.132 117.304 112.114 117.773 112.369 118.216C112.519 118.478 112.882 118.542 113.089 118.32C113.22 118.181 113.347 118.031 113.438 117.866C114.07 116.733 114.677 115.588 115.408 114.511C115.647 114.16 115.839 113.75 115.606 113.32C115.515 113.257 115.446 113.185 115.363 113.156C114.01 112.697 113.637 112.179 113.718 110.774C113.743 110.349 113.856 109.925 113.94 109.504C114.062 108.894 114.214 108.29 114.313 107.676C114.402 107.122 114.474 106.556 114.145 106.018L114.145 106.02ZM118.876 122.682C117.853 123.43 117.276 124.339 117.121 125.576C116.971 126.756 116.714 127.933 116.159 129.022C116.055 129.226 116.011 129.475 116 129.705C115.989 129.898 116.108 130.067 116.294 130.151C116.479 130.234 116.662 130.211 116.822 130.075C116.931 129.983 117.036 129.884 117.133 129.778C118.777 128.01 119.109 125.787 119.363 123.543C119.4 123.218 119.365 122.865 118.877 122.684L118.876 122.682ZM110.874 107.182C111.171 107.119 111.385 106.922 111.578 106.707C112.537 105.643 113.134 104.391 113.477 103.018C113.544 102.751 113.525 102.443 113.468 102.173C113.356 101.643 112.729 101.499 112.357 101.91C112.199 102.084 112.061 102.298 111.98 102.518C111.545 103.695 111.049 104.842 110.42 105.932C110.273 106.187 110.191 106.457 110.244 106.758C110.294 107.038 110.608 107.257 110.873 107.181L110.874 107.182ZM111.818 97.2494C111.723 96.9454 111.586 96.8243 111.379 96.8115C111.105 96.7938 110.917 96.9505 110.85 97.2028C110.565 98.2739 110.152 99.2998 109.75 100.332C109.669 100.541 109.68 100.801 109.7 101.031C109.716 101.218 109.81 101.4 110.009 101.474C110.208 101.549 110.39 101.474 110.519 101.323C111.554 100.109 111.725 98.6425 111.818 97.2494Z" fill="#006739"/>
<path d="M100.777 81.8639C102.476 81.5759 104.08 80.7831 105.759 80.5527C105.993 81.0234 105.773 81.1825 105.584 81.3001C105.147 81.5746 104.686 81.8132 104.087 82.1512C104.616 82.355 105.079 81.986 105.47 82.3831C105.663 83.2256 105.386 84.1109 105.21 84.9939C105.138 85.3513 104.834 85.5344 104.528 85.6959C103.805 86.0757 103.075 86.4419 102.371 86.8546C102.07 87.0306 101.647 87.1913 101.81 87.7836C102.802 87.9354 103.669 87.0719 104.649 87.2555C105.04 87.6219 104.972 88.0451 104.844 88.4695C104.738 88.8257 104.443 88.9981 104.126 89.1299C103.727 89.294 103.316 89.4301 102.926 89.6144C102.465 89.8315 102.012 90.0736 101.542 90.6368C102.712 90.5802 103.575 89.8779 104.49 89.9541C104.851 90.1898 104.858 90.4783 104.843 90.7687C104.822 91.1508 104.76 91.5358 104.767 91.9175C104.785 92.8134 104.376 93.346 103.519 93.6095C102.191 94.0182 100.911 94.55 99.7005 95.4395C100.01 95.6623 100.252 95.4478 100.474 95.3815C101.298 95.1304 102.111 94.8424 102.935 94.5914C103.341 94.4672 103.762 94.3262 104.177 94.5305C104.452 94.7547 104.387 95.0531 104.325 95.3288C104.155 96.0801 103.972 96.8288 103.78 97.5744C103.458 98.8226 103.413 100.053 103.994 101.216C104.367 101.964 104.35 102.65 103.865 103.369C103.127 104.464 103.102 105.618 103.601 106.797C103.748 107.146 103.847 107.516 103.957 107.88C104.15 108.516 104.341 109.154 104.521 109.795C104.704 110.45 105.186 110.929 105.521 111.508C105.341 112.283 104.666 112.808 104.58 113.611C104.496 114.399 104.792 115.114 104.852 115.764C104.739 116.192 104.476 116.332 104.219 116.454C103.05 117.009 101.873 117.544 100.703 118.1C100.183 118.347 99.677 118.624 99.1687 118.895C98.9083 119.034 98.6877 119.217 98.6176 119.541C98.7564 119.986 99.1148 119.891 99.4297 119.811C100.916 119.433 102.346 118.885 103.751 118.256C104.214 118.048 104.673 117.749 105.155 117.884C105.341 118.162 105.248 118.345 105.135 118.49C104.519 119.285 104.566 120.135 104.999 120.924C105.622 122.057 105.683 123.244 105.584 124.511C105.492 125.704 105.517 126.908 105.732 128.09C105.793 128.425 105.786 128.751 105.657 129.017C105.361 129.238 105.144 129.143 104.969 128.978C103.768 127.848 102.573 126.71 101.376 125.573C101.204 125.408 101.063 125.22 101.063 124.938C101.169 124.424 101.921 124.306 101.903 123.628C101.499 123.314 101.032 123.386 100.579 123.541C99.9715 123.749 99.4753 123.63 99.0068 123.214C97.5274 121.896 96.0791 120.547 94.7276 119.094C94.6076 118.966 94.5564 118.774 94.4539 118.576C94.9477 117.848 95.718 117.602 96.421 117.466C98.3495 117.095 99.9394 115.978 101.662 115.152C101.736 115.117 101.773 115.003 101.833 114.914C101.835 114.462 101.514 114.38 101.165 114.392C100.729 114.406 100.343 114.621 99.9492 114.804C98.6423 115.407 97.3413 116.025 96.0186 116.591C95.3164 116.893 94.5759 117.104 93.8491 117.346C93.4645 117.473 93.1077 117.419 92.7676 117.191C92.1175 116.756 89.8169 114.31 89.315 113.494C89.3306 113.148 89.581 113.001 89.8437 112.874C92.2234 111.727 94.623 110.635 97.127 109.798C98.3979 109.372 99.6611 108.917 100.926 108.473C101.51 108.269 102.061 108.014 102.421 107.499C102.265 107.171 102.022 107.179 101.789 107.176C100.814 107.165 99.9009 107.432 99.0433 107.897C98.1918 108.358 97.2985 108.685 96.3749 108.952C95.6873 109.151 94.9775 109.349 94.3572 109.694C92.6974 110.62 90.8519 110.973 89.1194 111.661C88.151 112.045 87.3679 111.925 86.7033 111.127C86.4683 110.844 86.1008 110.659 86.091 110.278C86.1133 109.995 86.2766 109.876 86.4469 109.802C88.6913 108.832 90.9391 107.873 93.1844 106.905C95.5179 105.899 97.8548 104.899 100.179 103.871C100.678 103.65 101.193 103.407 101.571 102.964C101.301 102.677 101.076 102.842 100.87 102.91C99.3664 103.406 97.8917 103.974 96.5056 104.762C95.9983 105.05 95.4803 105.28 94.9016 105.358C94.6672 105.39 94.4289 105.445 94.2079 105.533C92.0284 106.404 89.8393 107.25 87.684 108.179C86.7566 108.579 85.8155 108.925 84.8717 109.272C84.4023 109.444 83.9349 109.432 83.4689 109.303C82.6946 109.089 81.9069 108.912 81.1527 108.641C80.2169 108.306 79.272 108.016 78.2981 107.81C78.024 107.752 77.7507 107.658 77.5023 107.533C77.2353 107.399 77.0676 107.173 77.1642 106.757C77.9081 106.179 78.9041 106.158 79.7712 105.789C80.6537 105.413 81.5483 105.067 82.409 104.645C83.257 104.229 84.1829 103.955 85.1651 103.135C83.6838 103.617 82.4716 103.998 81.3254 104.558C80.111 105.15 78.8439 105.583 77.5673 105.99C76.5736 106.307 76.3818 106.224 75.7719 105.387C75.5762 105.119 75.3832 104.849 75.3602 104.427C75.7356 103.814 76.5457 103.751 77.1902 103.18C76.365 103.377 75.6924 103.563 75.0105 103.688C74.561 103.77 74.1556 103.663 74.0047 103.049C74.736 102.422 75.6486 102.185 76.5394 101.901C77.2226 101.683 77.9165 101.499 78.5939 101.262C79.2727 101.026 79.8578 100.633 80.3167 100.069C79.9983 99.6119 79.6681 99.8807 79.389 99.9737C77.2091 100.704 75.0243 101.418 72.865 102.21C71.7345 102.624 70.6566 102.718 69.5247 102.346C68.9108 102.143 68.2572 102.056 67.6771 101.929C67.5406 101.408 67.8787 101.346 68.1199 101.229C69.8978 100.371 71.7642 99.7625 73.6252 99.1373C74.4273 98.8675 75.2355 98.6028 75.9765 98.2023C75.8567 97.8137 75.6336 97.9371 75.479 97.9865C74.1568 98.4105 72.8399 98.8516 71.5223 99.2856C70.1587 99.7353 68.7962 100.193 67.4265 100.623C67.0665 100.736 66.6797 100.796 66.3056 100.803C65.9489 100.81 65.6661 100.64 65.6709 100.148C66.1581 99.6133 66.9173 99.5456 67.5362 99.2054C68.1225 98.8819 68.7551 98.6461 69.3671 98.3722C70.0059 98.0863 70.75 98.0775 71.3244 97.6737C71.2773 97.3972 71.1346 97.396 71.0037 97.433C69.0289 97.9963 66.9975 98.327 65.0714 99.0833C64.4153 99.3416 63.7617 99.3517 63.1995 98.8494C63.0903 98.751 63.0132 98.6389 63.0803 98.3325C63.8108 97.6795 64.8845 97.5811 65.8395 97.2144C66.8226 96.8353 67.8434 96.5584 68.7663 96.0236C69.6879 95.4893 70.7274 95.2628 71.9191 94.7651C71.2136 94.6371 70.7567 94.812 70.2925 94.9167C67.4459 95.5595 64.6647 96.4392 61.9061 97.4058C61.3509 97.6009 60.8045 97.7639 60.2608 97.4371C60.1463 97.3682 60.0623 97.2526 59.9631 97.1581C60.0464 96.6382 60.4886 96.6167 60.823 96.5007C63.9484 95.4245 67.077 94.3633 70.2065 93.3004C71.2036 92.9616 72.2062 92.6356 73.2014 92.2903C73.4047 92.22 73.6751 92.1926 73.7066 91.8793C73.499 91.6469 73.268 91.8007 73.0643 91.8696C68.4375 93.4289 63.6861 94.5516 59.0886 96.2232C56.0269 97.3359 52.9334 98.3561 49.8627 99.4443C48.8262 99.8109 47.8763 100.394 46.8154 100.72C45.825 101.024 44.8652 100.97 43.9327 100.851C43.7468 100.506 43.8803 100.306 44.1028 100.185C44.4384 100.003 44.7863 99.8332 45.1447 99.7105C49.541 98.2089 53.9421 96.7274 58.3368 95.2205C60.4215 94.5066 62.553 93.966 64.6544 93.3148C66.9839 92.5938 69.2969 91.8201 71.5498 90.8442C73.0433 90.1964 74.6164 89.7472 76.149 89.1968C76.5908 89.0386 77.0709 88.9519 77.4405 88.5999C77.2197 88.2323 76.9166 88.4483 76.6875 88.5243C74.7321 89.1683 72.7849 89.8386 70.8354 90.4966C63.7109 92.8993 56.5844 95.2997 49.4604 97.7037C47.736 98.287 46.0166 98.8817 44.2926 99.4663C43.9837 99.5708 43.6816 99.7573 43.2743 99.607C43.2285 99.1483 43.5578 98.951 43.9049 98.806C44.9662 98.3655 46.0251 97.9128 47.1038 97.5232C49.1761 96.7742 51.267 96.0756 53.3418 95.3345C55.2789 94.6414 57.1878 93.8532 59.1442 93.2263C62.4228 92.1755 65.6441 90.9549 68.9062 89.8558C77.3479 87.0134 85.7785 84.1355 94.21 81.2602C98.7434 79.7136 103.289 78.2052 107.789 76.5609C110.443 75.5917 113.095 74.6176 115.764 73.6958C117.031 73.2584 118.299 72.8237 119.572 72.4034C119.931 72.2847 120.298 72.1374 120.687 72.2254C120.88 72.2694 121.03 72.3816 121.087 72.5834C121.144 72.7883 121.075 72.9862 120.91 73.087C120.626 73.2617 120.324 73.4219 120.011 73.5264C115.97 74.883 111.966 76.3843 107.871 77.5281C104.721 78.4089 101.768 79.7917 98.7009 80.8671C97.3267 81.348 95.9813 81.982 94.6415 82.6054C97.5435 81.6238 100.442 80.6316 103.347 79.6636C107.164 78.3914 110.97 77.0836 114.812 75.8961C116.912 75.2467 119.032 74.6561 121.132 73.9983C121.872 73.7669 122.335 73.8836 122.345 74.2573C122.359 74.8243 121.882 74.958 121.487 75.0755C119.747 75.5987 118.014 76.1834 116.245 76.5648C114.18 77.0103 112.205 77.7409 110.2 78.3741C108.922 78.7772 107.656 79.2216 106.399 79.6919C104.516 80.3971 102.649 81.1408 100.774 81.8679L100.777 81.8639ZM98.3419 82.8362C98.2021 82.626 97.9714 82.5804 97.7378 82.6419C97.1848 82.7882 96.639 82.967 96.0917 83.1318C94.9946 83.4622 93.9541 83.9974 92.8139 84.1664C91.6762 84.3344 90.5764 84.6468 89.4878 85.0092C87.5371 85.6589 85.599 86.3537 83.6417 86.9823C81.8561 87.5558 80.1696 88.3445 78.5309 89.2581C77.9036 89.6086 77.271 89.9564 76.6711 90.3528C76.1286 90.7094 75.9403 91.1165 76.1118 91.396C76.3556 91.7907 76.7767 91.7385 77.1366 91.6953C78.2693 91.558 79.3978 91.3886 80.4911 91.0087C82.0278 90.4758 83.5719 89.9665 85.1115 89.4428C86.6502 88.9209 88.2045 88.4446 89.6427 87.6424C90.3109 87.2695 91.0069 86.9293 91.7189 86.6593C93.8348 85.8592 95.7289 84.609 97.7416 83.5994C98.0294 83.4554 98.3453 83.2802 98.3436 82.8371L98.3419 82.8362ZM77.7576 98.5455C78.0275 98.847 78.3132 98.8638 78.5975 98.8622C79.221 98.8579 79.823 98.7241 80.4216 98.5376C82.8978 97.7655 85.1885 96.5382 87.5117 95.4061C89.8434 94.2682 92.1954 93.1817 94.6207 92.2929C96.1646 91.727 97.5869 90.9535 99.011 90.1575C99.3093 89.9911 99.5848 89.8078 99.7899 89.5289C100.006 89.2359 99.8809 88.8289 99.5416 88.7196C99.0596 88.5626 98.6103 88.6593 98.1699 88.9057C96.6591 89.7499 95.084 90.4529 93.4942 91.1231C92.259 91.6442 91.0511 92.2856 89.7729 92.6364C88.2965 93.0413 86.9546 93.7978 85.4593 94.1654C84.5107 94.399 83.5758 94.8491 82.6458 95.2306C81.1849 95.8295 79.7191 96.4359 78.471 97.4604C78.1367 97.7349 77.7668 97.9837 77.7567 98.5472L77.7576 98.5455ZM82.136 92.0889C79.7471 92.9174 77.3033 93.584 75.0431 94.7879C74.4574 95.0995 73.9926 95.44 73.8281 96.1096C73.7033 96.6174 73.9227 96.9432 74.4324 97.0167C74.9204 97.0858 75.3709 96.9276 75.8292 96.7944C78.494 96.021 80.971 94.7205 83.5966 93.8353C83.7753 93.7749 83.9469 93.6775 84.1078 93.5737C85.4848 92.6874 86.9649 92.0151 88.4455 91.3397C88.6185 91.2608 88.8023 91.1841 88.9469 91.0653C89.0464 90.9837 89.1367 90.8309 89.1443 90.7061C89.1555 90.5045 89.0202 90.3364 88.8322 90.2836C88.6096 90.2221 88.3621 90.1647 88.1394 90.2008C87.6718 90.276 87.2044 90.3847 86.7536 90.5328C85.2113 91.0385 83.6751 91.5683 82.1374 92.0885L82.136 92.0889ZM98.2101 97.2661C97.6318 96.9075 97.1289 97.0237 96.6186 97.1484C95.9245 97.3177 95.2242 97.4527 94.5334 97.6326C94.0736 97.7517 93.5996 97.867 93.1802 98.083C91.7314 98.8277 90.2806 99.5614 88.7608 100.144C88.264 100.335 87.824 100.629 87.5425 101.11C87.4184 101.322 87.33 101.556 87.4244 101.793C87.5466 102.101 87.8398 102.184 88.1226 102.168C88.8931 102.123 89.6135 101.828 90.2963 101.492C91.3332 100.983 92.4028 100.588 93.4983 100.252C94.7396 99.8716 95.8791 99.2578 96.9827 98.5804C97.4557 98.2895 97.9873 98.0093 98.2105 97.2674L98.2101 97.2661ZM91.8015 89.5964C92.1498 89.9208 92.4825 89.9159 92.8094 89.8228C93.3608 89.6668 93.9161 89.5139 94.4482 89.3005C97.0849 88.2369 99.5559 86.8657 101.778 85.0506C102.038 84.8374 102.413 84.654 102.166 84.2602C101.957 83.9264 101.582 84.0285 101.256 84.1388C101.075 84.2001 100.895 84.2698 100.725 84.3579C98.9257 85.2749 96.9793 85.8125 95.1621 86.6992C94.2012 87.1683 93.3281 87.7415 92.4601 88.3406C92.0526 88.6225 91.7569 89.0019 91.7989 89.5972L91.8015 89.5964ZM81.8996 100.489C82.3921 100.736 82.8587 100.694 83.3167 100.551C84.4999 100.184 85.681 99.8108 86.8542 99.4125C87.3497 99.2449 87.8919 99.0964 88.2918 98.7807C89.43 97.8836 90.671 97.1714 91.921 96.4649C92.1349 96.3446 92.3068 96.1831 92.266 95.8987C92.0962 95.6666 91.8526 95.701 91.6284 95.7695C91.1267 95.9218 90.6236 96.0745 90.1385 96.2706C89.1611 96.6681 88.1785 97.0209 87.1273 97.1306C86.8472 97.1599 86.5764 97.2791 86.2983 97.3426C84.8176 97.6777 83.6892 98.7228 82.3826 99.4062C82.0542 99.5784 81.7924 99.9085 81.9009 100.489L81.8996 100.489ZM94.4966 95.0656C96.5602 95.2666 98.208 94.2423 99.8944 93.3837C100.355 93.1495 100.348 92.5276 99.9643 92.1642C99.7106 91.9242 99.4073 91.8042 99.0629 91.8741C97.5531 92.1812 96.2334 92.9578 94.9271 93.7401C94.5181 93.9846 94.2333 94.4083 94.4948 95.0647L94.4966 95.0656ZM83.7163 106.273C83.7284 106.372 83.7409 106.473 83.753 106.572C84.9502 106.055 86.2237 105.866 87.4564 105.499C87.7305 105.418 88.0157 105.341 88.2643 105.201C89.6611 104.421 91.1937 104.014 92.6741 103.468C94.1115 102.938 95.5682 102.466 96.9614 101.809C98.3915 101.134 99.8441 100.513 101.283 99.8593C101.332 99.8371 101.331 99.7005 101.392 99.4776C100.405 99.6617 99.5053 99.9355 98.6615 100.365C97.6338 100.89 96.5443 101.278 95.525 101.801C92.8194 103.194 89.8352 103.796 87.0999 105.102C86.0263 105.615 84.8462 105.889 83.7146 106.272L83.7163 106.273ZM85.1311 101.043C83.5994 101.68 82.0691 102.317 80.3987 103.013C82.308 102.948 83.7928 102.188 85.1311 101.043ZM88.671 95.8708C90.1061 95.7433 92.0259 95.0037 92.6553 94.334C90.8278 94.6801 89.5478 95.1742 88.671 95.8708ZM95.5014 96.1994C94.5523 96.2266 93.6615 96.3941 92.9498 97.0887C93.0581 97.231 93.1166 97.3669 93.1645 97.3624C94.0717 97.2752 94.8203 96.8153 95.5014 96.1994ZM91.1562 88.2551C90.4022 88.321 89.8968 88.5312 89.4126 88.8143C89.2885 88.8868 89.2355 89.043 89.299 89.1859C89.3642 89.3297 89.5022 89.3805 89.6535 89.3438C90.2123 89.2116 90.709 88.9825 91.1562 88.2551ZM98.719 98.3611C99.3097 98.5963 99.6645 98.3876 99.9996 98.1389C100.059 98.0956 100.096 97.9668 100.08 97.8904C100.068 97.8176 99.9797 97.7121 99.9158 97.7075C99.4394 97.6708 99.0187 97.7709 98.7177 98.3616L98.719 98.3611ZM73.976 100.42C72.8283 100.565 71.7504 100.915 70.7572 101.508L73.976 100.42ZM72.4216 95.8259C72.392 95.7356 72.361 95.6457 72.3301 95.5557C71.6377 95.6139 71.0274 95.8654 70.2464 96.5617L72.4216 95.8259ZM91.4453 90.9273C90.9089 90.8381 90.4666 90.9761 89.9867 91.4963C90.6944 91.5755 91.1139 91.374 91.4453 90.9273ZM76.6219 92.7976C75.989 92.9069 75.6056 92.9493 75.2749 93.4729C75.8022 93.4909 76.1555 93.4078 76.6219 92.7976ZM97.7715 95.4417C97.6944 95.4227 97.607 95.3708 97.5422 95.3913C97.4681 95.4149 97.3527 95.515 97.3596 95.5607C97.3915 95.7419 97.5424 95.7273 97.6617 95.6578C97.7193 95.6238 97.7353 95.5165 97.7711 95.4404L97.7715 95.4417ZM99.3751 83.7117C99.4068 83.7344 99.4482 83.783 99.4675 83.775C99.5499 83.7413 99.655 83.7101 99.6967 83.6436C99.7569 83.5476 99.6827 83.4869 99.5624 83.5436C99.4899 83.5768 99.4371 83.6543 99.3755 83.713L99.3751 83.7117ZM103.642 91.8602L103.764 91.8188C103.752 91.7965 103.738 91.7535 103.729 91.7548C103.688 91.7616 103.649 91.7806 103.608 91.7957C103.62 91.8181 103.632 91.84 103.643 91.861L103.642 91.8602Z" fill="#4177ED"/>
<path d="M68.5974 84.6705C69.1664 84.2773 69.665 84.6877 70.2022 84.3838C70.693 83.7027 71.2401 82.9416 71.7653 82.2125C71.5372 81.859 71.2999 81.932 71.0725 82.009C70.7426 82.1206 70.4375 82.33 70.2986 82.6301C69.7555 83.8045 68.7516 83.5535 67.8305 83.5261C67.4067 83.5137 67.2081 83.1474 67.014 82.8144C66.054 81.1678 65.3032 79.4418 64.9807 77.5287C64.6367 75.4861 64.6458 73.4666 64.9994 71.3917C65.82 66.5809 68.2532 62.7842 72.1031 59.8903C76.1547 56.8467 80.6609 55.7997 85.6024 56.6363C88.8424 57.1843 91.5497 58.6748 94.0038 60.7368C94.3312 61.0131 94.6304 61.3105 94.8207 61.7015C94.9788 62.0263 94.9842 62.3416 94.7067 62.6304C94.2461 62.84 93.8903 62.5196 93.5 62.3956C93.0737 62.259 92.6639 62.2448 92.2625 62.481C92.0881 62.5836 91.9723 62.7246 92.0307 62.9537C92.1936 63.2521 92.5154 63.2029 92.7819 63.2422C93.2643 63.3118 93.6982 63.4822 94.0767 63.7732C94.599 64.1755 95.0923 64.2152 95.6044 63.719C95.7339 63.5937 95.9228 63.5284 96.1358 63.4054C97.061 64.0934 97.4057 65.1232 97.8908 66.0444C97.5247 66.7662 96.7771 67.0525 96.4719 67.7508C96.1881 68.4011 96.0528 69.1408 95.5436 69.6418C94.9719 69.8352 94.5831 69.4881 94.1509 69.3419C93.3402 69.0676 92.5631 69.1384 91.8128 69.5697C91.5109 69.7431 91.2677 69.9694 91.3344 70.3833C91.6085 70.7401 92.0278 70.6216 92.3812 70.6228C93.3907 70.6261 94.3512 70.761 95.2801 71.1814C96.0805 71.5435 96.3532 71.4164 96.7712 70.6188C96.9934 70.1945 97.121 69.7236 97.3 69.2776C97.5795 68.5807 97.6387 68.5374 98.5452 68.2948C98.9899 68.5648 99.0865 69.0515 99.2013 69.503C99.751 71.6506 99.8123 73.8397 99.5762 76.0538C99.4898 76.857 99.0848 77.3053 98.3234 77.6313C96.2472 78.5212 94.1115 79.216 91.9838 79.9459C89.2221 80.8932 86.4813 81.8931 83.7636 82.9767C80.9622 84.0945 78.0717 84.9734 75.2181 85.9474C74.1306 86.3181 73.0234 86.6301 71.9471 87.032C70.9568 87.4019 70.186 87.2276 69.5871 86.3609C69.2234 85.8336 68.6225 85.4491 68.5962 84.6666L68.5974 84.6705ZM89.6001 66.1487C89.3913 65.489 89.037 65.5506 88.7223 65.6411C88.1008 65.8193 87.6429 66.2375 87.2936 66.7805C87.0577 67.1469 86.7411 67.2729 86.3157 67.1811C86.043 67.122 85.7563 67.1114 85.474 67.1007C84.8562 67.0768 84.373 67.3581 84.0026 67.8428C83.849 68.0446 83.8116 68.2784 84.055 68.5277C84.6075 68.6638 85.0757 68.1432 85.6475 68.1549C86.2398 68.167 86.6763 68.6158 87.2494 68.6503C87.3381 68.6552 87.4317 68.6105 87.6127 68.5667C88.2388 67.7977 88.2497 66.4454 89.6005 66.15L89.6001 66.1487Z" fill="#FF6A00"/>
<path d="M93.8114 123.136C93.0983 123.109 92.8078 122.63 92.4336 122.292C90.2596 120.336 88.2382 118.227 86.2723 116.062C85.734 115.469 85.1572 114.91 84.5852 114.349C84.2873 114.055 84.0079 113.723 83.5146 113.61C82.8046 114.519 82.342 115.556 81.9819 116.651C81.8332 117.105 81.652 117.554 81.4575 117.992C81.377 118.172 81.1934 118.263 80.9842 118.249C80.7751 118.236 80.6294 118.109 80.5381 117.942C80.3457 117.591 80.4183 117.2 80.4312 116.817C80.4482 116.304 80.6949 115.777 80.4024 115.282C79.0616 115.05 78.7586 115.211 78.3361 116.367C77.8323 117.742 77.7192 119.181 77.5727 120.611C77.49 121.422 77.466 122.239 77.4281 123.053C77.4048 123.556 77.2335 123.985 76.8711 124.346C76.459 124.757 75.9888 124.918 75.4361 124.748C74.8768 124.577 74.5641 124.166 74.5383 123.594C74.4819 122.301 74.5128 121.003 74.8799 119.74C75.1758 118.723 75.4632 117.698 75.859 116.717C76.4327 115.301 75.8383 114.519 74.3195 114.513C73.7985 114.51 73.2731 114.531 72.7548 114.588C72.0634 114.664 71.5968 115.031 71.5151 115.77C71.4012 116.783 70.9264 117.702 70.7333 118.694C70.638 119.18 70.4073 119.596 70.0418 119.937C69.6479 120.305 69.2073 120.378 68.7175 120.215C68.194 120.042 67.9966 119.633 67.9797 119.118C67.9559 118.436 68.1578 117.789 68.3749 117.148C68.6711 116.277 68.8515 115.383 68.9178 114.469C68.9328 114.271 68.8942 114.077 68.7089 113.977C68.4641 113.844 68.2417 113.96 68.0614 114.127C67.6188 114.539 67.433 115.089 67.2801 115.652C67.1156 116.256 66.968 116.863 66.8017 117.466C66.712 117.793 66.5734 118.103 66.3332 118.353C66.0468 118.651 65.7136 118.826 65.3083 118.664C64.9414 118.517 64.6357 118.269 64.6166 117.844C64.5989 117.466 64.6276 117.074 64.7124 116.704C65.0194 115.373 65.0318 114.039 64.9398 112.697C64.9138 112.316 64.8569 111.915 64.9443 111.552C65.324 109.966 64.5986 108.717 63.7277 107.612C62.563 106.134 61.1794 104.834 60.1091 103.267C59.9248 102.998 59.6811 102.762 59.4348 102.545C58.9089 102.08 58.4186 102.087 57.9445 102.622C57.2698 103.384 56.7193 104.236 56.294 105.164C55.6913 106.478 54.8838 107.685 54.3504 109.04C54.0268 109.861 53.3715 110.471 52.5429 110.828C52.2703 110.947 51.9788 110.962 51.7589 110.709C51.5433 110.461 51.5579 110.168 51.7411 109.917C52.6893 108.611 52.9544 106.984 53.8217 105.633C54.1494 105.123 54.2337 104.457 54.4324 103.865C54.7829 102.818 55.3524 101.859 55.6046 100.762C55.7922 99.9483 56.5504 99.5143 57.2683 99.2817C58.3663 98.9263 59.4595 98.8533 60.5787 99.413C62.1245 100.185 63.5326 101.06 64.4916 102.55C65.0047 103.347 65.8147 103.754 66.6971 103.983C67.6086 104.222 68.524 104.464 69.4842 104.495C70.2447 104.52 70.9929 104.641 71.7183 104.87C73.0079 105.278 74.1385 105.906 74.9115 107.075C75.1973 107.506 75.5355 107.905 75.8791 108.294C76.4516 108.941 77.1347 109.426 77.9844 109.662C78.667 109.852 79.3265 110.131 80.0178 110.274C81.9727 110.68 83.6226 111.656 85.1144 112.916C86.9161 114.438 88.6004 116.086 90.2568 117.767C91.1159 118.638 92.0078 119.48 92.867 120.352C93.2288 120.72 93.5551 121.127 93.8837 121.528C94.305 122.045 94.2508 122.565 93.8096 123.139L93.8114 123.136Z" fill="#AEFFE4"/>
<path d="M124.619 79.4823C124.36 78.9647 124.377 78.4178 124.594 77.9369C125.156 76.6921 125.335 75.3483 125.754 74.0676C126.233 72.6005 125.765 71.3652 124.464 70.5233C124.348 70.4478 124.243 70.3538 124.092 70.2363C123.942 69.6787 124.094 69.1269 124.329 68.5963C124.564 68.0674 124.832 67.5533 125.094 67.0357C125.334 66.5617 125.591 66.0965 125.83 65.6229C126.379 64.5336 126.55 63.4705 125.933 62.3351C125.371 61.3057 125.519 60.2273 126.065 59.2105C127.046 58.8073 127.735 59.0355 128.374 59.7883C129.318 60.9017 130.309 61.9838 131.545 62.7978C132.075 63.1466 132.375 63.6895 132.625 64.2599C132.703 64.4401 132.7 64.6285 132.495 64.8814C131.995 65.0082 131.579 64.6586 131.154 64.4082C130.406 63.9659 129.621 63.7206 128.838 63.7905C128.551 63.9503 128.455 64.1312 128.449 64.3209C128.393 65.991 128.06 67.6793 128.423 69.327C128.791 70.9962 128.424 72.5533 127.854 74.1109C127.672 74.6075 127.496 75.1093 127.365 75.6206C127.231 76.1372 127.217 76.6687 127.371 77.1824C127.428 77.3697 127.555 77.5259 127.77 77.5303C127.982 77.5343 128.136 77.3892 128.201 77.2058C128.378 76.7066 128.522 76.1965 128.691 75.6942C128.849 75.2232 129.094 74.819 129.576 74.6093C130.265 74.3109 130.831 74.6068 130.922 75.3456C130.962 75.6739 130.949 76.0144 130.928 76.3474C130.877 77.1122 130.809 77.8771 130.742 78.6421C130.691 79.2194 130.557 79.768 130.269 80.2932C129.777 81.1912 129.606 82.2007 129.327 83.1694C129.206 83.5884 129.199 84.0158 129.413 84.4102C129.747 84.4558 129.796 84.1759 129.905 83.9879C130.336 83.2338 130.745 82.467 131.185 81.7172C131.392 81.365 131.699 81.1275 132.137 81.2456C132.545 81.3564 132.763 81.6519 132.81 82.0668C132.876 82.6454 132.774 83.2036 132.612 83.769C132.051 85.7117 131.521 87.663 130.977 89.6105C130.808 90.2115 130.711 90.8088 130.844 91.388C131.179 91.4652 131.278 91.2821 131.341 91.1123C131.544 90.5722 131.729 90.0237 131.913 89.4784C132.006 89.2057 132.051 88.9139 132.172 88.6547C132.436 88.0897 132.969 87.7669 133.415 87.8591C133.812 87.9413 134.056 88.3448 134.044 89.005C134.03 89.8724 133.844 90.7208 133.612 91.5576C133.07 93.5085 132.636 95.4766 132.393 97.4852C132.237 98.77 131.814 99.9984 131.359 101.223C131.649 101.546 131.868 101.297 132.047 101.089C132.408 100.672 132.504 100.143 132.617 99.6236C132.838 98.609 133.324 97.7361 134.047 96.9882C134.431 96.5892 134.889 96.3484 135.426 96.2759C135.901 96.2112 136.256 96.4302 136.418 96.8889C136.614 97.4424 136.646 98.0176 136.458 98.5819C135.645 101.007 134.736 103.392 133.451 105.622C132.922 106.541 132.339 107.44 131.896 108.399C131.349 109.58 130.481 110.187 129.234 110.304C129.139 110.313 129.046 110.339 128.952 110.351C127.845 110.508 127.46 110.058 127.768 108.974C127.92 108.441 128.283 108.054 128.65 107.668C129.603 106.663 130.191 105.475 130.503 104.152C130.108 103.638 129.644 103.684 129.224 103.995C128.684 104.394 128.199 104.87 127.689 105.312C127.299 105.65 126.967 106.088 126.456 106.111C126.07 105.913 126.059 105.617 126.077 105.33C126.158 104.076 126.385 102.85 126.929 101.698C127.609 100.257 128.325 98.8348 129.187 97.4886C129.42 97.1245 129.636 96.7415 129.805 96.3442C130.035 95.7991 129.956 95.4287 129.627 95.1736C129.136 94.7926 128.527 94.7846 128.074 95.1997C127.684 95.5571 127.344 95.9704 126.963 96.3379C126.696 96.5941 126.459 96.9434 125.936 96.8309C125.574 96.3567 125.704 95.776 125.803 95.2244C125.982 94.2241 126.404 93.2974 126.806 92.3668C127.094 91.7038 127.362 91.0312 127.669 90.3759C128.044 89.5711 128.173 88.7242 128.234 87.8583C128.305 86.8554 127.636 86.2626 126.65 86.4462C126.323 86.5073 126.1 86.849 125.735 86.7978C125.462 86.6198 125.578 86.3738 125.66 86.16C125.899 85.5292 126.172 84.9158 126.522 84.3307C126.867 83.7526 127.152 83.137 127.436 82.5245C127.64 82.0845 127.74 81.6141 127.764 81.1274C127.845 79.5433 126.896 78.8357 125.409 79.3868C125.189 79.4686 124.996 79.6415 124.622 79.477L124.619 79.4823Z" fill="#006739"/>
<path d="M145.289 74.1755C144.987 73.9852 145.077 73.6713 145.086 73.3989C145.111 72.6223 145.377 71.8922 145.597 71.1543C146.121 69.4002 146.65 67.6469 147.16 65.889C147.279 65.4761 147.38 65.0448 147.398 64.6196C147.429 63.9123 146.917 63.4586 146.213 63.5484C145.48 63.6419 144.821 63.891 144.459 64.6347C143.846 65.8911 143.226 67.1454 142.6 68.3975C142.406 68.7843 142.196 69.1638 141.971 69.5323C141.904 69.6424 141.756 69.704 141.656 69.78C141.317 69.6505 141.412 69.3782 141.44 69.1651C141.706 67.156 142.136 65.1893 143.169 63.3979C144.285 61.464 145.002 59.359 145.833 57.3046C146.011 56.8647 146.106 56.3772 146.149 55.9044C146.204 55.2994 145.8 54.9036 145.218 54.8867C144.38 54.8633 143.651 55.3266 143.286 56.109C143.022 56.6771 142.762 57.2465 142.476 57.8045C142.371 58.0088 142.231 58.225 141.942 58.2191C141.683 58.0595 141.76 57.8022 141.799 57.5781C142.421 53.9781 142.649 50.3291 143.415 46.7474C143.728 45.2797 143.584 43.7835 143.693 42.3003C143.745 41.5961 143.382 41.2783 142.653 41.2452C142.328 41.2303 141.992 41.3687 141.674 41.2084C141.299 40.2472 141.369 39.3461 141.962 37.4986C142.232 37.3724 142.421 37.5108 142.561 37.7092C143 38.3245 143.422 38.9499 143.854 39.5705C144.583 40.6159 145.271 41.6939 146.054 42.696C147.413 44.4318 147.793 46.4651 147.741 48.6081C147.716 49.6364 148.028 50.4634 148.589 51.2587C148.904 51.7063 149.426 51.8587 149.782 52.1963C149.993 52.5253 149.912 52.8594 149.867 53.1921C149.668 54.6194 149.465 56.0454 149.112 57.4497C148.971 58.008 148.85 58.5799 148.804 59.1498C148.707 60.3536 149.275 61.2424 150.388 61.7025C150.962 61.264 150.967 60.5274 151.264 59.9412C151.538 59.3959 151.625 58.7513 152.032 58.3504C152.451 58.3148 152.577 58.5163 152.615 58.7613C152.701 59.3327 152.659 59.9056 152.532 60.4753C151.894 63.3433 151.001 66.1376 149.949 68.8864C149.755 69.3945 149.481 69.8129 149.014 70.131C147.886 70.9012 146.963 71.8576 146.356 73.1205C146.043 73.7736 145.98 73.744 145.289 74.1742L145.289 74.1755Z" fill="#006739"/>
<path d="M64.4934 44.5005C64.5247 44.5728 64.574 44.7075 64.6418 44.8315C64.9524 45.4029 64.7002 45.8243 64.283 46.2287C63.6118 46.8762 62.8421 47.3897 61.9891 47.7015C59.5502 48.5934 57.3235 49.9373 54.993 51.0602C53.3962 51.8288 51.7515 52.5044 50.091 53.1156C49.1564 53.4593 48.1567 53.6549 47.1732 53.7999C45.592 54.0322 44.6644 53.3087 43.9216 51.8927C43.2575 50.6261 43.4746 49.7758 44.4605 48.7585C45.379 47.8092 46.3214 46.9506 47.4614 46.3105C47.6281 46.2162 47.7932 46.0978 47.973 46.0501C49.4924 45.6482 51.0112 45.2392 52.5402 44.882C52.8966 44.7993 53.3006 44.8648 53.6663 44.9375C54.5328 45.1114 55.3548 44.989 56.1819 44.6685C57.2523 44.2526 58.3721 43.9713 59.3937 43.4177C59.4782 43.3717 59.5693 43.3147 59.6578 43.3095C60.7884 43.2398 61.8998 43.0297 63.0181 42.8464C63.6015 42.7509 64.1028 43.1371 64.3155 43.7489C64.3936 43.9712 64.4262 44.2105 64.4929 44.5036L64.4934 44.5005Z" fill="#DD9198"/>
<path d="M94.9177 135.289C95.3973 134.973 95.3007 134.552 95.3496 134.192C95.4592 133.384 95.5324 132.57 95.6285 131.761C95.6521 131.567 95.73 131.383 95.9338 131.31C96.2178 131.21 96.4029 131.393 96.5074 131.598C97.0069 132.565 97.4954 133.539 97.8456 134.577C97.9821 134.982 98.0932 135.398 98.2604 135.79C98.4602 136.257 98.664 136.743 99.1508 136.943C99.7594 136.714 99.4093 135.997 99.8344 135.753C100.431 135.755 100.464 136.505 101.079 136.522C101.421 136.098 100.941 135.504 101.303 135.066C101.698 134.932 101.825 135.275 101.906 135.496C102.478 137.045 103.393 138.453 103.611 140.154C103.727 141.045 103.958 141.934 104.444 142.715C104.543 142.873 104.622 143.052 104.674 143.232C104.884 143.956 104.409 144.577 103.706 144.383C102.258 143.981 100.789 143.595 99.8043 142.291C98.8247 140.996 97.5684 140.081 96.0821 139.365C94.3977 138.554 92.711 137.731 91.1304 136.68C89.4216 135.544 87.6106 134.472 85.5136 134.099C84.9058 133.99 84.5229 133.676 84.2196 133.132C83.6653 132.139 83.142 131.142 82.7653 130.056C82.2882 128.681 82.4947 127.326 82.8488 125.966C82.8784 125.851 83.0371 125.768 83.1249 125.682C83.6585 125.692 83.8703 126.096 84.114 126.429C84.6225 127.123 84.9284 127.922 85.1702 128.748C85.2766 129.112 85.3696 129.489 85.6466 129.766C85.82 129.94 86.0414 130.021 86.2939 129.955C86.5489 129.887 86.7215 129.714 86.7499 129.456C86.7857 129.123 86.7771 128.789 86.7877 128.455C86.7965 128.171 86.769 127.874 87.0891 127.707C87.4827 127.749 87.6104 128.069 87.7585 128.362C88.0592 128.953 88.3471 129.55 88.6578 130.136C88.7722 130.353 88.9627 130.502 89.236 130.438C89.4362 130.39 89.5474 130.244 89.6151 130.046C89.7214 129.739 89.6375 129.359 89.959 129.137C90.3353 129.085 90.4476 129.361 90.5708 129.617C91.0418 130.599 91.4767 131.597 91.8023 132.645C91.9986 133.274 92.2015 133.924 92.8922 134.284C93.1811 134.223 93.4997 134.154 93.8035 134.089C94.3225 134.341 94.4226 134.946 94.9194 135.29L94.9177 135.289Z" fill="#006739"/>
<path d="M139.159 115.751C139.49 114.602 139.814 113.449 140.156 112.302C140.434 111.376 140.637 110.441 140.708 109.476C140.752 108.863 140.77 108.227 141.217 107.628C141.967 107.484 142.659 107.85 143.381 107.996C143.62 108.045 143.733 108.287 143.832 108.51C144.023 108.936 144.051 109.445 144.43 109.77C144.814 109.874 144.946 109.626 145.053 109.338C145.441 108.3 145.811 107.255 146.225 106.228C146.47 105.618 146.767 105.489 147.347 105.677C148.178 105.946 148.859 106.38 149.285 107.208C149.836 108.273 150.201 109.397 150.441 110.566C150.709 111.872 150.906 113.195 151.141 114.509C151.317 115.482 151.203 116.373 150.664 117.268C149.646 118.963 148.655 120.677 147.817 122.472C147.601 122.935 147.428 123.478 146.819 123.655C146.254 123.475 146.188 123.019 146.265 122.514C146.345 121.993 146.489 121.479 146.565 120.957C146.896 118.674 147.218 116.39 147.528 114.105C147.585 113.679 147.6 113.244 147.593 112.814C147.586 112.435 147.363 112.195 146.989 112.14C146.592 112.08 146.197 112.313 146.093 112.696C146.004 113.018 145.987 113.359 145.929 113.688C145.711 114.918 145.511 116.153 145.262 117.378C145.168 117.843 144.978 118.296 144.795 118.742C144.645 119.107 144.392 119.437 144.019 119.564C142.987 119.919 142.023 119.792 142.103 118.196C142.159 117.064 142.307 115.906 142.777 114.82C143.121 114.023 143.406 113.197 143.504 112.331C143.566 111.792 143.178 111.424 142.637 111.483C142.336 111.515 142.083 111.652 141.973 111.96C141.892 112.185 141.829 112.419 141.78 112.653C141.48 114.122 140.472 115.041 139.163 115.75L139.159 115.751Z" fill="#006739"/>
<path d="M146.355 98.3119C146.68 98.3721 147.011 98.4098 147.329 98.4959C148.104 98.7079 148.826 98.6268 149.497 98.1321C150.094 97.6914 150.753 97.7102 151.408 97.8946C151.98 98.0561 152.279 98.48 152.208 99.0684C152.157 99.4915 152.047 99.9189 151.896 100.32C151.715 100.807 151.331 101.102 150.814 101.156C150.391 101.201 149.956 101.252 149.538 101.21C147.658 101.021 145.781 100.805 143.905 100.585C142.804 100.457 142.028 99.9894 141.551 98.8675C140.608 96.6477 139.494 94.5063 138.471 92.3224C138.049 91.4234 137.674 90.503 137.291 89.5849C137.165 89.2842 137.014 88.976 137.118 88.6251C137.378 88.2446 137.742 88.363 138.013 88.4954C138.967 88.9614 139.999 89.0705 141.031 89.1941C141.691 89.2722 142.325 89.4198 142.955 89.6434C143.752 89.9265 144.587 90.1053 145.396 90.3567C145.985 90.5388 146.263 90.9843 146.272 91.6606C146.28 92.243 146.038 92.5501 145.362 92.7861C145.092 92.8803 144.804 92.9197 144.539 93.0266C144.122 93.1939 144.006 93.5141 144.14 93.9664C144.317 94.5682 144.713 94.9434 145.309 95.078C145.953 95.2225 146.608 95.3239 147.258 95.4416C148.318 95.6358 148.807 96.5512 148.381 97.5609C148.239 97.8971 147.984 98.0896 147.618 98.1377C147.194 98.1925 146.772 98.2654 146.35 98.3295C145.961 98.0945 145.626 98.0347 145.345 98.1501C145.626 98.5468 146.008 98.3406 146.357 98.3141L146.355 98.3119Z" fill="#006739"/>
<path d="M91.7182 153.564C91.4906 153.44 91.2808 153.392 91.1771 153.26C90.3923 152.253 89.605 151.244 89.5778 149.858C89.5739 149.669 89.5554 149.474 89.5074 149.293C89.4286 148.993 89.2173 148.791 88.9159 148.752C88.568 148.708 88.3674 148.959 88.327 149.258C88.1217 150.737 87.219 151.793 86.2096 152.787C85.6237 153.363 85.442 154.047 85.8062 154.753C86.157 155.435 85.9128 155.942 85.5082 156.466C85.2726 156.773 85.0404 157.081 84.8108 157.393C84.6054 157.671 84.4509 157.972 84.483 158.326C84.5121 158.652 84.4571 159.034 84.8014 159.221C85.1703 159.42 85.4152 159.129 85.6705 158.909C85.9121 158.701 86.0684 158.354 86.4568 158.346C86.5619 159.107 86.4075 159.496 85.894 159.76C85.7675 159.825 85.6284 159.882 85.4891 159.902C83.8376 160.127 82.2028 159.973 80.5736 159.93C80.4225 159.33 80.7253 159.062 81.0101 158.824C81.6031 158.331 82.2251 157.875 82.8278 157.395C83.2375 157.068 83.6701 156.75 83.7563 156.123C82.683 155.273 81.8153 156.394 80.8249 156.531C80.7076 155.867 81.0525 155.445 81.3696 155.041C82.2954 153.863 83.237 152.7 84.1877 151.542C84.5575 151.092 84.937 150.655 85.1299 150.095C85.2547 149.732 84.9602 149.393 84.5906 149.508C84.2779 149.605 83.9862 149.774 83.7021 149.902C83.3338 149.695 83.4416 149.398 83.5419 149.137C83.9243 148.146 84.3548 147.174 84.7113 146.175C85.1157 145.04 85.4647 143.886 85.8301 142.739C85.9171 142.463 85.9703 142.178 86.0538 141.901C86.2246 141.335 86.617 141.004 87.1812 140.908C87.8188 140.8 88.2978 141.073 88.5971 141.622C88.9136 142.203 89.2015 142.795 89.3243 143.468C89.7165 145.614 90.5904 147.534 91.9458 149.218C91.9747 149.255 92.0027 149.294 92.0321 149.332C93.0953 150.764 93.5722 151.45 91.7182 153.564Z" fill="#006739"/>
<path d="M33.2792 78.7638C32.7872 78.0719 32.0649 77.9787 31.3803 77.9033C31.0205 77.8635 30.8761 77.4148 31.1455 77.1651C31.1481 77.1642 31.149 77.1624 31.1512 77.1602C32.5005 75.9197 33.9106 74.7808 35.5549 73.9409C36.506 73.4547 37.5164 73.2046 38.5019 72.8567C39.4468 72.5225 40.4274 72.2985 41.371 71.9604C42.33 71.6156 43.3056 71.4544 44.3024 71.4125C45.5188 71.3619 46.7343 71.2199 47.9357 70.9953C48.7085 70.8503 49.4819 70.9771 50.2557 70.9467C50.3933 70.9409 50.5338 70.9952 50.6697 71.0351C51.6369 71.3218 51.8878 72.1768 51.135 72.8795C50.2909 73.667 49.3485 74.3582 48.2566 74.761C46.2865 75.4885 44.3049 76.1835 42.3279 76.8886C42.0128 77.001 41.6819 77.0722 41.3748 77.2009C39.7671 77.8742 38.0932 78.228 36.378 78.3426C35.5184 78.4006 34.6907 78.5933 33.7578 78.9147C33.5804 78.9747 33.387 78.9135 33.2801 78.762L33.2792 78.7638Z" fill="#DD9198"/>
<path d="M158.096 86.5588C156.549 87.7791 155.114 88.8698 154.022 90.2604C153.579 90.0654 153.627 89.8136 153.7 89.5867C154.031 88.5813 154.357 87.5733 154.721 86.5788C155.17 85.3534 155.527 84.1081 155.755 82.8278C155.805 82.546 155.838 82.2556 155.832 81.9723C155.826 81.621 155.362 81.4156 155.091 81.6513C154.879 81.8366 154.693 82.064 154.534 82.2996C153.936 83.1769 153.363 84.0691 152.761 84.9447C152.551 85.2499 152.379 85.6397 151.832 85.6196C151.308 84.8878 151.072 84.064 151.362 83.1207C151.799 81.6942 152.216 80.2611 152.701 78.8502C154.071 74.8707 154.919 70.7867 155.503 66.6422C155.548 66.3245 155.472 65.9603 155.809 65.7226C156.127 65.6892 156.194 65.956 156.259 66.1639C156.949 68.3891 157.452 70.663 157.733 72.986C157.852 73.9786 157.914 74.9806 158.019 75.9762C158.233 77.9742 158.118 79.9875 158.189 81.9912C158.228 83.0869 158.372 84.1772 158.247 85.2801C158.198 85.7055 158.147 86.1313 158.097 86.5601L158.096 86.5588ZM155.6 78.6846C155.678 78.6333 155.785 78.5999 155.832 78.5273C156.675 77.2326 156.932 75.7795 157.008 74.2873C157.021 74.0312 156.58 73.8604 156.328 73.9778C156.097 74.085 155.931 74.2574 155.857 74.4962C155.547 75.5077 155.237 76.5204 154.947 77.5379C154.851 77.8729 154.907 78.2074 155.11 78.4938C155.227 78.658 155.388 78.7417 155.599 78.6833L155.6 78.6846Z" fill="#006739"/>
<path d="M98.9491 149.014C98.7901 150.204 98.6165 151.385 98.0322 152.479C97.7011 153.098 97.7271 153.782 97.8909 154.447C98.0155 154.953 98.3739 155.156 98.8553 154.976C99.2091 154.843 99.5427 154.65 99.8647 154.495C100.176 154.598 100.19 154.826 100.178 155.074C100.149 155.648 100.124 156.221 100.1 156.795C100.083 157.209 99.9295 157.566 99.5453 157.741C98.6721 158.137 97.7695 158.374 96.7293 158.197C96.5296 157.055 97.3538 155.743 96.2256 154.782C95.5809 154.872 95.2305 155.313 94.9241 155.817C94.5217 156.478 94.0759 157.108 93.4903 157.624C93.3398 157.757 93.161 157.841 92.97 157.764C92.7095 157.66 92.678 157.41 92.6791 157.167C92.6809 156.814 92.8976 156.54 93.0512 156.241C93.5356 155.297 94.051 154.365 94.4715 153.394C95.1312 151.871 95.3964 150.263 95.4512 148.618C95.5051 146.993 96.2628 145.561 96.8562 144.097C97.1592 143.35 97.7814 143.183 98.5309 143.424C98.9961 143.573 99.3746 143.841 99.6536 144.241C100.37 145.269 101.38 145.834 102.59 146.038C103.893 146.258 104.907 147.063 106.032 147.638C106.317 147.783 106.546 148.051 106.773 148.288C107.22 148.758 107.272 149.157 107 149.716C106.702 150.329 106.274 150.578 105.608 150.476C105.334 150.434 105.045 150.355 104.813 150.213C103.356 149.317 101.727 148.817 100.15 148.197C99.3417 147.879 99.1702 148.014 98.9612 148.993L98.9473 149.018L98.9491 149.014Z" fill="#006739"/>
<path d="M96.3283 50.159C96.4422 49.9605 96.4822 49.8 96.5833 49.7236C98.1907 48.5048 99.7379 47.1813 101.677 46.5137C104.029 45.7052 106.355 44.786 108.749 44.1508C110.457 43.698 112.165 43.2514 113.817 42.6271C115.784 41.8829 117.811 41.3269 119.765 40.5336C120.958 40.05 122.273 40.0025 123.552 39.9217C123.74 39.9104 123.926 39.9755 124.015 40.1785C124.103 40.3828 124.023 40.5684 123.885 40.7008C123.644 40.9323 123.381 41.1433 123.113 41.3416C121.627 42.4453 119.958 43.1584 118.228 43.7377C116.867 44.1935 115.51 44.6598 114.15 45.1212C113.29 45.4124 112.458 45.7619 111.636 46.1667C110.476 46.738 109.24 47.1402 107.969 47.3781C106.223 47.7037 104.558 48.2613 102.966 49.0777C102.156 49.4926 101.332 49.8833 100.499 50.2425C99.6055 50.626 98.6561 50.7362 97.7029 50.7037C97.2344 50.6876 96.7587 50.6114 96.3279 50.1577L96.3283 50.159Z" fill="#DD9198"/>
<path d="M133.525 112.127C132.525 112.503 131.618 111.798 131.81 110.858C131.904 110.397 132.109 109.94 132.343 109.526C133.584 107.346 134.721 105.118 135.68 102.8C136.107 101.767 136.885 100.948 137.523 100.047C137.876 99.551 138.375 99.4576 138.925 99.6165C139.151 99.681 139.374 99.76 139.592 99.8492C140.187 100.09 140.421 100.542 140.412 101.195C140.393 102.518 140.015 103.766 139.472 104.945C138.22 107.662 136.322 109.886 134.041 111.793C133.859 111.944 133.641 112.055 133.525 112.129L133.525 112.127Z" fill="#006739"/>
<path d="M43.3148 102.966C45.1138 102.487 45.1763 102.799 45.911 104.134C46.2335 104.72 46.5268 105.283 47.291 105.413C47.679 105.478 47.9035 105.857 48.0173 106.222C48.2863 107.084 48.8364 107.673 49.5909 108.135C50.0919 108.441 50.1495 108.756 49.9707 109.217C49.7547 109.777 49.3764 109.985 48.8459 109.724C48.0056 109.308 47.1639 108.879 46.387 108.359C45.4867 107.756 44.5604 107.213 43.6065 106.704C42.738 106.24 41.8953 105.723 41.0695 105.186C40.7211 104.959 40.4281 104.64 40.1391 104.333C39.9393 104.121 39.8626 103.847 39.9598 103.54C40.2658 102.565 40.4052 101.582 40.2108 100.573C40.1627 100.326 40.2884 100.1 40.5244 99.9806C40.7552 99.8633 41.014 99.8732 41.1848 100.053C41.4734 100.358 41.7247 100.698 41.9796 101.035C42.4321 101.633 42.7014 102.36 43.3161 102.966L43.3148 102.966Z" fill="#006739"/>
<path d="M138.737 87.0079C138.558 87.1193 138.328 87.1009 138.186 86.9513C137.031 85.743 136.693 84.2485 136.545 82.6921C136.474 81.948 136.858 81.4822 137.587 81.3725C138.9 81.1756 140.223 81.0494 141.551 81.0892C141.736 81.095 141.926 81.1412 142.101 81.2029C142.48 81.3392 142.724 81.6075 142.793 82.0204C142.866 82.4528 142.676 82.7671 142.322 82.986C142.156 83.0886 141.987 83.1837 141.819 83.2753C141.467 83.4687 141.522 83.9898 141.903 84.0923C141.906 84.0927 141.907 84.0936 141.91 84.094C142.364 84.2156 142.832 84.2844 143.291 84.3879C143.796 84.5022 144.105 84.8255 144.242 85.3261C144.505 86.2859 144.1 86.9337 143.116 87.0774C142.84 87.1185 142.55 87.0942 142.27 87.0655C141.706 87.0089 141.143 86.9462 140.585 86.8541C139.944 86.7478 139.312 86.6476 138.737 87.0048L138.737 87.0079Z" fill="#006739"/>
<path d="M122.35 79.1718C122.568 79.427 122.617 79.671 122.588 79.9048C122.463 80.9145 123.069 81.8357 122.959 82.8155C122.301 83.2781 121.623 83.3533 120.973 83.3955C119.525 83.4911 118.157 83.8142 116.898 84.5937C116.654 84.7444 116.387 84.8597 116.123 84.9737C115.848 85.0912 115.545 85.1372 115.303 84.9555C114.335 84.2282 113.323 83.5363 112.835 82.3309C113.183 81.7897 113.7 81.6207 114.201 81.5198C116.6 81.04 118.859 80.0808 121.186 79.3505C121.544 79.2379 121.897 79.049 122.35 79.1718ZM114.964 83.1922C115.585 83.3311 116.169 83.1381 116.748 82.9508C117.292 82.7742 117.83 82.5792 118.367 82.3886C119.106 82.1282 119.617 81.8291 119.902 81.4912C118.129 81.8292 116.583 82.6036 114.962 83.1927L114.964 83.1922Z" fill="#4177ED"/>
<path d="M122.306 86.8527C122.859 87.0815 123.296 86.5702 123.758 86.7848C123.977 86.9987 123.904 87.2243 123.754 87.4235C123.61 87.6147 123.459 87.8287 123.262 87.9464C122.233 88.5562 121.204 89.1762 120.039 89.4889C119.803 89.5526 119.569 89.5549 119.357 89.417C119.06 89.225 118.9 88.9533 118.897 88.5862C119.089 87.9815 119.79 88.1126 120.137 87.7159C119.819 87.4655 119.489 87.628 119.185 87.7105C118.394 87.9272 117.794 87.7053 117.337 87.0453C117.125 86.7387 116.826 86.4892 116.772 86.0972C116.799 85.7374 117.066 85.6049 117.33 85.4967C117.772 85.3166 118.223 85.154 118.673 84.9958C119.619 84.6656 120.572 84.3722 121.449 83.8416C121.974 83.5228 122.563 83.2814 123.215 83.3447C123.722 83.6311 124.067 84.0922 124.365 84.5644C124.789 85.2342 124.49 85.903 123.722 86.0972C123.4 86.1785 123.063 86.1979 122.74 86.2809C122.506 86.3411 122.299 86.4724 122.304 86.8532L122.306 86.8527Z" fill="#4177ED"/>
<path d="M138.729 32.8683C139.722 33.4957 140.233 34.3993 140.757 35.2825C140.868 35.4679 140.894 35.744 140.865 35.9677C140.722 37.1045 140.588 38.2452 140.368 39.37C140.249 39.9717 140 40.5608 139.74 41.1245C139.499 41.6481 138.915 41.7511 138.581 41.326C137.938 40.5104 137.351 39.6454 137.432 38.5124C137.528 37.1795 137.629 35.8474 137.757 34.5166C137.818 33.8835 138.058 33.3194 138.729 32.8683Z" fill="#006739"/>
<path d="M140.276 44.8216C141.281 44.4819 141.992 44.8756 142.204 45.8805C142.333 46.4931 142.233 47.1132 142.156 47.7297C142.074 48.3919 141.979 49.0537 141.909 49.7177C141.798 50.7823 141.41 51.7532 140.897 52.6846C140.721 53.0029 140.474 53.2204 140.097 53.1706C139.742 53.1246 139.496 52.895 139.367 52.575C139.28 52.3614 139.234 52.1196 139.219 51.8873C139.133 50.4647 138.97 49.0446 139.053 47.6111C139.089 46.9908 139.145 46.374 139.339 45.7746C139.498 45.2829 139.797 44.9373 140.278 44.8212L140.276 44.8216Z" fill="#006739"/>
<path d="M131.544 72.3103C131.382 71.7264 131.25 71.3184 131.346 70.8745C131.449 70.39 131.841 70.1236 132.292 70.246C132.337 70.2581 132.384 70.2685 132.425 70.2912C133.655 70.9748 134.925 71.6016 136.097 72.3746C136.548 72.6718 136.949 72.9144 137.483 72.9491C137.914 72.9763 138.327 73.0594 138.633 73.4068C139.029 73.8576 138.87 74.5733 138.298 74.6564C136.605 74.9032 134.904 75.128 133.335 74.1906C132.508 73.695 131.801 73.1033 131.545 72.3085L131.544 72.3103Z" fill="#006739"/>
<path d="M139.86 80.2831C138.062 80.3893 136.215 80.5515 134.591 79.4395C134.121 79.1182 133.769 77.9483 133.988 77.3883C134.066 77.1934 134.23 77.0606 134.413 77.0466C134.738 77.0211 135.071 77.0294 135.393 77.0703C136.045 77.1537 136.701 77.2011 137.351 77.2735C138.27 77.376 139.165 77.6231 140.102 77.683C140.705 77.7218 141.007 78.2687 140.985 78.9337C140.962 79.6207 140.572 80.1019 139.859 80.2818L139.86 80.2831Z" fill="#006739"/>
<path d="M111.183 80.5769C112.781 79.4298 119.902 77.1852 122.384 77.0455C122.747 77.8829 122.664 78.2324 121.966 78.4803C121.474 78.6554 120.938 78.6971 120.446 78.8708C117.927 79.7635 115.309 80.3479 112.903 81.5879C111.911 82.0997 111.459 81.7985 111.184 80.5765L111.183 80.5769Z" fill="#4177ED"/>
<path d="M124.403 91.3485C122.916 91.8518 121.388 92.3728 119.856 92.8824C119.625 92.9606 119.38 92.9313 119.199 92.7436C118.965 92.5 119.049 92.2212 119.169 91.9523C119.285 91.6905 119.527 91.4269 119.517 91.177C119.479 90.2167 120.117 89.9426 120.841 89.7618C121.578 89.5778 122.324 89.4259 123.07 89.2972C123.68 89.1928 123.936 89.3301 124.204 89.8855C124.384 90.258 124.626 90.6317 124.405 91.348L124.403 91.3485Z" fill="#4177ED"/>
<path d="M62.6531 109.629C62.9413 110.487 62.7748 111.011 62.1864 111.397C61.5869 111.791 61.0666 111.753 60.545 111.171C59.8188 110.362 59.2753 109.417 58.8544 108.413C58.5903 107.781 58.7423 107.337 59.2057 107.02C59.7914 106.62 60.429 106.605 60.8908 107.097C61.6313 107.887 62.1907 108.818 62.6531 109.629Z" fill="#AEFFE4"/>
<path d="M109.293 79.4494C113.507 77.5234 117.926 76.5495 122.289 75.4214C122.421 75.8218 122.362 76.0047 122.167 76.0881C121.73 76.2752 121.283 76.4396 120.837 76.6035C117.656 77.7756 114.338 78.4528 111.14 79.5679C110.521 79.7847 109.893 79.9024 109.294 79.4489L109.293 79.4494Z" fill="#4177ED"/>
<path d="M55.0521 98.5775C55.0425 99.4362 54.6344 99.8929 53.9194 100.135C52.7864 100.518 51.6558 100.913 50.5278 101.313C49.5361 101.664 48.5459 102.025 47.5591 102.392C47.1632 102.539 46.8227 102.566 46.562 102.168C46.3508 101.845 46.4341 101.488 46.777 101.33C46.8201 101.31 46.864 101.288 46.91 101.276C49.2253 100.659 51.3876 99.6163 53.5986 98.7113C54.029 98.5352 54.4714 98.2953 55.0517 98.5762L55.0521 98.5775Z" fill="#4177ED"/>
<path d="M157.861 90.0508C157.914 90.4854 157.966 90.628 157.941 90.7572C157.718 91.8886 157.647 93.0229 157.723 94.1667C157.776 94.975 157.593 95.6583 156.796 96.0994C156.281 96.3844 156.019 96.9283 155.752 97.4419C155.628 97.6787 155.565 98.0071 155.183 97.9704C154.96 97.0451 154.968 96.4095 155.282 95.4987C155.687 94.323 156.106 93.1526 156.547 91.9896C156.798 91.324 157.169 90.723 157.863 90.0517L157.861 90.0508Z" fill="#006739"/>
<path d="M123.239 95.9903C121.964 95.4803 120.623 94.3584 120.081 93.4142C120.088 93.1994 120.216 93.0513 120.389 92.9667C120.601 92.8644 120.829 92.7492 121.056 92.7338C122.042 92.6709 122.952 92.1564 123.981 92.1517C124.301 92.8812 123.808 93.4612 123.684 94.0823C123.565 94.6841 123.406 95.279 123.24 95.9885L123.239 95.9903Z" fill="#4177ED"/>
<path d="M48.7716 103.175C48.9819 102.801 49.2507 102.675 49.507 102.565C50.95 101.946 52.3992 101.343 53.8501 100.744C53.9194 100.715 54.0253 100.78 54.1869 100.818C54.3354 101.606 53.8877 102.243 53.5338 102.897C53.4769 103.003 53.3072 103.069 53.1771 103.113C52.3219 103.404 51.4661 103.698 50.6031 103.964C49.6114 104.269 49.5023 104.212 48.7716 103.175Z" fill="#4177ED"/>
<path d="M50.1028 104.823C51.2047 104.141 51.6846 104.016 52.901 104.105C52.9062 105.295 52.1742 106.19 51.8099 107.276C50.8183 106.553 50.615 106.25 50.1041 104.823L50.1028 104.823Z" fill="#4177ED"/>
<path d="M155.122 104.007C155.183 102.941 155.667 102.132 156.144 101.21C156.382 101.966 156.362 102.529 156.051 103.171C155.875 103.533 155.712 103.958 155.122 104.007Z" fill="#006739"/>
<path d="M141.265 131.347C141.211 131.254 141.235 131.172 141.341 131.123C141.376 131.107 141.449 131.115 141.469 131.14C141.532 131.224 141.503 131.31 141.396 131.363C141.362 131.379 141.309 131.354 141.265 131.347Z" fill="black"/>
<path d="M138.008 115.028C137.973 115.024 137.937 115.02 137.9 115.017C137.907 114.98 137.902 114.928 137.925 114.909C137.944 114.892 137.994 114.912 138.031 114.915C138.024 114.952 138.016 114.991 138.008 115.028Z" fill="black"/>
</g>
</g>
</g>
<defs>
<clipPath id="clip0_9063_16195">
<rect width="168" height="168" fill="white"/>
</clipPath>
<clipPath id="clip1_9063_16195">
<rect width="167" height="167" fill="white" transform="matrix(0.947274 -0.320426 0.297931 0.954587 -20 31.4208)"/>
</clipPath>
<clipPath id="clip2_9063_16195">
<rect width="149.945" height="148.879" fill="white" transform="matrix(0.947274 -0.320426 0.297931 0.954587 -8.72656 37.7324)"/>
</clipPath>
</defs>
</svg>
