<svg width="122" height="122" viewBox="0 0 122 122" fill="none" xmlns="http://www.w3.org/2000/svg">
<path d="M60.9778 121.979C94.6549 121.979 121.956 94.6784 121.956 61.0013C121.956 27.3241 94.6549 0.0234375 60.9778 0.0234375C27.3007 0.0234375 0 27.3241 0 61.0013C0 94.6784 27.3007 121.979 60.9778 121.979Z" fill="#B8D5FF"/>
<path d="M60.9765 117.548C29.7965 117.548 4.42969 92.1816 4.42969 61.0017C4.42969 29.8217 29.7965 4.4549 60.9765 4.4549C92.1564 4.4549 117.523 29.8217 117.523 61.0017C117.523 92.1816 92.1564 117.548 60.9765 117.548ZM60.9765 5.19771C30.203 5.19771 5.16881 30.2319 5.16881 61.0054C5.16881 91.7788 30.203 116.813 60.9765 116.813C91.7499 116.813 116.784 91.7788 116.784 61.0054C116.784 30.2319 91.7499 5.19771 60.9765 5.19771Z" fill="#122315"/>
<path d="M18.3864 55.2284L18.3235 57.0245C16.7972 56.9358 15.7477 57.7414 15.6109 59.0127L18.2459 59.1088L18.1831 60.8605L10.4297 60.5834L10.5184 58.0815C10.5775 56.4295 11.579 55.3799 13.0647 55.4317C14.0403 55.4649 14.7425 55.9786 15.0344 56.8323C15.6294 55.7569 16.812 55.1545 18.3864 55.2321V55.2284ZM11.9892 58.8797L14.1512 58.9573L14.1697 58.4695C14.1955 57.7267 13.7927 57.2351 13.1386 57.213C12.4734 57.1908 12.0373 57.6601 12.0077 58.414L11.9892 58.8797Z" fill="#122315"/>
<path d="M13.2591 48.669L12.7417 51.5405L14.1941 51.8028L14.6117 49.4783L16.1269 49.7518L15.7093 52.0763L17.2799 52.3572L17.7973 49.4857L19.3458 49.7629L18.5217 54.3565L10.8828 52.9854L11.707 48.3918L13.2554 48.669H13.2591Z" fill="#122315"/>
<path d="M19.1886 48.6947L17.3076 48.0998C17.9949 47.8041 18.5493 47.2608 18.7304 46.688C18.8893 46.1817 18.6934 45.7345 18.2499 45.5941C17.0119 45.2024 16.3245 47.8226 14.1884 47.15C12.8987 46.7435 12.3222 45.583 12.7398 44.2637C12.9098 43.7241 13.2128 43.2844 13.6747 42.8852L15.3341 43.41C14.8019 43.6613 14.4582 44.0161 14.3178 44.4596C14.1773 44.903 14.3437 45.2948 14.7132 45.4093C15.8034 45.753 16.5093 43.1513 18.7599 43.8609C20.1864 44.3117 20.7778 45.5313 20.2936 47.065C20.083 47.7302 19.7319 48.2587 19.1886 48.691V48.6947Z" fill="#122315"/>
<path d="M19.0254 36.8209C20.4999 37.512 21.058 39.0679 20.3817 40.5166C20.2376 40.827 20.0454 41.1042 19.7978 41.3444L21.8969 42.3274L21.1541 43.9128L14.125 40.6237L15.1413 38.4544C15.9211 36.7877 17.4991 36.1077 19.0254 36.8209ZM18.2493 38.4544C17.5767 38.1403 16.8708 38.4211 16.5272 39.1529L16.2722 39.6961L18.3823 40.6829C18.556 40.5461 18.7076 40.3577 18.8111 40.1359C19.1252 39.4633 18.8923 38.7538 18.2493 38.4544Z" fill="#122315"/>
<path d="M20.423 36.2888C18.5086 34.9473 18.1169 32.5636 19.4806 30.6197C20.848 28.6684 23.2132 28.225 25.1312 29.5702C27.0455 30.9117 27.441 33.288 26.0736 35.2393C24.7136 37.1832 22.341 37.634 20.423 36.2888ZM24.0927 31.0484C22.9767 30.265 21.613 30.4904 20.8517 31.5806C20.0941 32.6597 20.3491 34.016 21.4652 34.7995C22.5812 35.583 23.9449 35.3575 24.6988 34.2784C25.4638 33.1882 25.2088 31.8319 24.089 31.0484H24.0927Z" fill="#122315"/>
<path d="M26.5247 22.7147L27.7701 21.484L33.2211 27.0053L31.9905 28.2211L26.6208 26.9979L29.884 30.3018L28.6385 31.5324L23.1875 26.0111L24.481 24.7325L29.8803 26.1146L26.5247 22.7147Z" fill="#122315"/>
<path d="M33.731 26.1182L32.5631 24.5291C33.2912 24.6954 34.0599 24.5845 34.544 24.2297C34.9727 23.9156 35.0762 23.4389 34.8027 23.0619C34.034 22.0161 31.9312 23.7234 30.6082 21.92C29.8062 20.8298 30.028 19.5548 31.144 18.7343C31.5986 18.398 32.1049 18.2243 32.7147 18.1726L33.7457 19.5769C33.1692 19.4661 32.6777 19.5474 32.3045 19.8246C31.9275 20.1017 31.8351 20.5119 32.0642 20.8261C32.7405 21.7463 34.847 20.0648 36.244 21.968C37.1309 23.1765 36.8833 24.5106 35.5899 25.4604C35.0281 25.8743 34.4294 26.0923 33.7347 26.1182H33.731Z" fill="#122315"/>
<path d="M38.3788 23.369L34.4023 16.7058L35.9065 15.8077L39.883 22.471L38.3788 23.369Z" fill="#122315"/>
<path d="M44.7067 17.6889C45.2574 18.8752 44.6735 20.0984 43.2469 20.7599L40.6304 21.9721L37.3672 14.9319L39.7804 13.8121C41.1367 13.1839 42.4043 13.5387 42.9402 14.6954C43.2913 15.4493 43.1545 16.1847 42.5891 16.6541C43.4871 16.4323 44.2965 16.8056 44.7067 17.6889ZM39.5587 15.4937L40.283 17.0532L40.867 16.7834C41.4102 16.5321 41.632 16.0369 41.425 15.5861C41.2107 15.1241 40.6896 14.9726 40.1463 15.2276L39.5624 15.4974L39.5587 15.4937ZM42.3674 19.6032C42.9624 19.3297 43.21 18.7865 42.9772 18.2802C42.7443 17.7776 42.1715 17.626 41.5691 17.9069L40.8337 18.2469L41.6209 19.9469L42.3637 19.6032H42.3674Z" fill="#122315"/>
<path d="M47.5037 17.4262L50.183 16.5983L50.6486 18.1025L46.2952 19.4477L44.0039 12.0342L45.678 11.5168L47.5037 17.4262Z" fill="#122315"/>
<path d="M54.789 11.0586L51.9175 11.5612L52.1725 13.0136L54.5008 12.6071L54.7668 14.126L52.4386 14.5325L52.7158 16.1068L55.5873 15.6042L55.8607 17.1564L51.2634 17.962L49.9219 10.3158L54.5192 9.51013L54.7927 11.0623L54.789 11.0586Z" fill="#122315"/>
<path d="M58.793 12.9841C58.8336 10.678 60.5853 8.99278 62.9025 9.03343C63.5234 9.04452 64.0518 9.18865 64.6136 9.49539L64.5803 11.4134C64.1331 10.9626 63.5603 10.7186 62.9505 10.7076C61.6312 10.6817 60.6371 11.661 60.6149 13.0136C60.589 14.3551 61.5462 15.3825 62.8655 15.4047C63.4753 15.4158 64.0555 15.1941 64.5175 14.758L64.4842 16.6649C63.856 16.9642 63.3349 17.0862 62.7251 17.0751C60.4301 17.0345 58.756 15.2827 58.7967 12.9767L58.793 12.9841Z" fill="#122315"/>
<path d="M65.5539 13.0767C65.9826 10.778 67.993 9.44021 70.3249 9.87629C72.668 10.3161 74.0464 12.2858 73.6177 14.5845C73.189 16.8832 71.1897 18.2247 68.8467 17.7849C66.5147 17.3488 65.1252 15.3754 65.5539 13.073V13.0767ZM71.8401 14.2519C72.0914 12.9104 71.3227 11.7648 70.0182 11.5208C68.721 11.2769 67.5939 12.0715 67.3426 13.4093C67.0913 14.7508 67.8599 15.8965 69.1534 16.1404C70.4617 16.3843 71.5888 15.5934 71.8401 14.2519Z" fill="#122315"/>
<path d="M80.4284 13.0172L82.0655 13.6418L79.2938 20.8889L77.6788 20.2717L76.5738 14.8761L74.9145 19.2148L73.2773 18.5902L76.0491 11.3431L77.7453 11.9935L78.721 17.4815L80.4284 13.0209V13.0172Z" fill="#122315"/>
<path d="M80.2615 20.9624L81.2297 19.2439C81.3776 19.9757 81.7989 20.6298 82.32 20.9255C82.7856 21.1878 83.2587 21.0844 83.4878 20.6779C84.1234 19.547 81.6991 18.3385 82.7967 16.3835C83.4582 15.2046 84.711 14.8794 85.9195 15.5594C86.411 15.8366 86.7806 16.2209 87.0762 16.7568L86.2225 18.272C86.0858 17.6992 85.8086 17.289 85.4021 17.0598C84.9956 16.8307 84.5817 16.9157 84.3895 17.252C83.8315 18.2461 86.2336 19.4694 85.0732 21.5278C84.3378 22.8324 83.0221 23.1613 81.6215 22.3741C81.0117 22.0304 80.5682 21.5796 80.2578 20.9587L80.2615 20.9624Z" fill="#122315"/>
<path d="M86.3384 21.5432L89.2949 17.7034L90.6845 18.7715L87.728 22.6112C87.1663 23.3393 87.2476 24.0895 87.9165 24.6032C88.5854 25.1168 89.3282 25.006 89.8899 24.2743L92.8464 20.4345L94.236 21.5025L91.2795 25.3423C90.108 26.8612 88.4708 27.0423 86.9445 25.8671C85.4145 24.6919 85.1706 23.0621 86.3421 21.5395L86.3384 21.5432Z" fill="#122315"/>
<path d="M99.3547 26.7983L101.243 28.9011L95.4743 34.0897L94.3028 32.7889L98.9371 28.6239L93.1941 31.5508L92.2591 30.5124L95.6923 25.2794L91.191 29.3261L90.0195 28.0252L95.7884 22.8365L97.6917 24.9541L94.8867 29.1302L99.351 26.802L99.3547 26.7983Z" fill="#122315"/>
<path d="M103.013 36.9573C101.627 37.8184 100.019 37.434 99.1769 36.0777C98.9958 35.7858 98.8665 35.4754 98.7999 35.1391L96.8302 36.3623L95.9062 34.8767L102.496 30.7819L103.759 32.8145C104.731 34.3778 104.439 36.0741 103.009 36.961L103.013 36.9573ZM102.071 35.4162C102.703 35.0245 102.85 34.278 102.425 33.5906L102.111 33.0806L100.134 34.3076C100.156 34.5293 100.23 34.7584 100.359 34.9654C100.751 35.5973 101.472 35.7895 102.074 35.4125L102.071 35.4162Z" fill="#122315"/>
<path d="M106.641 41.8321L105.876 40.158L100.247 42.7265L99.5156 41.1226L105.144 38.5541L104.379 36.88L105.813 36.2259L108.075 41.178L106.641 41.8321Z" fill="#122315"/>
<path d="M101.113 44.8885L108.449 42.3607L109.018 44.0164L101.682 46.5442L101.113 44.8885Z" fill="#122315"/>
<path d="M105.848 46.2893C108.139 45.8236 110.135 47.1836 110.608 49.5045C111.084 51.8401 109.772 53.8616 107.481 54.3272C105.19 54.7929 103.194 53.444 102.721 51.1084C102.248 48.7838 103.556 46.7512 105.848 46.2856V46.2893ZM107.123 52.557C108.457 52.2836 109.233 51.1416 108.967 49.8408C108.704 48.5473 107.544 47.8008 106.21 48.0706C104.872 48.3403 104.1 49.4823 104.362 50.7758C104.628 52.0803 105.785 52.8268 107.123 52.557Z" fill="#122315"/>
<path d="M111.498 60.2399L111.528 61.9916L103.767 62.121L103.738 60.3915L108.331 57.3536L103.686 57.4313L103.656 55.6795L111.417 55.5502L111.447 57.3684L106.716 60.3212L111.495 60.2399H111.498Z" fill="#122315"/>
<path d="M19.7873 92.7688L20.7075 91.5751L19.0888 89.4206L17.6882 89.9749L16.5352 88.4412L24.3218 85.8876L25.5562 87.5284L20.9404 94.3025L19.7873 92.7688ZM20.5745 88.833L21.6869 90.3112L23.8377 87.5432L20.5745 88.8293V88.833Z" fill="#122315"/>
<path d="M30.4017 92.7907L31.6508 94.0214L26.2035 99.55L24.9728 98.3342L26.1259 92.9459L22.8663 96.2572L21.6172 95.0266L27.0645 89.4979L28.358 90.7729L27.0498 96.1907L30.4017 92.787V92.7907Z" fill="#122315"/>
<path d="M35.4139 101.542C34.0687 103.43 31.855 103.77 29.9037 102.381L27.8711 100.936L32.3724 94.6127L34.405 96.0614C36.3562 97.451 36.7591 99.6536 35.4176 101.542H35.4139ZM30.7537 101.054C31.855 101.838 33.1447 101.612 33.943 100.492C34.7413 99.3727 34.5306 98.0792 33.4293 97.2958L32.8861 96.9114L30.2104 100.67L30.7537 101.054Z" fill="#122315"/>
<path d="M43.859 104.491C43.1864 105.976 41.6342 106.553 40.1819 105.895C39.8677 105.755 39.5869 105.566 39.3467 105.322L38.3895 107.433L36.793 106.712L39.9934 99.6384L42.1738 100.625C43.8516 101.383 44.5501 102.957 43.8553 104.491H43.859ZM42.2181 103.737C42.5249 103.061 42.2329 102.355 41.4975 102.022L40.9505 101.775L39.9897 103.896C40.1301 104.069 40.3186 104.214 40.5403 104.317C41.2166 104.624 41.9225 104.384 42.2144 103.737H42.2181Z" fill="#122315"/>
<path d="M48.8014 111.158L47.0793 110.648C47.5449 109.188 47.0238 107.973 45.8265 107.525L45.0799 110.057L43.3984 109.562L45.5936 102.115L47.9958 102.824C49.5812 103.29 50.3499 104.524 49.9286 105.951C49.6514 106.886 48.9825 107.44 48.0808 107.511C48.9751 108.353 49.2634 109.65 48.7977 111.154L48.8014 111.158ZM46.8502 104.051L46.2367 106.125L46.706 106.261C47.4193 106.472 47.9958 106.202 48.1806 105.574C48.3691 104.935 48.0217 104.395 47.2973 104.181L46.8502 104.048V104.051Z" fill="#122315"/>
<path d="M50.3463 107.622C50.6567 105.305 52.5969 103.863 54.9473 104.177C57.3088 104.495 58.7908 106.395 58.4767 108.712C58.1662 111.029 56.2371 112.474 53.8756 112.156C51.5252 111.838 50.0322 109.939 50.3463 107.622ZM56.688 108.475C56.8691 107.123 56.045 106.018 54.7256 105.84C53.4174 105.663 52.3308 106.513 52.1498 107.866C51.9687 109.218 52.7928 110.323 54.1011 110.501C55.4204 110.678 56.5069 109.828 56.688 108.475Z" fill="#122315"/>
<path d="M66.0251 108.471C66.099 110.789 64.5432 112.403 62.1521 112.481L59.6575 112.562L59.4062 104.805L61.9008 104.724C64.2956 104.646 65.9512 106.158 66.0288 108.471H66.0251ZM62.0228 110.91C63.3754 110.866 64.266 109.905 64.218 108.53C64.1699 107.156 63.2238 106.254 61.8712 106.298L61.206 106.32L61.3576 110.929L62.0228 110.907V110.91Z" fill="#122315"/>
<path d="M67.374 109.273L66.4648 104.513L68.187 104.185L69.0961 108.945C69.2698 109.85 69.8833 110.282 70.7111 110.127C71.5389 109.968 71.9492 109.336 71.7755 108.435L70.8663 103.675L72.5885 103.346L73.4976 108.106C73.8561 109.99 72.9063 111.336 71.0105 111.698C69.1146 112.06 67.7361 111.162 67.3777 109.277L67.374 109.273Z" fill="#122315"/>
<path d="M74.2634 106.89C73.5058 104.713 74.5627 102.525 76.7505 101.76C77.3381 101.557 77.8814 101.505 78.5171 101.605L79.149 103.416C78.5725 103.146 77.9516 103.117 77.3788 103.316C76.1334 103.752 75.5384 105.012 75.9855 106.291C76.4253 107.559 77.6818 108.191 78.9273 107.755C79.5038 107.555 79.9694 107.145 80.254 106.576L80.8822 108.375C80.3981 108.874 79.9509 109.17 79.3744 109.37C77.2088 110.123 75.0284 109.063 74.2708 106.886L74.2634 106.89Z" fill="#122315"/>
<path d="M84.7025 99.9383L83.0654 100.777L85.8888 106.28L84.3219 107.086L81.4984 101.583L79.8613 102.422L79.1406 101.021L83.9819 98.5339L84.7025 99.9346V99.9383Z" fill="#122315"/>
<path d="M88.8425 104.576L84.6406 98.0498L86.1152 97.1L90.3171 103.627L88.8425 104.576Z" fill="#122315"/>
<path d="M89.2749 99.835C87.7745 98.0426 88.0184 95.6404 89.8366 94.1141C91.6623 92.5841 94.0644 92.7726 95.5649 94.565C97.0653 96.3574 96.8325 98.7521 95.0031 100.286C93.1849 101.808 90.7753 101.627 89.2749 99.835ZM94.179 95.7291C93.3031 94.6833 91.932 94.5465 90.9121 95.4002C89.8995 96.2465 89.796 97.625 90.6682 98.6671C91.544 99.713 92.9151 99.8497 93.9277 99.0034C94.9477 98.1498 95.0549 96.775 94.179 95.7291Z" fill="#122315"/>
<path d="M96.3779 87.6358L97.5124 86.298L103.437 91.3166L102.317 92.636L96.8583 91.8895L100.402 94.894L99.2678 96.2318L93.3438 91.2132L94.519 89.8273L100.022 90.7253L96.3742 87.6358H96.3779Z" fill="#122315"/>
<path d="M18.7035 74.9821L19.195 76.368L14.3278 78.0938L14.5422 78.7036L13.3153 79.1397L12.6094 77.1477L18.7035 74.9895V74.9821Z" fill="#122315"/>
<path d="M16.2082 70.8874L17.45 70.5585L18.4441 74.2911L17.3095 74.5942C15.4728 73.4781 14.3752 73.0531 13.6435 73.249C13.1335 73.3857 12.8415 73.7959 12.982 74.3244C13.0854 74.7161 13.3959 75.0931 13.9909 75.3481L12.5015 75.7435C12.047 75.3296 11.7957 74.9268 11.6626 74.4279C11.3263 73.1677 11.9324 72.1661 13.1002 71.8557C13.9391 71.6303 14.7448 71.8557 16.7478 72.9127L16.2119 70.8948L16.2082 70.8874Z" fill="#122315"/>
<path d="M103.637 73.7476L104.032 72.3322L109.006 73.7181L109.18 73.0935L110.437 73.4446L109.868 75.4809L103.64 73.7439L103.637 73.7476Z" fill="#122315"/>
<path d="M103.322 78.5224L102.117 78.079L103.451 74.4536L104.553 74.8564C105.414 76.8261 106.068 77.8055 106.781 78.0679C107.276 78.2489 107.753 78.079 107.938 77.569C108.078 77.1883 108.041 76.7005 107.701 76.1535L109.15 76.6857C109.283 77.2844 109.257 77.7574 109.08 78.2453C108.629 79.4685 107.561 79.9415 106.423 79.5239C105.606 79.2246 105.077 78.5779 104.046 76.5637L103.326 78.5224H103.322Z" fill="#122315"/>
<path d="M96.5302 60.3467L81.2857 77.051L66.7656 60.3467" fill="#122315"/>
<path d="M77.0974 81.2969C67.7585 89.686 52.8097 90.2256 42.7798 82.6052C32.251 75.055 28.3964 60.2097 33.8031 48.3874C40.8174 32.4371 60.6001 26.3689 75.4898 35.3271C84.2854 40.4677 89.9877 50.3572 90.1171 60.5497H73.5459C73.6752 57.3863 72.7402 54.245 70.8407 51.6876C64.3475 42.8587 50.7624 44.3296 45.8139 54.0195C42.4139 60.4314 44.1915 68.8168 49.8717 73.4179C55.6147 78.3515 64.7466 78.4513 70.7187 73.6618L77.0974 81.3006V81.2969Z" fill="#122315"/>
<path d="M61.9336 35.5969C73.1646 34.928 83.5678 43.3059 85.5819 54.3337C85.8702 55.8674 85.9773 57.4306 85.933 58.9902L85.0608 58.9939C84.9573 57.5045 84.7504 56.0337 84.4067 54.585C82.6771 47.3785 77.5328 41.059 70.6368 38.2503C67.902 37.1158 64.9418 36.5171 61.9521 36.4875L61.9336 35.6006V35.5969Z" fill="#B8D5FF"/>
</svg>
