<svg width="122" height="122" viewBox="0 0 122 122" fill="none" xmlns="http://www.w3.org/2000/svg">
<path d="M44.1523 119.573C76.2691 128.902 109.868 110.429 119.197 78.3126C128.527 46.1958 110.054 12.597 77.9374 3.2675C45.8206 -6.062 12.2217 12.4107 2.89222 44.5275C-6.43728 76.6443 12.0355 110.243 44.1523 119.573Z" fill="#ABE59E"/>
<path d="M45.3816 115.347C15.6462 106.71 -1.51798 75.4908 7.11975 45.7554C15.7575 16.0201 46.9763 -1.14408 76.7116 7.49365C106.447 16.1314 123.611 47.3501 114.973 77.0855C106.336 106.821 75.1169 123.985 45.3816 115.347ZM76.5058 8.20204C47.1582 -0.323063 16.3487 16.6161 7.8236 45.9637C-0.701501 75.3114 16.2376 106.121 45.5853 114.646C74.933 123.171 105.742 106.232 114.267 76.8843C122.793 47.5366 105.854 16.7271 76.5058 8.20204Z" fill="#122315"/>
<path d="M37.3382 24.842L40.236 22.9971L41.2729 24.6245L36.5642 27.625L31.4564 19.6059L33.2663 18.4539L37.3372 24.8456L37.3382 24.842Z" fill="#122315"/>
<path d="M42.3568 24.1557L38.286 15.5665L40.2234 14.6464L44.2942 23.2356L42.3568 24.1557Z" fill="#122315"/>
<path d="M48.5371 13.6564L45.1464 14.7773L45.7534 16.6085L48.3964 15.7328L49.0073 17.5766L46.3643 18.4522L47.5285 21.9701L45.4909 22.6432L42.5019 13.6193L47.9277 11.8207L48.5346 13.6519L48.5371 13.6564Z" fill="#122315"/>
<path d="M55.5964 12.3244L52.0789 12.9345L52.3877 14.7135L55.2372 14.2189L55.5607 16.0785L52.7112 16.5731L53.0455 18.5009L56.5665 17.8918L56.8975 19.7918L51.263 20.7692L49.6392 11.4003L55.2736 10.4229L55.6045 12.3229L55.5964 12.3244Z" fill="#122315"/>
<path d="M60.4095 14.6556C60.6767 11.8019 62.9817 9.94526 65.8752 10.2202C68.7803 10.4946 70.6836 12.7443 70.4164 15.5981C70.1492 18.4518 67.8594 20.309 64.9507 20.0335C62.0562 19.7622 60.1424 17.5093 60.4095 14.6556ZM68.2108 15.3892C68.3688 13.7268 67.3059 12.4129 65.6842 12.259C64.0767 12.1093 62.7859 13.1981 62.6303 14.865C62.4723 16.5275 63.5352 17.8414 65.1463 17.9921C66.7679 18.146 68.0562 17.0527 68.2143 15.3902L68.2108 15.3892Z" fill="#122315"/>
<path d="M78.8415 13.3247L80.8772 14.0001L77.8893 23.023L75.8772 22.3582L74.2233 15.8164L72.4365 21.2174L70.4008 20.5419L73.3887 11.5191L75.502 12.217L77.0026 18.8786L78.8415 13.3247Z" fill="#122315"/>
<path d="M83.8249 24.1549L86.7348 25.9786L85.7103 27.611L80.9845 24.6445L86.0371 16.5921L87.854 17.7314L83.826 24.1514L83.8249 24.1549Z" fill="#122315"/>
<path d="M90.8127 32.0935L91.6558 30.4543L89.2281 28.2204L87.6636 29.1991L85.9359 27.608L94.7471 22.7991L96.5963 24.4981L92.5414 33.6811L90.8137 32.09L90.8127 32.0935ZM90.8868 27.1811L92.5542 28.7165L94.5286 24.9064L90.8858 27.1846L90.8868 27.1811Z" fill="#122315"/>
<path d="M103.9 33.3383L105.133 35.0951L97.3527 40.5513L96.1363 38.8182L98.7117 32.5839L94.0517 35.8508L92.8193 34.094L100.599 28.6378L101.877 30.4614L99.1059 36.6999L103.896 33.3408L103.9 33.3383Z" fill="#122315"/>
<path d="M105.387 47.0473C102.78 48.1665 100.243 47.1123 99.0841 44.4177L97.878 41.6099L106.614 37.8609L107.821 40.6687C108.979 43.3633 107.997 45.929 105.386 47.0508L105.387 47.0473ZM100.817 43.5683C101.472 45.0921 102.965 45.6749 104.51 45.0118C106.056 44.3486 106.66 42.8615 106.009 41.3387L105.687 40.5917L100.496 42.8213L100.817 43.5683Z" fill="#122315"/>
<path d="M16.7757 83.1504L18.263 86.082L16.6174 86.9186L14.1989 82.1535L22.3124 78.0362L23.24 79.8688L16.7722 83.1494L16.7757 83.1504Z" fill="#122315"/>
<path d="M17.4134 88.121L25.0656 83.1971L26.1771 84.9226L18.5249 89.8465L17.4134 88.121Z" fill="#122315"/>
<path d="M28.8687 91.3642L26.7005 88.7241L25.2747 89.896L26.966 91.9543L25.5301 93.1347L23.8387 91.0764L21.0974 93.3299L19.7927 91.7432L26.824 85.9701L30.296 90.2004L28.8702 91.3723L28.8687 91.3642Z" fill="#122315"/>
<path d="M33.954 96.0127L31.3939 93.748L30.2459 95.0425L32.3188 96.8792L31.1196 98.2315L29.0466 96.3949L27.8064 97.7965L30.3664 100.061L29.1428 101.445L25.0451 97.816L31.0788 91.0041L35.1765 94.6327L33.953 96.0162L33.954 96.0127Z" fill="#122315"/>
<path d="M35.5293 100.652C36.7742 98.2082 39.479 97.3697 41.9558 98.6318C44.4457 99.9016 45.3434 102.574 44.0985 105.018C42.8536 107.461 40.1619 108.307 37.672 107.037C35.1917 105.774 34.2845 103.095 35.5293 100.652ZM42.2107 104.056C42.9379 102.632 42.4537 101.089 41.0659 100.38C39.6877 99.6775 38.1539 100.195 37.4302 101.621C36.703 103.045 37.1872 104.588 38.5655 105.291C39.9532 105.999 41.4871 105.482 42.2142 104.057L42.2107 104.056Z" fill="#122315"/>
<path d="M51.8456 102.411L53.8306 102.946L51.4688 111.734L49.5086 111.207L47.5686 105.044L46.155 110.305L44.1701 109.77L46.5319 100.982L48.5918 101.535L50.3891 107.82L51.8421 102.41L51.8456 102.411Z" fill="#122315"/>
<path d="M59.153 110.632L62.4405 110.735L62.3825 112.58L57.0425 112.412L57.3261 103.318L59.3786 103.383L59.153 110.632Z" fill="#122315"/>
<path d="M69.7954 111.813L69.1104 110.185L65.9789 110.598L65.7384 112.347L63.5093 112.64L65.3944 103.216L67.7783 102.904L72.0315 111.523L69.8025 111.815L69.7954 111.813ZM66.2316 108.741L68.3855 108.457L66.7996 104.668L66.2316 108.741Z" fill="#122315"/>
<path d="M75.6389 100.865L77.5947 100.237L80.3827 108.901L78.4521 109.521L73.4815 105.398L75.1509 110.583L73.1952 111.212L70.4072 102.548L72.4352 101.895L77.3572 106.199L75.6425 100.866L75.6389 100.865Z" fill="#122315"/>
<path d="M87.325 100.113C88.6454 102.488 87.8912 105.005 85.4381 106.371L82.8805 107.795L78.4559 99.8449L81.0136 98.4209C83.4667 97.0544 86.0045 97.7381 87.3285 100.114L87.325 100.113ZM84.4604 104.803C85.8461 104.033 86.2565 102.554 85.4733 101.146C84.69 99.7373 83.2168 99.3093 81.831 100.08L81.1478 100.459L83.7762 105.185L84.4594 104.807L84.4604 104.803Z" fill="#122315"/>
<path d="M18.5997 51.9676L18.3141 53.3981L13.2863 52.3923L13.161 53.021L11.8932 52.7673L12.3041 50.7083L18.6032 51.9686L18.5997 51.9676Z" fill="#122315"/>
<path d="M17.9434 46.698C19.1875 47.0594 19.7339 48.2041 19.3127 49.6411C19.1438 50.2226 18.8737 50.6524 18.4444 51.0513L17.1298 50.6694C17.5761 50.2908 17.8297 49.9441 17.9577 49.5035C18.1502 48.8409 17.9528 48.3364 17.4417 48.188C16.9307 48.0395 16.4937 48.3598 16.2941 49.047C16.1866 49.4171 16.1814 49.7901 16.268 50.2815L12.7717 48.7003L13.6245 45.7645L14.8792 46.1289L14.3438 47.9722L15.3417 48.4837C15.3568 48.3658 15.3836 48.2475 15.4194 48.1241C15.7778 46.8906 16.8014 46.3662 17.9468 46.699L17.9434 46.698Z" fill="#122315"/>
<path d="M102.75 73.7823L103.136 72.377L108.079 73.7403L108.251 73.1215L109.497 73.4642L108.939 75.4884L102.747 73.7813L102.75 73.7823Z" fill="#122315"/>
<path d="M103.023 79.0837C101.809 78.6317 101.345 77.4536 101.867 76.0498C102.079 75.4806 102.376 75.0741 102.835 74.7066L104.118 75.1826C103.647 75.5273 103.369 75.8553 103.21 76.2831C102.969 76.9279 103.131 77.4488 103.628 77.6315C104.129 77.8152 104.587 77.5278 104.836 76.8549C104.972 76.493 104.999 76.1226 104.949 75.6263L108.323 77.4551L107.261 80.3224L106.04 79.8683L106.707 78.071L105.748 77.4906C105.725 77.61 105.692 77.7228 105.646 77.843C105.201 79.0475 104.141 79.4965 103.023 79.0837Z" fill="#122315"/>
<path d="M61.6867 60.39C69.4706 62.6511 77.6137 58.174 79.8749 50.3901C82.136 42.6061 77.6589 34.463 69.8749 32.2019C62.091 29.9407 53.9479 34.4179 51.6867 42.2018C49.4256 49.9857 53.9027 58.1289 61.6867 60.39Z" fill="#122315"/>
<path d="M46.4288 76.0809C54.2128 78.342 62.3559 73.8649 64.6171 66.0809C66.8782 58.297 62.4011 50.1539 54.6171 47.8927C46.8332 45.6316 38.69 50.1087 36.4289 57.8927C34.1678 65.6766 38.6449 73.8197 46.4288 76.0809Z" fill="#122315"/>
<path d="M66.1476 81.8088C73.9315 84.0699 82.0747 79.5928 84.3358 71.8089C86.5969 64.0249 82.1198 55.8818 74.3359 53.6206C66.5519 51.3595 58.4088 55.8366 56.1477 63.6206C53.8865 71.4045 58.3636 79.5477 66.1476 81.8088Z" fill="#122315"/>
<path d="M66.8031 66.7157L53.9566 62.984L46.7533 87.7816L59.5997 91.5133L66.8031 66.7157Z" fill="#122315"/>
<path d="M65.8235 84.3016C64.1389 83.6937 62.527 82.9274 61.2312 81.7179C59.9772 80.509 58.8497 79.1801 58.1877 77.6043L59.1377 76.9784C60.0956 78.2197 61.3086 79.2409 62.5094 80.1591C63.7215 81.0387 65.1899 81.5225 66.5708 81.9657L65.8235 84.3016Z" fill="#ABE59E"/>
<path d="M58.8082 49.1746C61.9058 50.7471 64.295 53.6921 65.2891 57.0192C65.6058 58.1393 65.7755 59.3046 65.6928 60.4577L64.559 60.5716C63.9806 58.5501 63.298 56.6243 62.2346 54.8249C61.1944 53.0513 59.7982 51.503 58.1748 50.1448L58.8047 49.1736L58.8082 49.1746Z" fill="#ABE59E"/>
</svg>
