<svg width="123" height="123" viewBox="0 0 123 123" fill="none" xmlns="http://www.w3.org/2000/svg">
<path d="M61.5701 122.382C95.3586 122.382 122.75 94.9914 122.75 61.2029C122.75 27.4144 95.3586 0.0234375 61.5701 0.0234375C27.7816 0.0234375 0.390625 27.4144 0.390625 61.2029C0.390625 94.9914 27.7816 122.382 61.5701 122.382Z" fill="#FFF39F"/>
<path d="M61.5697 117.937C30.2866 117.937 4.83594 92.4862 4.83594 61.2031C4.83594 29.92 30.2866 4.46936 61.5697 4.46936C92.8528 4.46936 118.303 29.92 118.303 61.2031C118.303 92.4862 92.8528 117.937 61.5697 117.937ZM61.5697 5.21464C30.6945 5.21464 5.57751 30.3316 5.57751 61.2068C5.57751 92.082 30.6945 117.199 61.5697 117.199C92.4449 117.199 117.562 92.082 117.562 61.2068C117.562 30.3316 92.4449 5.21464 61.5697 5.21464Z" fill="#122315"/>
<path d="M20.7097 36.8054C23.0605 37.9104 23.8837 40.2834 22.7416 42.7157L21.5551 45.2482L13.6797 41.5515L14.8662 39.019C16.0082 36.5904 18.359 35.7005 20.7097 36.8054ZM21.1065 42.0446C21.7517 40.6727 21.2437 39.2934 19.8495 38.6408C18.4554 37.9845 17.0723 38.4777 16.4272 39.8496L16.1121 40.5244L20.7913 42.7194L21.1065 42.0446Z" fill="#122315"/>
<path d="M22.4846 29.6938L20.6084 32.3708L21.9618 33.32L23.482 31.1509L24.8984 32.1409L23.3781 34.31L24.8427 35.3371L26.7189 32.66L28.165 33.6723L25.1616 37.9585L18.0352 32.9678L21.0385 28.6815L22.4846 29.6938Z" fill="#122315"/>
<path d="M25.2735 30.2723C23.4047 28.4851 23.3454 25.7635 25.14 23.8874C25.622 23.3831 26.1411 23.0568 26.8196 22.8306L28.3732 24.3175C27.6613 24.3434 27.0273 24.6289 26.5527 25.1221C25.5293 26.1899 25.585 27.7546 26.6788 28.8003C27.7652 29.8385 29.3373 29.831 30.3607 28.7595C30.8316 28.2663 31.0911 27.6175 31.0837 26.9056L32.6298 28.3813C32.3999 29.1228 32.1033 29.6494 31.6324 30.1425C29.8564 32.0001 27.1385 32.052 25.2735 30.2686V30.2723Z" fill="#122315"/>
<path d="M33.7045 19.2119L31.1016 21.1882L32.1027 22.5045L34.2087 20.9027L35.2543 22.2783L33.1483 23.8801L34.231 25.3039L36.8339 23.3276L37.9018 24.7329L33.7379 27.8994L28.4727 20.9731L32.6366 17.8066L33.7045 19.2119Z" fill="#122315"/>
<path d="M39.3522 13.9651L41.0949 13.0566L45.1179 20.769L43.3974 21.6663L38.047 18.585L40.4571 23.2013L38.7145 24.1097L34.6914 16.3974L36.4972 15.4556L41.829 18.7148L39.3522 13.9651Z" fill="#122315"/>
<path d="M49.0977 12.2004L47.1362 12.8418L49.2868 19.4344L47.4069 20.0462L45.2563 13.4536L43.2948 14.0951L42.7461 12.4154L48.5489 10.5244L49.0977 12.2004Z" fill="#122315"/>
<path d="M61.8707 8.83348L63.9063 8.71112L62.2489 17.5247L60.154 17.6507L58.6152 11.9555L57.7624 17.7953L55.6526 17.9214L52.957 9.37112L54.9667 9.24876L56.5944 15.1887L57.4695 9.09674L59.379 8.98179L60.9956 14.9218L61.8707 8.82977V8.83348Z" fill="#122315"/>
<path d="M64.4789 13.1607C64.8941 10.5726 67.1077 9.01532 69.7328 9.43431C72.3691 9.857 73.9746 12.0261 73.5594 14.6179C73.1441 17.206 70.9417 18.767 68.3054 18.3443C65.6802 17.9216 64.0636 15.7525 64.4789 13.1607ZM71.5572 14.2953C71.7982 12.7862 70.9082 11.5218 69.4362 11.2882C67.9753 11.0546 66.7332 11.9742 66.4922 13.4833C66.2512 14.9924 67.141 16.2567 68.6019 16.4903C70.0739 16.7276 71.3162 15.8044 71.5572 14.2953Z" fill="#122315"/>
<path d="M79.3077 21.3735L77.4167 20.6802C78.0433 19.0821 77.5502 17.6842 76.2414 17.0984L75.2217 19.8756L73.3789 19.2007L76.3749 11.0323L79.0111 12.0001C80.7501 12.6378 81.5213 14.0728 80.9466 15.6375C80.5684 16.6646 79.7787 17.2356 78.7664 17.2467C79.7082 18.2552 79.9344 19.7272 79.304 21.3735H79.3077ZM77.6429 13.283L76.8087 15.5596L77.3203 15.7487C78.1027 16.0342 78.7664 15.7747 79.0185 15.0887C79.2744 14.3879 78.9259 13.7576 78.1324 13.4647L77.6429 13.283Z" fill="#122315"/>
<path d="M85.6087 19.3489C87.0177 20.8358 87.0993 22.8529 85.7718 25.0257L84.0403 24.0245C85.1527 22.2262 85.0044 20.7208 83.5954 19.6789L81.823 22.7453L80.1211 21.7628L84.4741 14.2321L86.1723 15.2147L84.5928 17.9474L88.2487 16.416L90.1731 17.5284L85.605 19.3527L85.6087 19.3489Z" fill="#122315"/>
<path d="M92.3079 30.7026L93.105 29.2157L90.9175 27.1319L89.4713 28.0033L87.9141 26.5201L96.0565 22.2561L97.7213 23.8431L93.8652 32.1857L92.3079 30.7026ZM92.4525 26.2087L93.9579 27.6399L95.8229 24.1842L92.4525 26.2087Z" fill="#122315"/>
<path d="M104.34 31.8887L105.479 33.4905L98.3893 38.5332L97.2658 36.9537L99.5869 31.2288L95.3415 34.2469L94.2031 32.6452L101.293 27.6025L102.475 29.2636L99.9763 34.9922L104.344 31.8887H104.34Z" fill="#122315"/>
<path d="M105.885 44.2991C103.519 45.3744 101.18 44.4586 100.071 42.0151L98.9141 39.4678L106.834 35.8712L107.991 38.4185C109.1 40.862 108.25 43.2276 105.885 44.3029V44.2991ZM101.639 41.2031C102.266 42.5824 103.642 43.0904 105.047 42.4526C106.448 41.8149 106.975 40.443 106.348 39.0637L106.041 38.3851L101.335 40.5246L101.643 41.2031H101.639Z" fill="#122315"/>
<path d="M19.9934 79.4341L18.7921 76.3937L17.2533 77.0018L18.2248 79.4638L16.6193 80.0978L15.6479 77.6358L13.983 78.2921L15.1844 81.3325L13.5417 81.9814L11.6211 77.1167L19.7116 73.9205L21.6323 78.7852L19.9897 79.4341H19.9934Z" fill="#122315"/>
<path d="M17.9382 81.2397C20.1815 79.9567 22.8104 80.6686 24.1007 82.923C24.4455 83.5274 24.6124 84.1169 24.6383 84.8363L22.7733 85.9041C22.9512 85.2145 22.8586 84.5248 22.5174 83.9316C21.7833 82.6486 20.2704 82.2556 18.9542 83.0083C17.649 83.7536 17.2115 85.2664 17.9456 86.5493C18.2868 87.1425 18.8318 87.5727 19.5178 87.7692L17.6638 88.8296C17.015 88.3995 16.596 87.9657 16.2586 87.3724C14.9793 85.1403 15.7024 82.5226 17.9456 81.2397H17.9382Z" fill="#122315"/>
<path d="M21.5992 87.7287C23.6089 86.0416 26.3007 86.3123 28.01 88.3516C29.7268 90.3983 29.5192 93.0865 27.5132 94.7736C25.5073 96.4606 22.8191 96.1974 21.1023 94.1507C19.393 92.115 19.5933 89.4157 21.5992 87.7287ZM26.2081 93.22C27.3797 92.2374 27.5318 90.6987 26.5714 89.5566C25.6222 88.4257 24.0797 88.3071 22.908 89.2897C21.7363 90.2722 21.5843 91.811 22.5372 92.9456C23.4976 94.0876 25.0364 94.2026 26.2081 93.22Z" fill="#122315"/>
<path d="M35.4268 95.5895L36.9582 96.8168L31.5188 103.61L30.006 102.397L30.6697 96.2569L27.4142 100.321L25.8828 99.0934L31.3223 92.3006L32.913 93.5761L32.0787 99.7719L35.4268 95.5895Z" fill="#122315"/>
<path d="M35.3042 101.021C36.5092 98.6927 39.101 97.9066 41.4591 99.1302C43.8322 100.358 44.6739 102.92 43.4652 105.248C42.2601 107.577 39.6794 108.366 37.3101 107.139C34.9482 105.916 34.0954 103.35 35.3042 101.021ZM41.6705 104.318C42.375 102.96 41.9227 101.481 40.599 100.795C39.2864 100.117 37.8181 100.599 37.1136 101.956C36.4091 103.313 36.8615 104.792 38.174 105.471C39.4978 106.157 40.966 105.671 41.6705 104.314V104.318Z" fill="#122315"/>
<path d="M51.7287 103.09L54.7914 103.895L52.5814 112.308L50.6831 111.807L52.4591 105.055L48.881 111.336L47.3683 110.94L47.3609 103.925L45.6367 110.487L43.7383 109.991L45.9481 101.577L49.0368 102.389L48.9811 108.029L51.7287 103.098V103.09Z" fill="#122315"/>
<path d="M54.9453 112.467L55.8686 103.817L57.8226 104.025L56.8994 112.675L54.9453 112.467Z" fill="#122315"/>
<path d="M58.5436 108.574C58.5028 105.99 60.3938 104.032 62.993 103.991C63.6901 103.98 64.2871 104.118 64.9285 104.444L64.9656 106.594C64.4465 106.105 63.7977 105.857 63.1154 105.868C61.636 105.894 60.5607 107.028 60.5866 108.545C60.6126 110.046 61.725 111.159 63.2007 111.136C63.8829 111.125 64.5244 110.855 65.0286 110.347L65.062 112.482C64.3724 112.842 63.7902 113.002 63.108 113.013C60.5348 113.053 58.5918 111.159 58.5473 108.578L58.5436 108.574Z" fill="#122315"/>
<path d="M72.6678 106.524L76.2347 105.675L77.1765 109.627C76.535 110.521 75.6266 111.174 74.4327 111.459C71.8076 112.086 69.542 110.673 68.9377 108.133C68.3259 105.571 69.7534 103.298 72.3377 102.683C73.0163 102.519 73.6132 102.508 74.1731 102.668L74.6626 104.722C74.0211 104.44 73.439 104.362 72.8235 104.511C71.3366 104.867 70.5579 106.164 70.9213 107.673C71.2847 109.197 72.5825 110.024 74.0582 109.672C74.4698 109.572 74.822 109.386 75.1297 109.134L74.7998 107.755L73.057 108.17L72.6641 106.524H72.6678Z" fill="#122315"/>
<path d="M85.2173 107.388L83.3671 108.177C82.7293 106.587 81.4093 105.905 80.056 106.375L81.2165 109.097L79.4108 109.868L75.9922 101.87L78.5765 100.765C80.2784 100.039 81.8246 100.554 82.4772 102.085C82.9073 103.09 82.7219 104.047 81.9952 104.751C83.3708 104.84 84.5461 105.756 85.2173 107.388ZM78.4579 102.642L79.4108 104.87L79.915 104.655C80.6826 104.329 80.9866 103.684 80.6974 103.009C80.4045 102.323 79.7148 102.104 78.9399 102.438L78.4616 102.642H78.4579Z" fill="#122315"/>
<path d="M84.1416 103.183C82.7067 100.988 83.2925 98.3477 85.5172 96.8905C87.753 95.4259 90.4004 95.9524 91.8354 98.1474C93.2703 100.342 92.6956 102.979 90.4598 104.44C88.2351 105.897 85.5765 105.378 84.1416 103.183ZM90.1409 99.2561C89.3029 97.9769 87.7938 97.6432 86.5443 98.4626C85.3059 99.2709 85.0092 100.791 85.8434 102.07C86.6814 103.35 88.1906 103.683 89.429 102.871C90.6785 102.055 90.9751 100.539 90.1372 99.2561H90.1409Z" fill="#122315"/>
<path d="M95.6333 88.2143L97.046 86.746L101.796 94.3545L100.339 95.8673L95.3478 92.7194L98.6737 97.5952L97.2091 99.1154L89.4375 94.6512L90.8317 93.2014L96.0522 96.468L92.5743 91.392L93.9018 90.0126L99.1112 93.2867L95.6333 88.2106V88.2143Z" fill="#122315"/>
<path d="M101.768 82.2447L100.656 83.9837L106.495 87.7175L105.431 89.3823L99.5914 85.6485L98.479 87.3875L96.9922 86.4383L100.277 81.2992L101.764 82.2484L101.768 82.2447Z" fill="#122315"/>
<path d="M102.702 75.8337L103.462 74.0242L111.482 77.391L110.722 79.2004L107.422 77.8136L106.258 80.5871L109.558 81.9701L108.797 83.7796L100.777 80.4128L101.537 78.6034L104.619 79.8975L105.783 77.124L102.702 75.8299V75.8337Z" fill="#122315"/>
<path d="M13.5898 65.7049C11.5616 65.7828 10.1785 64.7483 10.1155 63.1391C10.0524 61.5187 11.3539 60.3916 13.3821 60.3137C15.4029 60.2358 16.7934 61.2592 16.8564 62.8795C16.9194 64.4887 15.6068 65.627 13.5898 65.7049ZM13.4378 61.7783C12.2142 61.8265 11.4281 62.3456 11.4578 63.0872C11.4874 63.8287 12.3106 64.2885 13.5342 64.2403C14.7467 64.1958 15.5326 63.673 15.5067 62.9314C15.477 62.1899 14.654 61.7301 13.4415 61.7783H13.4378Z" fill="#122315"/>
<path d="M15.1746 54.8148C16.3463 54.9149 17.0953 55.9791 16.9766 57.3843C16.858 58.797 15.9421 59.724 14.7705 59.6276C14.0029 59.5645 13.4764 59.1085 13.3059 58.4633C12.9907 59.0121 12.4679 59.2383 11.8969 59.1901C10.8439 59.1011 10.1654 58.1148 10.2729 56.8207C10.3804 55.5378 11.2146 54.6776 12.2677 54.7666C12.8869 54.8185 13.3208 55.1819 13.5358 55.7306C13.825 55.0484 14.4813 54.7592 15.1746 54.8185V54.8148ZM12.1861 57.7329C12.6014 57.7662 12.924 57.4882 12.9611 57.0432C12.9982 56.6094 12.7275 56.2794 12.3122 56.246C11.8969 56.2127 11.5669 56.4907 11.5298 56.9246C11.4927 57.3695 11.7708 57.6995 12.1861 57.7329ZM14.9263 56.3165C14.4368 56.2757 14.0474 56.6131 14.0029 57.1322C13.951 57.6587 14.2773 58.0592 14.7779 58.1C15.2747 58.1407 15.6678 57.8033 15.7123 57.2768C15.7568 56.7614 15.4268 56.361 14.9263 56.3202V56.3165Z" fill="#122315"/>
<path d="M109.161 53.6504C111.182 53.4501 112.624 54.3956 112.784 56.0011C112.943 57.614 111.712 58.8191 109.695 59.0193C107.685 59.2195 106.232 58.2852 106.072 56.6722C105.913 55.0668 107.151 53.8543 109.161 53.6541V53.6504ZM109.55 57.5584C110.767 57.4361 111.523 56.8688 111.449 56.1309C111.375 55.393 110.525 54.9852 109.306 55.1038C108.097 55.2225 107.344 55.7935 107.418 56.5313C107.493 57.2692 108.342 57.6771 109.55 57.5584Z" fill="#122315"/>
<path d="M108.244 64.6144C107.069 64.5885 106.257 63.5688 106.29 62.1598C106.323 60.7434 107.18 59.7609 108.355 59.7868C109.123 59.8054 109.679 60.2243 109.887 60.8584C110.168 60.2911 110.676 60.0315 111.251 60.0464C112.308 60.0723 113.046 61.0141 113.016 62.3119C112.986 63.5985 112.204 64.5069 111.151 64.4847C110.532 64.4698 110.076 64.1361 109.827 63.6022C109.579 64.2993 108.941 64.6293 108.248 64.6144H108.244ZM108.4 63.0979C108.889 63.1091 109.26 62.7457 109.271 62.2266C109.293 61.7001 108.941 61.3182 108.441 61.307C107.94 61.2959 107.569 61.6593 107.558 62.1858C107.547 62.7049 107.899 63.0831 108.4 63.0942V63.0979ZM111.051 61.5184C110.636 61.5073 110.332 61.8076 110.32 62.2525C110.309 62.6864 110.599 63.0015 111.018 63.0089C111.433 63.0201 111.748 62.7197 111.755 62.2822C111.767 61.8373 111.466 61.5258 111.051 61.5147V61.5184Z" fill="#122315"/>
<path d="M47.1606 64.3807C54.4938 64.3807 60.4384 58.436 60.4384 51.1029C60.4384 43.7697 54.4938 37.8251 47.1606 37.8251C39.8275 37.8251 33.8828 43.7697 33.8828 51.1029C33.8828 58.436 39.8275 64.3807 47.1606 64.3807Z" fill="#122315"/>
<path d="M76.9613 64.3807C84.2944 64.3807 90.2391 58.436 90.2391 51.1029C90.2391 43.7697 84.2944 37.8251 76.9613 37.8251C69.6282 37.8251 63.6836 43.7697 63.6836 51.1029C63.6836 58.436 69.6282 64.3807 76.9613 64.3807Z" fill="#122315"/>
<path d="M62.063 90.1018C69.3961 90.1018 75.3408 84.1571 75.3408 76.824C75.3408 69.4909 69.3961 63.5462 62.063 63.5462C54.7298 63.5462 48.7852 69.4909 48.7852 76.824C48.7852 84.1571 54.7298 90.1018 62.063 90.1018Z" fill="#122315"/>
<path d="M47.534 59.7678C42.6434 60.3091 37.7824 55.6966 38.5054 50.7318H39.5028C40.0775 54.955 43.207 58.3588 47.5303 58.7518V59.7678H47.534Z" fill="#FFF39F"/>
<path d="M77.0078 42.3191C81.8985 41.7778 86.7594 46.3903 86.0364 51.3551H85.039C84.4643 47.1319 81.3349 43.7281 77.0115 43.3351V42.3191H77.0078Z" fill="#FFF39F"/>
<path d="M70.7254 64.7626C65.8348 65.3039 60.9738 60.6914 61.6968 55.7266H62.6942C63.2689 59.9498 66.3984 63.3536 70.7217 63.7466V64.7626H70.7254Z" fill="#FFF39F"/>
<path d="M71.2352 76.0823C71.7765 80.973 67.164 85.834 62.1992 85.1109V84.1135C66.4225 83.5388 69.8262 80.4094 70.2192 76.086H71.2352V76.0823Z" fill="#FFF39F"/>
</svg>
