<svg width="168" height="168" viewBox="0 0 168 168" fill="none" xmlns="http://www.w3.org/2000/svg">
<g clip-path="url(#clip0_9063_15885)">
<path d="M61.1527 163.597C104.968 176.478 150.93 151.401 163.811 107.585C176.692 63.7699 151.615 17.8081 107.8 4.92691C63.9843 -7.95431 18.0225 17.1229 5.14132 60.9383C-7.7399 104.754 17.3373 150.716 61.1527 163.597Z" fill="#12A3D1"/>
<path d="M61.0079 164.08C16.9949 151.14 -8.28369 104.809 4.65562 60.7963C17.5949 16.7832 63.9258 -8.49533 107.939 4.44399C151.952 17.3833 177.231 63.7142 164.291 107.727C151.352 151.74 105.021 177.019 61.0079 164.08ZM107.656 5.40555C64.1755 -7.37726 18.4 17.5983 5.61718 61.079C-7.16562 104.56 17.8099 150.335 61.2906 163.118C104.771 175.901 150.547 150.925 163.33 107.445C176.112 63.9639 151.137 18.1884 107.656 5.40555Z" fill="#122315"/>
<path d="M115.835 155.103C154.95 137.731 172.609 92.0117 155.277 52.9866C137.945 13.9615 92.1852 -3.59187 53.0701 13.7801C13.9551 31.152 -3.70354 76.8709 13.6285 115.896C30.9605 154.921 76.7198 172.474 115.835 155.103Z" fill="#122315"/>
<g clip-path="url(#clip1_9063_15885)">
<path d="M104.271 102.055C104.336 101.672 104.474 101.342 104.662 101.027C104.937 100.564 105.209 100.1 105.472 99.6312C105.877 98.9111 105.724 98.1396 105.099 97.6171C104.901 97.4521 104.7 97.4493 104.485 97.5445C104.095 97.7169 103.765 97.9774 103.541 98.3369C102.783 99.5586 101.98 100.757 101.372 102.067C101.183 102.474 100.943 102.546 100.579 102.303C100.19 102.045 99.8958 101.379 100.087 100.94C100.274 100.511 100.275 100.035 100.506 99.6218C100.679 99.3136 100.642 99.0374 100.329 98.7856C100.008 98.5252 99.7082 98.2944 99.2769 98.4862C98.9072 98.65 98.5927 98.9007 98.4528 99.2835C98.2516 99.8357 97.9537 100.344 97.7721 100.907C97.5866 101.484 97.3859 102.064 97.0509 102.586C96.8498 102.897 96.7221 103.243 96.7982 103.632C96.8635 103.964 96.6761 104.121 96.3965 104.233C95.7614 104.49 95.1729 104.511 94.6216 104.017C94.1034 103.553 94.0228 102.954 94.4464 102.387C94.6222 102.151 94.8022 101.922 94.9758 101.684C95.2185 101.349 95.2386 101.006 94.9853 100.666C94.7232 100.317 94.4202 100.057 93.9327 100.156C93.5903 100.227 93.259 100.314 93.0279 100.595C92.7325 100.953 92.4042 101.294 92.1697 101.69C91.209 103.315 89.9394 104.715 88.8609 106.255C88.3216 107.025 87.5939 107.666 87.0917 108.482C86.9896 108.648 86.8511 108.79 86.8402 109.073C87.5085 109.619 88.3772 109.907 89.1042 110.445C89.1735 110.361 89.2419 110.315 89.2568 110.255C89.487 109.314 90.2971 108.992 91.0626 109.59C91.8314 110.192 92.552 110.856 93.2907 111.497C93.4759 111.656 93.6305 111.856 93.8294 111.994C94.5131 112.469 94.6842 113.152 94.6549 113.924C94.6342 114.47 94.4705 114.654 93.9253 114.757C93.3071 114.874 92.7101 114.791 92.1283 114.558C91.13 114.158 90.1791 113.665 89.2173 113.184C87.857 112.505 86.6406 111.591 85.2635 110.954C84.903 110.787 84.6105 110.541 84.4365 110.157C84.2736 109.799 84.2315 109.466 84.4013 109.1C84.5143 108.857 84.6282 108.603 84.6674 108.342C84.8407 107.193 85.4353 106.244 86.0429 105.291C86.4229 104.695 86.7981 104.1 87.2081 103.52C87.8621 102.595 88.7437 101.887 89.4336 100.996C89.8198 100.497 90.1683 99.9638 90.5912 99.4869C91.5976 98.3539 92.6346 97.2443 93.5191 96.0062C94.1952 95.0602 95.0817 94.3302 96.0019 93.6376C96.4572 93.2956 97.1336 93.4714 97.369 93.9703C97.4567 94.1576 97.3703 94.2994 97.2873 94.4495C97.0734 94.8336 96.852 95.214 96.648 95.6039C96.4292 96.0197 96.2706 96.4561 96.3317 96.9398C96.3641 97.1973 96.3014 97.499 96.6375 97.6209C96.9178 97.722 97.537 97.558 97.7074 97.3168C97.8203 97.1583 97.9205 96.9844 97.9897 96.8029C98.406 95.7156 99.0509 94.7675 99.7909 93.8835C100.385 93.1728 101.015 92.4915 101.613 91.785C101.794 91.5715 102.016 91.4348 102.243 91.291C102.979 90.8269 103.149 90.8178 103.595 91.2386C104.231 91.8409 104.295 92.1148 103.893 92.8344C103.571 93.4102 103.209 93.9628 102.867 94.5284C102.766 94.6948 102.629 94.8578 102.631 95.0586C102.633 95.3838 102.486 95.7672 102.887 95.9774C103.193 96.138 103.789 96.0164 104.031 95.7574C104.301 95.4689 104.545 95.1485 104.688 94.7883C104.945 94.1444 105.364 93.6475 105.935 93.2891C106.79 92.7533 107.501 92.0424 108.287 91.4228C108.841 90.9872 109.502 90.8111 110.157 90.6388C110.493 90.5502 110.87 90.6046 111.059 90.9615C111.274 91.3666 111.533 91.7872 111.215 92.2647C110.902 92.7338 110.594 93.204 110.281 93.6713C110.142 93.8772 110.028 94.0945 109.974 94.3337C109.906 94.6338 109.745 94.9543 110.105 95.1957C110.5 95.4603 110.989 95.4498 111.313 95.1139C111.618 94.7983 111.883 94.4438 112.161 94.1016C112.317 93.9096 112.477 93.7432 112.731 93.665C114.249 93.1987 115.73 92.6015 117.288 92.2795C117.936 92.1456 118.569 91.9929 119.196 91.7835C119.809 91.5773 120.517 91.8881 120.831 92.4288C121.17 93.0128 121.133 93.6234 120.618 94.1077C119.706 94.9615 118.689 95.6861 117.582 96.2707C116.01 97.1004 114.389 97.8305 112.793 98.6143C111.549 99.2261 110.308 99.862 108.968 100.29C108.338 100.491 107.779 100.951 107.163 101.246C106.547 101.542 105.959 101.903 105.291 102.084C104.959 102.174 104.632 102.228 104.271 102.052L104.271 102.055Z" fill="#006739"/>
<path d="M87.1135 97.232C86.709 97.8182 86.0953 98.1597 85.6053 98.6299C84.9743 99.236 84.4832 99.9697 83.7553 100.494C83.0239 101.02 82.2403 101.263 81.3653 101.276C80.9554 101.283 80.5442 101.254 79.9715 101.236C80.6274 100.79 81.1508 100.432 81.7587 100.223C82.0394 100.126 82.2962 99.9885 82.5463 99.8342C83.2658 99.3926 83.4918 98.7122 83.1802 97.9429C82.9396 97.3488 82.2053 97.0363 81.4554 97.2426C80.8655 97.4051 80.3251 97.7033 79.7661 97.947C79.376 98.1164 79.0114 98.361 78.5938 98.4329C78.5132 98.2607 78.5901 98.1953 78.6631 98.1332C80.401 96.6702 82.2115 95.3035 84.0771 94.0093C84.5046 93.7125 84.7988 93.2612 85.2133 92.9793C86.3691 92.1916 87.3438 91.2007 88.3911 90.2917C89.1871 89.6 90.395 89.6307 90.9839 90.6242C91.3896 91.3087 91.2604 92.0133 90.5817 92.4972C89.7076 93.1212 88.8543 93.7874 87.8833 94.2603C87.3851 94.5031 86.9955 94.8673 86.645 95.2747C86.1722 95.8234 86.2222 96.2765 86.7627 96.7771C86.8863 96.8913 87.0394 96.9839 87.1087 97.2335L87.1135 97.232Z" fill="#006739"/>
<path d="M97.7449 111.406C96.6373 111.196 95.733 110.623 94.8828 109.944C94.5755 109.7 94.2293 109.519 93.8695 109.36C93.5799 109.231 93.287 109.095 93.0259 108.918C92.62 108.646 92.3902 108.315 92.4772 107.749C92.5641 107.184 92.7928 106.857 93.3369 106.723C93.9461 106.573 94.5301 106.529 95.1107 106.864C96.4454 107.635 97.8724 108.221 99.2495 108.907C99.6823 109.122 100.087 109.423 100.447 109.748C100.917 110.17 100.778 110.75 100.66 111.265C100.543 111.774 100.072 111.78 99.6471 111.792C98.9788 111.809 98.331 111.722 97.7441 111.408L97.7449 111.406Z" fill="#006739"/>
<path d="M75.1017 97.0299C74.6528 96.2029 74.1708 95.4196 73.8555 94.5498C73.4406 93.4012 73.0321 92.2501 72.5359 91.1325C72.3269 90.6615 72.2727 90.1395 72.1221 89.6511C71.7919 88.5822 71.279 87.5851 70.802 86.574C70.5647 86.0717 70.3619 85.5305 70.2785 84.9854C70.1628 84.2363 69.9066 83.5236 69.7901 82.7771C69.7298 82.3888 69.6451 82.0049 69.6635 81.6138C69.7069 80.6764 70.7315 80.124 71.536 80.5855C71.8385 80.758 71.9612 81.032 72.0588 81.3476C72.1968 81.7905 72.3694 82.2233 72.5329 82.6578C72.5663 82.7455 72.6099 82.8376 72.7189 82.8639C73.4214 82.2745 73.5788 81.9156 73.2238 81.1711C72.884 80.4584 72.8356 79.7304 72.7973 78.968C72.675 76.5443 73.0878 74.1986 73.7464 71.8849C73.8949 71.3648 74.1002 70.8628 74.4887 70.468C75.1797 69.7657 76.2291 69.992 76.6127 70.8993C76.8977 71.5728 76.9279 72.3184 77.2834 72.978C77.66 73.6785 78.0415 74.004 78.6008 73.8916C79.1384 73.7844 79.6878 72.9899 79.6642 72.3688C79.5695 69.91 79.4165 67.4484 79.6337 64.9934C79.7986 63.1227 79.8568 61.2279 80.4745 59.4212C80.7763 58.5367 81.4409 58.2721 82.2561 58.7165C82.6664 58.9395 82.7113 59.3262 82.7555 59.7155C82.8413 60.4732 82.7183 61.23 82.7357 61.9849C82.7718 63.5787 83.0685 65.1395 83.4477 66.6842C83.4704 66.7788 83.5048 66.8725 83.5448 66.9622C83.7647 67.455 84.2552 67.7434 84.6414 67.6118C85.0388 67.4763 85.5238 66.7682 85.3795 66.3812C85.0676 65.5441 85.1067 64.6458 84.8371 63.8023C84.6355 63.1735 84.6671 62.4922 84.6202 61.8425C84.5339 60.6305 84.529 59.4064 84.9623 58.2217C85.7035 56.196 86.775 54.3757 88.2269 52.7868C89.1346 51.7935 89.9688 50.741 90.8518 49.7289C91.3324 49.1781 91.949 48.7581 92.3939 48.1666C92.7324 47.7167 93.087 47.2803 93.3743 46.7938C93.6311 46.3617 93.9964 46.0654 94.4443 45.8222C94.9295 45.5597 95.3618 45.5065 95.8074 45.8495C96.2414 46.1833 96.4548 46.5459 96.3222 47.1687C96.0116 48.6274 95.6075 50.0658 95.3339 51.5311C95.0466 53.0672 94.6203 54.5712 94.2686 56.0913C93.7455 58.3512 93.2188 60.6187 92.3385 62.7793C92.1264 63.2995 92.0178 63.8602 91.8071 64.3807C91.5127 65.1074 90.9806 65.3922 90.3069 65.2561C89.78 65.1502 89.5847 64.8924 89.5606 64.3417C89.5081 63.1569 89.7016 61.9984 89.9711 60.8563C90.192 59.9235 90.0204 59.1925 89.2336 58.5878C88.6867 58.1674 88.2589 58.1858 87.841 58.7882C87.426 59.3857 87.2022 60.0683 87.119 60.7734C86.9907 61.8618 86.8563 62.9469 86.8192 64.0491C86.7486 66.0743 86.5825 68.096 86.4506 70.1191C86.4088 70.7614 85.9665 71.123 85.4512 71.3753C84.8769 71.6563 84.3565 71.3519 83.8539 71.1046C83.6649 71.0116 83.6572 70.783 83.6113 70.5907C83.3851 69.6389 83.1554 68.6889 82.9183 67.7397C82.7938 67.246 82.4781 67.0004 81.987 66.9887C81.5288 66.9779 81.3658 67.3164 81.2085 67.6552C81.0768 67.9365 81.0983 68.2312 81.1869 68.5183C81.3668 69.1032 81.4747 69.7073 81.6028 70.3015C82.0262 72.2601 82.5535 74.1987 82.7739 76.1955C82.8459 76.8482 82.9074 77.5022 82.5782 78.1364C82.3751 78.528 82.1928 78.9127 81.7004 78.8905C81.1595 78.867 80.6192 78.7774 80.3384 78.1974C80.1247 77.7568 79.8802 77.3331 79.6764 76.8883C79.4561 76.4068 79.0163 76.2991 78.5829 76.2871C78.168 76.2761 77.9824 76.6426 77.8147 76.9826C77.6454 77.3279 77.6071 77.6886 77.6727 78.0539C77.8242 78.8973 78.0216 79.7267 78.624 80.3897C78.7047 80.4783 78.7747 80.5883 78.8137 80.7007C79.3322 82.1594 80.215 83.4282 80.9363 84.7808C81.1202 85.1261 81.2644 85.4843 81.3726 85.8665C81.5648 86.5516 82.0446 87.1022 82.3437 87.7423C82.4475 87.9632 82.6073 88.1601 82.6907 88.3865C83.3859 90.2937 83.2665 90.3711 81.9325 91.5346C79.9231 93.2884 77.8319 94.943 75.7659 96.6296C75.597 96.7674 75.4394 96.9259 75.0995 97.0278L75.1017 97.0299ZM79.4705 91.5419C79.255 91.1224 79.1937 90.6689 79.1771 90.2055C79.1704 90.032 79.1491 89.8642 79.0644 89.711C78.3225 88.3697 77.774 86.9251 76.8959 85.6548C76.6987 85.369 76.4767 85.1091 76.1864 84.9243C75.4818 84.4764 74.4687 84.7495 74.2857 85.4454C74.1475 85.9744 74.1625 86.5022 74.4457 87.005C75.224 88.3844 75.9868 89.7722 76.6912 91.1919C76.8761 91.5635 77.1236 91.8987 77.4177 92.1928C77.8177 92.593 78.1986 92.6314 78.6586 92.3125C78.9576 92.1048 79.2326 91.8655 79.4696 91.5401L79.4705 91.5419Z" fill="#006739"/>
<path d="M54.0125 87.5941C53.1561 86.2552 52.6959 84.8828 52.0837 83.581C51.4711 82.2806 50.8065 80.9952 50.4713 79.5802C50.4595 79.5321 50.4412 79.4863 50.4355 79.4371C50.3647 78.8395 50.1707 78.1899 50.7581 77.7512C51.294 77.3508 52.4894 77.522 53.0088 78.0409C53.4569 78.4884 53.858 78.9826 54.2934 79.4437C54.4891 79.6512 54.6673 79.9083 55.0045 79.8892C55.0438 79.8489 55.1068 79.8112 55.1039 79.7815C54.9781 78.64 54.9054 77.4897 54.7004 76.3625C54.3727 74.559 53.9506 72.7724 53.9531 70.9247C53.9536 70.3885 53.9606 69.8498 54.011 69.3153C54.0588 68.8045 54.2476 68.3438 54.8102 68.2007C55.4271 68.0446 56.01 67.906 56.574 68.4741C57.1844 69.0904 57.7626 69.6886 58.0217 70.5434C58.1046 70.8158 58.31 71.0535 58.5287 71.2562C58.9136 71.6145 59.1289 72.0887 59.3563 72.5463C59.8332 73.504 60.252 74.4923 60.7606 75.4305C61.3422 76.5026 61.6836 77.6368 61.838 78.8328C61.9402 79.6328 61.5046 80.2761 60.7495 80.5199C60.1631 80.7094 59.8972 80.5692 59.6971 79.9798C59.446 79.2398 59.3279 78.4597 58.9694 77.7516C58.8427 77.5009 58.7144 77.2801 58.459 77.1531C57.8538 76.8526 57.4186 77.1169 57.3587 77.7914C57.3271 78.144 57.3858 78.4741 57.4977 78.7997C57.9111 80.0026 58.1059 81.2725 58.5519 82.4576C59.06 83.8095 59.252 85.1867 59.3145 86.6123C59.3515 87.4623 59.4963 88.3138 59.6607 89.1523C59.7737 89.7291 59.6984 90.2649 59.5671 90.8146C59.5131 91.0424 59.3678 91.203 59.2308 91.3747C59.0762 91.5671 58.8673 91.6254 58.6396 91.5858C58.3766 91.5388 58.3102 91.3232 58.2762 91.0955C58.2129 90.6832 58.1316 90.2729 57.9694 89.8878C57.6719 89.1833 57.365 89.0844 56.6819 89.456C55.9714 89.8426 56.021 89.8355 56.133 90.6514C56.3818 92.4778 57.1392 94.1784 57.4122 95.9961C57.4622 96.3265 57.7021 96.6826 57.464 96.9874C57.1379 97.4049 56.7902 97.803 56.2537 98.0144C55.3468 98.3721 54.7744 97.7885 54.1544 97.3424C53.9639 97.2056 53.8014 96.9834 53.7099 96.7648C53.2919 95.7739 52.6622 94.8995 52.1976 93.9296C51.7458 92.9893 51.3999 91.9836 50.7533 91.1374C50.288 90.5277 50.1084 89.829 50.2162 89.0604C50.2739 88.6434 50.4351 88.2813 50.863 88.1648C51.8404 87.8956 52.7972 87.5151 54.015 87.5905L54.0125 87.5941Z" fill="#006739"/>
<path d="M66.1902 89.0475C67.0705 89.2947 67.3833 89.9865 67.6764 90.6523C68.149 91.7227 68.6205 92.8014 68.9799 93.9135C69.8051 96.4673 71.0652 98.8708 71.582 101.532C71.7764 102.533 71.4628 103.556 70.6553 104.12C69.9554 104.608 68.8859 104.41 68.4876 103.627C67.775 102.225 67.2576 100.758 67.2926 99.143C67.3061 98.5082 67.2678 97.8784 66.8292 97.34C66.4817 96.9134 66.0368 96.8965 65.5664 96.9514C65.2739 96.9851 65.187 97.2465 65.1356 97.4851C65.0587 97.8446 65.0323 98.219 65.1021 98.5798C65.1976 99.0692 65.1401 99.5541 65.1071 100.039C65.0365 101.084 64.0756 101.9 63.0961 102.098C62.5963 102.199 61.9848 101.807 61.8137 101.31C61.6797 100.917 61.601 100.503 61.676 100.081C61.8289 99.218 61.9766 98.3429 62.1926 97.5053C62.452 96.5001 62.7685 95.4973 63.0767 94.4979C63.4074 93.4272 63.6914 92.3385 63.8502 91.2245C63.9343 90.6393 64.0424 90.0655 64.4668 89.6078C64.9607 89.0753 65.5513 88.8812 66.1858 89.0476L66.1902 89.0475Z" fill="#006739"/>
<path d="M89.4178 78.4815C89.1995 78.0713 89.3735 77.5629 89.7865 77.3499C90.2283 77.1222 90.6559 76.8889 91.0756 76.6431C91.4726 76.4109 91.8971 76.2228 92.3663 76.1373C92.9746 76.0249 93.5082 75.7059 94.0361 75.4012C94.528 75.1161 94.6868 74.6884 94.5416 74.2261C94.3069 73.4795 93.9372 73.2165 93.3041 73.1631C92.7584 73.1165 92.3149 73.3351 91.8636 73.5412C90.8438 74.0085 89.634 73.6312 89.061 72.6668C88.2434 71.2888 88.85 70.442 89.8825 69.843C91.2367 69.0573 92.4394 68.0512 93.7 67.1328C94.81 66.3244 96.0193 65.698 97.1874 64.9961C97.3939 64.8722 97.6354 64.7962 97.8698 64.7295C98.8561 64.4499 99.8685 65.1455 99.9746 66.1629C99.9937 66.343 99.9777 66.5301 99.8514 66.6458C99.4558 67.0053 99.1663 67.4753 98.6784 67.737C97.5168 68.363 96.3803 69.0411 95.1295 69.4895C94.6235 69.6709 94.3068 70.1055 93.9769 70.4872C93.7008 70.8083 94.0498 71.5093 94.4906 71.5697C94.7805 71.6088 95.072 71.5834 95.3493 71.4444C95.8554 71.1894 96.4148 71.0814 96.9577 70.9367C97.7993 70.7127 98.7072 71.1065 99.0848 71.8086C99.4599 72.5043 99.4655 72.9169 98.9088 73.4713C97.3705 75.0059 95.8596 76.5601 93.9005 77.6135C92.9754 78.1115 92.0731 78.6306 91.0988 79.0362C90.106 79.4509 89.9225 79.4229 89.4188 78.4875C89.4179 78.4858 89.416 78.4824 89.4151 78.4807L89.4178 78.4815Z" fill="#006739"/>
<path d="M83.7071 34.2308C81.8457 33.7499 79.8816 33.1869 77.9799 32.4361C77.5989 32.2852 77.208 32.1486 76.8805 31.8649C76.0356 31.1291 76.2113 30.0115 77.277 29.6529C77.7809 29.4838 78.3033 29.3302 78.8502 29.3238C80.0995 29.3118 81.3239 29.3892 82.5288 29.8126C83.4057 30.1209 84.2561 30.4848 85.1198 30.8036C85.8029 31.0549 86.4516 31.3985 87.152 31.6058C87.7426 31.7794 88.2532 32.117 88.7862 32.4179C89.4666 32.801 89.7219 33.757 89.0605 34.5012C88.6965 34.9104 88.2256 35.1685 87.5773 35.1322C86.2685 35.0574 85.0272 34.7674 83.7084 34.2312L83.7071 34.2308Z" fill="#006739"/>
<path d="M45.148 127.414C43.435 126.934 41.7404 126.391 40.0616 125.799C39.1625 125.483 38.5605 124.819 37.9405 124.166C37.6775 123.889 37.7426 123.603 38.1201 123.487C39.2374 123.139 40.3593 122.81 41.5593 122.912C43.2207 123.053 44.795 123.573 46.3974 123.974C47.0621 124.14 47.7047 124.348 48.3304 124.633C48.6748 124.79 48.9753 124.979 49.1999 125.275C49.5425 125.723 49.9211 126.113 50.4102 126.421C50.9408 126.754 50.7844 127.801 50.1804 128.168C49.836 128.379 49.4542 128.412 49.0507 128.367C48.0984 128.261 47.1953 127.954 46.2693 127.74C45.8901 127.651 45.5209 127.524 45.1467 127.414L45.148 127.414Z" fill="#006739"/>
<path d="M86.3039 87.7047C86.8569 87.3194 87.3743 86.9034 87.9654 86.5798C88.8695 86.0842 89.0353 85.0545 88.2898 84.3436C87.9046 83.9766 87.4884 83.8571 86.986 84.1045C86.3886 84.4004 85.8861 84.8294 85.3335 85.1889C85.2141 85.2662 84.5051 85.3044 83.8876 85.3103C83.4405 85.3158 83.131 84.8629 83.2951 84.4469C83.5214 83.8732 83.8256 83.3585 84.4177 83.0366C85.6169 82.3856 88.3205 81.7083 89.6574 81.3198C91.0436 80.9156 92.3636 80.3347 93.7185 79.8506C94.1019 79.7139 94.4073 79.5283 94.645 79.1858C94.9883 78.6898 95.3113 78.6997 95.6964 79.1503C96.4396 80.0162 96.2598 80.9222 95.4904 81.6952C94.7003 82.4895 93.8869 83.2554 92.9929 83.947C91.5704 85.0485 90.2203 86.242 88.8514 87.4112C88.5681 87.6538 88.2625 87.8451 87.9363 88.013C87.2369 88.3712 86.9489 88.3211 86.3047 87.7021L86.3039 87.7047Z" fill="#006739"/>
<path d="M140.18 111.398C141.179 111.551 142.142 112.201 143.244 112.444C143.89 112.586 144.506 112.811 145.121 113.048C145.304 113.117 145.488 113.186 145.66 113.275C146.297 113.61 146.612 114.145 146.496 114.672C146.333 115.414 145.817 115.899 145.079 115.926C143.254 115.995 141.494 115.722 139.788 115.017C138.957 114.673 138.12 114.329 137.278 114.008C136.768 113.813 136.355 113.469 135.889 113.21C135.576 113.034 135.482 112.773 135.541 112.407C135.748 111.114 136.477 110.576 137.806 110.733C138.592 110.826 139.317 111.116 140.179 111.397L140.18 111.398Z" fill="#006739"/>
<path d="M114.954 102.618C115.189 102.687 115.431 102.737 115.657 102.829C116.739 103.267 116.956 104.212 116.197 105.097C115.959 105.375 115.759 105.684 115.536 105.974C115.074 106.582 114.366 106.802 113.658 106.512C112.299 105.953 110.865 105.631 109.475 105.17C108.75 104.929 108.074 104.595 107.431 104.196C106.925 103.881 106.627 102.992 106.787 102.439C106.889 102.088 107.776 101.55 108.301 101.585C109.031 101.632 109.759 101.732 110.485 101.816C111.991 101.992 113.478 102.278 114.954 102.618Z" fill="#006739"/>
<path d="M38.3655 81.74C37.4449 81.4333 36.4686 81.2573 35.6165 80.7617C34.6307 80.1864 34.4199 79.3977 34.982 78.408C35.3681 77.7271 36.071 77.7102 36.7103 77.669C38.1074 77.5808 39.3949 78.0473 40.6724 78.5569C41.7151 78.9731 42.6464 79.616 43.7185 79.9715C44.1677 80.1209 44.6504 80.3623 44.5775 81.0026C44.478 81.8803 44.1265 82.2571 43.3661 82.4503C42.4343 82.6868 41.5154 82.5853 40.6088 82.388C39.85 82.2226 39.1113 81.9593 38.3641 81.7396L38.3655 81.74Z" fill="#006739"/>
<path d="M131.926 120.4C131.005 120.093 130.029 119.917 129.177 119.422C128.191 118.846 127.98 118.058 128.542 117.068C128.928 116.387 129.631 116.37 130.271 116.329C131.668 116.241 132.955 116.707 134.233 117.217C135.275 117.633 136.207 118.276 137.279 118.632C137.728 118.781 138.211 119.022 138.138 119.663C138.038 120.54 137.687 120.917 136.926 121.11C135.995 121.347 135.076 121.245 134.169 121.048C133.41 120.883 132.672 120.619 131.924 120.4L131.926 120.4Z" fill="#006739"/>
<path d="M53.7179 139.264C52.6094 138.954 51.534 138.552 50.5333 137.978C49.8017 137.558 49.5715 137.056 49.7097 136.37C49.8324 135.762 50.0333 135.603 50.6329 135.54C51.594 135.439 52.5367 135.519 53.4661 135.766C54.8339 136.13 56.2468 136.337 57.5559 136.906C58.318 137.237 59.0831 137.567 59.8228 137.945C60.4372 138.258 60.6298 138.966 60.3457 139.589C60.1749 139.964 59.8276 140.008 59.4901 140.057C58.3862 140.217 57.2971 140.067 56.2161 139.865C55.3743 139.707 54.536 139.532 53.7196 139.263L53.7179 139.264Z" fill="#006739"/>
<path d="M61.9232 105.646C61.7388 106.352 61.511 106.494 60.7919 106.532C59.6922 106.589 58.9152 105.917 58.0817 105.388C57.1957 104.826 56.4485 104.081 55.6664 103.387C55.1117 102.895 54.6296 102.353 54.5126 101.569C54.3924 100.766 54.8054 100.224 55.6166 100.202C56.0311 100.19 56.4249 100.184 56.8285 100.003C57.2305 99.8227 57.6207 99.9518 57.9419 100.316C58.5742 101.029 59.2493 101.705 59.8909 102.411C60.1917 102.742 60.518 103.079 60.9148 103.23C62.0061 103.648 62.2092 104.453 61.9223 105.644L61.9232 105.646Z" fill="#006739"/>
<path d="M54.9088 53.6363C54.1807 53.4006 53.414 53.0267 52.6628 52.6343C52.0914 52.3365 51.8592 51.7189 51.643 51.1594C51.4535 50.6711 52.2096 50.0268 52.8423 49.9836C53.7134 49.9239 54.5472 50.1286 55.3642 50.3314C56.8521 50.6996 58.3038 51.2057 59.5835 52.0808C60.227 52.5208 60.4166 53.0726 60.1867 53.5702C59.917 54.1541 59.1389 54.4661 58.4487 54.3223C57.3025 54.0819 56.1491 53.8755 54.9075 53.6359L54.9088 53.6363Z" fill="#006739"/>
<path d="M65.4648 84.659C65.3347 85.1556 64.4531 85.8639 63.9442 85.8931C63.2758 85.9302 62.9342 85.6943 62.7652 85.0433C62.5643 84.2748 62.5867 83.4826 62.6623 82.7104C62.7676 81.6412 62.9685 80.58 63.138 79.5181C63.2469 78.8336 63.6691 78.3737 64.2704 78.079C65.2748 77.5856 66.0862 78.0332 66.223 79.1519C66.2773 79.5904 66.223 80.03 66.1731 80.4695C66.0126 81.8786 65.764 83.2734 65.4644 84.6603L65.4648 84.659Z" fill="#006739"/>
<path d="M106.453 109.128C105.083 108.774 103.913 108.238 102.883 107.427C102.657 107.248 102.395 107.213 102.153 107.103C101.475 106.796 101.117 105.908 101.437 105.258C101.638 104.849 102.011 104.744 102.43 104.798C102.868 104.854 103.303 104.952 103.705 105.136C105.083 105.772 106.55 106.165 107.964 106.699C108.263 106.811 108.544 106.96 108.836 107.08C109.383 107.307 109.525 107.697 109.476 108.253C109.406 109.046 109.163 109.336 108.367 109.438C107.661 109.529 107.025 109.211 106.453 109.127L106.453 109.128Z" fill="#006739"/>
<path d="M73.196 113.777C73.463 112.555 73.7441 111.349 73.986 110.134C74.3199 108.459 74.8641 106.838 75.2326 105.173C75.3312 104.724 75.5315 104.293 75.7297 103.874C76.1378 103.011 76.9297 102.73 77.8433 103.026C79.5873 103.592 79.3896 104.073 79.2175 105.341C79.0578 106.516 78.4478 107.547 78.0694 108.653C77.7231 109.664 77.2695 110.638 77.0329 111.781C77.9494 111.425 78.7052 110.943 79.4945 110.529C79.8201 110.358 80.131 110.164 80.4562 109.994C81.0608 109.679 81.338 109.707 81.8514 110.158C82.0336 110.318 82.1833 110.515 82.3381 110.705C82.6068 111.032 82.5828 111.354 82.3691 111.717C81.8362 112.628 81.0046 113.24 80.2476 113.931C79.318 114.778 78.1786 115.314 77.1644 116.037C76.7065 116.364 76.2669 116.716 75.8043 117.034C75.4864 117.252 75.4039 117.587 75.3538 117.924C75.1542 119.255 74.6465 120.516 74.4441 121.842C74.1523 123.752 73.5298 125.595 73.3344 127.52C73.2916 127.95 73.143 128.323 72.9571 128.695C72.697 129.217 72.2713 129.429 71.6997 129.397C70.7677 129.345 69.9387 128.943 69.1645 128.506C68.5645 128.168 68.3582 127.467 68.4561 126.766C68.512 126.36 68.6095 125.931 68.8083 125.578C69.5453 124.268 69.9453 122.824 70.5039 121.444C70.8685 120.542 71.0199 119.537 71.5133 118.697C71.9469 117.958 71.793 117.451 71.2746 116.885C70.3062 115.829 69.8727 114.42 68.9699 113.316C68.3831 112.6 67.9896 111.746 67.3272 111.082C66.8563 110.609 66.5282 110.028 66.3673 109.373C66.2003 108.696 66.3711 108.037 67.3335 107.936C68.3793 107.827 69.1453 108.134 69.6935 109.016C69.9527 109.434 70.37 109.707 70.6607 110.111C71.3613 111.082 72.0243 112.069 72.5918 113.125C72.7226 113.367 72.8435 113.662 73.1966 113.78L73.196 113.777Z" fill="#FF6A00"/>
<path d="M101.591 69.6049C101.21 69.4452 102.09 66.1872 102.064 65.8695C101.952 64.5275 101.279 63.4832 100.395 62.5326C99.871 61.9692 99.1504 61.8943 98.4675 61.721C98.3505 61.6923 98.2256 61.7248 98.1353 61.8064C94.8611 64.8118 94.843 63.3531 96.602 59.1698C97.1941 57.0527 97.9985 54.9981 98.4246 52.828C98.6152 51.8559 99.0253 50.9268 99.3531 49.9836C100.116 47.7843 100.487 45.4809 101.141 43.2495C101.466 42.1427 101.803 41.0578 102.269 40.0054C102.545 39.3814 102.676 38.7048 103.002 38.0882C103.75 36.6716 104.642 35.3379 105.776 34.2336C106.863 33.1747 108.008 32.0954 109.629 31.8136C110.077 31.735 110.482 31.4587 110.935 31.3353C112.068 31.0268 113.213 31.1052 114.351 31.2137C114.935 31.2698 115.518 31.3505 116.104 31.3728C117.11 31.412 118.092 31.5997 119.071 31.8167C120.882 32.218 122.711 32.5495 124.499 33.0348C125.655 33.3487 126.831 33.5876 127.992 33.824C129.427 34.1144 130.847 34.4772 132.284 34.7627C133.67 35.0388 135.075 35.2545 136.427 35.6893C137.009 35.8764 137.63 35.9522 138.201 36.13C139.123 36.417 140.103 36.5928 140.932 37.1378C141.233 37.3359 141.576 37.5389 141.457 38.0059C141.339 38.4715 141.028 38.726 140.516 38.7933C139.995 38.8623 139.475 38.7785 138.991 38.6449C137.88 38.3371 136.751 38.1088 135.63 37.8745C134.223 37.5792 132.837 37.1802 131.4 36.9944C130.469 36.8733 129.566 36.5388 128.632 36.3679C127.697 36.1969 126.75 36.0107 125.816 35.7938C124.745 35.5454 123.658 35.3297 122.614 34.9911C121.867 34.7482 121.09 34.6942 120.338 34.4905C119.328 34.2181 118.292 34.0403 117.262 33.843C116.908 33.7747 116.321 33.7047 115.959 33.6962C114.495 33.6668 113.041 33.3574 111.564 33.6239C110.865 33.75 110.261 34.0873 109.683 34.4135C108.584 35.0346 107.447 35.6462 106.683 36.7237C106.273 37.3026 105.896 37.8952 105.597 38.5428C105.052 39.7293 104.626 40.936 104.676 42.2715C104.695 42.786 104.671 43.2968 104.92 43.7751C104.989 43.9065 105.023 44.052 105.017 44.2015C104.974 45.1349 105.581 45.733 106.138 46.3377C106.898 47.164 107.707 47.9452 108.486 48.7555C109.16 49.4554 110.062 49.8214 110.831 50.3821C112.102 51.3079 113.584 51.8518 114.943 52.6217C115.213 52.7748 115.543 52.8269 115.846 52.9233C116.359 53.0857 116.859 53.2731 117.347 53.5103C118.555 54.0961 119.853 54.4531 121.099 54.9434C122.144 55.3546 123.225 55.6809 124.235 56.1827C125.208 56.6661 126.264 56.8974 127.289 57.2232C128.081 57.4749 128.881 57.6883 129.656 58.0055C130.141 58.203 130.668 58.3579 131.182 58.4774C133.303 58.9726 135.295 59.8782 137.403 60.4072C140.203 61.1105 142.969 61.9381 145.762 62.6626C148.008 63.2453 150.307 63.5735 152.541 64.1942C152.801 64.2663 153.069 64.322 153.313 64.4283C153.659 64.5792 153.983 64.6311 154.37 64.5546C155.145 64.4017 155.752 64.8601 155.925 65.6273C156.107 66.4394 156.298 67.248 156.641 68.0135C156.769 68.3022 156.852 68.6122 156.87 68.9359C156.92 69.8822 157.022 70.8565 157.238 71.7434C157.524 72.9133 157.643 74.1001 157.896 75.2676C158.151 76.4425 158.209 77.6406 158.356 78.8286C158.373 78.9707 158.397 79.155 158.328 79.2586C157.97 79.7949 158.184 80.3554 158.241 80.8984C158.356 82.0065 158.243 83.0891 157.976 84.1628C157.958 84.2339 157.918 84.3014 157.913 84.3721C157.729 86.7332 157.199 89.0717 157.461 91.4601C157.531 92.0919 157.636 92.7197 157.718 93.3493C157.797 93.9637 157.6 94.4969 157.248 94.6417C156.884 94.7913 156.297 94.4976 155.972 94.0024C155.865 93.8399 155.733 93.6901 155.691 93.4902C155.348 91.8335 155.081 90.1705 155.268 88.4681C155.416 87.1316 155.55 85.7927 155.712 84.4575C155.821 83.5611 156.09 82.6826 156.03 81.7681C156.012 81.4947 156.132 81.1652 155.806 80.9756C155.508 80.9932 155.463 81.2483 155.393 81.4381C154.476 83.9297 153.795 86.4776 153.726 89.148C153.689 90.6148 153.767 92.0696 154.317 93.4756C154.711 94.4826 154.324 95.375 153.718 96.1833C153.521 96.4469 153.206 96.5965 152.877 96.5978C151.569 96.5983 150.669 95.8579 150.123 94.8134C149.479 93.5832 149.018 92.2507 149.075 90.8112C149.121 89.6369 149.313 88.4792 149.514 87.3243C149.658 86.4914 149.688 85.6495 149.745 84.8097C149.748 84.7631 149.742 84.685 149.736 84.6384C149.685 84.3193 149.675 83.9328 149.262 83.892C148.84 83.8515 148.691 84.1869 148.584 84.5361C147.742 87.295 147.05 90.095 146.348 92.8905C145.688 95.5182 145.041 98.151 144.329 100.764C143.925 102.245 143.532 103.731 143.099 105.206C142.934 105.77 142.533 106.169 142.09 106.53C141.95 106.645 141.763 106.722 141.611 106.655C141.112 106.429 140.573 106.326 140.195 105.817C139.767 105.24 139.428 104.643 139.176 103.986C138.923 103.33 138.586 102.713 138.145 102.168C136.987 100.739 135.525 99.8853 133.796 99.4807C133.344 99.3752 132.9 99.2519 132.473 99.0527C131.993 98.8296 131.459 98.9249 130.954 98.9395C130.054 98.966 129.156 99.038 128.262 99.1817C127.23 99.3469 126.242 99.6332 125.288 100.049C125 100.174 124.688 100.245 124.376 100.218C123.714 100.163 123.451 99.7774 123.722 99.175C124.135 98.2598 124.513 97.3327 124.863 96.3931C125.232 95.4015 125.566 94.3995 125.746 93.3538C125.774 93.1961 125.832 92.9437 125.881 92.7909C126.504 90.8387 126.945 88.8356 127.547 86.8815C127.955 85.5554 128.356 84.217 128.742 82.8886C129.108 81.625 129.587 80.4019 129.967 79.1451C130.244 78.2247 130.641 77.3219 130.989 76.4121C131.419 75.2884 131.607 74.1051 131.92 72.9527C132.13 72.1783 132.273 71.387 132.599 70.6421C132.932 69.8778 133.168 69.0805 133.056 68.2257C133.005 67.8476 132.951 67.5029 132.446 67.4597C131.784 67.402 131.399 67.5309 131.212 67.988C130.679 69.2975 130.152 70.609 129.841 71.9955C129.734 72.4703 129.439 72.888 129.351 73.3739C129.066 74.9499 128.293 76.3476 127.752 77.8294C127.31 79.0433 126.933 80.2834 126.629 81.5466C126.431 82.3678 126.036 83.1414 125.841 83.9766C125.59 85.0475 125.286 86.1059 125.211 87.2112C125.177 87.7061 124.948 88.1521 124.838 88.6288C124.619 89.5751 124.28 90.4947 124.198 91.4728C124.183 91.6515 124.103 91.8023 123.9 91.8521C123.858 91.84 123.79 91.8416 123.769 91.8108C123.139 90.9409 122.159 90.4739 121.405 89.7489C121.071 89.4273 120.632 89.2667 120.226 89.1919C119.06 88.9803 117.882 88.9179 116.865 89.7264C116.496 90.0202 116.056 90.0579 115.619 90.0998C115.215 90.1397 114.893 89.9945 114.749 89.5843C114.245 88.1618 113.085 87.5249 111.758 87.119C110.916 86.8615 110.059 86.9929 109.22 87.2034C108.704 87.333 108.206 87.5338 107.623 87.5875C107.496 87.1032 107.681 86.6732 107.851 86.3065C108.122 85.7242 108.288 85.1169 108.499 84.5188C109.292 82.2834 109.697 79.9297 110.536 77.7136C111.135 76.1334 111.528 74.4928 112.102 72.9082C112.449 71.9463 112.72 70.9618 112.941 69.9686C113.245 68.606 113.805 67.3214 114.102 65.9568C114.277 65.1491 114.52 64.3569 114.694 63.547C114.894 62.6153 115.293 61.7392 115.525 60.8112C115.716 60.051 115.847 59.2794 116.028 58.5179C116.107 58.1863 116.006 57.877 115.884 57.5889C115.653 57.0378 115.019 56.9857 114.669 57.481C114.341 57.9441 114.128 58.4739 113.957 59.0062C113.39 60.7774 112.872 62.5617 112.449 64.3764C112.072 65.9915 111.66 67.6079 110.991 69.1429C110.667 69.8855 110.552 70.6937 110.349 71.4745C110.053 72.6117 109.602 73.696 109.219 74.8031C108.675 76.3721 108.171 77.9454 107.805 79.5724C107.573 80.6059 107.188 81.6216 106.789 82.6204C106.274 83.9122 105.713 85.1877 105.354 86.5413C105.162 87.2621 104.826 87.9447 104.548 88.6603C104.041 88.5472 103.817 88.1209 103.394 87.9606C102.401 87.5821 101.414 87.5877 100.438 87.87C98.8445 88.3302 97.2734 88.8632 95.9338 89.8983C95.8589 89.957 95.7826 90.0153 95.7036 90.0685C94.8049 90.6535 94.076 90.4205 93.6973 89.4282C93.5727 89.1017 93.7503 88.8555 93.9477 88.6353C94.5033 88.0157 95.0608 87.3995 95.6707 86.8305C96.4213 86.1313 97.2537 85.4676 97.8235 84.633C98.5379 83.5858 99.2303 82.5205 99.7717 81.3705C100.148 80.5713 99.8663 79.6118 99.1218 79.1377C97.2212 77.9272 101.605 76.2543 102.077 74.8664C102.541 73.5047 103.107 72.173 103.351 70.7452C103.46 70.1039 103.692 69.5086 104.011 68.9653C104.493 68.1466 104.715 67.2387 104.959 66.3515C105.393 64.7662 106.086 63.2759 106.557 61.7055C107.046 60.0715 107.797 58.5275 108.208 56.862C108.36 56.2491 108.609 55.6606 108.776 55.0449C108.984 54.274 108.994 53.4984 109.022 52.7165C109.033 52.4242 108.966 52.1596 108.675 52.0509C108.37 51.9367 108.173 52.1714 107.983 52.3576C107.803 52.5326 107.727 52.7713 107.633 52.9974C106.94 54.6694 106.29 56.3587 105.606 58.0321C105.167 59.1097 104.788 60.2167 104.318 61.2854C104.034 61.9329 103.832 62.6607 103.7 63.3732C103.49 64.514 102.258 68.4758 101.732 69.5049C101.712 69.541 101.655 69.5588 101.591 69.6019L101.591 69.6049ZM100.976 57.8632C100.712 58.5165 100.711 59.086 100.636 59.6407C100.565 60.1733 101.044 60.2437 101.362 60.4323C101.675 60.6181 101.927 60.4672 102.129 60.2193C102.251 60.0678 102.383 59.912 102.454 59.7353C102.733 59.0328 103.039 58.3342 103.242 57.6082C103.644 56.1747 104.174 54.7834 104.541 53.3371C104.767 52.4462 105.071 51.5695 105.427 50.7154C105.566 50.3813 105.648 50.0132 105.695 49.6535C105.761 49.1294 105.587 48.8822 105.109 48.6896C104.721 48.5337 104.464 48.6528 104.126 49.0855C103.8 49.503 103.726 50.0248 103.493 50.4813C102.684 52.073 102.07 53.7426 101.519 55.4375C101.45 55.6453 101.383 55.8604 101.363 56.0765C101.297 56.732 101.073 57.3497 100.98 57.863L100.976 57.8632ZM136.426 88.1741C136.509 87.8928 136.622 87.616 136.669 87.3298C136.798 86.536 137.239 85.8207 137.213 84.9869C137.191 84.2536 136.902 84.0158 136.196 84.1903C135.891 84.2652 135.682 84.4486 135.493 84.6843C135.087 85.1909 134.847 85.7733 134.677 86.3896C134.424 87.3057 134.161 88.2247 133.842 89.1129C133.338 90.5132 133.005 91.9596 132.531 93.3659C132.408 93.7292 132.365 94.1317 132.355 94.5182C132.347 94.8489 132.359 95.2591 132.788 95.3462C133.406 95.4715 133.577 95.5709 133.936 95.0349C134.07 94.8336 134.173 94.6084 134.265 94.3832C135.102 92.3554 135.788 90.2731 136.427 88.1758L136.426 88.1741ZM134.766 72.0982C134.493 73.2969 133.796 74.4228 133.513 75.6935C133.502 75.7408 133.473 75.7825 133.455 75.8278C133.056 76.8567 132.864 77.9352 132.719 79.0215C132.678 79.3307 132.743 79.6541 132.768 79.9714C132.786 80.2032 132.864 80.4149 133.122 80.4665C133.368 80.5141 133.617 80.5096 133.797 80.2913C133.889 80.1785 133.988 80.0621 134.048 79.9312C134.394 79.1764 134.731 78.4163 135.069 77.6561C135.486 76.7163 135.718 75.7043 136.112 74.7604C136.711 73.3247 136.95 71.8059 137.296 70.3101C137.34 70.1212 137.347 69.9213 137.345 69.7262C137.341 69.3486 136.921 68.8546 136.55 68.7772C136.154 68.6938 136.071 69.0255 135.915 69.264C135.361 70.1146 135.053 71.0637 134.764 72.0975L134.766 72.0982ZM149.526 80.3996C149.935 80.3945 150.073 80.1423 150.2 79.9171C150.523 79.3417 150.852 78.7679 151.124 78.1673C151.96 76.3168 152.524 74.3658 153.19 72.4523C153.393 71.8703 153.49 71.2688 153.35 70.6479C153.235 70.1412 152.899 69.8968 152.389 70.0078C151.904 70.1132 151.523 70.3702 151.42 70.8895C151.377 71.1117 151.262 71.3001 151.204 71.5092C150.914 72.5198 150.428 73.4569 150.161 74.4815C149.976 75.1942 149.937 75.9354 149.698 76.6263C149.437 77.3803 149.354 78.1532 149.342 78.9341C149.335 79.4119 149.326 79.9068 149.526 80.3996ZM131.416 88.6579C131.671 87.7899 131.862 86.8958 132.202 86.0629C132.465 85.4205 132.594 84.7563 132.77 84.0986C132.809 83.9515 132.779 83.8085 132.683 83.6837C132.233 83.0988 131.258 83.1885 130.931 83.8537C130.497 84.7412 130.288 85.7021 130.08 86.6559C129.753 88.1602 129.412 89.659 128.999 91.141C128.808 91.8272 128.626 92.5091 128.621 93.2259C128.619 93.5424 128.7 93.817 129.063 93.892C129.456 93.9729 129.546 93.6909 129.67 93.4072C130.35 91.8595 130.952 90.2849 131.416 88.6579Z" fill="#FFAA85"/>
<path d="M104.517 149.723C103.863 149.699 103.725 149.744 103.518 150.316C103.199 151.196 102.79 152.025 102.308 152.821C101.536 154.097 100.766 155.383 99.8074 156.524C99.1035 157.364 98.1793 157.884 97.029 157.995C96.3088 158.066 95.5768 158.246 94.9022 158.511C94.2002 158.784 93.5201 158.788 92.8139 158.674C91.9379 158.534 91.0744 158.514 90.1889 158.672C89.5255 158.79 88.8216 158.85 88.2908 158.218C88.0353 157.915 87.9747 157.64 88.136 157.283C88.4062 156.687 88.8383 156.199 89.3118 155.794C90.2815 154.968 90.9107 153.897 91.6302 152.881C92.514 151.636 93.1481 150.264 93.7991 148.898C94.2112 148.036 94.4717 147.12 94.6827 146.192C94.7306 145.979 94.7774 145.747 94.4508 145.622C94.1657 145.826 93.9631 146.133 93.7765 146.434C93.0803 147.552 92.3639 148.655 91.5333 149.675C91.2876 149.976 91.3043 150.37 91.071 150.664C89.9038 152.133 89.0911 153.872 87.6589 155.144C87.3878 155.384 87.1798 155.7 86.9628 155.996C86.5997 156.491 86.103 156.64 85.5355 156.525C84.793 156.373 84.055 156.191 83.3762 155.827C82.8259 155.531 82.693 155.11 83.0069 154.572C83.1734 154.285 83.4273 154.103 83.7269 153.972C84.0992 153.809 84.2628 153.488 84.3439 153.114C84.3992 152.862 84.2793 152.691 84.0768 152.561C83.8962 152.445 83.7644 152.54 83.615 152.646C82.7352 153.27 81.7647 153.746 80.8112 154.228C80.1504 154.563 79.3722 154.689 78.6316 154.835C78.2395 154.913 77.8514 154.732 77.6342 154.363C77.4706 154.085 77.6382 153.633 78.0543 153.36C78.5436 153.04 79.1069 152.83 79.5917 152.506C80.5594 151.857 81.6805 151.443 82.501 150.569C82.8805 150.166 83.2206 149.666 83.3675 149.172C82.8523 148.879 81.945 148.954 81.4847 149.377C80.2241 150.536 78.6864 151.112 77.0662 151.522C76.6159 151.637 76.1618 151.74 75.7047 151.823C74.5206 152.04 73.3204 151.895 72.128 151.968C71.7079 151.995 71.3068 151.819 70.9323 151.641C70.3717 151.375 70.3238 150.896 70.7844 150.472C70.9526 150.316 71.1537 150.235 71.3693 150.179C72.0056 150.016 72.6432 149.853 73.2808 149.69C73.3758 149.666 73.4716 149.615 73.565 149.621C75.3248 149.721 76.911 149.083 78.5251 148.517C79.5206 148.166 80.2142 147.44 80.9378 146.769C82.6498 145.183 83.6921 143.119 84.8451 141.13C85.8138 139.458 86.3641 137.64 86.9057 135.822C87.5143 133.787 88.0165 131.715 88.3636 129.613C88.457 129.045 88.7456 128.583 89.1074 128.127C89.5758 127.539 89.8703 126.817 90.4477 126.305C91.2902 125.558 92.178 124.887 93.1943 124.373C93.9867 123.973 94.8436 123.761 95.6376 123.38C95.681 123.359 95.7289 123.339 95.7764 123.334C97.019 123.208 98.1658 122.671 99.4152 122.526C100.674 122.38 101.924 122.148 103.189 122.067C105.141 121.942 107.102 121.933 109.048 122.058C111.405 122.209 113.766 122.404 116.093 122.873C117.411 123.14 118.757 123.273 120.064 123.579C121.939 124.02 123.842 124.386 125.623 125.157C125.855 125.257 126.098 125.265 126.332 125.331C129.043 126.094 131.66 127.12 134.172 128.373C136.113 129.341 138.038 130.364 139.704 131.793C140.316 132.317 140.53 132.833 140.247 133.218C140.002 133.552 139.346 133.582 138.757 133.245C136.805 132.124 134.796 131.106 132.766 130.144C131.227 129.416 129.619 128.819 128.002 128.262C126.012 127.576 124.007 126.937 121.968 126.423C120.054 125.94 118.144 125.433 116.174 125.193C114.504 124.989 112.847 124.68 111.178 124.469C110.431 124.375 109.667 124.413 108.913 124.376C107.104 124.285 105.294 124.271 103.487 124.355C102.441 124.404 101.4 124.608 100.355 124.725C98.7436 124.904 97.1867 125.3 95.6721 125.871C94.0262 126.492 92.5288 127.338 91.4947 128.82C90.6891 129.976 90.732 131.233 91.2793 132.447C91.8118 133.627 92.5813 134.678 93.4115 135.675C93.4586 135.73 93.5037 135.793 93.5625 135.833C94.1298 136.223 94.5988 136.717 95.0773 137.208C95.7308 137.879 96.5778 138.294 97.3482 138.807C98.0966 139.307 98.8687 139.77 99.6259 140.255C100.423 140.765 101.298 141.159 102.154 141.573C103.607 142.271 105.11 142.854 106.603 143.464C108.258 144.141 109.982 144.602 111.66 145.203C112.684 145.571 113.733 145.781 114.787 145.921C116.837 146.191 118.873 146.682 120.969 146.485C121.306 146.453 121.654 146.489 121.993 146.534C122.374 146.586 122.625 146.837 122.666 147.211C122.711 147.612 122.444 147.879 122.088 147.953C121.337 148.109 120.77 148.57 120.16 148.978C118.079 150.374 115.866 151.53 113.53 152.432C111.113 153.365 108.706 154.333 106.211 155.047C105.743 155.181 105.294 155.405 104.788 155.347C104.594 155.324 104.46 155.406 104.348 155.553C104.259 155.67 104.177 155.797 104.068 155.892C103.818 156.113 103.527 156.285 103.209 156.061C102.915 155.851 102.869 155.535 103.014 155.206C103.279 154.602 103.587 154.013 103.814 153.395C104.177 152.412 104.5 151.412 104.599 150.358C104.619 150.148 104.675 149.918 104.513 149.728L104.517 149.723ZM91.0835 142.142C91.0434 141.537 91.221 140.874 91.3308 140.202C91.3428 140.132 91.3204 140.056 91.3147 139.982C91.2953 139.724 91.2223 139.457 90.9542 139.403C90.6518 139.343 90.4671 139.564 90.3573 139.835C89.8557 141.08 89.3105 142.307 88.9393 143.604C88.4372 145.361 87.6208 146.96 86.4489 148.372C86.2945 148.559 86.1423 148.758 86.0393 148.975C85.8725 149.327 85.8592 149.765 86.1454 149.993C86.477 150.258 86.8136 150 87.0992 149.725C88.0272 148.835 88.7241 147.774 89.3223 146.656C90.0722 145.253 90.3978 143.675 91.0852 142.141L91.0835 142.142Z" fill="#FF6A00"/>
<path d="M142.849 45.4619C142.132 45.3851 141.383 45.1446 140.64 44.9234C139.825 44.6808 138.991 44.4761 138.195 44.1829C137.021 43.7513 135.765 43.6387 134.599 43.1863C133.711 42.8417 132.743 42.7473 131.882 42.304C131.626 42.1723 131.326 42.1161 131.039 42.0546C129.196 41.6584 127.413 41.039 125.589 40.5821C124.273 40.2515 122.958 39.8679 121.576 39.78C120.735 39.7261 119.926 39.2894 119.072 39.2503C117.835 39.1936 116.624 38.7756 115.363 39.002C114.403 39.1752 113.596 39.5652 113.074 40.4239C112.872 40.7568 112.57 41.0141 112.425 41.3939C112.069 42.3216 112.349 43.194 112.698 44.0175C113.038 44.8212 113.48 45.5854 114.109 46.2348C114.437 46.5732 114.793 46.8655 115.172 47.1181C116.842 48.2292 118.572 49.2453 120.387 50.1017C121.094 50.4366 121.884 50.5462 122.611 50.848C124.53 51.6441 126.553 52.135 128.523 52.7762C129.532 53.1046 130.606 53.2907 131.632 53.6137C133.258 54.1236 134.882 54.6415 136.536 55.0615C137.249 55.2421 137.997 55.2731 138.682 55.5453C140.96 56.4486 143.4 56.7836 145.716 57.541C147.326 58.0677 148.993 58.3183 150.62 58.7476C150.996 58.8466 151.358 59.0079 151.719 59.156C151.97 59.2586 152.224 59.3244 152.496 59.3553C153.365 59.4538 154.102 60.1089 154.321 60.9459C154.431 61.3661 154.082 61.8128 153.608 61.8552C153.136 61.8966 152.677 61.7646 152.229 61.6691C150.508 61.3014 148.766 61.0446 147.062 60.5638C145.398 60.0934 143.73 59.6261 142.038 59.2468C141.045 59.0242 140.089 58.6133 139.071 58.4379C137.383 58.1464 135.75 57.6635 134.137 57.0769C132.921 56.6342 131.656 56.3259 130.413 55.9533C129.641 55.7218 128.868 55.4947 128.101 55.2447C127.007 54.8869 125.886 54.6338 124.772 54.3524C124.254 54.2217 123.756 54.0032 123.254 53.8067C121.842 53.2532 120.447 52.6615 119.053 52.0628C117.638 51.4564 116.228 50.8429 114.85 50.1552C112.595 49.0279 110.556 47.6066 108.981 45.611C108.406 44.8809 108.101 43.9853 107.729 43.1306C107.359 42.2807 107.268 41.4032 107.467 40.5535C107.984 38.3538 109.323 36.0309 112.3 35.7453C113.684 35.6129 115.007 35.78 116.353 36.0544C117.887 36.3671 119.398 36.7997 120.934 37.0738C122.401 37.3364 123.838 37.72 125.297 38.0092C126.199 38.1891 127.081 38.4946 127.947 38.8085C128.797 39.1159 129.687 39.2652 130.548 39.5369C131.73 39.909 132.93 40.2372 134.101 40.6522C134.587 40.8239 135.095 40.8998 135.591 41.0239C136.845 41.3379 138.093 41.6946 139.319 42.1098C139.922 42.3132 140.535 42.4527 141.144 42.6147C142.206 42.898 143.255 43.2294 144.298 43.5737C144.83 43.7486 145.403 43.7946 145.886 44.1213C146.111 44.2739 146.337 44.4181 146.515 44.6205C146.778 44.9184 146.882 45.243 146.695 45.6322C146.515 46.009 146.224 46.1814 145.815 46.168C145.077 46.1428 144.359 46.0053 143.662 45.7615C143.409 45.6725 143.157 45.5769 142.844 45.4616L142.849 45.4619Z" fill="#FFAA85"/>
<path d="M115.165 144.004C113.961 143.684 112.738 143.447 111.528 143.153C110.205 142.832 108.88 142.474 107.626 141.942C106.338 141.394 104.981 141.067 103.682 140.571C102.496 140.119 101.383 139.503 100.287 138.863C100.055 138.726 99.8551 138.522 99.6113 138.424C98.1312 137.834 97.0869 136.677 95.9966 135.604C94.8673 134.492 94.0438 133.169 93.7874 131.559C93.7647 131.416 93.74 131.264 93.7626 131.124C94.0161 129.599 94.6821 128.408 96.1411 127.653C97.4317 126.986 98.8122 126.728 100.186 126.39C101.767 126.001 103.386 125.894 104.992 125.883C106.476 125.874 107.975 125.9 109.449 126.184C109.617 126.216 109.788 126.255 109.958 126.253C111.896 126.238 113.784 126.643 115.691 126.898C117.933 127.198 120.084 127.85 122.254 128.42C123.855 128.841 125.453 129.328 126.995 129.92C128.52 130.505 130.113 130.957 131.551 131.739C133.206 132.639 134.983 133.28 136.62 134.215C137.205 134.55 137.445 135.012 137.542 135.616C137.607 136.03 137.459 136.296 137.047 136.376C136.387 136.502 135.719 136.499 135.127 136.125C134.257 135.577 133.352 135.095 132.408 134.693C131.126 134.149 129.905 133.474 128.609 132.96C127.181 132.394 125.763 131.775 124.285 131.384C122.872 131.01 121.514 130.461 120.058 130.209C119.112 130.045 118.202 129.623 117.242 129.434C115.539 129.098 113.827 128.825 112.101 128.618C110.182 128.387 108.256 128.259 106.33 128.13C104.909 128.035 103.495 128.127 102.094 128.356C101.034 128.529 99.9622 128.624 98.9209 128.929C98.148 129.154 97.4958 129.593 96.8562 130.017C96.0195 130.573 95.9673 131.511 96.5338 132.418C97.51 133.983 98.8202 135.196 100.351 136.202C102.047 137.318 103.817 138.254 105.763 138.889C106.76 139.215 107.784 139.479 108.755 139.867C110.328 140.497 111.979 140.839 113.603 141.26C115.49 141.75 117.404 142.162 119.327 142.529C121.397 142.926 123.464 143.286 125.563 143.469C125.925 143.5 126.28 143.618 126.643 143.669C126.966 143.716 127.216 143.832 127.255 144.185C127.296 144.551 127.202 144.875 126.855 145.061C126.48 145.261 126.063 145.308 125.649 145.353C124.135 145.514 122.619 145.53 121.118 145.255C119.365 144.933 117.619 144.563 115.871 144.208C115.631 144.159 115.401 144.073 115.167 144.004L115.165 144.004Z" fill="#FF6A00"/>
<path d="M129.44 46.9177C127.359 46.2005 125.096 45.7545 122.878 45.1472C122.784 45.1208 122.688 45.0971 122.593 45.0777C122.3 45.0204 122.031 45.0581 121.949 45.3902C121.868 45.7183 122.154 45.8196 122.377 45.8865C124.461 46.5092 126.495 47.2859 128.552 47.983C129.989 48.469 131.437 48.9004 132.896 49.2946C134 49.5934 135.056 50.0366 136.193 50.2467C136.827 50.364 137.436 50.6727 138.057 50.8885C139.12 51.2571 140.206 51.5434 141.27 51.9067C142.926 52.4711 144.618 52.9585 146.326 53.3713C148.062 53.7924 149.782 54.2836 151.466 54.8868C151.74 54.9847 152 55.1347 152.245 55.2918C152.779 55.6347 152.957 55.9465 152.798 56.3655C152.527 57.0746 152.48 57.2006 151.731 57.2875C151.564 57.3075 151.369 57.3254 151.224 57.2623C150.437 56.9215 149.564 56.8451 148.795 56.4603C148.351 56.2377 147.863 56.1475 147.388 56.0454C145.355 55.6061 143.388 54.9285 141.378 54.4053C139.768 53.9867 138.206 53.3936 136.563 53.0979C136.008 52.9983 135.47 52.8026 134.956 52.6083C133.514 52.0616 131.988 51.8208 130.535 51.2969C129.474 50.9142 128.379 50.5376 127.256 50.2968C126.734 50.1851 126.239 49.949 125.724 49.7932C124.064 49.2907 122.412 48.7489 120.821 48.0749C119.893 47.6809 118.924 47.2735 118.165 46.5457C117.987 46.3752 117.764 46.2694 117.553 46.1465C116.783 45.6983 116.369 44.6118 116.611 43.7934C116.815 43.105 117.292 42.7031 117.96 42.5925C119.32 42.3665 120.711 42.3197 122.039 42.6713C123.983 43.1838 125.971 43.4177 127.934 43.8004C128.895 43.9874 129.84 44.2307 130.791 44.4557C132.578 44.8784 134.352 45.3423 136.11 45.8707C138.216 46.5043 140.365 46.9718 142.508 47.4676C143.461 47.6886 144.423 47.9067 145.336 48.2487C146.551 48.7024 147.835 48.8998 149.047 49.3628C149.929 49.6998 150.39 50.3906 150.18 51.2889C150.075 51.7369 149.846 51.9045 149.394 51.8309C149.13 51.7879 148.867 51.719 148.61 51.6406C145.964 50.8324 143.241 50.3649 140.534 49.8245C140.319 49.7815 140.107 49.719 139.894 49.6623C138.028 49.1698 136.176 48.6067 134.29 48.205C132.681 47.8631 131.131 47.3255 129.437 46.9182L129.44 46.9177Z" fill="#FFAA85"/>
<path d="M113.558 139.475C112.119 138.92 110.586 138.701 109.124 138.222C107.283 137.62 105.488 136.919 103.794 135.977C103.39 135.752 102.966 135.562 102.558 135.351C101.769 134.943 101.211 134.305 100.6 133.716C99.4596 132.618 99.8758 130.761 101.382 130.18C102.237 129.85 103.148 129.728 104.049 129.763C106.223 129.844 108.399 129.695 110.567 129.872C111.927 129.984 113.274 130.196 114.618 130.478C115.93 130.753 117.226 131.102 118.549 131.341C119.455 131.505 120.325 131.861 121.212 132.131C123.53 132.837 125.811 133.657 128.011 134.669C129.333 135.277 130.686 135.873 131.814 136.837C132.37 137.31 132.915 137.796 133.476 138.262C133.888 138.606 133.851 139.477 133.502 139.865C132.978 140.447 132.383 140.892 131.666 141.244C130.805 141.667 129.923 141.859 128.988 141.919C127.592 142.007 126.194 141.905 124.816 141.754C122.903 141.544 121.004 141.171 119.116 140.767C117.827 140.492 116.555 140.134 115.243 139.967C114.658 139.893 114.105 139.684 113.557 139.472L113.558 139.475ZM102.252 132.04C102.296 132.328 102.477 132.464 102.643 132.605C103.446 133.291 104.374 133.793 105.314 134.241C106.213 134.67 107.151 135.045 108.094 135.367C110.096 136.051 112.127 136.646 114.146 137.283C115.243 137.628 116.38 137.791 117.498 138.038C120.571 138.716 123.634 139.431 126.795 139.56C126.94 139.566 127.09 139.59 127.226 139.639C127.608 139.776 127.993 139.753 128.386 139.716C129.048 139.651 129.676 139.438 130.323 139.305C130.487 139.271 130.661 139.214 130.688 138.993C130.58 138.69 130.308 138.564 130.053 138.425C129.281 138.004 128.492 137.612 127.716 137.202C125.63 136.103 123.381 135.429 121.202 134.572C120.317 134.224 119.399 133.993 118.479 133.747C117.375 133.451 116.264 133.172 115.153 132.906C114.183 132.674 113.216 132.439 112.211 132.319C110.759 132.148 109.316 131.879 107.853 131.776C106.291 131.667 104.725 131.693 103.159 131.732C102.839 131.74 102.523 131.765 102.249 132.039L102.252 132.04Z" fill="#FF6A00"/>
<path d="M119.496 137.099C117.541 136.696 115.651 136.097 113.704 135.712C112.795 135.533 111.909 135.232 111.045 134.873C110.252 134.545 109.416 134.354 108.576 134.184C108.12 134.092 107.656 134.018 107.267 133.736C107.088 133.607 106.894 133.451 106.967 133.197C107.04 132.95 107.271 132.9 107.5 132.885C107.993 132.851 108.479 132.901 108.956 133.03C110.589 133.471 112.272 133.649 113.936 133.909C114.91 134.061 115.828 134.367 116.774 134.592C117.819 134.84 118.903 134.924 119.909 135.343C121.191 135.877 122.576 136.143 123.778 136.889C124.148 137.117 124.589 137.227 124.992 137.404C125.233 137.511 125.42 137.689 125.318 137.978C125.216 138.267 124.953 138.303 124.707 138.213C123.014 137.596 121.134 137.894 119.496 137.099Z" fill="#FF6A00"/>
<path d="M31.6481 58.8486C32.6514 55.4359 44.4331 41.8445 50.0432 36.6347L41.3903 27.6025C38.6168 28.2084 32.6142 29.5828 30.7916 30.2334C28.5133 31.0467 15.2772 52.7381 15.1768 53.0793C15.0966 53.3523 17.0238 54.3638 17.9974 54.8354L29.5808 60.8361C29.9355 61.3112 30.8455 61.5787 31.6481 58.8486Z" fill="#122315"/>
</g>
<path d="M17.2014 98.217L16.5366 95.3635L24.3689 93.5417L24.7773 95.3089L18.4885 96.7699L25.1646 96.9866L25.4931 98.3939L19.7604 101.425L25.8701 100.006L26.2823 101.771L18.45 103.593L17.7803 100.718L22.4149 98.3302L17.1979 98.2091L17.2014 98.217Z" fill="#EFE9E0"/>
<path d="M23.8322 87.4056L22.3689 87.9472L22.6058 90.7272L24.1391 91.011L24.3068 92.9887L16.0693 90.9521L15.8868 88.8351L23.6589 85.4257L23.8265 87.4034L23.8322 87.4056ZM20.9807 90.4276L20.8157 88.5194L17.4078 89.7693L20.9785 90.4332L20.9807 90.4276Z" fill="#EFE9E0"/>
<path d="M19.3571 81.4123C19.9629 79.6183 21.5678 78.6749 23.9184 78.8171L23.8532 80.6627C21.9045 80.5351 20.7386 81.3118 20.4979 82.9107L23.7683 83.0256L23.7028 84.8385L15.6701 84.556L15.7356 82.743L18.6522 82.8456L15.8157 80.5283L15.8866 78.4729L19.3571 81.4123Z" fill="#EFE9E0"/>
<path d="M18.3739 72.133L17.9503 75.1216L19.4618 75.3351L19.8075 72.913L21.3898 73.1374L21.0441 75.5596L22.6819 75.7924L23.1055 72.8038L24.7183 73.0335L24.0392 77.8206L16.0819 76.6903L16.761 71.9033L18.3739 72.133Z" fill="#EFE9E0"/>
<path d="M24.902 63.4162C26.2017 63.7991 26.759 65.0859 26.3005 66.6498L25.459 69.5134L17.7461 67.2485L18.5198 64.6033C18.9557 63.1154 20.0949 62.3741 21.3605 62.7439C22.1872 62.9839 22.6658 63.5951 22.6446 64.3528C23.0859 63.5026 23.9255 63.125 24.8946 63.4101L24.902 63.4162ZM19.6782 65.9292L21.3884 66.431L21.5755 65.7925C21.749 65.1977 21.5181 64.6884 21.0203 64.5424C20.5128 64.3959 20.0406 64.6998 19.867 65.2946L19.6799 65.9331L19.6782 65.9292ZM24.7994 66.5446C24.9909 65.8948 24.7355 65.3304 24.1883 65.1687C23.6372 65.0087 23.1287 65.3475 22.9385 66.0108L22.7033 66.8166L24.5655 67.3639L24.8051 66.5468L24.7994 66.5446Z" fill="#EFE9E0"/>
<path d="M24.6117 61.9162L19.9975 59.9413L20.7111 58.2735L25.3253 60.2484C26.2018 60.6217 26.9326 60.3489 27.2734 59.548C27.6182 58.7453 27.314 58.0285 26.4319 57.6531L21.8177 55.6782L22.5313 54.0104L27.1455 55.9853C28.9718 56.7698 29.5767 58.365 28.7879 60.2026C27.9991 62.0403 26.4301 62.7042 24.6038 61.9197L24.6117 61.9162Z" fill="#EFE9E0"/>
<path d="M30.1363 55.881L28.3607 54.8716C29.1185 54.7233 29.8008 54.2885 30.1084 53.7518C30.3807 53.2732 30.2782 52.7775 29.8576 52.5406C28.6882 51.8786 27.4279 54.3822 25.4082 53.2365C24.1921 52.5435 23.8566 51.2476 24.5684 49.9995C24.8594 49.489 25.256 49.1105 25.813 48.8066L27.3803 49.6967C26.7867 49.8333 26.3594 50.1218 26.1209 50.5384C25.884 50.959 25.9665 51.3883 26.3193 51.5893C27.346 52.1735 28.6246 49.6901 30.753 50.9004C32.1006 51.6669 32.433 53.0301 31.612 54.4772C31.2559 55.1061 30.7823 55.5658 30.138 55.8849L30.1363 55.881Z" fill="#EFE9E0"/>
<path d="M33.4711 51.0925L26.7952 46.6162L27.8058 45.1084L34.4817 49.5847L33.4711 51.0925Z" fill="#EFE9E0"/>
<path d="M32.0796 39.5279L33.226 38.1245L39.4545 43.2043L38.3242 44.5911L32.6584 43.9258L36.3861 46.9674L35.2397 48.3708L29.0112 43.2911L30.2026 41.83L35.9152 42.6535L32.0835 39.5262L32.0796 39.5279Z" fill="#EFE9E0"/>
<path d="M39.4598 34.2421L37.2899 36.3402L38.3509 37.4363L40.1097 35.7373L41.2183 36.8876L39.4595 38.5865L40.6087 39.7752L42.7786 37.6772L43.9113 38.8498L40.4377 42.2092L34.8497 36.4308L38.3232 33.0713L39.4559 34.2439L39.4598 34.2421Z" fill="#EFE9E0"/>
<path d="M44.5306 37.7326L43.2557 36.1337C44.0156 36.2763 44.8079 36.1315 45.2937 35.7416C45.7253 35.3993 45.8154 34.9028 45.515 34.5232C44.6771 33.4738 42.5724 35.3264 41.1263 33.5118C40.254 32.4166 40.4304 31.0863 41.5535 30.1921C42.0131 29.828 42.525 29.6242 43.1544 29.547L44.2799 30.958C43.6777 30.8631 43.1758 30.973 42.7962 31.2734C42.4166 31.5738 42.3352 32.0053 42.5885 32.3211C43.3241 33.2464 45.4394 31.4174 46.9618 33.3299C47.9289 34.543 47.7285 35.9358 46.4276 36.9701C45.8601 37.4198 45.2517 37.6712 44.5327 37.7269L44.5306 37.7326Z" fill="#EFE9E0"/>
<path d="M48.9883 34.2525L47.8667 32.5431C48.61 32.7543 49.4145 32.6794 49.9326 32.341C50.3913 32.0385 50.529 31.5537 50.2644 31.1488C49.5262 30.027 47.2612 31.6778 45.9903 29.7382C45.2215 28.5689 45.5162 27.2613 46.7193 26.4728C47.2076 26.1524 47.7366 25.9975 48.3729 25.9784L49.3631 27.4873C48.7709 27.3408 48.2599 27.3983 47.8606 27.665C47.4557 27.9296 47.3381 28.3537 47.5577 28.6891C48.2077 29.6759 50.4753 28.0523 51.8165 30.0971C52.6661 31.3953 52.3399 32.7592 50.9482 33.6738C50.3427 34.0698 49.7137 34.2644 48.994 34.2546L48.9883 34.2525Z" fill="#EFE9E0"/>
<path d="M60.4663 23.9145C61.4719 26.0941 60.6372 28.2628 58.3867 29.3L56.038 30.3807L52.6704 23.0843L55.0152 22.0053C57.2696 20.9664 59.4584 21.7405 60.4623 23.9162L60.4663 23.9145ZM57.6307 27.8519C58.9035 27.2631 59.3642 25.9901 58.7666 24.6976C58.1691 23.4051 56.9026 22.9273 55.6298 23.5162L55.0043 23.8034L57.0052 28.1391L57.6307 27.8519Z" fill="#EFE9E0"/>
<path d="M61.4955 23.4654C60.7908 21.1473 62.002 18.9573 64.3533 18.2426C66.718 17.5265 68.9259 18.6827 69.6289 20.9968C70.3337 23.3149 69.1359 25.5035 66.7712 26.2196C64.4182 26.9305 62.1985 25.7795 61.4955 23.4654ZM67.8342 21.5445C67.4262 20.1913 66.1711 19.5061 64.8512 19.9041C63.5447 20.3008 62.884 21.5685 63.292 22.9216C63.7039 24.2731 64.9551 24.96 66.2615 24.5633C67.5815 24.1654 68.2404 22.8937 67.8302 21.5462L67.8342 21.5445Z" fill="#EFE9E0"/>
<path d="M76.7684 19.2527L80.135 18.8636L80.5633 22.594C79.8743 23.3424 78.9714 23.8423 77.8428 23.9717C75.3668 24.2571 73.4425 22.7113 73.1671 20.3109C72.8886 17.8929 74.4479 15.9673 76.889 15.688C77.5297 15.6152 78.0761 15.6691 78.577 15.8749L78.7983 17.8146C78.2394 17.4886 77.7162 17.3492 77.1336 17.415C75.732 17.5762 74.8765 18.6809 75.0386 20.1057C75.202 21.5439 76.3028 22.4435 77.6965 22.2858C78.0857 22.24 78.4268 22.1073 78.74 21.9118L78.5915 20.6128L76.9479 20.8015L76.7684 19.2527Z" fill="#EFE9E0"/>
<path d="M81.5525 19.3906C81.6112 16.9688 83.4452 15.2694 85.9015 15.3317C88.3674 15.3943 90.1034 17.1837 90.0447 19.6055C89.9859 22.0273 88.1616 23.7271 85.6957 23.6644C83.2394 23.6022 81.4938 21.8123 81.5543 19.3945L81.5525 19.3906ZM88.1732 19.5565C88.2089 18.1428 87.2362 17.0969 85.8569 17.0647C84.4912 17.0311 83.4654 18.028 83.4318 19.436C83.3961 20.8498 84.3689 21.8956 85.7346 21.9292C87.1099 21.9632 88.1357 20.9664 88.1732 19.5565Z" fill="#EFE9E0"/>
<path d="M91.1837 19.7134C91.601 17.3253 93.6664 15.9139 96.085 16.3364C98.5189 16.7616 99.9728 18.7846 99.5555 21.1726C99.1382 23.5607 97.0842 24.9765 94.6542 24.5496C92.2316 24.1288 90.7664 22.1014 91.1837 19.7134ZM97.7138 20.8516C97.9565 19.4588 97.1458 18.2798 95.7893 18.0445C94.4424 17.8096 93.2835 18.6443 93.0407 20.0371C92.798 21.4298 93.6087 22.6088 94.9538 22.8398C96.3103 23.0751 97.4692 22.2404 97.7138 20.8516Z" fill="#EFE9E0"/>
<path d="M107.444 23.6756C106.708 25.9604 104.629 26.9919 102.267 26.2292L99.8071 25.4389L102.273 17.7872L104.733 18.5775C107.094 19.3363 108.184 21.3889 107.448 23.6738L107.444 23.6756ZM102.687 24.6539C104.021 25.0827 105.223 24.4598 105.66 23.1029C106.098 21.7461 105.485 20.5357 104.151 20.1068L103.496 19.894L102.033 24.441L102.687 24.6539Z" fill="#EFE9E0"/>
</g>
<defs>
<clipPath id="clip0_9063_15885">
<rect width="168" height="168" fill="white"/>
</clipPath>
<clipPath id="clip1_9063_15885">
<rect width="149.398" height="149.398" fill="white" transform="translate(33.457 -8.46924) rotate(16.3827)"/>
</clipPath>
</defs>
</svg>
